<svg width="51" height="51" viewBox="0 0 51 51" fill="none" xmlns="http://www.w3.org/2000/svg">
<rect x="0.5" y="0.505859" width="50" height="50" rx="25" fill="#D17298"/>
<g clip-path="url(#clip0_0_2040)">
<path d="M32 13.5059H19C15.968 13.5059 13.5 15.9729 13.5 19.0059V27.0139C13.5 30.0459 15.968 32.5139 19 32.5139H24V34.5059H21C20.172 34.5059 19.5 35.1779 19.5 36.0059C19.5 36.8339 20.172 37.5059 21 37.5059H30C30.828 37.5059 31.5 36.8339 31.5 36.0059C31.5 35.1779 30.828 34.5059 30 34.5059H27V32.5139H32C35.032 32.5139 37.5 30.0459 37.5 27.0139V19.0059C37.5 15.9729 35.032 13.5059 32 13.5059ZM19 16.5059H32C33.379 16.5059 34.5 17.6279 34.5 19.0059V26.5059H16.5V19.0059C16.5 17.6279 17.621 16.5059 19 16.5059ZM20.716 25.5059C21.061 25.5059 21.357 25.2599 21.42 24.9209L21.586 24.0319H23.592L23.749 24.9149C23.81 25.2569 24.107 25.5059 24.454 25.5059H24.464C24.917 25.5059 25.257 25.0899 25.165 24.6459L23.944 18.6989C23.824 18.0309 23.355 17.5069 22.598 17.5069C21.841 17.5069 21.317 18.0929 21.213 18.6729L20.013 24.6489C19.924 25.0919 20.264 25.5059 20.716 25.5059ZM22.578 19.2109L23.216 22.5059H21.954L22.578 19.2109ZM27.3 25.5059H28.8C30.07 25.5059 31.1 24.4759 31.1 23.2059V19.8059C31.1 18.5359 30.07 17.5059 28.8 17.5059H27.3C26.858 17.5059 26.5 17.8639 26.5 18.3059V24.7059C26.5 25.1479 26.858 25.5059 27.3 25.5059ZM28.1 19.1039H28.8C29.186 19.1039 29.5 19.4179 29.5 19.8039V23.2059C29.5 23.5919 29.186 23.9059 28.8 23.9059H28.1V19.1039Z" fill="white"/>
</g>
<defs>
<clipPath id="clip0_0_2040">
<rect width="24" height="24" fill="white" transform="translate(13.5 13.5059)"/>
</clipPath>
</defs>
</svg>
