<svg width="51" height="51" viewBox="0 0 51 51" fill="none" xmlns="http://www.w3.org/2000/svg">
<rect x="0.5" y="0.505859" width="50" height="50" rx="25" fill="#EFC951"/>
<g clip-path="url(#clip0_0_2066)">
<path d="M35.55 15.5059C35.55 12.7434 33.3125 10.5059 30.55 10.5059C27.7875 10.5059 25.55 12.7434 25.55 15.5059C25.55 16.7934 26.0375 17.9684 26.8375 18.8559L18.875 26.8184C17.9875 26.0059 16.8 25.5059 15.5 25.5059C12.7375 25.5059 10.5 27.7434 10.5 30.5059C10.5 33.2684 12.7125 35.4809 15.45 35.5059C15.45 38.2684 17.6875 40.5059 20.45 40.5059C23.2125 40.5059 25.45 38.2684 25.45 35.5059C25.45 34.2184 24.9625 33.0434 24.1625 32.1559L32.125 24.1934C33.0125 25.0059 34.2 25.5059 35.5 25.5059C38.2625 25.5059 40.5 23.2684 40.5 20.5059C40.5 17.7434 38.2875 15.5309 35.55 15.5059Z" fill="white"/>
</g>
<defs>
<clipPath id="clip0_0_2066">
<rect width="30" height="30" fill="white" transform="translate(10.5 10.5059)"/>
</clipPath>
</defs>
</svg>
