<svg width="51" height="51" viewBox="0 0 51 51" fill="none" xmlns="http://www.w3.org/2000/svg">
<rect x="0.5" y="0.505859" width="50" height="50" rx="25" fill="#89CFD6"/>
<path d="M36.583 23.9222H27.083V14.4222C27.083 14.0023 26.9162 13.5995 26.6193 13.3026C26.3223 13.0057 25.9196 12.8389 25.4997 12.8389C25.0797 12.8389 24.677 13.0057 24.3801 13.3026C24.0832 13.5995 23.9163 14.0023 23.9163 14.4222V23.9222H14.4163C13.9964 23.9222 13.5937 24.089 13.2968 24.3859C12.9998 24.6829 12.833 25.0856 12.833 25.5055C12.833 25.9255 12.9998 26.3282 13.2968 26.6251C13.5937 26.9221 13.9964 27.0889 14.4163 27.0889H23.9163V36.5889C23.9163 37.0088 24.0832 37.4115 24.3801 37.7085C24.677 38.0054 25.0797 38.1722 25.4997 38.1722C25.9196 38.1722 26.3223 38.0054 26.6193 37.7085C26.9162 37.4115 27.083 37.0088 27.083 36.5889V27.0889H36.583C37.0029 27.0889 37.4057 26.9221 37.7026 26.6251C37.9995 26.3282 38.1663 25.9255 38.1663 25.5055C38.1663 25.0856 37.9995 24.6829 37.7026 24.3859C37.4057 24.089 37.0029 23.9222 36.583 23.9222Z" fill="white"/>
</svg>
