<svg width="51" height="51" viewBox="0 0 51 51" fill="none" xmlns="http://www.w3.org/2000/svg">
<rect x="0.5" y="0.505859" width="50" height="50" rx="25" fill="#B699CA"/>
<path d="M34.957 39.4948C34.0848 40.1001 32.9647 40.3743 31.5315 40.3344C30.5961 40.3077 29.6544 40.1604 28.7312 39.8959C26.6173 39.2902 24.3829 39.2902 22.2691 39.8959C21.3459 40.1604 20.4037 40.3077 19.4688 40.3344C19.3769 40.3369 19.286 40.3383 19.1965 40.3383C17.8931 40.3383 16.8595 40.0612 16.0433 39.4948C14.5503 38.4583 13.8074 36.2735 14.316 34.412C14.7706 32.7483 15.9952 31.6136 17.1795 30.5163C17.3394 30.368 17.5052 30.2149 17.6637 30.0647C18.8651 28.9261 19.9624 27.6426 20.9249 26.2508C21.047 26.0747 21.1695 25.8925 21.2881 25.716C21.7437 25.0393 22.2147 24.3397 22.7933 23.7465L22.8151 23.7241C23.5235 23.0056 24.4768 22.6099 25.5002 22.6099C26.0121 22.6099 26.5061 22.7086 26.9611 22.8977C27.4157 23.0863 27.8314 23.3649 28.1853 23.7242L28.2072 23.7466C28.7857 24.3397 29.2568 25.0393 29.7123 25.7165C29.831 25.8925 29.9535 26.0748 30.0755 26.2508C31.0381 27.6432 32.1354 28.9262 33.3367 30.0648C33.4952 30.215 33.6609 30.3681 33.8209 30.5164C35.0052 31.6137 36.2299 32.7483 36.6845 34.412C37.1928 36.2735 36.4499 38.4583 34.957 39.4948Z" fill="white"/>
<path d="M40.711 24.821C40.0668 26.1361 39.1801 27.0438 38.1469 27.4444C37.7371 27.6039 37.3112 27.6831 36.8785 27.6831C36.2961 27.6831 35.701 27.5387 35.1152 27.2518C34.1078 26.7588 33.5118 26.0204 33.3436 25.0568C33.1773 24.1039 33.4257 22.9687 34.103 21.5861C34.7885 20.1854 35.6378 19.0935 36.5596 18.4285C37.6068 17.6725 38.6739 17.5242 39.6448 17.9992C40.6176 18.4756 41.2569 19.4644 41.4446 20.7839C41.625 22.0518 41.3644 23.486 40.711 24.821Z" fill="white"/>
<path d="M34.3601 17.2135C34.2118 18.7999 33.661 20.0634 32.7659 20.868C32.0396 21.5214 31.1183 21.8598 30.0804 21.8598C29.9277 21.8598 29.7731 21.8525 29.6161 21.8379C28.406 21.7252 27.5187 21.2064 26.9791 20.2958C26.4438 19.3921 26.2596 18.1416 26.4152 16.4722C26.4939 15.6258 26.6446 14.8426 26.8605 14.1415C27.0763 13.4405 27.3578 12.8221 27.6986 12.3062C28.4697 11.138 29.4926 10.5784 30.6565 10.6868C31.8247 10.7957 32.8525 11.5531 33.5501 12.8196C34.223 14.0408 34.5103 15.6014 34.3601 17.2135Z" fill="white"/>
<path d="M16.8975 21.5866C17.5742 22.9687 17.8227 24.1039 17.6564 25.0568C17.4882 26.0204 16.8922 26.7588 15.8848 27.2518C15.2995 27.5387 14.704 27.6831 14.1215 27.6831C13.6888 27.6831 13.2634 27.6038 12.8531 27.4444C11.82 27.0438 10.9332 26.1361 10.2891 24.821C9.63568 23.486 9.37507 22.0518 9.55545 20.7839C9.74312 19.4644 10.3824 18.4756 11.3552 17.9992C12.3261 17.5242 13.3932 17.6725 14.4404 18.4285C15.3622 19.0935 16.2115 20.1854 16.8975 21.5866Z" fill="white"/>
<path d="M24.5846 16.472C24.6202 16.8526 24.6381 17.2114 24.6381 17.5498C24.6381 18.6937 24.4339 19.598 24.0207 20.2956C23.4811 21.2062 22.5938 21.725 21.3837 21.8377C21.2267 21.8523 21.0721 21.8596 20.9194 21.8596C19.8815 21.8596 18.9602 21.5212 18.2339 20.8678C17.3388 20.0632 16.788 18.7997 16.6397 17.2133C16.4895 15.6012 16.7768 14.0406 17.4497 12.8194C18.1473 11.5529 19.1751 10.7955 20.3433 10.6866C21.5072 10.5782 22.5301 11.1377 23.3012 12.306C23.9828 13.3382 24.4266 14.7792 24.5846 16.472Z" fill="white"/>
</svg>
