<svg width="88" height="84" viewBox="0 0 88 84" fill="none" xmlns="http://www.w3.org/2000/svg">
<g opacity="0.36">
<path d="M72.6875 67.1829C71.1051 69.006 68.7906 70.2386 65.61 70.9548C63.5337 71.4205 61.3759 71.6243 59.1931 71.5594C54.1951 71.4103 49.2712 72.6638 44.9529 75.1845C43.0668 76.2852 41.0732 77.1384 39.028 77.7217C38.8269 77.7787 38.6274 77.8328 38.4302 77.883C35.5579 78.6142 33.1248 78.5834 31.0084 77.7931C27.1368 76.3466 24.2742 71.9488 24.3506 67.5614C24.4191 63.6403 26.4811 60.4527 28.4754 57.3703C28.7447 56.9538 29.0241 56.5234 29.2892 56.1034C31.2977 52.9204 32.9957 49.4766 34.3361 45.8693C34.5063 45.413 34.674 44.9426 34.8364 44.4872C35.4607 42.7403 36.1063 40.9345 37.0485 39.3028L37.0841 39.2412C38.2419 37.2604 40.1208 35.8535 42.376 35.2794C43.5041 34.9923 44.6479 34.9326 45.7568 35.0942C46.8644 35.2548 47.9366 35.6355 48.9181 36.2288L48.9788 36.2658C50.5865 37.2482 52.017 38.5257 53.4008 39.7625C53.761 40.0838 54.1331 40.4167 54.5008 40.7361C57.4031 43.2645 60.5409 45.4761 63.8269 47.3113C64.2604 47.5534 64.7116 47.7979 65.1474 48.0349C68.3726 49.7886 71.7079 51.602 73.643 55.0132C75.8074 58.8299 75.396 64.0612 72.6875 67.1829Z" fill="#B699CA"/>
<path d="M77.1348 31.6187C76.453 34.878 75.0081 37.3757 72.9562 38.838C72.1425 39.4194 71.2485 39.8328 70.2949 40.0756C69.0115 40.4023 67.6191 40.418 66.1672 40.1145C63.6708 39.5932 61.9432 38.3003 61.0319 36.2712C60.131 34.2647 60.0416 31.6237 60.7583 28.197C61.4832 24.7259 62.7423 21.8432 64.4005 19.8606C66.284 17.6072 68.5525 16.6817 70.9584 17.1838C73.3694 17.688 75.3329 19.5084 76.4867 22.3107C77.5955 25.0037 77.8257 28.3102 77.1348 31.6187Z" fill="#B699CA"/>
<path d="M58.8726 18.4172C59.4357 21.9962 58.9307 25.0895 57.4098 27.3648C56.1757 29.2121 54.3354 30.4746 52.0481 31.0569C51.7116 31.1425 51.3669 31.2132 51.0126 31.2691C48.2828 31.6994 46.0366 31.054 44.3366 29.3501C42.6501 27.6588 41.5426 25.0067 40.9489 21.2405C40.6476 19.3311 40.5404 17.5207 40.6227 15.8547C40.7051 14.1887 40.9786 12.6681 41.4402 11.3402C42.4839 8.33325 44.4242 6.52629 47.0498 6.11227C49.6853 5.69691 52.375 6.78945 54.6228 9.18897C56.7906 11.5025 58.2992 14.7803 58.8726 18.4172Z" fill="#B699CA"/>
<path d="M22.8449 37.8502C25.1115 40.5163 26.2958 42.8785 26.4639 45.0716C26.6338 47.2894 25.7346 49.251 23.7913 50.9025C22.6624 51.863 21.431 52.5152 20.1476 52.842C19.194 53.0847 18.2122 53.1487 17.2185 53.0275C14.7172 52.7243 12.2539 51.2216 10.0966 48.6849C7.90784 46.1096 6.52898 43.0953 6.21522 40.2001C5.88858 37.1872 6.74262 34.6494 8.61909 33.0539C10.4921 31.4625 12.9268 31.1907 15.6587 32.2691C18.063 33.2177 20.5471 35.1474 22.8449 37.8502Z" fill="#B699CA"/>
<path d="M36.9156 22.2674C37.2074 23.0863 37.4483 23.8669 37.6381 24.6125C38.2798 27.1333 38.3371 29.2406 37.8179 31.0098C37.1395 33.3191 35.4754 34.96 32.8721 35.8873C32.5342 36.0076 32.1976 36.1103 31.8612 36.196C29.5739 36.7783 27.3539 36.5494 25.3867 35.517C22.963 34.246 21.0404 31.7706 19.8237 28.358C18.5883 24.8898 18.3459 21.2895 19.1436 18.2209C19.9706 15.0388 21.8104 12.793 24.3238 11.8977C26.8277 11.0059 29.3957 11.6652 31.7503 13.807C33.8314 15.6992 35.6178 18.6257 36.9156 22.2674Z" fill="#B699CA"/>
</g>
</svg>
