<svg width="71" height="73" viewBox="0 0 71 73" fill="none" xmlns="http://www.w3.org/2000/svg">
<path d="M32.7101 72.465C30.3833 72.8075 28.219 71.1989 27.8761 68.8722C27.5334 66.5453 29.1421 64.3811 31.4689 64.0382L32.7101 72.465ZM63.8946 49.9493C65.9748 48.8515 68.5516 49.6476 69.6495 51.7277C70.7474 53.8078 69.9512 56.3846 67.8712 57.4825C60.8086 61.21 48.8703 70.0849 32.7101 72.465L31.4689 64.0382C45.7107 61.9407 55.3947 54.4355 63.8946 49.9493ZM51.7628 2.77355C52.7915 0.658369 55.341 -0.222966 57.4562 0.805781C59.571 1.83455 60.4514 4.38313 59.423 6.49816C56.4766 12.5561 51.0942 22.2709 44.4308 31.9318C37.8181 41.519 29.6942 51.4244 21.1993 57.5157L21.0177 57.6388C19.1225 58.8573 16.5838 58.3879 15.256 56.5363C13.8855 54.6249 14.3242 51.9645 16.2355 50.5939L16.9181 50.0939C23.9786 44.8167 31.1686 36.1579 37.419 27.0958C43.8201 17.8153 48.9894 8.47581 51.7628 2.77355ZM9.86924 14.5509C11.3063 12.8153 13.8681 12.4938 15.6944 13.8566C17.5206 15.2192 17.9418 17.7661 16.6876 19.6378L16.5606 19.8165C15.9624 20.6182 15.1847 22.1403 14.3214 24.3898C13.4873 26.563 12.6742 29.1438 11.919 31.8595C10.4091 37.2898 9.19679 43.0229 8.54795 46.6173C8.12996 48.9318 5.91427 50.4697 3.59971 50.0519C1.28514 49.634 -0.252676 47.4182 0.16514 45.1036C0.850493 41.3069 2.11871 35.3109 3.71299 29.5773C4.50994 26.7112 5.40446 23.8508 6.36924 21.337C7.30482 18.8995 8.41745 16.4878 9.73448 14.7228L9.86924 14.5509Z" fill="#EFC951" fill-opacity="0.38"/>
</svg>
