<svg width="74" height="72" viewBox="0 0 74 72" fill="none" xmlns="http://www.w3.org/2000/svg">
<g opacity="0.36">
<path d="M38.7956 65.1183C36.9763 65.2698 35.0725 64.715 32.9724 63.4234C31.6025 62.5794 30.3267 61.5504 29.1792 60.3627C26.5521 57.6431 23.2246 55.722 19.5558 54.8066C17.9536 54.4067 16.4238 53.816 15.0085 53.052C14.8696 52.9766 14.733 52.9006 14.5998 52.8237C12.6587 51.703 11.3577 50.4017 10.6292 48.8564C9.29693 46.0291 10.0691 42.1368 12.427 39.8018C14.5344 37.7152 17.3337 37.0783 20.0409 36.4624C20.4065 36.3791 20.7851 36.2936 21.1503 36.2062C23.9183 35.5435 26.6559 34.5756 29.2861 33.3304C29.6192 33.1732 29.9583 33.0071 30.2867 32.8463C31.547 32.2302 32.85 31.5934 34.2216 31.2075L34.2734 31.1929C35.9461 30.7319 37.7061 30.9623 39.2301 31.8422C39.9925 32.2823 40.6432 32.854 41.1582 33.5269C41.673 34.1986 42.0525 34.9709 42.2707 35.8102L42.284 35.8624C42.6356 37.2431 42.7356 38.69 42.8318 40.0902C42.8571 40.4543 42.8828 40.831 42.9132 41.1981C43.1495 44.0993 43.6805 46.9533 44.4906 49.6818C44.5974 50.0418 44.7127 50.4124 44.8234 50.7708C45.6436 53.4231 46.4918 56.1658 45.7383 59.0342C44.8949 62.2434 41.9102 64.8583 38.7956 65.1183Z" fill="#89CFD6"/>
<path d="M59.9815 48.2126C57.8915 49.6171 55.7905 50.2065 53.9075 49.9148C53.1601 49.7999 52.4577 49.5517 51.8133 49.1797C50.946 48.6789 50.1839 47.9522 49.5581 47.0213C48.4818 45.4211 48.2292 43.8089 48.8071 42.2293C49.3788 40.6673 50.7248 39.1903 52.9222 37.7136C55.1473 36.2171 57.351 35.3212 59.2955 35.1234C61.5049 34.8979 63.2217 35.5947 64.2591 37.1368C65.2982 38.6827 65.4 40.705 64.5451 42.8312C63.7235 44.8746 62.1023 46.7863 59.9815 48.2126Z" fill="#89CFD6"/>
<path d="M57.0644 31.4233C55.4796 33.6582 53.5729 35.0663 51.5482 35.495C49.9048 35.8435 48.2419 35.5553 46.6961 34.6629C46.4687 34.5316 46.2448 34.3879 46.0235 34.2311C44.3184 33.0228 43.4431 31.4874 43.4224 29.6674C43.4023 27.8612 44.203 25.8407 45.8701 23.4882C46.7151 22.2955 47.613 21.2587 48.5372 20.4003C49.4614 19.5419 50.4123 18.863 51.3633 18.3878C53.516 17.311 55.5205 17.3572 57.1605 18.5193C58.8067 19.686 59.686 21.6976 59.636 24.1835C59.5881 26.5806 58.6742 29.1516 57.0644 31.4233Z" fill="#89CFD6"/>
<path d="M27.2989 22.9211C27.1183 25.5613 26.5123 27.4655 25.4454 28.7415C24.3663 30.0319 22.8438 30.6191 20.9198 30.4872C19.8015 30.4111 18.7905 30.1141 17.9231 29.6133C17.2787 29.2413 16.7134 28.7575 16.2394 28.1673C15.0454 26.6824 14.5051 24.5683 14.6766 22.0559C14.8514 19.5061 15.6964 17.1462 17.0552 15.4131C18.4691 13.6095 20.2714 12.6865 22.1297 12.8135C23.9839 12.9409 25.4456 14.0792 26.3551 16.1054C27.1559 17.8884 27.482 20.2447 27.2989 22.9211Z" fill="#89CFD6"/>
<path d="M43.1443 21.914C42.8699 22.5114 42.5881 23.0611 42.2972 23.565C41.3136 25.2686 40.2321 26.4397 39.0168 27.1233C37.4303 28.0154 35.663 28.025 33.764 27.1526C33.5176 27.0393 33.2811 26.9172 33.0537 26.786C31.508 25.8935 30.427 24.5975 29.9071 22.9999C29.266 21.0321 29.5321 18.6769 30.6752 16.187C31.8376 13.657 33.6073 11.58 35.6593 10.3399C37.7871 9.05371 39.9689 8.80934 41.8023 9.6516C43.6288 10.4909 44.6709 12.2036 44.8148 14.6064C44.9424 16.7296 44.3644 19.2572 43.1443 21.914Z" fill="#89CFD6"/>
</g>
</svg>
