<svg width="88" height="84" viewBox="0 0 88 84" fill="none" xmlns="http://www.w3.org/2000/svg">
<g opacity="0.36">
<path d="M72.2672 67.8602C70.6848 69.6832 68.3702 70.9158 65.1896 71.632C63.1134 72.0978 60.9555 72.3016 58.7727 72.2366C53.7747 72.0876 48.8509 73.341 44.5325 75.8618C42.6465 76.9625 40.6529 77.8157 38.6077 78.399C38.4066 78.4559 38.207 78.51 38.0099 78.5602C35.1376 79.2914 32.7044 79.2606 30.588 78.4704C26.7165 77.0239 23.8538 72.626 23.9302 68.2386C23.9987 64.3175 26.0608 61.13 28.0551 58.0476C28.3243 57.6311 28.6038 57.2006 28.8688 56.7807C30.8774 53.5977 32.5754 50.1538 33.9158 46.5466C34.086 46.0902 34.2537 45.6199 34.4161 45.1644C35.0403 43.4176 35.6859 41.6117 36.6281 39.98L36.6638 39.9184C37.8216 37.9376 39.7005 36.5308 41.9556 35.9567C43.0837 35.6695 44.2276 35.6099 45.3364 35.7714C46.444 35.9321 47.5163 36.3128 48.4977 36.906L48.5585 36.9431C50.1661 37.9255 51.5967 39.203 52.9804 40.4397C53.3406 40.761 53.7128 41.094 54.0805 41.4134C56.9828 43.9417 60.1205 46.1534 63.4065 47.9885C63.84 48.2307 64.2913 48.4751 64.727 48.7121C67.9523 50.4658 71.2876 52.2792 73.2226 55.6904C75.3871 59.5071 74.9757 64.7384 72.2672 67.8602Z" fill="#B699CA"/>
<path d="M76.7144 32.2959C76.0326 35.5552 74.5878 38.0529 72.5358 39.5153C71.7222 40.0966 70.8281 40.5101 69.8746 40.7528C68.5911 41.0796 67.1988 41.0952 65.7469 40.7917C63.2505 40.2705 61.5228 38.9775 60.6115 36.9485C59.7107 34.942 59.6212 32.3009 60.338 28.8742C61.0628 25.4032 62.3219 22.5204 63.9801 20.5378C65.8637 18.2844 68.1322 17.359 70.5381 17.861C72.9491 18.3653 74.9126 20.1857 76.0663 22.988C77.1751 25.6809 77.4054 28.9875 76.7144 32.2959Z" fill="#B699CA"/>
<path d="M58.4522 19.0948C59.0154 22.6738 58.5104 25.7672 56.9894 28.0424C55.7554 29.8897 53.915 31.1522 51.6277 31.7345C51.2913 31.8201 50.9465 31.8908 50.5923 31.9467C47.8624 32.377 45.6163 31.7316 43.9163 30.0277C42.2297 28.3364 41.1223 25.6843 40.5285 21.9181C40.2272 20.0088 40.12 18.1983 40.2024 16.5323C40.2848 14.8664 40.5582 13.3457 41.0198 12.0178C42.0636 9.01086 44.0038 7.2039 46.6294 6.78988C49.2649 6.37452 51.9546 7.46706 54.2025 9.86658C56.3703 12.1801 57.8789 15.4579 58.4522 19.0948Z" fill="#B699CA"/>
<path d="M22.4245 38.5274C24.6912 41.1936 25.8755 43.5558 26.0436 45.7488C26.2134 47.9666 25.3143 49.9283 23.371 51.5798C22.2421 52.5402 21.0107 53.1925 19.7272 53.5192C18.7737 53.762 17.7918 53.8259 16.7982 53.7048C14.2969 53.4015 11.8335 51.8989 9.67625 49.3622C7.48749 46.7868 6.10863 43.7725 5.79487 40.8773C5.46823 37.8645 6.32227 35.3267 8.19874 33.7311C10.0718 32.1398 12.5065 31.8679 15.2383 32.9464C17.6426 33.8949 20.1268 35.8246 22.4245 38.5274Z" fill="#B699CA"/>
<path d="M36.4951 22.9449C36.7869 23.7638 37.0277 24.5444 37.2175 25.29C37.8592 27.8108 37.9165 29.9181 37.3973 31.6873C36.719 33.9966 35.0548 35.6374 32.4515 36.5648C32.1136 36.6851 31.777 36.7878 31.4406 36.8735C29.1533 37.4557 26.9333 37.2269 24.9661 36.1945C22.5424 34.9235 20.6198 32.4481 19.4031 29.0355C18.1677 25.5672 17.9254 21.967 18.723 18.8984C19.55 15.7163 21.3898 13.4705 23.9032 12.5751C26.4071 11.6833 28.9751 12.3427 31.3297 14.4845C33.4108 16.3767 35.1972 19.3032 36.4951 22.9449Z" fill="#B699CA"/>
</g>
</svg>
