<svg width="25" height="29" viewBox="0 0 25 29" fill="none" xmlns="http://www.w3.org/2000/svg">
<path fill-rule="evenodd" clip-rule="evenodd" d="M16.6439 5.42936C17.56 4.24692 18.2549 2.57452 18.0037 0.868164C16.5058 0.97236 14.7549 1.93061 13.7335 3.1792C12.8027 4.31131 12.0371 5.99483 12.3362 7.6286C13.9735 7.68011 15.6634 6.69845 16.6439 5.42936ZM24.7367 21.4831C24.0811 22.9436 23.7661 23.5963 22.922 24.89C21.7443 26.6958 20.0841 28.9443 18.0248 28.9606C16.1973 28.9805 15.7255 27.763 13.2441 27.7782C10.7627 27.7911 10.2458 28.9841 8.4148 28.9659C6.35664 28.9478 4.78376 26.9189 3.60599 25.113C0.312117 20.0671 -0.0350071 14.1443 1.99623 10.9939C3.44209 8.75719 5.72152 7.44831 7.8628 7.44831C10.0421 7.44831 11.4131 8.65124 13.2183 8.65124C14.9686 8.65124 16.034 7.44538 18.5552 7.44538C20.4635 7.44538 22.4853 8.49085 23.9236 10.295C19.2073 12.8958 19.9712 19.6708 24.7367 21.4831Z" fill="#0B0B0A"/>
</svg>
