<svg width="8" height="17" viewBox="0 0 8 17" fill="none" xmlns="http://www.w3.org/2000/svg">
<path d="M7.64471 0.645068C7.75733 0.777635 7.84669 0.9351 7.90765 1.10845C7.96862 1.2818 8 1.46763 8 1.6553C8 1.84297 7.96862 2.0288 7.90765 2.20214C7.84669 2.37549 7.75733 2.53296 7.64471 2.66553L2.93089 8.22537L7.64471 13.7852C7.87187 14.0531 7.99949 14.4165 7.99949 14.7954C7.99949 15.1743 7.87187 15.5377 7.64471 15.8057C7.41755 16.0736 7.10945 16.2241 6.7882 16.2241C6.46695 16.2241 6.15886 16.0736 5.9317 15.8057L0.35529 9.22843C0.242664 9.09587 0.153311 8.9384 0.0923452 8.76505C0.0313797 8.5917 0 8.40588 0 8.2182C0 8.03053 0.0313797 7.8447 0.0923452 7.67136C0.153311 7.49801 0.242664 7.34054 0.35529 7.20798L5.9317 0.630738C6.39336 0.086217 7.1709 0.0862174 7.64471 0.645068Z" fill="black"/>
</svg>
