<svg width="390" height="537" viewBox="0 0 390 537" fill="none" xmlns="http://www.w3.org/2000/svg">
<path d="M-192.563 318.215L-166.19 292.375C-111.599 238.887 -30.2902 223.279 40.2263 252.751V252.751C52.8279 258.018 64.8254 264.627 76.0111 272.464L180.636 345.766L185.33 348.593C273.644 401.788 388.268 354.834 413.883 254.968V254.968C417.067 242.553 418.689 229.788 418.71 216.97L418.843 135.057C418.869 118.939 422.575 103.04 429.677 88.5704V88.5704C442.682 62.0739 466.157 42.208 494.439 33.7632L503.817 30.9632" stroke="#B699CA" stroke-width="60.6319" stroke-linecap="round"/>
<path d="M-3.25623 245.355L-1.27295 237.816L-0.230622 238.091L-0.464446 238.979L-0.375206 239.003C-0.283283 238.905 -0.159297 238.796 -0.00324989 238.677C0.152798 238.558 0.349052 238.469 0.585513 238.412C0.822601 238.352 1.1113 238.367 1.4516 238.457C1.89423 238.573 2.25985 238.789 2.54844 239.104C2.83704 239.419 3.02469 239.813 3.1114 240.286C3.20049 240.76 3.1671 241.293 3.01121 241.886C2.85533 242.479 2.62291 242.961 2.31396 243.332C2.00563 243.702 1.64889 243.955 1.24373 244.093C0.839191 244.228 0.415607 244.237 -0.0270255 244.121C-0.36019 244.033 -0.617959 243.906 -0.800332 243.738C-0.980326 243.571 -1.1101 243.397 -1.18964 243.216C-1.26919 243.035 -1.32575 242.877 -1.35933 242.744L-1.42358 242.727L-2.18891 245.636L-3.25623 245.355ZM-0.948244 240.833C-1.04966 241.218 -1.08263 241.571 -1.04716 241.891C-1.01169 242.211 -0.909654 242.48 -0.741053 242.7C-0.571826 242.918 -0.333719 243.067 -0.026732 243.148C0.292154 243.232 0.580909 243.217 0.839535 243.105C1.09879 242.99 1.32165 242.8 1.50812 242.536C1.69697 242.273 1.8396 241.958 1.93601 241.592C2.03116 241.23 2.06188 240.891 2.02816 240.574C1.99683 240.258 1.89479 239.988 1.72206 239.764C1.5517 239.542 1.30589 239.388 0.984625 239.303C0.675259 239.222 0.392515 239.233 0.136393 239.336C-0.117348 239.44 -0.336515 239.62 -0.521107 239.877C-0.705699 240.133 -0.848078 240.452 -0.948244 240.833ZM7.25851 243.492L8.10272 240.283L9.1736 240.564L7.73122 246.047L6.68175 245.771L6.93154 244.822L6.87443 244.807C6.6713 245.066 6.40485 245.257 6.07509 245.379C5.74833 245.499 5.3791 245.505 4.96741 245.397C4.6152 245.304 4.3238 245.145 4.0932 244.919C3.86561 244.691 3.71485 244.403 3.64093 244.055C3.56938 243.708 3.59308 243.309 3.71203 242.857L4.62948 239.369L5.6968 239.65L4.81315 243.009C4.71486 243.382 4.74013 243.707 4.88894 243.983C5.03776 244.259 5.27756 244.44 5.60835 244.527C5.80824 244.58 6.0201 244.582 6.24391 244.534C6.4701 244.487 6.67525 244.379 6.85935 244.211C7.04583 244.044 7.17888 243.804 7.25851 243.492ZM8.32286 248.401L10.3061 240.862L11.3485 241.137L11.1146 242.025L11.2039 242.049C11.2958 241.951 11.4198 241.842 11.5758 241.723C11.7319 241.604 11.9281 241.516 12.1646 241.458C12.4017 241.398 12.6904 241.413 13.0307 241.503C13.4733 241.619 13.8389 241.835 14.1275 242.15C14.4161 242.465 14.6038 242.859 14.6905 243.333C14.7796 243.806 14.7462 244.34 14.5903 244.932C14.4344 245.525 14.202 246.007 13.893 246.378C13.5847 246.748 13.228 247.001 12.8228 247.139C12.4183 247.274 11.9947 247.283 11.5521 247.167C11.2189 247.079 10.9611 246.952 10.7788 246.784C10.5988 246.617 10.469 246.443 10.3894 246.262C10.3099 246.081 10.2533 245.923 10.2198 245.79L10.1555 245.773L9.39018 248.682L8.32286 248.401ZM10.6308 243.879C10.5294 244.265 10.4965 244.617 10.5319 244.937C10.5674 245.257 10.6694 245.527 10.838 245.746C11.0073 245.964 11.2454 246.113 11.5524 246.194C11.8712 246.278 12.16 246.263 12.4186 246.151C12.6779 246.036 12.9007 245.846 13.0872 245.582C13.2761 245.319 13.4187 245.004 13.5151 244.638C13.6102 244.276 13.641 243.937 13.6073 243.62C13.5759 243.304 13.4739 243.034 13.3011 242.811C13.1308 242.588 12.885 242.434 12.5637 242.349C12.2543 242.268 11.9716 242.279 11.7155 242.382C11.4617 242.486 11.2426 242.666 11.058 242.923C10.8734 243.18 10.731 243.498 10.6308 243.879ZM14.2253 249.954L16.2086 242.415L17.2509 242.689L17.0171 243.578L17.1063 243.602C17.1982 243.504 17.3222 243.395 17.4783 243.276C17.6343 243.157 17.8306 243.068 18.067 243.011C18.3041 242.951 18.5928 242.966 18.9331 243.056C19.3757 243.172 19.7414 243.388 20.03 243.703C20.3186 244.018 20.5062 244.412 20.5929 244.885C20.682 245.359 20.6486 245.892 20.4927 246.485C20.3368 247.077 20.1044 247.559 19.7955 247.931C19.4872 248.3 19.1304 248.554 18.7252 248.692C18.3207 248.827 17.8971 248.836 17.4545 248.72C17.1213 248.632 16.8636 248.505 16.6812 248.337C16.5012 248.17 16.3714 247.996 16.2919 247.815C16.2123 247.634 16.1558 247.476 16.1222 247.343L16.0579 247.326L15.2926 250.235L14.2253 249.954ZM16.5333 245.432C16.4319 245.817 16.3989 246.17 16.4344 246.49C16.4698 246.809 16.5719 247.079 16.7405 247.299C16.9097 247.517 17.1478 247.666 17.4548 247.747C17.7737 247.831 18.0624 247.816 18.3211 247.704C18.5803 247.589 18.8032 247.399 18.9896 247.135C19.1785 246.872 19.3211 246.557 19.4175 246.191C19.5127 245.829 19.5434 245.49 19.5097 245.173C19.4783 244.857 19.3763 244.587 19.2036 244.363C19.0332 244.14 18.7874 243.987 18.4661 243.902C18.1568 243.821 17.874 243.832 17.6179 243.935C17.3642 244.038 17.145 244.219 16.9604 244.475C16.7758 244.732 16.6334 245.051 16.5333 245.432ZM20.6686 249.451L22.111 243.968L23.1783 244.249L21.7359 249.732L20.6686 249.451ZM22.8726 243.264C22.6869 243.215 22.5438 243.111 22.4431 242.952C22.3454 242.792 22.3194 242.625 22.3651 242.451C22.4114 242.275 22.5163 242.142 22.6797 242.053C22.8462 241.962 23.0222 241.941 23.2078 241.989C23.3934 242.038 23.5351 242.143 23.6328 242.303C23.7335 242.462 23.7607 242.63 23.7144 242.806C23.6687 242.98 23.5626 243.112 23.3962 243.203C23.2327 243.292 23.0582 243.313 22.8726 243.264ZM25.2042 250.762C24.664 250.62 24.2291 250.382 23.8996 250.049C23.573 249.714 23.3593 249.308 23.2583 248.831C23.1603 248.352 23.1861 247.828 23.3357 247.259C23.4835 246.698 23.7184 246.23 24.0405 245.857C24.365 245.484 24.748 245.228 25.1897 245.087C25.6336 244.947 26.1103 244.944 26.6195 245.078C26.9289 245.159 27.2153 245.289 27.4787 245.468C27.7421 245.646 27.9604 245.876 28.1337 246.155C28.3069 246.435 28.4142 246.767 28.4554 247.152C28.4973 247.535 28.4528 247.975 28.3219 248.472L28.2224 248.85L23.8639 247.704L24.0742 246.904L27.3868 247.776C27.4607 247.495 27.469 247.231 27.4118 246.984C27.3551 246.735 27.2399 246.521 27.066 246.34C26.8945 246.16 26.6708 246.034 26.3947 245.961C26.0949 245.882 25.8137 245.887 25.5512 245.976C25.2917 246.063 25.0703 246.208 24.8869 246.412C24.7066 246.614 24.5804 246.852 24.5084 247.125L24.3441 247.75C24.2477 248.116 24.2299 248.445 24.2908 248.736C24.3541 249.027 24.4845 249.272 24.682 249.468C24.8802 249.663 25.1351 249.801 25.4469 249.883C25.6492 249.937 25.8411 249.957 26.0227 249.943C26.2049 249.928 26.3721 249.877 26.5241 249.793C26.6762 249.708 26.8068 249.589 26.9162 249.434L27.8785 249.882C27.7193 250.158 27.5056 250.38 27.2373 250.549C26.9721 250.716 26.6661 250.82 26.3194 250.861C25.9758 250.9 25.604 250.867 25.2042 250.762ZM33.6672 248.439L32.6548 248.356C32.6469 248.222 32.6136 248.087 32.555 247.952C32.4988 247.818 32.4063 247.695 32.2775 247.585C32.1487 247.475 31.9737 247.391 31.7524 247.332C31.4501 247.253 31.18 247.254 30.9421 247.337C30.7047 247.417 30.5582 247.563 30.5025 247.775C30.4543 247.958 30.4833 248.123 30.5895 248.271C30.6958 248.418 30.8906 248.568 31.174 248.718L31.9924 249.147C32.4663 249.397 32.795 249.675 32.9786 249.983C33.1623 250.291 33.2031 250.639 33.101 251.027C33.0146 251.355 32.8424 251.623 32.5845 251.83C32.3295 252.035 32.0139 252.166 31.6378 252.222C31.2641 252.279 30.8559 252.249 30.4133 252.133C29.7993 251.971 29.3328 251.708 29.0137 251.345C28.6953 250.978 28.556 250.541 28.5956 250.032L29.6686 250.147C29.6621 250.433 29.7406 250.671 29.9042 250.861C30.0684 251.05 30.3112 251.186 30.6324 251.27C30.9823 251.363 31.281 251.363 31.5286 251.273C31.7768 251.181 31.9288 251.029 31.9845 250.817C32.0296 250.646 32.0032 250.485 31.9054 250.334C31.8099 250.185 31.6391 250.046 31.393 249.917L30.5184 249.47C30.0375 249.218 29.7079 248.933 29.5298 248.614C29.354 248.296 29.3175 247.941 29.4202 247.551C29.5053 247.227 29.6702 246.968 29.915 246.773C30.1597 246.578 30.4593 246.454 30.8139 246.402C31.1691 246.348 31.5525 246.375 31.9642 246.484C32.5568 246.64 32.9894 246.891 33.2621 247.237C33.5354 247.581 33.6705 247.982 33.6672 248.439Z" fill="black"/>
<path d="M56.8413 267.892L60.8492 261.205L61.7736 261.76L61.3011 262.548L61.3802 262.595C61.4958 262.527 61.6452 262.457 61.8283 262.386C62.0114 262.315 62.2245 262.285 62.4676 262.296C62.712 262.305 62.9851 262.4 63.2869 262.581C63.6794 262.816 63.9703 263.125 64.1596 263.508C64.3488 263.891 64.419 264.322 64.3703 264.801C64.3237 265.281 64.1428 265.783 63.8278 266.309C63.5128 266.834 63.1551 267.232 62.7548 267.503C62.3556 267.772 61.9424 267.916 61.5149 267.935C61.0886 267.952 60.6793 267.843 60.2867 267.607C59.9912 267.43 59.7793 267.236 59.6509 267.024C59.5246 266.813 59.4486 266.61 59.4227 266.414C59.3969 266.218 59.3865 266.051 59.3915 265.913L59.3345 265.879L57.7879 268.459L56.8413 267.892ZM60.3194 264.193C60.1144 264.535 59.9844 264.864 59.9292 265.181C59.8741 265.498 59.8968 265.786 59.9973 266.044C60.0992 266.3 60.2862 266.51 60.5585 266.673C60.8413 266.842 61.1226 266.909 61.4024 266.873C61.6834 266.835 61.9503 266.715 62.203 266.514C62.4578 266.314 62.6826 266.051 62.8774 265.726C63.0697 265.405 63.1939 265.088 63.2498 264.775C63.3079 264.462 63.2852 264.175 63.1817 263.912C63.0803 263.65 62.8872 263.434 62.6022 263.263C62.3279 263.099 62.0533 263.03 61.7786 263.058C61.506 263.087 61.2453 263.199 60.9964 263.394C60.7475 263.589 60.5218 263.855 60.3194 264.193ZM67.4585 269.036L69.1644 266.19L70.1142 266.759L67.1994 271.622L66.2686 271.064L66.7734 270.222L66.7228 270.191C66.4553 270.384 66.1462 270.493 65.7955 270.518C65.4482 270.542 65.092 270.445 64.7269 270.226C64.4145 270.039 64.1791 269.804 64.0208 269.523C63.8658 269.241 63.8013 268.922 63.8273 268.568C63.8554 268.214 63.9897 267.837 64.23 267.436L66.084 264.343L67.0306 264.911L65.2449 267.89C65.0463 268.221 64.98 268.54 65.046 268.846C65.1119 269.153 65.2916 269.394 65.585 269.57C65.7623 269.676 65.9651 269.737 66.1934 269.754C66.4238 269.771 66.6508 269.725 66.8744 269.615C67.1002 269.507 67.2948 269.314 67.4585 269.036ZM67.1108 274.047L71.1187 267.361L72.0431 267.915L71.5706 268.703L71.6497 268.751C71.7653 268.682 71.9147 268.613 72.0978 268.542C72.2809 268.471 72.494 268.441 72.7371 268.452C72.9815 268.46 73.2545 268.555 73.5564 268.736C73.9489 268.971 74.2398 269.281 74.4291 269.664C74.6183 270.047 74.6885 270.478 74.6398 270.956C74.5931 271.436 74.4123 271.939 74.0973 272.464C73.7823 272.99 73.4246 273.388 73.0242 273.659C72.6251 273.927 72.2118 274.071 71.7844 274.09C71.3581 274.107 70.9487 273.998 70.5562 273.763C70.2607 273.586 70.0488 273.391 69.9204 273.18C69.7941 272.969 69.718 272.766 69.6922 272.569C69.6664 272.373 69.656 272.206 69.661 272.069L69.604 272.035L68.0574 274.615L67.1108 274.047ZM70.5889 270.348C70.3839 270.69 70.2539 271.02 70.1987 271.337C70.1436 271.654 70.1663 271.941 70.2668 272.2C70.3686 272.456 70.5557 272.665 70.828 272.828C71.1108 272.998 71.3921 273.065 71.6719 273.029C71.9529 272.991 72.2198 272.871 72.4725 272.67C72.7273 272.469 72.9521 272.207 73.1469 271.882C73.3392 271.561 73.4633 271.244 73.5193 270.93C73.5774 270.618 73.5547 270.33 73.4512 270.067C73.3498 269.806 73.1567 269.59 72.8717 269.419C72.5974 269.254 72.3228 269.186 72.0481 269.213C71.7755 269.242 71.5147 269.354 71.2658 269.549C71.0169 269.744 70.7913 270.011 70.5889 270.348ZM72.3457 277.185L76.3535 270.499L77.278 271.053L76.8054 271.841L76.8846 271.889C77.0002 271.82 77.1496 271.751 77.3327 271.68C77.5158 271.609 77.7289 271.579 77.972 271.589C78.2163 271.598 78.4894 271.693 78.7912 271.874C79.1838 272.109 79.4747 272.418 79.6639 272.802C79.8531 273.185 79.9234 273.616 79.8746 274.094C79.828 274.574 79.6472 275.077 79.3322 275.602C79.0172 276.128 78.6595 276.526 78.2591 276.797C77.86 277.065 77.4467 277.209 77.0192 277.228C76.593 277.245 76.1836 277.136 75.791 276.901C75.4956 276.724 75.2836 276.529 75.1552 276.317C75.029 276.107 74.9529 275.903 74.9271 275.707C74.9013 275.511 74.8908 275.344 74.8958 275.207L74.8389 275.172L73.2923 277.753L72.3457 277.185ZM75.8237 273.486C75.6188 273.828 75.4887 274.158 75.4336 274.475C75.3784 274.792 75.4011 275.079 75.5017 275.337C75.6035 275.593 75.7906 275.803 76.0628 275.966C76.3456 276.136 76.6269 276.203 76.9067 276.167C77.1878 276.129 77.4546 276.009 77.7073 275.807C77.9621 275.607 78.1869 275.345 78.3818 275.02C78.5741 274.699 78.6982 274.382 78.7542 274.068C78.8123 273.756 78.7896 273.468 78.6861 273.205C78.5847 272.944 78.3915 272.727 78.1066 272.557C77.8322 272.392 77.5577 272.324 77.283 272.351C77.0104 272.38 76.7496 272.492 76.5007 272.687C76.2518 272.882 76.0261 273.149 75.8237 273.486ZM78.6736 278.499L81.5884 273.637L82.535 274.204L79.6202 279.067L78.6736 278.499ZM82.5162 273.173C82.3516 273.074 82.243 272.935 82.1906 272.754C82.1416 272.573 82.1633 272.405 82.2556 272.251C82.3492 272.095 82.487 271.996 82.6688 271.956C82.8541 271.915 83.029 271.944 83.1936 272.043C83.3583 272.141 83.4651 272.281 83.5141 272.463C83.5665 272.643 83.5459 272.812 83.4523 272.968C83.36 273.122 83.2212 273.22 83.0359 273.261C82.8541 273.301 82.6808 273.272 82.5162 273.173ZM82.6632 281.024C82.1841 280.737 81.8328 280.387 81.6094 279.975C81.3894 279.562 81.2974 279.113 81.3335 278.626C81.3729 278.139 81.5438 277.644 81.8462 277.139C82.1448 276.641 82.5008 276.258 82.9142 275.989C83.3298 275.722 83.7692 275.582 84.2326 275.57C84.6981 275.559 85.1566 275.689 85.6083 275.96C85.8827 276.125 86.1214 276.329 86.3245 276.575C86.5276 276.82 86.6733 277.101 86.7617 277.417C86.85 277.734 86.8603 278.083 86.7925 278.464C86.726 278.843 86.5605 279.254 86.2961 279.695L86.095 280.03L82.2294 277.713L82.6545 277.004L85.5924 278.765C85.7417 278.516 85.8233 278.265 85.8371 278.012C85.8522 277.757 85.8014 277.519 85.6848 277.297C85.5704 277.076 85.3907 276.893 85.1459 276.746C84.88 276.587 84.6086 276.513 84.3318 276.525C84.0583 276.536 83.8051 276.614 83.5723 276.758C83.3427 276.902 83.1552 277.095 83.0098 277.337L82.6777 277.892C82.4828 278.217 82.3741 278.527 82.3514 278.823C82.3309 279.121 82.388 279.392 82.5227 279.636C82.6587 279.878 82.8649 280.082 83.1414 280.248C83.3208 280.356 83.4996 280.428 83.6777 280.466C83.8571 280.502 84.0316 280.5 84.2012 280.462C84.3708 280.423 84.5297 280.344 84.6777 280.226L85.4769 280.925C85.247 281.146 84.9797 281.3 84.6751 281.387C84.3738 281.473 84.051 281.487 83.7066 281.43C83.3656 281.372 83.0178 281.237 82.6632 281.024ZM91.4383 281.155L90.4893 280.792C90.5192 280.661 90.5248 280.522 90.5062 280.376C90.4897 280.232 90.4349 280.088 90.342 279.947C90.2491 279.805 90.1045 279.675 89.9083 279.557C89.6402 279.397 89.3804 279.323 89.1289 279.336C88.8787 279.346 88.6973 279.446 88.5847 279.633C88.4872 279.796 88.469 279.963 88.5298 280.134C88.5906 280.305 88.7361 280.503 88.9662 280.727L89.6324 281.367C90.0179 281.739 90.2558 282.098 90.3463 282.445C90.4368 282.792 90.3789 283.137 90.1727 283.481C89.9981 283.773 89.758 283.982 89.4526 284.108C89.1505 284.234 88.811 284.272 88.4341 284.221C88.0593 284.171 87.6757 284.029 87.2831 283.793C86.7386 283.467 86.3639 283.085 86.159 282.646C85.9554 282.206 85.9436 281.747 86.1236 281.27L87.122 281.679C87.0361 281.951 87.045 282.202 87.1489 282.431C87.2541 282.657 87.4492 282.856 87.7341 283.027C88.0444 283.213 88.3309 283.297 88.5938 283.28C88.858 283.26 89.0464 283.156 89.159 282.968C89.2501 282.817 89.2696 282.655 89.2176 282.483C89.1678 282.312 89.0426 282.131 88.842 281.939L88.1271 281.266C87.7353 280.89 87.4984 280.524 87.4163 280.168C87.3364 279.813 87.4002 279.463 87.6077 279.117C87.7797 278.83 88.0105 278.627 88.2999 278.507C88.5894 278.388 88.9116 278.353 89.2665 278.403C89.6227 278.45 89.9834 278.583 90.3485 278.801C90.874 279.116 91.2194 279.478 91.3846 279.887C91.551 280.294 91.5689 280.716 91.4383 281.155Z" fill="black"/>
<path d="M112.141 303.134L117.208 297.21L118.027 297.91L117.429 298.609L117.499 298.669C117.625 298.621 117.784 298.577 117.976 298.537C118.169 298.498 118.384 298.504 118.622 298.555C118.861 298.604 119.114 298.743 119.382 298.972C119.73 299.27 119.965 299.623 120.088 300.032C120.21 300.442 120.208 300.878 120.08 301.342C119.954 301.807 119.692 302.273 119.293 302.738C118.895 303.204 118.476 303.537 118.036 303.737C117.598 303.935 117.166 304.008 116.742 303.956C116.319 303.902 115.933 303.726 115.585 303.428C115.323 303.204 115.147 302.977 115.056 302.747C114.966 302.518 114.925 302.305 114.932 302.107C114.94 301.91 114.957 301.743 114.985 301.608L114.935 301.565L112.979 303.851L112.141 303.134ZM116.187 300.067C115.928 300.37 115.745 300.673 115.637 300.976C115.53 301.28 115.505 301.567 115.561 301.838C115.618 302.108 115.768 302.346 116.009 302.552C116.26 302.766 116.526 302.879 116.808 302.89C117.091 302.9 117.374 302.826 117.657 302.67C117.942 302.515 118.207 302.293 118.453 302.005C118.697 301.721 118.872 301.429 118.979 301.129C119.089 300.831 119.114 300.544 119.056 300.267C119 299.992 118.845 299.747 118.593 299.531C118.35 299.323 118.091 299.21 117.815 299.191C117.541 299.174 117.266 299.241 116.988 299.392C116.71 299.543 116.443 299.768 116.187 300.067ZM122.418 306.033L124.575 303.511L125.417 304.231L121.732 308.539L120.907 307.834L121.545 307.088L121.5 307.049C121.204 307.195 120.881 307.25 120.532 307.217C120.185 307.183 119.85 307.027 119.527 306.751C119.25 306.514 119.057 306.244 118.948 305.94C118.842 305.635 118.831 305.311 118.916 304.966C119.003 304.622 119.198 304.273 119.502 303.917L121.846 301.177L122.685 301.894L120.427 304.534C120.176 304.827 120.057 305.131 120.071 305.444C120.085 305.757 120.222 306.024 120.482 306.247C120.639 306.381 120.829 306.475 121.051 306.529C121.276 306.585 121.507 306.578 121.746 306.507C121.987 306.437 122.211 306.279 122.418 306.033ZM121.24 310.916L126.307 304.992L127.126 305.692L126.528 306.391L126.598 306.451C126.724 306.403 126.883 306.359 127.075 306.319C127.268 306.28 127.483 306.286 127.72 306.337C127.96 306.387 128.213 306.526 128.481 306.754C128.829 307.052 129.064 307.405 129.187 307.815C129.309 308.224 129.307 308.66 129.179 309.124C129.053 309.589 128.791 310.055 128.392 310.521C127.994 310.986 127.575 311.319 127.135 311.519C126.697 311.717 126.265 311.79 125.841 311.738C125.418 311.684 125.032 311.508 124.684 311.21C124.422 310.986 124.246 310.759 124.155 310.529C124.065 310.3 124.024 310.087 124.031 309.889C124.039 309.692 124.056 309.525 124.084 309.391L124.034 309.347L122.078 311.634L121.24 310.916ZM125.286 307.849C125.027 308.152 124.844 308.455 124.736 308.759C124.629 309.062 124.604 309.349 124.66 309.621C124.717 309.89 124.867 310.128 125.108 310.334C125.359 310.549 125.625 310.661 125.907 310.673C126.19 310.682 126.473 310.608 126.756 310.452C127.041 310.297 127.306 310.076 127.552 309.788C127.796 309.503 127.971 309.211 128.078 308.911C128.188 308.613 128.213 308.326 128.155 308.049C128.099 307.775 127.944 307.529 127.692 307.313C127.449 307.105 127.19 306.992 126.914 306.973C126.64 306.956 126.365 307.023 126.087 307.174C125.809 307.325 125.542 307.55 125.286 307.849ZM125.878 314.883L130.945 308.959L131.764 309.659L131.167 310.358L131.237 310.418C131.362 310.37 131.521 310.326 131.713 310.286C131.906 310.247 132.121 310.253 132.359 310.304C132.598 310.354 132.852 310.493 133.119 310.721C133.467 311.019 133.702 311.372 133.825 311.781C133.947 312.191 133.945 312.627 133.817 313.091C133.691 313.556 133.429 314.022 133.031 314.488C132.632 314.953 132.213 315.286 131.773 315.486C131.335 315.684 130.904 315.757 130.479 315.705C130.056 315.651 129.67 315.475 129.322 315.177C129.061 314.953 128.884 314.726 128.793 314.496C128.703 314.267 128.662 314.054 128.67 313.856C128.677 313.659 128.695 313.492 128.722 313.358L128.672 313.314L126.717 315.6L125.878 314.883ZM129.924 311.816C129.665 312.119 129.482 312.422 129.375 312.725C129.267 313.029 129.242 313.316 129.298 313.588C129.356 313.857 129.505 314.095 129.746 314.301C129.997 314.516 130.263 314.628 130.545 314.64C130.828 314.649 131.112 314.575 131.394 314.419C131.679 314.264 131.944 314.043 132.191 313.755C132.434 313.47 132.609 313.178 132.717 312.878C132.826 312.58 132.852 312.293 132.793 312.016C132.737 311.742 132.583 311.496 132.33 311.28C132.087 311.072 131.828 310.959 131.552 310.94C131.279 310.923 131.003 310.99 130.725 311.141C130.447 311.292 130.18 311.517 129.924 311.816ZM131.898 317.234L135.583 312.926L136.422 313.643L132.737 317.952L131.898 317.234ZM136.575 312.623C136.429 312.499 136.346 312.343 136.324 312.156C136.306 311.969 136.355 311.807 136.472 311.671C136.59 311.532 136.743 311.458 136.929 311.449C137.118 311.44 137.286 311.497 137.432 311.622C137.578 311.747 137.659 311.903 137.678 312.09C137.699 312.276 137.651 312.439 137.532 312.577C137.416 312.714 137.262 312.787 137.073 312.797C136.887 312.806 136.721 312.748 136.575 312.623ZM135.411 320.389C134.986 320.026 134.698 319.623 134.547 319.179C134.399 318.735 134.383 318.276 134.499 317.803C134.62 317.33 134.871 316.869 135.253 316.422C135.63 315.981 136.045 315.662 136.498 315.467C136.952 315.272 137.409 315.208 137.868 315.273C138.328 315.34 138.759 315.545 139.159 315.887C139.402 316.095 139.603 316.337 139.763 316.612C139.922 316.888 140.019 317.189 140.053 317.517C140.087 317.844 140.039 318.19 139.909 318.554C139.78 318.917 139.549 319.293 139.214 319.684L138.96 319.981L135.535 317.052L136.073 316.424L138.676 318.65C138.864 318.43 138.987 318.196 139.042 317.949C139.1 317.7 139.09 317.456 139.012 317.218C138.936 316.982 138.789 316.77 138.572 316.585C138.337 316.383 138.081 316.265 137.806 316.231C137.535 316.196 137.272 316.231 137.019 316.334C136.768 316.438 136.551 316.597 136.367 316.812L135.947 317.303C135.701 317.591 135.542 317.879 135.47 318.167C135.4 318.457 135.412 318.734 135.504 318.997C135.597 319.259 135.767 319.494 136.012 319.704C136.171 319.84 136.335 319.941 136.504 320.008C136.675 320.073 136.847 320.101 137.021 320.091C137.195 320.081 137.364 320.03 137.53 319.939L138.202 320.761C137.938 320.94 137.649 321.047 137.334 321.082C137.022 321.117 136.702 321.077 136.372 320.964C136.045 320.849 135.725 320.658 135.411 320.389ZM144.041 321.981L143.166 321.466C143.217 321.341 143.246 321.206 143.252 321.058C143.26 320.913 143.23 320.763 143.162 320.607C143.094 320.452 142.973 320.3 142.799 320.151C142.561 319.948 142.318 319.832 142.067 319.803C141.819 319.771 141.623 319.839 141.481 320.005C141.358 320.149 141.312 320.311 141.344 320.49C141.375 320.669 141.485 320.888 141.675 321.147L142.225 321.89C142.543 322.321 142.718 322.714 142.749 323.072C142.78 323.429 142.666 323.76 142.405 324.064C142.184 324.322 141.913 324.489 141.591 324.563C141.272 324.636 140.931 324.617 140.568 324.504C140.206 324.392 139.852 324.188 139.504 323.89C139.022 323.478 138.716 323.038 138.587 322.572C138.46 322.103 138.525 321.649 138.782 321.208L139.698 321.778C139.568 322.033 139.535 322.281 139.599 322.524C139.665 322.765 139.824 322.993 140.077 323.209C140.351 323.444 140.62 323.575 140.882 323.602C141.146 323.627 141.349 323.556 141.491 323.39C141.606 323.255 141.653 323.099 141.63 322.921C141.609 322.744 141.516 322.545 141.35 322.322L140.758 321.538C140.434 321.103 140.261 320.703 140.24 320.338C140.22 319.975 140.342 319.64 140.604 319.333C140.822 319.079 141.083 318.917 141.388 318.848C141.693 318.779 142.017 318.798 142.359 318.906C142.702 319.011 143.036 319.203 143.359 319.479C143.825 319.878 144.105 320.292 144.2 320.723C144.296 321.152 144.243 321.571 144.041 321.981Z" fill="black"/>
<path d="M161.818 340.3L165.832 333.618L166.756 334.173L166.283 334.96L166.362 335.008C166.478 334.94 166.627 334.87 166.81 334.799C166.994 334.729 167.207 334.699 167.45 334.71C167.694 334.719 167.967 334.814 168.269 334.995C168.661 335.231 168.952 335.54 169.14 335.924C169.329 336.307 169.399 336.738 169.35 337.216C169.303 337.696 169.121 338.199 168.806 338.724C168.49 339.249 168.132 339.647 167.732 339.917C167.332 340.185 166.919 340.329 166.491 340.348C166.065 340.364 165.656 340.255 165.263 340.019C164.968 339.841 164.756 339.647 164.628 339.435C164.502 339.224 164.426 339.021 164.401 338.825C164.375 338.628 164.365 338.461 164.37 338.324L164.313 338.29L162.764 340.868L161.818 340.3ZM165.3 336.604C165.094 336.946 164.964 337.275 164.908 337.592C164.853 337.909 164.875 338.197 164.976 338.455C165.077 338.711 165.264 338.921 165.536 339.085C165.819 339.255 166.1 339.322 166.38 339.286C166.661 339.248 166.928 339.129 167.181 338.927C167.436 338.728 167.661 338.465 167.856 338.14C168.049 337.82 168.173 337.503 168.229 337.189C168.288 336.877 168.265 336.589 168.162 336.326C168.061 336.065 167.868 335.848 167.583 335.677C167.309 335.512 167.035 335.444 166.76 335.471C166.487 335.499 166.226 335.611 165.977 335.806C165.728 336.001 165.502 336.267 165.3 336.604ZM172.434 341.455L174.143 338.61L175.092 339.18L172.172 344.04L171.242 343.481L171.748 342.64L171.697 342.609C171.429 342.802 171.12 342.91 170.769 342.935C170.422 342.959 170.066 342.861 169.701 342.642C169.389 342.454 169.154 342.22 168.996 341.938C168.841 341.656 168.777 341.337 168.803 340.983C168.832 340.63 168.966 340.253 169.207 339.852L171.064 336.761L172.01 337.329L170.221 340.306C170.022 340.637 169.956 340.956 170.021 341.263C170.087 341.569 170.267 341.81 170.56 341.987C170.737 342.093 170.94 342.155 171.168 342.171C171.398 342.189 171.625 342.143 171.849 342.033C172.075 341.925 172.27 341.732 172.434 341.455ZM172.081 346.466L176.096 339.784L177.02 340.339L176.546 341.126L176.625 341.174C176.741 341.106 176.89 341.036 177.074 340.965C177.257 340.895 177.47 340.865 177.713 340.876C177.957 340.885 178.23 340.98 178.532 341.161C178.924 341.397 179.215 341.706 179.404 342.09C179.593 342.473 179.662 342.904 179.613 343.382C179.566 343.862 179.385 344.365 179.069 344.89C178.754 345.415 178.396 345.813 177.995 346.083C177.596 346.351 177.182 346.495 176.755 346.513C176.328 346.53 175.919 346.421 175.527 346.185C175.231 346.007 175.02 345.813 174.892 345.601C174.765 345.39 174.69 345.187 174.664 344.991C174.638 344.794 174.628 344.627 174.633 344.49L174.576 344.456L173.027 347.034L172.081 346.466ZM175.563 342.77C175.358 343.112 175.227 343.441 175.172 343.758C175.116 344.075 175.139 344.363 175.239 344.621C175.341 344.877 175.527 345.087 175.799 345.251C176.082 345.421 176.363 345.488 176.643 345.452C176.924 345.414 177.191 345.295 177.444 345.093C177.699 344.894 177.924 344.631 178.119 344.306C178.312 343.986 178.436 343.669 178.493 343.355C178.551 343.043 178.529 342.755 178.426 342.492C178.324 342.231 178.131 342.014 177.847 341.843C177.572 341.678 177.298 341.61 177.023 341.637C176.751 341.665 176.49 341.777 176.241 341.972C175.992 342.167 175.766 342.433 175.563 342.77ZM177.313 349.609L181.327 342.927L182.251 343.482L181.778 344.27L181.857 344.317C181.973 344.249 182.122 344.179 182.305 344.108C182.489 344.038 182.702 344.008 182.945 344.019C183.189 344.028 183.462 344.123 183.764 344.304C184.156 344.54 184.447 344.849 184.635 345.233C184.824 345.616 184.894 346.047 184.845 346.525C184.798 347.005 184.616 347.508 184.301 348.033C183.985 348.558 183.627 348.956 183.227 349.226C182.827 349.494 182.414 349.638 181.986 349.657C181.56 349.673 181.151 349.564 180.758 349.328C180.463 349.151 180.251 348.956 180.123 348.744C179.997 348.533 179.921 348.33 179.896 348.134C179.87 347.937 179.86 347.77 179.865 347.633L179.808 347.599L178.259 350.177L177.313 349.609ZM180.795 345.914C180.589 346.255 180.459 346.585 180.403 346.901C180.348 347.218 180.37 347.506 180.471 347.764C180.572 348.02 180.759 348.23 181.031 348.394C181.314 348.564 181.595 348.631 181.875 348.595C182.156 348.557 182.423 348.438 182.676 348.236C182.931 348.037 183.156 347.774 183.351 347.449C183.544 347.129 183.668 346.812 183.724 346.498C183.783 346.186 183.76 345.898 183.657 345.635C183.556 345.374 183.363 345.157 183.078 344.986C182.804 344.821 182.53 344.753 182.255 344.78C181.982 344.809 181.721 344.92 181.472 345.115C181.223 345.31 180.997 345.576 180.795 345.914ZM183.639 350.93L186.559 346.07L187.505 346.638L184.585 351.498L183.639 350.93ZM187.487 345.607C187.323 345.508 187.214 345.368 187.162 345.188C187.113 345.006 187.135 344.838 187.228 344.684C187.321 344.528 187.459 344.43 187.641 344.39C187.827 344.35 188.001 344.379 188.166 344.477C188.33 344.576 188.437 344.716 188.486 344.898C188.538 345.079 188.517 345.247 188.424 345.403C188.331 345.557 188.192 345.654 188.007 345.695C187.825 345.735 187.652 345.706 187.487 345.607ZM187.626 353.458C187.148 353.171 186.797 352.821 186.574 352.408C186.354 351.995 186.263 351.545 186.299 351.059C186.339 350.572 186.51 350.077 186.813 349.573C187.112 349.075 187.469 348.692 187.883 348.424C188.298 348.157 188.738 348.017 189.201 348.006C189.667 347.996 190.125 348.126 190.577 348.397C190.851 348.562 191.089 348.767 191.292 349.012C191.495 349.258 191.641 349.539 191.729 349.856C191.817 350.173 191.826 350.522 191.758 350.903C191.691 351.282 191.526 351.692 191.261 352.132L191.059 352.468L187.196 350.147L187.622 349.438L190.558 351.202C190.707 350.953 190.789 350.702 190.803 350.45C190.819 350.195 190.768 349.956 190.652 349.734C190.538 349.513 190.358 349.33 190.113 349.183C189.848 349.023 189.576 348.949 189.3 348.961C189.026 348.971 188.773 349.049 188.54 349.193C188.31 349.336 188.122 349.529 187.977 349.772L187.644 350.326C187.449 350.65 187.34 350.961 187.317 351.257C187.296 351.555 187.353 351.826 187.487 352.07C187.623 352.312 187.829 352.517 188.105 352.683C188.285 352.79 188.463 352.863 188.641 352.901C188.821 352.937 188.995 352.936 189.165 352.897C189.335 352.858 189.494 352.78 189.642 352.663L190.44 353.362C190.21 353.583 189.943 353.736 189.638 353.823C189.337 353.909 189.014 353.923 188.669 353.865C188.328 353.807 187.981 353.671 187.626 353.458ZM196.401 353.598L195.453 353.234C195.483 353.103 195.489 352.964 195.47 352.818C195.454 352.674 195.399 352.53 195.306 352.388C195.214 352.247 195.069 352.117 194.873 351.999C194.605 351.838 194.345 351.764 194.094 351.776C193.844 351.787 193.662 351.886 193.549 352.074C193.452 352.236 193.433 352.403 193.494 352.574C193.555 352.746 193.7 352.943 193.93 353.168L194.595 353.809C194.98 354.181 195.218 354.54 195.308 354.887C195.398 355.234 195.34 355.579 195.133 355.923C194.959 356.214 194.718 356.423 194.413 356.549C194.11 356.675 193.771 356.712 193.394 356.661C193.019 356.611 192.636 356.468 192.244 356.232C191.699 355.905 191.325 355.523 191.121 355.084C190.917 354.643 190.906 354.184 191.087 353.707L192.085 354.117C191.998 354.39 192.007 354.641 192.111 354.869C192.216 355.096 192.411 355.295 192.695 355.466C193.005 355.652 193.292 355.737 193.555 355.72C193.819 355.7 194.007 355.597 194.12 355.409C194.211 355.257 194.231 355.095 194.179 354.924C194.13 354.753 194.005 354.572 193.804 354.38L193.09 353.705C192.699 353.329 192.462 352.963 192.38 352.607C192.301 352.252 192.365 351.902 192.573 351.556C192.745 351.269 192.976 351.066 193.266 350.947C193.555 350.828 193.877 350.794 194.232 350.843C194.589 350.891 194.949 351.024 195.314 351.243C195.839 351.559 196.184 351.921 196.349 352.33C196.515 352.737 196.532 353.16 196.401 353.598Z" fill="black"/>
<path d="M219.043 370.081L220.657 362.454L221.712 362.677L221.521 363.576L221.612 363.595C221.699 363.493 221.817 363.379 221.967 363.252C222.117 363.125 222.309 363.027 222.542 362.958C222.776 362.887 223.065 362.888 223.41 362.961C223.857 363.056 224.233 363.253 224.537 363.554C224.84 363.855 225.047 364.239 225.157 364.708C225.269 365.176 225.261 365.711 225.134 366.31C225.008 366.91 224.799 367.402 224.508 367.789C224.218 368.172 223.874 368.443 223.476 368.6C223.079 368.755 222.656 368.785 222.209 368.69C221.872 368.619 221.608 368.504 221.418 368.346C221.23 368.188 221.092 368.02 221.003 367.843C220.915 367.666 220.851 367.512 220.811 367.38L220.746 367.366L220.123 370.309L219.043 370.081ZM221.128 365.451C221.046 365.841 221.03 366.195 221.081 366.513C221.132 366.83 221.247 367.095 221.426 367.306C221.606 367.515 221.851 367.653 222.162 367.718C222.484 367.787 222.772 367.758 223.025 367.633C223.278 367.506 223.491 367.306 223.665 367.033C223.841 366.761 223.968 366.439 224.046 366.069C224.124 365.703 224.138 365.362 224.089 365.048C224.042 364.733 223.927 364.469 223.743 364.254C223.562 364.04 223.309 363.898 222.984 363.829C222.671 363.763 222.39 363.788 222.139 363.903C221.89 364.019 221.68 364.21 221.508 364.475C221.337 364.741 221.21 365.066 221.128 365.451ZM229.455 367.707L230.142 364.461L231.225 364.69L230.051 370.237L228.99 370.012L229.193 369.052L229.135 369.039C228.945 369.308 228.688 369.512 228.365 369.65C228.044 369.786 227.676 369.809 227.259 369.721C226.903 369.646 226.604 369.501 226.363 369.286C226.124 369.07 225.96 368.79 225.869 368.446C225.781 368.103 225.785 367.703 225.882 367.245L226.628 363.717L227.708 363.946L226.989 367.344C226.909 367.722 226.95 368.045 227.112 368.313C227.274 368.581 227.522 368.751 227.857 368.822C228.059 368.864 228.271 368.856 228.492 368.798C228.716 368.739 228.916 368.622 229.091 368.445C229.269 368.269 229.391 368.023 229.455 367.707ZM230.757 372.559L232.371 364.932L233.425 365.156L233.235 366.055L233.325 366.074C233.412 365.971 233.531 365.857 233.681 365.73C233.831 365.604 234.023 365.506 234.256 365.437C234.49 365.366 234.779 365.367 235.123 365.439C235.571 365.534 235.947 365.732 236.25 366.032C236.554 366.333 236.761 366.718 236.87 367.186C236.982 367.655 236.975 368.189 236.848 368.789C236.721 369.388 236.513 369.881 236.222 370.267C235.932 370.651 235.588 370.922 235.19 371.079C234.793 371.234 234.37 371.264 233.922 371.169C233.585 371.098 233.322 370.983 233.131 370.824C232.943 370.666 232.805 370.499 232.717 370.322C232.629 370.144 232.565 369.99 232.525 369.858L232.46 369.845L231.837 372.788L230.757 372.559ZM232.842 367.93C232.76 368.32 232.744 368.673 232.795 368.991C232.846 369.309 232.961 369.573 233.14 369.785C233.32 369.994 233.565 370.131 233.875 370.197C234.198 370.265 234.486 370.237 234.738 370.112C234.992 369.984 235.205 369.784 235.378 369.511C235.554 369.239 235.681 368.918 235.76 368.547C235.837 368.181 235.851 367.841 235.802 367.526C235.756 367.212 235.641 366.947 235.457 366.732C235.276 366.518 235.023 366.376 234.698 366.308C234.385 366.241 234.103 366.266 233.852 366.382C233.604 366.498 233.394 366.688 233.222 366.954C233.05 367.219 232.924 367.544 232.842 367.93ZM236.728 373.823L238.342 366.196L239.396 366.419L239.206 367.318L239.296 367.337C239.383 367.235 239.502 367.12 239.652 366.994C239.802 366.867 239.994 366.769 240.227 366.7C240.461 366.629 240.75 366.63 241.094 366.703C241.542 366.798 241.918 366.995 242.221 367.296C242.525 367.597 242.732 367.981 242.841 368.449C242.953 368.918 242.946 369.453 242.819 370.052C242.692 370.651 242.484 371.144 242.193 371.531C241.903 371.914 241.559 372.185 241.161 372.342C240.764 372.497 240.341 372.527 239.893 372.432C239.556 372.361 239.293 372.246 239.102 372.088C238.914 371.93 238.776 371.762 238.688 371.585C238.6 371.408 238.536 371.253 238.496 371.122L238.431 371.108L237.808 374.051L236.728 373.823ZM238.813 369.193C238.731 369.583 238.715 369.937 238.766 370.255C238.817 370.572 238.932 370.837 239.111 371.048C239.291 371.257 239.536 371.395 239.846 371.46C240.169 371.529 240.457 371.5 240.709 371.375C240.963 371.248 241.176 371.047 241.35 370.775C241.525 370.503 241.652 370.181 241.731 369.81C241.808 369.444 241.822 369.104 241.773 368.789C241.727 368.475 241.612 368.211 241.428 367.996C241.247 367.781 240.994 367.64 240.669 367.571C240.356 367.505 240.074 367.529 239.824 367.645C239.575 367.761 239.365 367.952 239.193 368.217C239.021 368.483 238.895 368.808 238.813 369.193ZM243.139 373.006L244.313 367.459L245.393 367.688L244.219 373.234L243.139 373.006ZM245.039 366.719C244.852 366.679 244.703 366.582 244.595 366.429C244.49 366.273 244.456 366.107 244.493 365.932C244.53 365.753 244.629 365.616 244.788 365.519C244.949 365.42 245.124 365.39 245.312 365.43C245.5 365.469 245.646 365.567 245.752 365.723C245.86 365.876 245.895 366.042 245.858 366.22C245.821 366.396 245.721 366.534 245.559 366.633C245.4 366.73 245.227 366.759 245.039 366.719ZM247.733 374.095C247.187 373.979 246.741 373.763 246.396 373.446C246.053 373.127 245.82 372.732 245.696 372.26C245.575 371.787 245.575 371.263 245.697 370.687C245.817 370.119 246.029 369.641 246.332 369.252C246.638 368.864 247.008 368.589 247.442 368.427C247.879 368.265 248.355 368.239 248.87 368.348C249.183 368.414 249.476 368.53 249.747 368.696C250.019 368.862 250.248 369.08 250.435 369.351C250.622 369.622 250.745 369.948 250.805 370.331C250.865 370.711 250.842 371.152 250.736 371.655L250.655 372.038L246.246 371.105L246.417 370.296L249.768 371.005C249.828 370.721 249.824 370.458 249.754 370.214C249.686 369.968 249.56 369.759 249.378 369.587C249.198 369.416 248.968 369.301 248.689 369.242C248.385 369.177 248.105 369.196 247.847 369.297C247.592 369.397 247.378 369.553 247.205 369.765C247.034 369.976 246.92 370.219 246.861 370.496L246.728 371.128C246.649 371.499 246.647 371.828 246.722 372.115C246.8 372.403 246.942 372.641 247.149 372.828C247.356 373.013 247.618 373.139 247.933 373.205C248.138 373.249 248.33 373.259 248.511 373.237C248.692 373.213 248.857 373.154 249.005 373.062C249.152 372.97 249.277 372.844 249.379 372.685L250.362 373.085C250.216 373.369 250.013 373.601 249.754 373.783C249.497 373.963 249.196 374.081 248.852 374.139C248.511 374.195 248.138 374.181 247.733 374.095ZM256.073 371.362L255.058 371.329C255.044 371.195 255.004 371.062 254.939 370.93C254.876 370.798 254.778 370.681 254.644 370.577C254.51 370.473 254.331 370.398 254.107 370.35C253.801 370.285 253.531 370.3 253.298 370.394C253.064 370.486 252.925 370.638 252.88 370.853C252.841 371.038 252.878 371.202 252.991 371.344C253.104 371.486 253.306 371.626 253.597 371.763L254.435 372.151C254.92 372.377 255.262 372.64 255.461 372.938C255.659 373.237 255.717 373.582 255.634 373.974C255.563 374.307 255.404 374.582 255.157 374.802C254.912 375.019 254.603 375.165 254.23 375.239C253.86 375.315 253.451 375.305 253.003 375.21C252.382 375.078 251.903 374.839 251.567 374.491C251.231 374.141 251.07 373.711 251.085 373.201L252.162 373.263C252.17 373.548 252.26 373.783 252.433 373.965C252.606 374.145 252.855 374.269 253.18 374.338C253.534 374.413 253.832 374.399 254.075 374.297C254.319 374.193 254.463 374.034 254.508 373.819C254.545 373.646 254.511 373.487 254.406 373.341C254.303 373.196 254.126 373.066 253.874 372.949L252.978 372.545C252.486 372.317 252.143 372.049 251.949 371.739C251.758 371.429 251.704 371.077 251.788 370.682C251.857 370.355 252.009 370.087 252.244 369.881C252.479 369.674 252.772 369.536 253.124 369.467C253.476 369.396 253.86 369.404 254.277 369.492C254.876 369.619 255.321 369.849 255.61 370.182C255.9 370.512 256.054 370.906 256.073 371.362Z" fill="black"/>
<path d="M284.708 375.022L282.802 367.463L283.847 367.2L284.072 368.091L284.162 368.068C284.195 367.938 284.251 367.783 284.33 367.603C284.409 367.424 284.538 367.252 284.717 367.087C284.896 366.92 285.156 366.794 285.497 366.708C285.941 366.596 286.365 366.608 286.77 366.745C287.175 366.881 287.53 367.136 287.834 367.508C288.141 367.88 288.37 368.363 288.519 368.957C288.669 369.551 288.699 370.085 288.608 370.56C288.516 371.032 288.326 371.427 288.038 371.743C287.749 372.057 287.383 372.27 286.939 372.382C286.605 372.466 286.317 372.479 286.077 372.42C285.839 372.361 285.641 372.271 285.484 372.151C285.326 372.03 285.201 371.92 285.107 371.819L285.043 371.836L285.778 374.753L284.708 375.022ZM284.544 369.948C284.641 370.334 284.783 370.659 284.968 370.922C285.154 371.185 285.374 371.371 285.627 371.483C285.881 371.591 286.161 371.607 286.469 371.529C286.789 371.449 287.035 371.297 287.207 371.073C287.378 370.847 287.482 370.574 287.517 370.252C287.556 369.931 287.528 369.586 287.436 369.219C287.344 368.856 287.207 368.544 287.025 368.283C286.845 368.021 286.625 367.834 286.366 367.722C286.109 367.609 285.819 367.593 285.497 367.675C285.187 367.753 284.945 367.899 284.77 368.113C284.598 368.326 284.493 368.59 284.456 368.904C284.418 369.218 284.448 369.566 284.544 369.948ZM293.014 368.311L292.203 365.094L293.277 364.823L294.662 370.32L293.61 370.586L293.37 369.634L293.313 369.648C293.26 369.973 293.119 370.269 292.889 370.535C292.661 370.798 292.341 370.982 291.928 371.086C291.575 371.175 291.243 371.176 290.932 371.09C290.622 371 290.351 370.821 290.119 370.552C289.888 370.283 289.716 369.922 289.602 369.468L288.72 365.971L289.791 365.702L290.64 369.07C290.734 369.444 290.913 369.716 291.176 369.886C291.44 370.055 291.738 370.098 292.069 370.015C292.27 369.964 292.456 369.864 292.629 369.714C292.804 369.563 292.932 369.37 293.012 369.134C293.094 368.897 293.095 368.623 293.014 368.311ZM296.318 372.096L294.412 364.537L295.457 364.273L295.682 365.164L295.771 365.142C295.805 365.012 295.861 364.857 295.94 364.677C296.019 364.497 296.148 364.325 296.327 364.161C296.506 363.994 296.766 363.867 297.107 363.781C297.551 363.669 297.975 363.682 298.38 363.818C298.785 363.955 299.14 364.209 299.444 364.582C299.751 364.953 299.98 365.436 300.129 366.03C300.279 366.625 300.308 367.159 300.217 367.634C300.126 368.106 299.936 368.5 299.648 368.816C299.359 369.13 298.993 369.343 298.549 369.455C298.215 369.539 297.927 369.552 297.687 369.493C297.448 369.434 297.251 369.344 297.094 369.224C296.936 369.104 296.811 368.993 296.717 368.893L296.652 368.909L297.388 371.826L296.318 372.096ZM296.154 367.021C296.251 367.408 296.393 367.732 296.578 367.995C296.764 368.258 296.983 368.445 297.237 368.556C297.491 368.665 297.771 368.68 298.079 368.603C298.399 368.522 298.644 368.37 298.817 368.147C298.988 367.921 299.092 367.647 299.127 367.326C299.166 367.004 299.138 366.66 299.046 366.292C298.954 365.929 298.817 365.618 298.635 365.357C298.455 365.095 298.235 364.908 297.976 364.796C297.719 364.683 297.429 364.667 297.107 364.748C296.797 364.826 296.555 364.972 296.38 365.186C296.208 365.4 296.103 365.663 296.066 365.977C296.028 366.291 296.058 366.639 296.154 367.021ZM302.236 370.604L300.33 363.045L301.375 362.781L301.6 363.673L301.69 363.65C301.723 363.52 301.779 363.365 301.858 363.185C301.937 363.005 302.066 362.833 302.245 362.669C302.424 362.502 302.684 362.375 303.025 362.289C303.469 362.178 303.893 362.19 304.298 362.326C304.703 362.463 305.058 362.717 305.362 363.09C305.669 363.462 305.898 363.945 306.047 364.539C306.197 365.133 306.227 365.667 306.136 366.142C306.044 366.614 305.854 367.008 305.566 367.325C305.277 367.638 304.911 367.851 304.467 367.963C304.133 368.047 303.845 368.06 303.605 368.002C303.367 367.942 303.169 367.853 303.012 367.732C302.854 367.612 302.729 367.502 302.635 367.401L302.571 367.417L303.306 370.334L302.236 370.604ZM302.072 365.529C302.169 365.916 302.311 366.241 302.496 366.503C302.682 366.766 302.902 366.953 303.155 367.064C303.409 367.173 303.689 367.189 303.997 367.111C304.317 367.03 304.563 366.878 304.735 366.655C304.906 366.429 305.01 366.155 305.045 365.834C305.084 365.512 305.056 365.168 304.964 364.8C304.872 364.438 304.735 364.126 304.553 363.865C304.373 363.603 304.153 363.416 303.894 363.304C303.637 363.191 303.347 363.175 303.025 363.256C302.715 363.334 302.473 363.481 302.298 363.695C302.126 363.908 302.021 364.172 301.984 364.486C301.946 364.8 301.976 365.148 302.072 365.529ZM307.634 367.051L306.248 361.553L307.319 361.283L308.704 366.781L307.634 367.051ZM306.575 360.569C306.389 360.616 306.213 360.594 306.049 360.503C305.885 360.41 305.782 360.276 305.738 360.102C305.694 359.926 305.721 359.759 305.821 359.601C305.923 359.441 306.067 359.338 306.253 359.291C306.439 359.244 306.614 359.267 306.777 359.361C306.942 359.451 307.046 359.584 307.091 359.761C307.135 359.935 307.106 360.102 307.004 360.263C306.904 360.42 306.761 360.522 306.575 360.569ZM312.239 366.008C311.697 366.144 311.202 366.146 310.752 366.013C310.304 365.878 309.921 365.625 309.602 365.257C309.285 364.885 309.055 364.414 308.911 363.843C308.769 363.28 308.749 362.758 308.851 362.275C308.955 361.792 309.166 361.382 309.485 361.046C309.806 360.708 310.221 360.476 310.732 360.347C311.042 360.269 311.356 360.244 311.673 360.273C311.99 360.303 312.292 360.398 312.578 360.559C312.865 360.72 313.12 360.959 313.342 361.276C313.563 361.591 313.737 361.998 313.862 362.496L313.958 362.876L309.588 363.977L309.386 363.176L312.707 362.338C312.636 362.057 312.516 361.822 312.347 361.634C312.177 361.443 311.972 361.311 311.733 361.236C311.496 361.162 311.239 361.159 310.962 361.229C310.661 361.305 310.418 361.445 310.231 361.649C310.045 361.851 309.922 362.085 309.86 362.352C309.799 362.616 309.804 362.885 309.873 363.159L310.031 363.786C310.123 364.153 310.267 364.45 310.46 364.675C310.657 364.899 310.889 365.05 311.157 365.127C311.424 365.202 311.714 365.2 312.027 365.121C312.23 365.07 312.407 364.995 312.56 364.895C312.712 364.794 312.834 364.669 312.926 364.521C313.019 364.374 313.075 364.206 313.096 364.018L314.155 363.945C314.149 364.264 314.07 364.562 313.916 364.839C313.765 365.113 313.547 365.352 313.263 365.556C312.981 365.756 312.64 365.907 312.239 366.008ZM318.527 359.886L317.6 360.302C317.528 360.188 317.434 360.086 317.318 359.996C317.203 359.906 317.063 359.843 316.897 359.809C316.731 359.775 316.537 359.786 316.316 359.842C316.013 359.918 315.777 360.05 315.608 360.237C315.439 360.422 315.381 360.62 315.435 360.832C315.481 361.016 315.586 361.147 315.751 361.225C315.915 361.303 316.158 361.339 316.479 361.334L317.403 361.315C317.938 361.304 318.36 361.389 318.67 361.57C318.979 361.751 319.183 362.036 319.281 362.425C319.364 362.754 319.343 363.072 319.217 363.377C319.093 363.68 318.879 363.947 318.577 364.178C318.278 364.408 317.906 364.579 317.462 364.691C316.846 364.847 316.311 364.842 315.856 364.677C315.4 364.511 315.067 364.195 314.856 363.731L315.851 363.312C315.983 363.566 316.167 363.736 316.402 363.824C316.637 363.91 316.915 363.912 317.237 363.831C317.588 363.742 317.85 363.599 318.023 363.4C318.196 363.199 318.256 362.993 318.202 362.78C318.159 362.609 318.058 362.481 317.9 362.396C317.744 362.311 317.527 362.272 317.25 362.278L316.268 362.309C315.725 362.321 315.299 362.231 314.989 362.037C314.681 361.843 314.478 361.551 314.379 361.159C314.297 360.835 314.316 360.528 314.436 360.239C314.556 359.95 314.759 359.697 315.045 359.481C315.329 359.262 315.678 359.1 316.091 358.996C316.685 358.846 317.185 358.857 317.591 359.029C317.997 359.198 318.309 359.484 318.527 359.886Z" fill="black"/>
<path d="M346.516 352.477L342.379 345.87L343.292 345.298L343.78 346.077L343.858 346.028C343.85 345.894 343.856 345.729 343.876 345.533C343.896 345.338 343.966 345.135 344.086 344.923C344.204 344.709 344.413 344.509 344.711 344.322C345.099 344.079 345.507 343.96 345.934 343.966C346.361 343.971 346.777 344.104 347.181 344.365C347.587 344.625 347.953 345.014 348.278 345.533C348.604 346.053 348.796 346.552 348.855 347.032C348.913 347.509 348.854 347.943 348.677 348.332C348.498 348.72 348.215 349.035 347.827 349.278C347.535 349.461 347.266 349.561 347.019 349.579C346.774 349.596 346.558 349.572 346.372 349.506C346.185 349.44 346.032 349.373 345.911 349.306L345.855 349.341L347.452 351.891L346.516 352.477ZM344.8 347.698C345.012 348.036 345.246 348.302 345.503 348.495C345.761 348.688 346.027 348.798 346.303 348.826C346.577 348.851 346.849 348.78 347.118 348.611C347.398 348.436 347.585 348.216 347.68 347.95C347.774 347.683 347.788 347.391 347.723 347.074C347.661 346.756 347.529 346.437 347.328 346.115C347.129 345.798 346.903 345.544 346.649 345.351C346.397 345.158 346.131 345.048 345.849 345.02C345.57 344.992 345.29 345.066 345.008 345.242C344.737 345.412 344.552 345.625 344.451 345.883C344.353 346.139 344.335 346.422 344.395 346.732C344.456 347.042 344.591 347.365 344.8 347.698ZM352.357 343.537L350.596 340.724L351.534 340.137L354.543 344.942L353.623 345.518L353.102 344.686L353.052 344.717C353.102 345.043 353.059 345.368 352.922 345.691C352.786 346.012 352.537 346.285 352.177 346.511C351.868 346.704 351.552 346.808 351.23 346.821C350.908 346.831 350.595 346.744 350.291 346.559C349.989 346.374 349.714 346.083 349.466 345.687L347.552 342.63L348.487 342.045L350.33 344.989C350.536 345.316 350.789 345.52 351.092 345.6C351.395 345.681 351.692 345.63 351.982 345.448C352.157 345.339 352.303 345.186 352.422 344.99C352.542 344.793 352.604 344.569 352.608 344.32C352.614 344.07 352.53 343.809 352.357 343.537ZM356.664 346.122L352.527 339.515L353.44 338.943L353.928 339.722L354.006 339.673C353.998 339.539 354.003 339.375 354.023 339.179C354.043 338.984 354.113 338.78 354.233 338.569C354.352 338.355 354.561 338.155 354.859 337.968C355.247 337.725 355.654 337.606 356.082 337.612C356.509 337.617 356.925 337.75 357.329 338.011C357.735 338.27 358.101 338.66 358.426 339.179C358.751 339.698 358.944 340.198 359.003 340.677C359.061 341.155 359.001 341.588 358.824 341.978C358.646 342.366 358.363 342.681 357.975 342.924C357.683 343.106 357.414 343.207 357.167 343.225C356.922 343.242 356.706 343.217 356.519 343.151C356.333 343.085 356.179 343.019 356.059 342.952L356.003 342.987L357.599 345.537L356.664 346.122ZM354.948 341.344C355.159 341.682 355.394 341.947 355.651 342.14C355.908 342.333 356.175 342.444 356.451 342.471C356.725 342.497 356.997 342.426 357.266 342.257C357.545 342.082 357.733 341.862 357.828 341.596C357.921 341.329 357.936 341.036 357.871 340.72C357.808 340.402 357.677 340.082 357.476 339.761C357.277 339.444 357.051 339.189 356.797 338.997C356.545 338.804 356.278 338.693 355.997 338.666C355.718 338.638 355.438 338.712 355.156 338.888C354.885 339.058 354.699 339.271 354.599 339.528C354.501 339.784 354.482 340.068 354.543 340.378C354.604 340.688 354.739 341.01 354.948 341.344ZM361.837 342.883L357.7 336.276L358.613 335.704L359.101 336.483L359.179 336.434C359.171 336.3 359.176 336.135 359.196 335.94C359.216 335.745 359.286 335.541 359.406 335.33C359.525 335.116 359.733 334.916 360.032 334.729C360.42 334.486 360.827 334.367 361.254 334.373C361.682 334.378 362.097 334.511 362.502 334.772C362.908 335.031 363.274 335.421 363.599 335.94C363.924 336.459 364.116 336.959 364.176 337.438C364.234 337.916 364.174 338.349 363.997 338.739C363.819 339.126 363.536 339.442 363.148 339.685C362.856 339.867 362.586 339.968 362.339 339.986C362.095 340.003 361.879 339.978 361.692 339.912C361.506 339.846 361.352 339.78 361.232 339.713L361.176 339.748L362.772 342.298L361.837 342.883ZM360.121 338.105C360.332 338.443 360.567 338.708 360.824 338.901C361.081 339.094 361.348 339.205 361.624 339.232C361.898 339.258 362.17 339.187 362.439 339.018C362.718 338.843 362.905 338.623 363 338.357C363.094 338.089 363.109 337.797 363.044 337.481C362.981 337.163 362.849 336.843 362.648 336.522C362.45 336.205 362.224 335.95 361.97 335.758C361.718 335.565 361.451 335.454 361.17 335.427C360.891 335.399 360.611 335.472 360.329 335.649C360.058 335.819 359.872 336.032 359.772 336.289C359.674 336.545 359.655 336.828 359.716 337.139C359.777 337.449 359.912 337.771 360.121 338.105ZM365.881 337.842L362.872 333.037L363.808 332.451L366.817 337.257L365.881 337.842ZM362.88 332C362.718 332.102 362.544 332.135 362.359 332.1C362.176 332.061 362.036 331.966 361.941 331.813C361.844 331.659 361.819 331.492 361.866 331.311C361.913 331.128 362.018 330.985 362.181 330.883C362.344 330.781 362.517 330.75 362.701 330.788C362.886 330.824 363.026 330.919 363.123 331.073C363.218 331.225 363.242 331.393 363.195 331.577C363.148 331.757 363.043 331.898 362.88 332ZM369.942 335.434C369.469 335.731 368.998 335.885 368.529 335.897C368.061 335.905 367.619 335.783 367.202 335.53C366.786 335.274 366.422 334.896 366.11 334.398C365.802 333.906 365.622 333.415 365.57 332.924C365.521 332.433 365.596 331.978 365.796 331.559C365.998 331.14 366.322 330.79 366.768 330.511C367.039 330.341 367.33 330.221 367.641 330.152C367.951 330.082 368.268 330.08 368.59 330.145C368.913 330.21 369.228 330.359 369.537 330.593C369.844 330.824 370.135 331.158 370.408 331.594L370.615 331.925L366.795 334.317L366.357 333.616L369.26 331.799C369.106 331.552 368.919 331.366 368.7 331.239C368.48 331.11 368.244 331.047 367.994 331.05C367.745 331.051 367.5 331.128 367.258 331.28C366.995 331.444 366.806 331.652 366.691 331.904C366.577 332.153 366.531 332.414 366.554 332.687C366.578 332.957 366.665 333.212 366.815 333.451L367.158 333.999C367.359 334.32 367.586 334.558 367.84 334.713C368.096 334.866 368.363 334.938 368.642 334.929C368.919 334.918 369.195 334.827 369.468 334.656C369.645 334.545 369.791 334.418 369.906 334.277C370.019 334.133 370.097 333.977 370.139 333.809C370.182 333.64 370.184 333.463 370.146 333.277L371.132 332.882C371.224 333.187 371.24 333.495 371.179 333.806C371.119 334.114 370.985 334.408 370.778 334.689C370.571 334.967 370.293 335.215 369.942 335.434ZM374.043 327.675L373.29 328.356C373.186 328.27 373.065 328.202 372.927 328.152C372.79 328.101 372.638 328.085 372.469 328.104C372.301 328.122 372.12 328.192 371.926 328.313C371.661 328.479 371.477 328.677 371.374 328.907C371.27 329.135 371.276 329.341 371.392 329.527C371.493 329.688 371.633 329.78 371.813 329.803C371.994 329.827 372.236 329.787 372.54 329.684L373.413 329.381C373.919 329.206 374.347 329.157 374.697 329.234C375.047 329.311 375.329 329.52 375.542 329.86C375.722 330.147 375.799 330.456 375.773 330.786C375.748 331.112 375.628 331.432 375.411 331.744C375.197 332.056 374.895 332.333 374.508 332.576C373.969 332.913 373.459 333.073 372.975 333.056C372.49 333.038 372.076 332.84 371.732 332.463L372.55 331.759C372.754 331.959 372.982 332.065 373.232 332.076C373.482 332.086 373.748 332.002 374.029 331.826C374.336 331.634 374.541 331.417 374.645 331.175C374.747 330.93 374.741 330.715 374.624 330.53C374.53 330.38 374.395 330.289 374.218 330.257C374.044 330.224 373.826 330.253 373.564 330.345L372.639 330.676C372.126 330.854 371.693 330.899 371.338 330.811C370.986 330.721 370.702 330.505 370.488 330.163C370.311 329.879 370.234 329.581 370.26 329.269C370.285 328.957 370.4 328.654 370.605 328.361C370.809 328.065 371.091 327.804 371.452 327.578C371.971 327.253 372.451 327.109 372.89 327.148C373.328 327.184 373.712 327.36 374.043 327.675Z" fill="black"/>
<path d="M393.381 309.766L386.912 305.415L387.513 304.521L388.276 305.034L388.327 304.957C388.265 304.838 388.203 304.685 388.142 304.499C388.081 304.312 388.062 304.098 388.085 303.856C388.107 303.612 388.215 303.344 388.412 303.052C388.667 302.673 388.991 302.398 389.384 302.229C389.776 302.06 390.21 302.012 390.685 302.086C391.162 302.157 391.655 302.364 392.163 302.706C392.672 303.048 393.051 303.426 393.3 303.84C393.547 304.252 393.67 304.673 393.667 305.101C393.661 305.527 393.531 305.93 393.276 306.31C393.083 306.596 392.878 306.797 392.66 306.915C392.443 307.03 392.236 307.095 392.039 307.111C391.842 307.126 391.674 307.128 391.537 307.116L391.5 307.171L393.996 308.85L393.381 309.766ZM389.868 306.1C390.198 306.322 390.521 306.469 390.834 306.541C391.148 306.612 391.436 306.605 391.699 306.518C391.96 306.429 392.18 306.253 392.357 305.99C392.541 305.716 392.622 305.439 392.601 305.158C392.577 304.875 392.471 304.602 392.283 304.339C392.097 304.075 391.846 303.836 391.532 303.625C391.222 303.416 390.911 303.276 390.601 303.203C390.292 303.129 390.004 303.137 389.736 303.227C389.469 303.314 389.243 303.496 389.058 303.772C388.879 304.037 388.797 304.308 388.81 304.583C388.825 304.857 388.923 305.123 389.105 305.382C389.287 305.641 389.541 305.88 389.868 306.1ZM395.075 299.222L392.322 297.371L392.94 296.452L397.644 299.615L397.039 300.516L396.224 299.968L396.191 300.017C396.369 300.294 396.462 300.609 396.469 300.96C396.475 301.308 396.359 301.659 396.122 302.012C395.918 302.314 395.672 302.537 395.383 302.681C395.093 302.821 394.772 302.869 394.419 302.824C394.068 302.778 393.698 302.624 393.31 302.363L390.318 300.351L390.934 299.435L393.816 301.373C394.136 301.589 394.451 301.672 394.761 301.622C395.07 301.572 395.32 301.405 395.511 301.121C395.626 300.949 395.698 300.75 395.726 300.523C395.756 300.294 395.722 300.065 395.624 299.836C395.527 299.605 395.344 299.4 395.075 299.222ZM400.062 299.83L393.593 295.48L394.195 294.586L394.957 295.098L395.009 295.022C394.947 294.903 394.885 294.75 394.823 294.563C394.762 294.377 394.743 294.163 394.767 293.92C394.788 293.677 394.897 293.409 395.093 293.117C395.349 292.737 395.673 292.463 396.065 292.294C396.458 292.125 396.891 292.077 397.367 292.151C397.844 292.222 398.336 292.429 398.845 292.771C399.353 293.113 399.732 293.491 399.982 293.904C400.229 294.317 400.351 294.737 400.348 295.165C400.343 295.592 400.213 295.995 399.957 296.375C399.765 296.661 399.56 296.862 399.342 296.979C399.125 297.094 398.918 297.16 398.72 297.175C398.523 297.191 398.356 297.193 398.219 297.18L398.182 297.236L400.678 298.914L400.062 299.83ZM396.549 296.164C396.88 296.387 397.202 296.534 397.516 296.605C397.829 296.677 398.118 296.669 398.381 296.582C398.642 296.494 398.861 296.318 399.038 296.055C399.222 295.781 399.304 295.504 399.282 295.222C399.259 294.94 399.153 294.667 398.965 294.404C398.778 294.139 398.528 293.901 398.213 293.69C397.903 293.481 397.593 293.34 397.282 293.268C396.974 293.194 396.685 293.202 396.417 293.291C396.151 293.379 395.925 293.561 395.739 293.836C395.561 294.102 395.478 294.372 395.492 294.648C395.506 294.922 395.604 295.188 395.786 295.447C395.968 295.705 396.222 295.945 396.549 296.164ZM403.468 294.766L396.999 290.415L397.601 289.521L398.363 290.034L398.415 289.957C398.352 289.838 398.291 289.685 398.229 289.499C398.168 289.312 398.149 289.098 398.172 288.856C398.194 288.612 398.303 288.344 398.499 288.052C398.755 287.673 399.079 287.398 399.471 287.229C399.863 287.06 400.297 287.012 400.773 287.086C401.249 287.158 401.742 287.364 402.251 287.706C402.759 288.048 403.138 288.426 403.387 288.84C403.635 289.252 403.757 289.673 403.754 290.101C403.749 290.527 403.619 290.93 403.363 291.31C403.171 291.596 402.966 291.798 402.747 291.915C402.531 292.03 402.324 292.095 402.126 292.111C401.929 292.126 401.762 292.128 401.625 292.116L401.588 292.171L404.084 293.85L403.468 294.766ZM399.955 291.1C400.286 291.322 400.608 291.469 400.922 291.541C401.235 291.612 401.524 291.605 401.787 291.518C402.048 291.429 402.267 291.253 402.444 290.99C402.628 290.716 402.709 290.439 402.688 290.158C402.665 289.875 402.559 289.602 402.371 289.34C402.184 289.075 401.934 288.836 401.619 288.625C401.309 288.416 400.999 288.276 400.688 288.204C400.379 288.129 400.091 288.137 399.823 288.227C399.557 288.314 399.331 288.496 399.145 288.772C398.967 289.037 398.884 289.308 398.897 289.584C398.912 289.857 399.01 290.123 399.192 290.382C399.374 290.641 399.628 290.88 399.955 291.1ZM405.11 288.515L400.405 285.351L401.021 284.435L405.726 287.599L405.11 288.515ZM399.99 284.4C399.883 284.559 399.738 284.661 399.555 284.703C399.371 284.743 399.205 284.713 399.056 284.612C398.905 284.511 398.814 284.368 398.783 284.184C398.752 283.997 398.79 283.824 398.897 283.665C399.004 283.506 399.149 283.406 399.333 283.367C399.516 283.324 399.683 283.353 399.834 283.455C399.983 283.555 400.074 283.699 400.105 283.886C400.136 284.069 400.097 284.241 399.99 284.4ZM407.839 284.662C407.527 285.125 407.159 285.458 406.736 285.66C406.312 285.858 405.858 285.926 405.375 285.865C404.89 285.8 404.404 285.604 403.916 285.276C403.434 284.951 403.07 284.576 402.823 284.149C402.578 283.72 402.461 283.274 402.474 282.811C402.487 282.345 402.641 281.894 402.935 281.457C403.113 281.192 403.33 280.964 403.585 280.774C403.841 280.584 404.129 280.453 404.45 280.381C404.771 280.309 405.12 280.317 405.497 280.405C405.872 280.491 406.273 280.678 406.7 280.965L407.024 281.183L404.509 284.923L403.823 284.461L405.735 281.619C405.494 281.457 405.248 281.362 404.996 281.335C404.742 281.307 404.501 281.345 404.274 281.45C404.047 281.553 403.854 281.723 403.695 281.96C403.522 282.217 403.434 282.484 403.432 282.761C403.429 283.035 403.493 283.292 403.625 283.532C403.757 283.769 403.94 283.966 404.175 284.124L404.711 284.484C405.025 284.696 405.33 284.821 405.624 284.859C405.921 284.895 406.194 284.852 406.445 284.73C406.694 284.607 406.908 284.411 407.088 284.144C407.205 283.97 407.287 283.796 407.334 283.62C407.379 283.442 407.387 283.268 407.357 283.097C407.327 282.925 407.257 282.762 407.147 282.608L407.886 281.847C408.094 282.088 408.234 282.363 408.305 282.671C408.376 282.977 408.373 283.3 408.298 283.641C408.223 283.978 408.069 284.319 407.839 284.662ZM408.425 275.905L408.014 276.834C407.884 276.798 407.746 276.785 407.6 276.796C407.454 276.805 407.308 276.852 407.162 276.937C407.015 277.023 406.878 277.16 406.751 277.35C406.576 277.61 406.489 277.865 406.489 278.117C406.486 278.367 406.576 278.554 406.758 278.676C406.915 278.782 407.081 278.809 407.255 278.757C407.429 278.705 407.634 278.57 407.87 278.352L408.544 277.72C408.935 277.354 409.306 277.135 409.657 277.063C410.008 276.991 410.35 277.066 410.683 277.29C410.965 277.48 411.161 277.73 411.272 278.042C411.382 278.35 411.402 278.691 411.331 279.065C411.262 279.437 411.1 279.812 410.844 280.192C410.49 280.719 410.089 281.073 409.64 281.255C409.19 281.435 408.731 281.423 408.264 281.219L408.724 280.243C408.992 280.343 409.243 280.347 409.476 280.255C409.708 280.162 409.917 279.978 410.102 279.702C410.304 279.402 410.403 279.12 410.399 278.856C410.394 278.592 410.3 278.398 410.118 278.276C409.971 278.177 409.81 278.149 409.636 278.192C409.463 278.233 409.276 278.349 409.074 278.539L408.364 279.218C407.968 279.59 407.591 279.807 407.231 279.871C406.872 279.932 406.526 279.85 406.191 279.625C405.913 279.438 405.722 279.197 405.618 278.902C405.514 278.606 405.496 278.283 405.564 277.931C405.629 277.578 405.781 277.224 406.019 276.871C406.361 276.363 406.74 276.037 407.157 275.893C407.572 275.748 407.994 275.752 408.425 275.905Z" fill="black"/>
<path d="M51.4164 265.105C50.8831 265.121 50.3359 264.93 49.7426 264.522C49.3557 264.254 48.999 263.935 48.6822 263.571C47.9568 262.737 47.0149 262.126 45.9581 261.803C45.4966 261.661 45.0591 261.466 44.6577 261.221C44.6183 261.197 44.5796 261.173 44.5418 261.148C43.9924 260.792 43.6325 260.392 43.4434 259.93C43.0976 259.085 43.3822 257.96 44.1058 257.315C44.7526 256.738 45.5793 256.595 46.3788 256.456C46.4868 256.437 46.5985 256.418 46.7065 256.398C47.5244 256.247 48.3381 256.006 49.1247 255.683C49.2243 255.642 49.3258 255.599 49.4241 255.557C49.8013 255.396 50.1912 255.23 50.5974 255.138L50.6127 255.135C51.1079 255.026 51.6181 255.12 52.0495 255.4C52.2653 255.54 52.4465 255.716 52.5866 255.921C52.7266 256.125 52.8256 256.356 52.8765 256.604L52.8796 256.619C52.9612 257.028 52.9684 257.452 52.9751 257.862C52.977 257.968 52.9788 258.079 52.9821 258.186C53.0069 259.037 53.1184 259.878 53.3133 260.686C53.339 260.793 53.367 260.903 53.3939 261.009C53.5929 261.796 53.7987 262.609 53.5352 263.435C53.2402 264.359 52.3293 265.076 51.4164 265.105Z" fill="black"/>
<path d="M57.8567 260.493C57.2254 260.871 56.6032 261.011 56.0581 260.897C55.8417 260.853 55.6405 260.769 55.4581 260.651C55.2126 260.492 55.0012 260.268 54.8328 259.987C54.543 259.503 54.4938 259.029 54.6865 258.577C54.8771 258.13 55.2924 257.719 55.9562 257.321C56.6283 256.919 57.2851 256.691 57.8557 256.663C58.5039 256.63 58.9944 256.86 59.2737 257.326C59.5534 257.793 59.5524 258.384 59.2705 258.992C58.9996 259.576 58.4974 260.109 57.8567 260.493Z" fill="black"/>
<path d="M57.2601 255.549C56.7636 256.177 56.1857 256.559 55.5882 256.653C55.1033 256.73 54.6223 256.621 54.1848 256.337C54.1204 256.295 54.0572 256.25 53.995 256.201C53.5158 255.822 53.2837 255.361 53.3054 254.829C53.327 254.302 53.5914 253.724 54.1137 253.063C54.3785 252.728 54.6563 252.439 54.9391 252.202C55.2219 251.966 55.5098 251.782 55.7946 251.658C56.4392 251.376 57.0235 251.42 57.4845 251.784C57.9472 252.15 58.1732 252.75 58.1208 253.475C58.0703 254.174 57.7645 254.911 57.2601 255.549Z" fill="black"/>
<path d="M48.7022 252.615C48.6093 253.382 48.4035 253.929 48.0727 254.285C47.7381 254.645 47.2848 254.794 46.7253 254.726C46.4001 254.687 46.1095 254.584 45.864 254.425C45.6816 254.307 45.524 254.157 45.3946 253.977C45.0687 253.526 44.9432 252.901 45.0315 252.17C45.1213 251.429 45.4038 250.753 45.8268 250.268C46.2669 249.763 46.8069 249.521 47.3473 249.586C47.8865 249.651 48.2958 250.006 48.5304 250.611C48.737 251.144 48.7963 251.836 48.7022 252.615Z" fill="black"/>
<path d="M53.3436 252.561C53.2544 252.732 53.1638 252.888 53.0712 253.03C52.7583 253.513 52.4248 253.838 52.0597 254.019C51.5831 254.255 51.0672 254.231 50.5262 253.948C50.456 253.911 50.3889 253.872 50.3245 253.83C49.8869 253.546 49.5912 253.151 49.4637 252.677C49.3066 252.093 49.4201 251.41 49.7916 250.7C50.1693 249.98 50.7174 249.4 51.3352 249.07C51.9757 248.727 52.6162 248.688 53.1385 248.962C53.6588 249.235 53.9369 249.751 53.9423 250.454C53.9472 251.076 53.7401 251.805 53.3436 252.561Z" fill="black"/>
<path d="M108.702 299.526C108.168 299.542 107.621 299.351 107.028 298.942C106.641 298.675 106.284 298.355 105.967 297.991C105.242 297.158 104.3 296.546 103.243 296.223C102.782 296.082 102.344 295.887 101.943 295.642C101.903 295.618 101.865 295.594 101.827 295.569C101.278 295.213 100.918 294.813 100.729 294.351C100.383 293.506 100.667 292.381 101.391 291.736C102.038 291.159 102.864 291.016 103.664 290.877C103.772 290.858 103.884 290.839 103.992 290.819C104.81 290.668 105.623 290.427 106.41 290.104C106.509 290.063 106.611 290.019 106.709 289.978C107.086 289.817 107.476 289.651 107.883 289.559L107.898 289.556C108.393 289.447 108.903 289.541 109.335 289.821C109.55 289.961 109.732 290.137 109.872 290.342C110.012 290.545 110.111 290.777 110.162 291.025L110.165 291.04C110.246 291.449 110.254 291.872 110.26 292.283C110.262 292.389 110.264 292.5 110.267 292.607C110.292 293.457 110.404 294.299 110.598 295.107C110.624 295.214 110.652 295.324 110.679 295.43C110.878 296.217 111.084 297.03 110.82 297.856C110.525 298.779 109.614 299.497 108.702 299.526Z" fill="black"/>
<path d="M115.142 294.914C114.511 295.292 113.888 295.432 113.343 295.318C113.127 295.273 112.926 295.19 112.743 295.072C112.498 294.913 112.286 294.689 112.118 294.408C111.828 293.924 111.779 293.45 111.972 292.998C112.162 292.551 112.578 292.14 113.241 291.742C113.914 291.339 114.57 291.112 115.141 291.083C115.789 291.051 116.28 291.281 116.559 291.747C116.839 292.214 116.838 292.805 116.556 293.413C116.285 293.997 115.783 294.53 115.142 294.914Z" fill="black"/>
<path d="M114.545 289.97C114.049 290.598 113.471 290.98 112.873 291.074C112.388 291.151 111.907 291.042 111.47 290.758C111.406 290.716 111.342 290.671 111.28 290.621C110.801 290.243 110.569 289.781 110.591 289.25C110.612 288.722 110.877 288.145 111.399 287.484C111.664 287.149 111.941 286.86 112.224 286.623C112.507 286.387 112.795 286.203 113.08 286.079C113.724 285.797 114.309 285.841 114.77 286.205C115.232 286.571 115.458 287.171 115.406 287.896C115.355 288.595 115.05 289.331 114.545 289.97Z" fill="black"/>
<path d="M105.987 287.036C105.894 287.803 105.689 288.35 105.358 288.706C105.023 289.066 104.57 289.214 104.01 289.147C103.685 289.107 103.395 289.005 103.149 288.846C102.967 288.728 102.809 288.578 102.68 288.398C102.354 287.947 102.228 287.322 102.317 286.591C102.406 285.849 102.689 285.174 103.112 284.688C103.552 284.184 104.092 283.942 104.632 284.007C105.172 284.072 105.581 284.427 105.816 285.032C106.022 285.565 106.081 286.257 105.987 287.036Z" fill="black"/>
<path d="M110.629 286.982C110.54 287.152 110.449 287.309 110.356 287.451C110.043 287.933 109.71 288.259 109.345 288.44C108.868 288.676 108.352 288.652 107.811 288.368C107.741 288.332 107.674 288.292 107.61 288.251C107.172 287.967 106.876 287.572 106.749 287.098C106.592 286.514 106.705 285.83 107.077 285.121C107.454 284.4 108.003 283.821 108.62 283.49C109.261 283.147 109.901 283.109 110.424 283.383C110.944 283.656 111.222 284.172 111.227 284.875C111.232 285.497 111.025 286.225 110.629 286.982Z" fill="black"/>
<path d="M158.061 337.67C157.528 337.687 156.98 337.496 156.387 337.087C156 336.82 155.644 336.5 155.327 336.136C154.601 335.302 153.659 334.691 152.603 334.368C152.141 334.227 151.704 334.031 151.302 333.787C151.263 333.763 151.224 333.738 151.186 333.714C150.637 333.357 150.277 332.958 150.088 332.496C149.742 331.65 150.027 330.526 150.75 329.88C151.397 329.303 152.224 329.16 153.023 329.022C153.131 329.003 153.243 328.984 153.351 328.964C154.169 328.812 154.983 328.572 155.769 328.248C155.869 328.207 155.97 328.164 156.069 328.122C156.446 327.961 156.836 327.795 157.242 327.704L157.257 327.7C157.752 327.591 158.263 327.685 158.694 327.965C158.91 328.105 159.091 328.282 159.231 328.486C159.371 328.69 159.47 328.921 159.521 329.169L159.524 329.185C159.606 329.593 159.613 330.017 159.62 330.427C159.622 330.534 159.623 330.644 159.627 330.752C159.651 331.602 159.763 332.443 159.958 333.252C159.984 333.358 160.012 333.468 160.038 333.575C160.237 334.361 160.443 335.174 160.18 336C159.885 336.924 158.974 337.642 158.061 337.67Z" fill="black"/>
<path d="M164.501 333.058C163.87 333.437 163.248 333.577 162.703 333.463C162.486 333.418 162.285 333.335 162.103 333.216C161.857 333.057 161.646 332.833 161.477 332.552C161.188 332.069 161.138 331.594 161.331 331.142C161.522 330.695 161.937 330.284 162.601 329.887C163.273 329.484 163.93 329.256 164.5 329.228C165.148 329.196 165.639 329.425 165.918 329.891C166.198 330.358 166.197 330.95 165.915 331.557C165.644 332.141 165.142 332.674 164.501 333.058Z" fill="black"/>
<path d="M163.905 328.114C163.408 328.743 162.83 329.125 162.233 329.219C161.748 329.296 161.267 329.186 160.829 328.902C160.765 328.86 160.702 328.815 160.64 328.766C160.16 328.387 159.928 327.926 159.95 327.394C159.972 326.867 160.236 326.289 160.758 325.628C161.023 325.293 161.301 325.004 161.584 324.768C161.866 324.531 162.154 324.348 162.439 324.223C163.084 323.942 163.668 323.986 164.129 324.35C164.592 324.715 164.818 325.316 164.765 326.041C164.715 326.74 164.409 327.476 163.905 328.114Z" fill="black"/>
<path d="M155.347 325.18C155.254 325.948 155.048 326.494 154.717 326.851C154.383 327.211 153.929 327.359 153.37 327.291C153.045 327.252 152.754 327.15 152.509 326.991C152.326 326.872 152.169 326.722 152.039 326.543C151.713 326.091 151.588 325.466 151.676 324.736C151.766 323.994 152.048 323.318 152.471 322.833C152.911 322.328 153.451 322.086 153.992 322.151C154.531 322.217 154.94 322.571 155.175 323.177C155.382 323.709 155.441 324.402 155.347 325.18Z" fill="black"/>
<path d="M159.988 325.127C159.899 325.297 159.808 325.453 159.716 325.596C159.403 326.078 159.069 326.403 158.704 326.584C158.228 326.821 157.712 326.796 157.171 326.513C157.101 326.476 157.033 326.437 156.969 326.395C156.531 326.111 156.236 325.716 156.108 325.242C155.951 324.658 156.065 323.975 156.436 323.266C156.814 322.545 157.362 321.966 157.98 321.635C158.62 321.292 159.261 321.254 159.783 321.528C160.303 321.8 160.581 322.316 160.587 323.019C160.592 323.641 160.385 324.37 159.988 325.127Z" fill="black"/>
<path d="M213.123 368.079C212.603 368.199 212.029 368.117 211.368 367.831C210.937 367.643 210.525 367.398 210.144 367.102C209.271 366.424 208.229 366.007 207.13 365.894C206.649 365.844 206.182 365.737 205.741 365.575C205.698 365.559 205.655 365.542 205.614 365.526C205.006 365.282 204.575 364.959 204.301 364.542C203.798 363.78 203.86 362.622 204.445 361.848C204.969 361.157 205.752 360.857 206.51 360.567C206.612 360.528 206.718 360.487 206.82 360.447C207.593 360.14 208.345 359.747 209.054 359.278C209.144 359.218 209.235 359.156 209.324 359.096C209.663 358.866 210.013 358.627 210.394 358.459L210.409 358.452C210.873 358.25 211.392 358.243 211.869 358.435C212.108 358.531 212.32 358.669 212.497 358.842C212.674 359.015 212.816 359.223 212.914 359.457L212.92 359.471C213.078 359.856 213.167 360.271 213.253 360.672C213.276 360.776 213.299 360.884 213.323 360.989C213.511 361.818 213.783 362.622 214.131 363.378C214.176 363.477 214.225 363.58 214.272 363.679C214.619 364.412 214.978 365.171 214.879 366.032C214.768 366.995 214.013 367.875 213.123 368.079Z" fill="black"/>
<path d="M218.553 362.311C218.007 362.803 217.423 363.061 216.866 363.055C216.645 363.052 216.432 363.01 216.23 362.929C215.958 362.82 215.708 362.641 215.488 362.398C215.111 361.98 214.971 361.524 215.072 361.043C215.173 360.567 215.501 360.084 216.076 359.566C216.657 359.041 217.258 358.69 217.812 358.552C218.442 358.396 218.967 358.526 219.331 358.929C219.696 359.333 219.809 359.914 219.65 360.565C219.497 361.19 219.107 361.81 218.553 362.311Z" fill="black"/>
<path d="M217.015 357.574C216.649 358.286 216.156 358.773 215.588 358.981C215.127 359.15 214.634 359.135 214.149 358.941C214.078 358.913 214.007 358.88 213.937 358.844C213.394 358.565 213.077 358.157 212.995 357.632C212.915 357.11 213.062 356.492 213.447 355.743C213.642 355.363 213.859 355.025 214.091 354.739C214.323 354.452 214.57 354.216 214.825 354.039C215.403 353.639 215.985 353.569 216.508 353.837C217.032 354.106 217.37 354.652 217.458 355.373C217.544 356.069 217.386 356.85 217.015 357.574Z" fill="black"/>
<path d="M208.05 356.348C208.107 357.12 208.011 357.696 207.755 358.109C207.497 358.527 207.08 358.76 206.518 358.801C206.192 358.826 205.887 358.782 205.615 358.673C205.413 358.592 205.23 358.475 205.068 358.324C204.661 357.944 204.417 357.355 204.363 356.621C204.308 355.876 204.454 355.158 204.776 354.601C205.11 354.02 205.593 353.679 206.136 353.638C206.678 353.598 207.148 353.867 207.495 354.416C207.8 354.898 207.992 355.566 208.05 356.348Z" fill="black"/>
<path d="M212.59 355.401C212.535 355.585 212.477 355.756 212.413 355.913C212.199 356.447 211.935 356.831 211.612 357.079C211.19 357.403 210.679 357.479 210.093 357.305C210.017 357.282 209.944 357.257 209.873 357.228C209.389 357.034 209.022 356.704 208.805 356.263C208.538 355.721 208.518 355.028 208.745 354.261C208.977 353.481 209.403 352.806 209.945 352.363C210.507 351.902 211.128 351.741 211.693 351.909C212.257 352.076 212.629 352.528 212.77 353.217C212.895 353.826 212.833 354.581 212.59 355.401Z" fill="black"/>
<path d="M279.303 377.631C278.913 377.995 278.376 378.212 277.661 378.296C277.193 378.35 276.714 378.345 276.236 378.28C275.141 378.132 274.03 378.293 273.022 378.748C272.582 378.946 272.125 379.087 271.661 379.168C271.616 379.176 271.571 379.183 271.526 379.19C270.878 379.284 270.344 379.221 269.897 378.998C269.08 378.591 268.552 377.558 268.671 376.595C268.777 375.735 269.304 375.082 269.813 374.451C269.882 374.365 269.953 374.277 270.021 374.191C270.537 373.538 270.989 372.82 271.368 372.059C271.416 371.962 271.463 371.863 271.51 371.766C271.687 371.397 271.871 371.015 272.116 370.678L272.125 370.666C272.425 370.257 272.871 369.991 273.38 369.917C273.634 369.88 273.887 369.894 274.127 369.955C274.367 370.016 274.594 370.124 274.796 370.277L274.808 370.287C275.139 370.54 275.424 370.854 275.699 371.158C275.771 371.237 275.845 371.319 275.918 371.397C276.498 372.02 277.136 372.579 277.816 373.058C277.906 373.121 277.999 373.186 278.089 373.248C278.758 373.708 279.449 374.184 279.795 374.978C280.182 375.867 279.971 377.007 279.303 377.631Z" fill="black"/>
<path d="M281.103 369.918C280.878 370.618 280.502 371.134 280.017 371.408C279.825 371.517 279.619 371.587 279.404 371.618C279.114 371.66 278.808 371.631 278.496 371.531C277.959 371.359 277.609 371.035 277.456 370.567C277.304 370.106 277.346 369.523 277.583 368.787C277.822 368.04 278.166 367.436 278.576 367.039C279.042 366.587 279.562 366.436 280.08 366.602C280.598 366.769 280.987 367.214 281.176 367.857C281.357 368.474 281.331 369.206 281.103 369.918Z" fill="black"/>
<path d="M277.396 366.594C277.437 367.393 277.254 368.061 276.867 368.526C276.553 368.904 276.119 369.139 275.603 369.214C275.527 369.225 275.45 369.232 275.371 369.236C274.761 369.268 274.282 369.074 273.948 368.66C273.616 368.249 273.434 367.641 273.391 366.799C273.369 366.373 273.387 365.972 273.444 365.608C273.501 365.244 273.596 364.916 273.728 364.635C274.027 363.998 274.495 363.646 275.082 363.615C275.671 363.585 276.237 363.888 276.675 364.467C277.098 365.026 277.354 365.781 277.396 366.594Z" fill="black"/>
<path d="M269.026 370.03C269.463 370.669 269.669 371.215 269.655 371.701C269.641 372.193 269.398 372.603 268.932 372.921C268.662 373.106 268.376 373.221 268.087 373.263C267.871 373.294 267.654 373.286 267.439 373.236C266.896 373.111 266.389 372.724 265.974 372.117C265.552 371.5 265.319 370.806 265.317 370.162C265.315 369.492 265.561 368.954 266.011 368.647C266.459 368.341 267.001 368.337 267.576 368.637C268.083 368.902 268.584 369.383 269.026 370.03Z" fill="black"/>
<path d="M272.482 366.931C272.527 367.117 272.562 367.295 272.586 367.463C272.669 368.032 272.633 368.496 272.477 368.873C272.275 369.365 271.871 369.687 271.278 369.831C271.2 369.849 271.124 369.864 271.048 369.875C270.532 369.95 270.049 369.848 269.641 369.576C269.138 369.241 268.772 368.652 268.584 367.874C268.393 367.083 268.423 366.286 268.669 365.63C268.925 364.95 269.381 364.499 269.954 364.36C270.525 364.222 271.074 364.426 271.542 364.952C271.956 365.416 272.281 366.1 272.482 366.931Z" fill="black"/>
<path d="M341.431 354.652C341.207 355.136 340.791 355.54 340.159 355.887C339.747 356.113 339.301 356.288 338.834 356.408C337.763 356.683 336.795 357.251 336.032 358.05C335.699 358.4 335.328 358.703 334.929 358.952C334.89 358.977 334.851 359 334.812 359.023C334.247 359.354 333.729 359.497 333.231 359.459C332.32 359.389 331.443 358.63 331.19 357.694C330.965 356.857 331.207 356.054 331.442 355.277C331.474 355.172 331.507 355.064 331.537 354.958C331.769 354.159 331.918 353.324 331.982 352.476C331.99 352.369 331.997 352.258 332.003 352.152C332.029 351.743 332.055 351.32 332.156 350.915L332.159 350.9C332.284 350.409 332.597 349.995 333.04 349.735C333.262 349.605 333.502 349.522 333.747 349.488C333.992 349.455 334.243 349.47 334.488 349.536L334.503 349.54C334.904 349.65 335.286 349.833 335.656 350.011C335.752 350.057 335.852 350.105 335.949 350.151C336.72 350.51 337.522 350.787 338.332 350.976C338.439 351 338.55 351.025 338.657 351.048C339.449 351.223 340.269 351.404 340.889 352.01C341.582 352.688 341.815 353.824 341.431 354.652Z" fill="black"/>
<path d="M340.195 346.828C340.25 347.562 340.096 348.181 339.75 348.617C339.613 348.791 339.449 348.933 339.261 349.043C339.009 349.191 338.714 349.28 338.387 349.304C337.825 349.347 337.379 349.178 337.061 348.803C336.747 348.432 336.566 347.877 336.508 347.105C336.45 346.324 336.54 345.634 336.771 345.112C337.033 344.518 337.458 344.182 338 344.142C338.542 344.101 339.071 344.367 339.488 344.892C339.888 345.396 340.139 346.084 340.195 346.828Z" fill="black"/>
<path d="M335.511 345.144C335.849 345.869 335.932 346.557 335.748 347.133C335.599 347.601 335.286 347.982 334.836 348.246C334.769 348.284 334.701 348.32 334.629 348.354C334.075 348.613 333.559 348.613 333.094 348.356C332.632 348.1 332.234 347.604 331.877 346.841C331.697 346.454 331.563 346.076 331.478 345.717C331.394 345.359 331.359 345.019 331.375 344.709C331.413 344.006 331.714 343.504 332.246 343.255C332.78 343.005 333.418 343.072 334.043 343.444C334.645 343.803 335.166 344.406 335.511 345.144Z" fill="black"/>
<path d="M329.051 351.476C329.695 351.904 330.091 352.333 330.261 352.788C330.433 353.249 330.363 353.72 330.051 354.19C329.87 354.463 329.649 354.677 329.396 354.825C329.209 354.935 329.004 355.009 328.786 355.044C328.236 355.133 327.621 354.964 327.007 354.558C326.385 354.145 325.907 353.59 325.663 352.994C325.409 352.374 325.435 351.783 325.736 351.329C326.036 350.877 326.537 350.67 327.183 350.731C327.751 350.786 328.397 351.043 329.051 351.476Z" fill="black"/>
<path d="M331.083 347.307C331.195 347.463 331.294 347.614 331.38 347.76C331.67 348.256 331.812 348.7 331.81 349.108C331.807 349.64 331.554 350.09 331.058 350.447C330.994 350.493 330.929 350.535 330.862 350.574C330.412 350.838 329.927 350.925 329.446 350.826C328.854 350.705 328.294 350.297 327.826 349.647C327.351 348.986 327.079 348.237 327.061 347.536C327.042 346.81 327.295 346.22 327.773 345.876C328.251 345.533 328.836 345.516 329.467 345.827C330.025 346.101 330.584 346.613 331.083 347.307Z" fill="black"/>
<path d="M390.568 314.687C390.541 315.22 390.305 315.749 389.849 316.307C389.551 316.67 389.203 316.999 388.814 317.285C387.923 317.939 387.236 318.827 386.827 319.854C386.648 320.302 386.417 320.722 386.14 321.102C386.113 321.139 386.086 321.176 386.058 321.211C385.657 321.729 385.229 322.055 384.753 322.205C383.882 322.48 382.785 322.104 382.202 321.329C381.68 320.637 381.605 319.801 381.533 318.993C381.524 318.884 381.514 318.771 381.503 318.662C381.419 317.834 381.247 317.004 380.989 316.193C380.957 316.09 380.922 315.986 380.888 315.884C380.759 315.495 380.626 315.093 380.568 314.68L380.566 314.665C380.498 314.162 380.634 313.662 380.949 313.255C381.106 313.051 381.297 312.885 381.512 312.763C381.727 312.64 381.965 312.56 382.217 312.53L382.233 312.528C382.646 312.481 383.069 312.508 383.479 312.535C383.585 312.542 383.695 312.55 383.803 312.555C384.652 312.601 385.499 312.559 386.321 312.432C386.43 312.415 386.542 312.396 386.65 312.378C387.45 312.244 388.278 312.107 389.079 312.437C389.975 312.808 390.615 313.775 390.568 314.687Z" fill="black"/>
<path d="M386.503 307.888C386.828 308.548 386.916 309.18 386.757 309.714C386.695 309.926 386.595 310.119 386.462 310.291C386.283 310.523 386.043 310.715 385.749 310.86C385.243 311.109 384.766 311.119 384.332 310.889C383.902 310.662 383.527 310.215 383.185 309.52C382.839 308.817 382.666 308.144 382.685 307.573C382.707 306.924 382.976 306.454 383.463 306.214C383.952 305.974 384.541 306.024 385.124 306.355C385.683 306.673 386.173 307.218 386.503 307.888Z" fill="black"/>
<path d="M381.528 308.073C382.113 308.62 382.446 309.227 382.49 309.831C382.527 310.32 382.378 310.79 382.059 311.203C382.012 311.264 381.961 311.323 381.907 311.381C381.491 311.827 381.012 312.02 380.484 311.955C379.96 311.89 379.406 311.579 378.79 311.004C378.478 310.712 378.213 310.411 378.001 310.11C377.788 309.809 377.629 309.507 377.529 309.213C377.301 308.547 377.393 307.968 377.794 307.539C378.197 307.108 378.814 306.932 379.532 307.044C380.224 307.152 380.933 307.518 381.528 308.073Z" fill="black"/>
<path d="M377.899 316.359C378.656 316.515 379.184 316.765 379.511 317.124C379.843 317.488 379.953 317.952 379.839 318.504C379.773 318.824 379.648 319.106 379.469 319.337C379.336 319.509 379.173 319.654 378.984 319.768C378.507 320.055 377.874 320.129 377.153 319.981C376.421 319.83 375.771 319.493 375.322 319.031C374.855 318.551 374.659 317.993 374.769 317.459C374.878 316.928 375.265 316.549 375.888 316.365C376.436 316.203 377.131 316.201 377.899 316.359Z" fill="black"/>
<path d="M378.228 311.731C378.39 311.834 378.538 311.938 378.672 312.042C379.127 312.393 379.424 312.753 379.574 313.131C379.77 313.626 379.704 314.138 379.376 314.654C379.334 314.721 379.289 314.784 379.242 314.845C378.923 315.258 378.506 315.52 378.022 315.608C377.427 315.716 376.756 315.547 376.08 315.118C375.393 314.682 374.86 314.088 374.582 313.445C374.293 312.778 374.308 312.137 374.624 311.639C374.938 311.143 375.475 310.908 376.177 310.961C376.797 311.007 377.506 311.274 378.228 311.731Z" fill="black"/>
</svg>
