<svg width="153" height="12" viewBox="0 0 153 12" fill="none" xmlns="http://www.w3.org/2000/svg">
<path d="M65.7322 7.09163C62.7656 7.13615 59.7829 7.14852 56.8243 7.2326C44.2521 7.58625 31.68 7.96464 19.1078 8.3257C17.9372 8.36033 16.7505 8.35043 15.5719 8.33311C11.5308 8.27623 10.0876 7.67033 11.1299 6.48821C11.3063 6.28789 11.4667 6.08263 11.6992 5.79823C13.6716 5.72898 15.6921 5.67705 17.6966 5.5806C19.6049 5.48909 21.4651 5.30609 23.3814 5.23931C25.1453 5.17749 26.9494 5.24426 28.7213 5.20964C30.1245 5.18244 31.5357 5.12308 32.8987 5.02168C35.3442 4.84362 37.7576 4.626 40.195 4.42816C40.5558 4.39848 41.1812 4.34902 41.2855 4.39601C42.9452 5.11567 43.747 4.48504 44.8214 4.32182C57.7624 4.06215 70.4788 3.2213 83.3397 2.71185C73.1969 2.85035 63.0382 2.91712 52.9115 3.14712C37.974 3.4884 23.0607 3.94838 8.13122 4.35643C6.76817 4.39353 5.40513 4.43063 4.03406 4.443C1.60461 4.46278 -0.047084 3.7357 0.00102378 2.75389C0.0411136 1.86359 1.84514 1.99962 3.84963 1.98725C9.33392 1.95015 14.8102 1.83392 20.2864 1.72263C25.4179 1.61876 30.5494 1.48521 35.6809 1.36156C43.9394 1.16371 52.1819 0.918885 60.4564 0.77792C65.2993 0.696309 70.1822 0.772969 75.0411 0.787807C78.7775 0.800172 82.4737 0.486091 86.2823 0.861996C87.8859 1.02027 89.9545 0.664157 91.8227 0.651792C99.6562 0.604804 107.49 0.582554 115.323 0.582554C119.765 0.582554 124.199 0.674046 128.641 0.664154C135.12 0.649316 141.598 0.614701 148.069 0.518252C150.666 0.478683 152.591 0.787814 152.96 1.49016C153.224 1.99219 152.126 2.56842 151.508 3.10013C151.412 3.18421 150.658 3.23119 150.209 3.23367C139.85 3.26582 129.459 3.14711 119.14 3.35484C107.337 3.58978 95.5991 4.1116 83.8368 4.51471C82.7864 4.55181 81.7601 4.64578 80.7258 4.71255C80.7338 4.79169 80.7499 4.87083 80.7579 4.95245C85.2961 4.95245 89.8342 4.92029 94.3724 4.96233C98.654 5.0019 102.936 5.15029 107.217 5.19728C110.384 5.2319 113.567 5.21953 116.726 5.15029C119.653 5.08846 121.529 5.58308 121.762 6.60692C121.93 7.34389 120.583 7.72969 117.817 7.79894C106.303 8.09571 94.7893 8.39988 83.2835 8.71396C82.2572 8.74116 81.255 8.84751 80.2207 9.00084C88.9763 9.39901 97.9243 9.48557 106.038 10.6726L106.191 11.0362C104.98 11.1771 103.753 11.4492 102.567 11.4393C94.7653 11.3626 86.9798 11.2192 79.1783 11.1054C70.3506 10.9743 61.5308 10.8581 52.7031 10.7196C51.4523 10.6998 50.2255 10.591 48.9747 10.5341C45.11 10.361 44.5889 9.65373 45.7996 8.3158C45.9439 8.15258 46.6335 7.93248 47.1226 7.91764C50.5222 7.81625 54.0421 7.57389 57.3134 7.74948C60.5607 7.92259 63.0783 7.63571 65.8124 7.34637C65.7803 7.25981 65.7563 7.17573 65.7242 7.08917L65.7322 7.09163Z" fill="#EFC951"/>
</svg>
