<svg width="358" height="86" viewBox="0 0 358 86" fill="none" xmlns="http://www.w3.org/2000/svg">
<g opacity="0.26" clip-path="url(#clip0_3_8167)">
<path d="M591.937 -9.67797L-92.625 31.877L-88.8005 94.8803L595.762 53.3253L591.937 -9.67797Z" fill="#EFC951"/>
<path d="M3.51329 64.1158C3.12933 64.4187 2.6219 64.5759 1.96201 64.5975C1.5313 64.6114 1.09427 64.5699 0.662817 64.4741C-0.326038 64.2545 -1.35325 64.3169 -2.30792 64.6544C-2.72498 64.8018 -3.15379 64.8958 -3.58302 64.9341C-3.62495 64.9378 -3.66691 64.941 -3.70781 64.9435C-4.30726 64.9799 -4.78992 64.8813 -5.18117 64.6436C-5.89613 64.2088 -6.29863 63.2253 -6.11699 62.3554C-5.9545 61.578 -5.42319 61.0222 -4.90925 60.4847C-4.8397 60.4121 -4.76808 60.3371 -4.69932 60.2636C-4.1788 59.7067 -3.71021 59.0861 -3.30656 58.4194C-3.25547 58.3351 -3.20418 58.2479 -3.15458 58.1634C-2.96382 57.8396 -2.76707 57.5049 -2.5176 57.2161L-2.50828 57.2052C-2.20263 56.8551 -1.77522 56.6466 -1.30509 56.618C-1.06966 56.6037 -0.839946 56.6354 -0.625396 56.7096C-0.411225 56.7836 -0.212236 56.9 -0.0397268 57.0554L-0.0287868 57.065C0.253778 57.3215 0.489577 57.63 0.718116 57.9286C0.777557 58.0062 0.839018 58.0866 0.899932 58.1641C1.38128 58.7773 1.92148 59.3364 2.50554 59.8263C2.58232 59.8909 2.66285 59.9567 2.74068 60.0204C3.31548 60.4918 3.91012 60.9792 4.16582 61.7313C4.45135 62.5727 4.17077 63.5977 3.51329 64.1158Z" fill="black"/>
<path d="M5.74405 57.2104C5.48489 57.8329 5.10235 58.2749 4.63861 58.4879C4.45478 58.5726 4.26135 58.6209 4.06239 58.633C3.79454 58.6492 3.51713 58.5995 3.23979 58.484C2.76291 58.2855 2.46818 57.9627 2.36429 57.5243C2.26106 57.091 2.3436 56.5622 2.61635 55.9077C2.89229 55.2448 3.25236 54.7191 3.65751 54.3877C4.11796 54.0109 4.60422 53.913 5.06366 54.1042C5.52424 54.2961 5.84585 54.7328 5.96888 55.3341C6.08716 55.9119 6.00744 56.5785 5.74405 57.2104Z" fill="black"/>
<path d="M2.61322 53.8896C2.58932 54.6229 2.37146 55.2191 1.98236 55.614C1.66679 55.9346 1.25253 56.1159 0.775397 56.1449C0.705393 56.1491 0.634082 56.1501 0.561461 56.1478C0.00196887 56.1297 -0.420373 55.916 -0.693743 55.5125C-0.96508 55.1119 -1.08471 54.5423 -1.05982 53.7705C-1.04696 53.3792 -0.99955 53.015 -0.920003 52.6867C-0.840455 52.3584 -0.728386 52.0663 -0.585825 51.8196C-0.263984 51.2611 0.190531 50.9753 0.728533 50.9927C1.26876 51.0101 1.76223 51.3297 2.11812 51.8924C2.46168 52.4349 2.63713 53.1443 2.61322 53.8896Z" fill="black"/>
<path d="M11.2502 62.335L10.8476 55.7031L11.7647 55.6475L11.8121 56.4294L11.8906 56.4246C11.939 56.3208 12.0104 56.1998 12.1049 56.0617C12.1997 55.9236 12.3349 55.7998 12.5109 55.6904C12.6872 55.5788 12.9247 55.514 13.2243 55.4958C13.6134 55.4722 13.9671 55.5495 14.2845 55.7277C14.6023 55.9059 14.859 56.1751 15.0554 56.5351C15.2536 56.8949 15.3687 57.3355 15.4004 57.8567C15.432 58.378 15.3722 58.8302 15.2209 59.2134C15.0699 59.5944 14.8485 59.8947 14.5571 60.1141C14.2655 60.3314 13.9253 60.4518 13.5358 60.4755C13.2429 60.4933 13.0001 60.4586 12.8077 60.3715C12.6175 60.2844 12.466 60.178 12.3534 60.0524C12.2408 59.9269 12.1529 59.8146 12.0904 59.7154L12.034 59.7189L12.1893 62.278L11.2502 62.335ZM11.914 58.0589C11.9346 58.398 12.002 58.6923 12.1159 58.9417C12.2297 59.1911 12.3841 59.3824 12.5793 59.5156C12.7744 59.6466 13.0068 59.7039 13.2768 59.6875C13.5572 59.6705 13.7874 59.5819 13.9666 59.4219C14.1461 59.2597 14.276 59.047 14.3565 58.7837C14.4392 58.5202 14.471 58.2273 14.4514 57.9049C14.4321 57.5866 14.3665 57.3039 14.255 57.0564C14.1453 56.8088 13.9909 56.6175 13.7915 56.4825C13.594 56.3474 13.3541 56.2885 13.0715 56.3056C12.7993 56.3221 12.5732 56.4063 12.3935 56.558C12.2156 56.7095 12.0863 56.9138 12.0054 57.1709C11.9241 57.4279 11.8937 57.724 11.914 58.0589ZM19.2665 58.0254L19.0951 55.2025L20.0372 55.1453L20.33 59.9685L19.4071 60.0245L19.3564 59.1893L19.3059 59.1923C19.2106 59.4565 19.0457 59.6819 18.8111 59.8684C18.5786 60.0528 18.2813 60.1559 17.9191 60.1779C17.6092 60.1967 17.331 60.1453 17.084 60.0237C16.839 59.8999 16.6406 59.7071 16.4879 59.4453C16.3377 59.1834 16.2504 58.8536 16.2263 58.4558L16.04 55.3879L16.9788 55.3309L17.1582 58.2858C17.1781 58.6144 17.285 58.8706 17.4792 59.0542C17.673 59.2379 17.9155 59.3209 18.2066 59.3032C18.3823 59.2925 18.5543 59.238 18.7228 59.1395C18.8933 59.0409 19.0307 58.8991 19.1353 58.7142C19.2416 58.5291 19.2854 58.2996 19.2665 58.0254ZM21.4361 61.7167L21.0335 55.0848L21.9506 55.0291L21.998 55.811L22.0765 55.8063C22.1249 55.7025 22.1963 55.5815 22.2908 55.4434C22.3856 55.3053 22.5208 55.1815 22.6968 55.0721C22.8731 54.9605 23.1107 54.8957 23.4098 54.8775C23.7993 54.8539 24.1527 54.9312 24.4704 55.1094C24.7882 55.2876 25.0449 55.5568 25.2413 55.9167C25.4395 56.2766 25.5546 56.7172 25.5863 57.2384C25.6179 57.7597 25.5581 58.2119 25.4068 58.595C25.2558 58.9761 25.0344 59.2764 24.743 59.4958C24.4515 59.7131 24.1112 59.8335 23.7217 59.8572C23.4288 59.875 23.186 59.8403 22.9936 59.7532C22.8034 59.666 22.6519 59.5597 22.5393 59.4341C22.4267 59.3086 22.3389 59.1963 22.2763 59.0971L22.2199 59.1005L22.3752 61.6597L21.4361 61.7167ZM22.0999 57.4406C22.1205 57.7797 22.1879 58.074 22.3018 58.3234C22.4157 58.5728 22.57 58.7641 22.7652 58.8973C22.9603 59.0283 23.1927 59.0856 23.4627 59.0692C23.7431 59.0522 23.9733 58.9636 24.1525 58.8036C24.3317 58.6414 24.4619 58.4286 24.5424 58.1653C24.6251 57.9019 24.6569 57.6089 24.6373 57.2866C24.618 56.9683 24.5524 56.6855 24.4409 56.4381C24.3312 56.1905 24.1768 55.9992 23.9774 55.8642C23.7799 55.7291 23.54 55.6701 23.2574 55.6873C22.9852 55.7038 22.7591 55.788 22.5794 55.9396C22.4015 56.0912 22.2722 56.2955 22.191 56.5526C22.11 56.8096 22.0796 57.1056 22.0999 57.4406ZM26.6285 61.4015L26.2259 54.7696L27.1426 54.714L27.1901 55.4959L27.2686 55.4911C27.317 55.3873 27.3884 55.2664 27.4832 55.1282C27.5776 54.9901 27.7129 54.8664 27.8893 54.7569C28.0652 54.6454 28.3027 54.5805 28.6023 54.5623C28.9917 54.5387 29.3451 54.616 29.6629 54.7942C29.9802 54.9725 30.2373 55.2416 30.4333 55.6016C30.6319 55.9614 30.7467 56.402 30.7783 56.9232C30.81 57.4445 30.7502 57.8967 30.5993 58.2799C30.4478 58.6609 30.2264 58.9612 29.9354 59.1806C29.6439 59.3979 29.3032 59.5184 28.9141 59.542C28.6209 59.5598 28.3784 59.5251 28.186 59.438C27.9958 59.3508 27.8444 59.2445 27.7317 59.1189C27.6191 58.9934 27.5313 58.8811 27.4683 58.7819L27.412 58.7854L27.5673 61.3446L26.6285 61.4015ZM27.2923 57.1254C27.3129 57.4645 27.38 57.7588 27.4938 58.0082C27.6081 58.2576 27.7624 58.4489 27.9576 58.5821C28.1523 58.7131 28.3851 58.7704 28.6552 58.754C28.9355 58.737 29.1654 58.6485 29.345 58.4884C29.5241 58.3262 29.6539 58.1135 29.7348 57.8501C29.8176 57.5867 29.849 57.2938 29.8294 56.9714C29.8101 56.6532 29.7449 56.3703 29.6329 56.1229C29.5236 55.8753 29.3689 55.684 29.1695 55.549C28.9723 55.4139 28.7325 55.3549 28.4499 55.3721C28.1776 55.3886 27.9516 55.4728 27.7718 55.6245C27.5939 55.776 27.4643 55.9803 27.3834 56.2374C27.3025 56.4944 27.272 56.7904 27.2923 57.1254ZM31.7108 59.2777L31.418 54.4544L32.3572 54.3974L32.6499 59.2206L31.7108 59.2777ZM31.847 53.6814C31.6838 53.6913 31.5401 53.6454 31.4163 53.5437C31.2947 53.4397 31.2288 53.3114 31.2195 53.1585C31.2101 53.0036 31.26 52.8682 31.3683 52.7524C31.4787 52.6343 31.6157 52.5703 31.779 52.5604C31.9422 52.5505 32.0848 52.5975 32.2069 52.7015C32.3307 52.8032 32.3972 52.9316 32.4066 53.0865C32.4159 53.2393 32.3653 53.3747 32.2549 53.4928C32.1462 53.6087 32.0102 53.6715 31.847 53.6814ZM35.7323 59.1312C35.257 59.1601 34.8415 59.0834 34.4858 58.9012C34.1322 58.7168 33.8509 58.4449 33.6424 58.0857C33.4355 57.7242 33.3169 57.2933 33.2865 56.793C33.2566 56.299 33.3222 55.858 33.4836 55.47C33.6468 55.0819 33.8887 54.772 34.2085 54.5404C34.5306 54.3086 34.9158 54.1791 35.3639 54.1519C35.6361 54.1354 35.9023 54.1644 36.1635 54.2389C36.4243 54.3134 36.662 54.4408 36.8767 54.621C37.0914 54.8013 37.2669 55.0417 37.4027 55.3424C37.5384 55.6409 37.6196 56.0089 37.6461 56.4464L37.6663 56.7793L33.8324 57.012L33.7897 56.3086L36.7036 56.1317C36.6887 55.8847 36.6253 55.669 36.5131 55.4846C36.4008 55.2981 36.2505 55.1549 36.0618 55.055C35.8749 54.955 35.66 54.9124 35.4172 54.9271C35.1534 54.9431 34.9271 55.022 34.7382 55.1637C34.5514 55.3033 34.4105 55.4799 34.3166 55.6936C34.2244 55.9051 34.1857 56.1312 34.2003 56.372L34.2336 56.9215C34.2532 57.2439 34.3262 57.5147 34.4531 57.7339C34.5817 57.953 34.7525 58.116 34.965 58.2229C35.1773 58.3276 35.4203 58.3717 35.6945 58.3551C35.8724 58.3443 36.0334 58.3093 36.1766 58.2502C36.3201 58.1889 36.4421 58.1038 36.5427 57.9947C36.643 57.8857 36.7171 57.7541 36.7643 57.5999L37.6627 57.7061C37.6075 57.9721 37.4939 58.2091 37.3216 58.4171C37.1511 58.6228 36.9311 58.7885 36.6614 58.9141C36.3938 59.0375 36.0838 59.1099 35.7323 59.1312ZM41.965 54.9961L41.1234 55.1985C41.0811 55.0918 41.0184 54.9916 40.9351 54.8979C40.8536 54.8041 40.7462 54.7297 40.6124 54.6748C40.4789 54.6199 40.3148 54.5983 40.1199 54.6101C39.8543 54.6262 39.6357 54.6994 39.465 54.8295C39.2945 54.9575 39.2146 55.1147 39.2259 55.301C39.2357 55.4622 39.3033 55.5884 39.4286 55.6796C39.554 55.7707 39.7512 55.8396 40.021 55.8863L40.798 56.0156C41.2479 56.0912 41.5883 56.2292 41.819 56.4295C42.0497 56.6298 42.1753 56.9006 42.196 57.2418C42.2135 57.5307 42.1455 57.7933 41.9916 58.0295C41.8398 58.2636 41.6194 58.4534 41.3298 58.5992C41.0425 58.7448 40.7041 58.8294 40.3146 58.8531C39.7745 58.8859 39.3268 58.7975 38.9717 58.5879C38.6164 58.3762 38.3868 58.0593 38.2835 57.6369L39.1825 57.4437C39.2536 57.6768 39.3806 57.8487 39.5637 57.9595C39.747 58.0681 39.9798 58.1138 40.2624 58.0967C40.5701 58.078 40.8123 57.9993 40.9888 57.8604C41.1651 57.7194 41.2476 57.5557 41.2363 57.3694C41.2272 57.2187 41.1628 57.0955 41.0434 56.9998C40.9263 56.9039 40.751 56.8368 40.5175 56.7985L39.6902 56.669C39.2341 56.5938 38.8911 56.4507 38.662 56.2398C38.4351 56.0288 38.311 55.7516 38.2902 55.4083C38.2729 55.1236 38.3373 54.8696 38.4832 54.6465C38.6294 54.4232 38.8392 54.2435 39.1124 54.1071C39.3858 53.9687 39.7034 53.8885 40.0655 53.8665C40.5865 53.8349 41.0038 53.923 41.3171 54.1309C41.6299 54.3367 41.8459 54.6251 41.965 54.9961Z" fill="black"/>
<path d="M70.5407 60.0455C70.1567 60.3484 69.6493 60.5056 68.9894 60.5272C68.5587 60.5411 68.1216 60.4996 67.6898 60.4038C66.7013 60.1842 65.6741 60.2466 64.7195 60.5841C64.3024 60.7315 63.8732 60.8256 63.4444 60.8638C63.4021 60.8675 63.3605 60.8707 63.3192 60.8732C62.7201 60.9096 62.2375 60.811 61.8462 60.5733C61.1309 60.1385 60.7288 59.155 60.9104 58.2851C61.0729 57.5077 61.6042 56.9519 62.1181 56.4144C62.1873 56.3418 62.2593 56.2668 62.3281 56.1933C62.8486 55.6364 63.3172 55.0158 63.7208 54.3491C63.7719 54.2648 63.8232 54.1776 63.8728 54.0931C64.0632 53.7693 64.2603 53.4346 64.5098 53.1458L64.5191 53.1349C64.8248 52.7848 65.2518 52.5763 65.7223 52.5477C65.9577 52.5334 66.1874 52.565 66.402 52.6393C66.6162 52.7133 66.8151 52.8297 66.9877 52.985L66.9986 52.9947C67.2808 53.2512 67.517 53.5597 67.7451 53.8583C67.8046 53.9359 67.866 54.0163 67.9273 54.0938C68.4087 54.7069 68.9489 55.2661 69.5325 55.756C69.6097 55.8206 69.6902 55.8864 69.7681 55.9501C70.3429 56.4214 70.9375 56.9089 71.1928 57.661C71.4787 58.5024 71.1982 59.5274 70.5407 60.0455Z" fill="black"/>
<path d="M72.7755 53.1401C72.5163 53.7626 72.1338 54.2046 71.67 54.4176C71.4862 54.5023 71.2928 54.5506 71.0938 54.5627C70.826 54.5789 70.5486 54.5292 70.2712 54.4136C69.7943 54.2151 69.4996 53.8923 69.3954 53.454C69.2925 53.0207 69.375 52.4919 69.6478 51.8374C69.9237 51.1745 70.2838 50.6488 70.6889 50.3173C71.149 49.9406 71.6357 49.8427 72.0951 50.0339C72.5557 50.2258 72.8769 50.6625 73.0003 51.2638C73.1186 51.8416 73.0385 52.5082 72.7755 53.1401Z" fill="black"/>
<path d="M69.6406 49.8212C69.6167 50.5546 69.3984 51.1508 69.0097 51.5456C68.6938 51.8663 68.2799 52.0475 67.8027 52.0765C67.7327 52.0808 67.6614 52.0817 67.5888 52.0794C67.0293 52.0613 66.607 51.8476 66.3336 51.4441C66.0623 51.0436 65.9426 50.4739 65.9675 49.7021C65.98 49.3109 66.0274 48.9467 66.1073 48.6183C66.1869 48.29 66.299 47.9979 66.4412 47.7513C66.763 47.1928 67.2179 46.907 67.7559 46.9243C68.2957 46.9418 68.7896 47.2613 69.1455 47.824C69.489 48.3666 69.6645 49.076 69.6406 49.8212Z" fill="black"/>
<path d="M61.7426 52.3188C62.0925 52.9353 62.2384 53.4502 62.1884 53.8929C62.1379 54.3405 61.8847 54.6966 61.4354 54.9513C61.1744 55.0995 60.9047 55.1825 60.6368 55.1988C60.4379 55.2108 60.24 55.1863 60.0469 55.1245C59.5612 54.9691 59.128 54.5766 58.7951 53.9901C58.4576 53.3946 58.2978 52.7426 58.3453 52.1547C58.3947 51.5429 58.6611 51.0705 59.0951 50.8244C59.528 50.579 60.0226 50.6174 60.5252 50.9356C60.9675 51.2156 61.3885 51.6939 61.7426 52.3188Z" fill="black"/>
<path d="M65.1328 49.7523C65.1596 49.9263 65.1781 50.0908 65.1875 50.2463C65.2194 50.7721 65.1507 51.1935 64.9801 51.5258C64.7575 51.9594 64.3641 52.2226 63.8109 52.3082C63.7391 52.3193 63.6686 52.327 63.5982 52.3312C63.1211 52.3602 62.6883 52.2303 62.3359 51.9503C61.9023 51.6054 61.6135 51.0399 61.5011 50.3148C61.3872 49.578 61.4759 48.8525 61.751 48.2724C62.0362 47.6707 62.4878 47.2939 63.0215 47.2112C63.5535 47.1289 64.0396 47.3576 64.4266 47.8731C64.7686 48.3286 65.013 48.9786 65.1328 49.7523Z" fill="black"/>
<path d="M78.2775 58.2667L77.8749 51.6348L78.792 51.5791L78.8395 52.361L78.9179 52.3562C78.9664 52.2524 79.0378 52.1315 79.1322 51.9934C79.2266 51.8553 79.3622 51.7315 79.5383 51.622C79.7142 51.5105 79.9521 51.4457 80.2513 51.4275C80.6407 51.4039 80.9941 51.4811 81.3119 51.6594C81.6292 51.8376 81.8863 52.1067 82.0827 52.4667C82.281 52.8265 82.3957 53.2671 82.4274 53.7884C82.459 54.3096 82.3995 54.7618 82.2483 55.145C82.0968 55.5261 81.8758 55.8263 81.5844 56.0457C81.2929 56.263 80.9526 56.3835 80.5631 56.4071C80.2699 56.4249 80.0274 56.3903 79.835 56.3032C79.6448 56.216 79.4934 56.1096 79.3807 55.9841C79.2681 55.8586 79.1803 55.7462 79.1177 55.6471L79.061 55.6505L79.2163 58.2097L78.2775 58.2667ZM78.9413 53.9905C78.9619 54.3297 79.0293 54.6239 79.1432 54.8733C79.2571 55.1228 79.4114 55.3141 79.6066 55.4472C79.8017 55.5782 80.0341 55.6356 80.3042 55.6192C80.5846 55.6021 80.8147 55.5136 80.994 55.3535C81.1731 55.1914 81.3033 54.9786 81.3838 54.7153C81.4666 54.4518 81.4984 54.1589 81.4788 53.8365C81.4595 53.5183 81.3939 53.2355 81.2823 52.988C81.1726 52.7404 81.0183 52.5491 80.8185 52.4142C80.6213 52.2791 80.3815 52.2201 80.0989 52.2373C79.8266 52.2538 79.6006 52.3379 79.4208 52.4896C79.2429 52.6411 79.1137 52.8455 79.0324 53.1025C78.9515 53.3596 78.921 53.6556 78.9413 53.9905ZM86.2938 53.9571L86.1225 51.1341L87.0646 51.0769L87.3574 55.9001L86.4341 55.9562L86.3834 55.1209L86.3333 55.124C86.238 55.3882 86.073 55.6136 85.8385 55.8001C85.6059 55.9844 85.3086 56.0876 84.9464 56.1095C84.6366 56.1284 84.3583 56.0769 84.1113 55.9554C83.8664 55.8316 83.6676 55.6388 83.5152 55.377C83.3647 55.1151 83.2778 54.7852 83.2536 54.3875L83.0674 51.3196L84.0062 51.2626L84.1855 54.2174C84.2055 54.5461 84.3124 54.8023 84.5062 54.9859C84.7004 55.1695 84.9428 55.2525 85.2335 55.2348C85.4097 55.2242 85.5816 55.1696 85.7502 55.0711C85.9206 54.9725 86.0581 54.8308 86.1622 54.6459C86.269 54.4608 86.3127 54.2312 86.2938 53.9571ZM88.4634 57.6484L88.0608 51.0164L88.9779 50.9608L89.0254 51.7427L89.1038 51.7379C89.1519 51.6341 89.2237 51.5132 89.3181 51.375C89.4125 51.237 89.5481 51.1132 89.7242 51.0037C89.9001 50.8922 90.138 50.8273 90.4372 50.8092C90.8266 50.7855 91.18 50.8628 91.4978 51.041C91.8152 51.2193 92.0722 51.4884 92.2683 51.8484C92.4669 52.2082 92.5816 52.6488 92.6133 53.17C92.6449 53.6913 92.5854 54.1435 92.4342 54.5267C92.2827 54.9078 92.0617 55.208 91.7703 55.4274C91.4788 55.6447 91.1385 55.7652 90.7491 55.7888C90.4558 55.8066 90.2133 55.772 90.0209 55.6849C89.8307 55.5977 89.6793 55.4913 89.5666 55.3658C89.454 55.2402 89.3662 55.1279 89.3036 55.0288L89.2469 55.0322L89.4022 57.5914L88.4634 57.6484ZM89.1272 53.3722C89.1478 53.7113 89.2152 54.0056 89.3291 54.255C89.443 54.5045 89.5973 54.6957 89.7925 54.8289C89.9876 54.9599 90.22 55.0172 90.4901 55.0009C90.7705 54.9838 91.0006 54.8953 91.1799 54.7352C91.359 54.5731 91.4892 54.3603 91.5697 54.097C91.6525 53.8335 91.6843 53.5406 91.6647 53.2182C91.6454 52.9 91.5798 52.6172 91.4679 52.3697C91.3585 52.1221 91.2038 51.9308 91.0044 51.7959C90.8073 51.6608 90.5674 51.6018 90.2848 51.6189C90.0125 51.6355 89.7865 51.7196 89.6067 51.8713C89.4288 52.0228 89.2996 52.2272 89.2183 52.4842C89.1374 52.7413 89.1069 53.0373 89.1272 53.3722ZM93.6559 57.3332L93.2533 50.7013L94.17 50.6456L94.2174 51.4275L94.2959 51.4227C94.3443 51.3189 94.4158 51.198 94.5102 51.0599C94.605 50.9218 94.7402 50.798 94.9166 50.6885C95.0925 50.577 95.3301 50.5122 95.6296 50.494C96.019 50.4703 96.3725 50.5476 96.6898 50.7259C97.0076 50.9041 97.2643 51.1732 97.4607 51.5332C97.6589 51.893 97.7741 52.3336 97.8057 52.8549C97.8373 53.3761 97.7775 53.8284 97.6266 54.2115C97.4752 54.5926 97.2538 54.8928 96.9624 55.1122C96.6709 55.3295 96.3306 55.45 95.9411 55.4736C95.6482 55.4914 95.4054 55.4568 95.2133 55.3697C95.0231 55.2825 94.8717 55.1761 94.7587 55.0506C94.6461 54.9251 94.5586 54.8127 94.4957 54.7136L94.4393 54.717L94.5947 57.2762L93.6559 57.3332ZM94.3197 53.057C94.3403 53.3961 94.4073 53.6904 94.5212 53.9399C94.6351 54.1893 94.7898 54.3805 94.9846 54.5137C95.1797 54.6447 95.4121 54.7021 95.6821 54.6857C95.9629 54.6686 96.1927 54.5801 96.372 54.42C96.5515 54.2579 96.6813 54.0451 96.7618 53.7818C96.8449 53.5183 96.8763 53.2254 96.8568 52.903C96.8374 52.5848 96.7718 52.302 96.6603 52.0545C96.5506 51.807 96.3962 51.6156 96.1969 51.4807C95.9997 51.3456 95.7594 51.2866 95.4768 51.3038C95.2049 51.3203 94.9789 51.4044 94.7988 51.5561C94.6212 51.7076 94.4916 51.912 94.4107 52.169C94.3295 52.4261 94.2993 52.7221 94.3197 53.057ZM98.7381 55.2093L98.4453 50.3861L99.3841 50.3291L99.6769 55.1523L98.7381 55.2093ZM98.8743 49.6131C98.7111 49.623 98.5675 49.5771 98.4437 49.4753C98.3216 49.3714 98.2562 49.243 98.2469 49.0902C98.2375 48.9353 98.2869 48.7999 98.3957 48.684C98.5061 48.566 98.6431 48.502 98.8063 48.4921C98.9695 48.4822 99.1122 48.5292 99.2338 48.6331C99.358 48.7349 99.4246 48.8632 99.434 49.0181C99.4433 49.171 99.3927 49.3064 99.2819 49.4244C99.1735 49.5403 99.0376 49.6032 98.8743 49.6131ZM102.76 55.0629C102.284 55.0917 101.869 55.0151 101.513 54.8328C101.16 54.6484 100.878 54.3766 100.67 54.0173C100.463 53.6559 100.344 53.225 100.314 52.7247C100.284 52.2306 100.35 51.7896 100.511 51.4016C100.674 51.0135 100.916 50.7036 101.236 50.472C101.558 50.2402 101.943 50.1107 102.391 50.0835C102.663 50.067 102.93 50.096 103.19 50.1705C103.452 50.245 103.689 50.3724 103.904 50.5527C104.119 50.7329 104.294 50.9734 104.43 51.274C104.566 51.5725 104.647 51.9406 104.673 52.3781L104.694 52.7109L100.86 52.9437L100.817 52.2403L103.731 52.0634C103.716 51.8164 103.653 51.6007 103.54 51.4163C103.428 51.2298 103.278 51.0866 103.089 50.9867C102.902 50.8866 102.687 50.844 102.445 50.8588C102.181 50.8748 101.954 50.9536 101.766 51.0954C101.578 51.2349 101.438 51.4115 101.344 51.6253C101.251 51.8368 101.213 52.0629 101.227 52.3036L101.261 52.8531C101.28 53.1755 101.354 53.4463 101.48 53.6656C101.609 53.8847 101.78 54.0476 101.992 54.1545C102.204 54.2593 102.448 54.3034 102.722 54.2867C102.9 54.2759 103.06 54.2409 103.204 54.1818C103.347 54.1206 103.469 54.0354 103.57 53.9264C103.67 53.8173 103.744 53.6857 103.792 53.5315L104.69 53.6378C104.635 53.9037 104.521 54.1407 104.349 54.3487C104.178 54.5544 103.958 54.7201 103.689 54.8458C103.421 54.9691 103.111 55.0415 102.76 55.0629ZM108.992 50.9277L108.151 51.1301C108.108 51.0234 108.046 50.9232 107.962 50.8295C107.881 50.7357 107.773 50.6614 107.64 50.6064C107.506 50.5515 107.342 50.5299 107.147 50.5417C106.881 50.5579 106.663 50.631 106.492 50.7612C106.322 50.8892 106.242 51.0464 106.253 51.2327C106.263 51.3939 106.331 51.52 106.456 51.6112C106.581 51.7023 106.779 51.7712 107.048 51.8179L107.825 51.9473C108.275 52.0229 108.616 52.1609 108.846 52.3612C109.077 52.5615 109.203 52.8322 109.223 53.1735C109.241 53.4624 109.173 53.7249 109.019 53.9612C108.867 54.1952 108.646 54.3851 108.357 54.5308C108.069 54.6765 107.731 54.7611 107.342 54.7847C106.802 54.8175 106.354 54.7291 105.999 54.5196C105.643 54.3079 105.414 53.9909 105.311 53.5686L106.21 53.3753C106.281 53.6084 106.408 53.7804 106.591 53.8911C106.774 53.9998 107.007 54.0455 107.29 54.0283C107.597 54.0096 107.839 53.9309 108.016 53.792C108.192 53.651 108.275 53.4874 108.263 53.3011C108.254 53.1503 108.19 53.0271 108.071 52.9314C107.954 52.8356 107.778 52.7685 107.545 52.7301L106.718 52.6007C106.261 52.5254 105.918 52.3823 105.689 52.1715C105.462 51.9604 105.338 51.6832 105.317 51.3399C105.3 51.0552 105.364 50.8013 105.511 50.5781C105.657 50.3549 105.867 50.1751 106.14 50.0388C106.413 49.9003 106.731 49.8201 107.093 49.7982C107.614 49.7665 108.031 49.8546 108.344 50.0625C108.657 50.2684 108.873 50.5568 108.992 50.9277Z" fill="black"/>
<path d="M137.568 55.9771C137.184 56.28 136.677 56.4373 136.017 56.4588C135.586 56.4728 135.149 56.4313 134.717 56.3354C133.729 56.1159 132.702 56.1782 131.747 56.5157C131.33 56.6631 130.901 56.7572 130.472 56.7954C130.43 56.7991 130.388 56.8024 130.347 56.8049C129.748 56.8412 129.265 56.7426 128.874 56.5049C128.158 56.0702 127.756 55.0867 127.938 54.2167C128.1 53.4393 128.632 52.8835 129.146 52.346C129.215 52.2734 129.287 52.1984 129.356 52.1249C129.876 51.568 130.345 50.9474 130.748 50.2807C130.799 50.1964 130.851 50.1092 130.9 50.0247C131.091 49.701 131.288 49.3662 131.537 49.0774L131.547 49.0665C131.852 48.7164 132.279 48.5079 132.75 48.4794C132.985 48.4651 133.215 48.4967 133.429 48.5709C133.644 48.6449 133.842 48.7614 134.015 48.9167L134.026 48.9263C134.308 49.1828 134.544 49.4913 134.773 49.7899C134.832 49.8675 134.894 49.9479 134.954 50.0254C135.436 50.6386 135.976 51.1977 136.56 51.6876C136.637 51.7522 136.718 51.818 136.795 51.8817C137.37 52.3531 137.965 52.8405 138.22 53.5926C138.506 54.4341 138.225 55.4591 137.568 55.9771Z" fill="black"/>
<path d="M139.807 49.0708C139.547 49.6933 139.165 50.1352 138.701 50.3482C138.517 50.433 138.324 50.4813 138.125 50.4933C137.857 50.5096 137.579 50.4598 137.302 50.3443C136.826 50.1458 136.531 49.823 136.427 49.3847C136.324 48.9513 136.406 48.4225 136.679 47.7681C136.955 47.1051 137.315 46.5795 137.72 46.248C138.18 45.8713 138.667 45.7733 139.126 45.9646C139.587 46.1565 139.908 46.5932 140.031 47.1945C140.149 47.7723 140.07 48.4388 139.807 49.0708Z" fill="black"/>
<path d="M136.675 45.7519C136.651 46.4853 136.434 47.0815 136.045 47.4763C135.729 47.797 135.315 47.9782 134.838 48.0072C134.768 48.0114 134.696 48.0124 134.624 48.0101C134.064 47.992 133.642 47.7783 133.369 47.3748C133.097 46.9742 132.978 46.4046 133.003 45.6328C133.015 45.2415 133.063 44.8773 133.142 44.549C133.222 44.2207 133.334 43.9286 133.476 43.682C133.798 43.1234 134.253 42.8376 134.791 42.855C135.331 42.8725 135.824 43.192 136.181 43.7547C136.524 44.2973 136.7 45.0066 136.675 45.7519Z" fill="black"/>
<path d="M128.77 48.2495C129.12 48.866 129.266 49.3808 129.216 49.8235C129.165 50.2712 128.912 50.6272 128.463 50.882C128.201 51.0302 127.932 51.1132 127.664 51.1294C127.465 51.1415 127.267 51.1169 127.074 51.0551C126.588 50.8998 126.155 50.5073 125.822 49.9207C125.485 49.3253 125.325 48.6733 125.373 48.0854C125.422 47.4736 125.688 47.0012 126.122 46.7551C126.555 46.5096 127.05 46.548 127.553 46.8663C127.995 47.1463 128.415 47.6246 128.77 48.2495Z" fill="black"/>
<path d="M132.16 45.684C132.187 45.858 132.205 46.0224 132.215 46.1779C132.247 46.7038 132.178 47.1252 132.007 47.4574C131.785 47.891 131.392 48.1543 130.838 48.2399C130.767 48.251 130.696 48.2586 130.626 48.2629C130.148 48.2918 129.715 48.162 129.363 47.8819C128.93 47.537 128.641 46.9716 128.528 46.2465C128.415 45.5096 128.503 44.7842 128.778 44.204C129.064 43.6024 129.515 43.2255 130.049 43.1429C130.581 43.0605 131.067 43.2892 131.454 43.8048C131.796 44.2602 132.04 44.9102 132.16 45.684Z" fill="black"/>
<path d="M145.305 54.1983L144.902 47.5664L145.819 47.5108L145.866 48.2927L145.945 48.2879C145.993 48.1841 146.065 48.0631 146.16 47.925C146.254 47.7869 146.39 47.6631 146.566 47.5537C146.742 47.4421 146.979 47.3773 147.279 47.3591C147.668 47.3355 148.021 47.4128 148.339 47.591C148.657 47.7692 148.914 48.0383 149.11 48.3984C149.308 48.7582 149.423 49.1988 149.455 49.72C149.486 50.2413 149.427 50.6935 149.276 51.0766C149.124 51.4577 148.903 51.758 148.612 51.9773C148.32 52.1947 147.98 52.3151 147.59 52.3388C147.297 52.3566 147.055 52.3219 146.862 52.2348C146.672 52.1476 146.521 52.0413 146.408 51.9157C146.295 51.7902 146.208 51.6779 146.145 51.5787L146.088 51.5822L146.244 54.1413L145.305 54.1983ZM145.969 49.9222C145.989 50.2613 146.057 50.5556 146.171 50.805C146.284 51.0544 146.439 51.2457 146.634 51.3788C146.829 51.5099 147.061 51.5672 147.332 51.5508C147.612 51.5338 147.842 51.4452 148.021 51.2852C148.2 51.123 148.33 50.9103 148.411 50.6469C148.494 50.3835 148.525 50.0906 148.506 49.7682C148.486 49.45 148.421 49.1671 148.309 48.9197C148.2 48.6721 148.045 48.4808 147.846 48.3458C147.649 48.2107 147.409 48.1517 147.126 48.1689C146.854 48.1854 146.628 48.2695 146.448 48.4212C146.27 48.5728 146.141 48.7771 146.06 49.0342C145.979 49.2912 145.948 49.5872 145.969 49.9222ZM153.321 49.8887L153.15 47.0658L154.092 47.0086L154.385 51.8318L153.461 51.8878L153.411 51.0526L153.361 51.0556C153.265 51.3198 153.1 51.5452 152.866 51.7317C152.633 51.9161 152.336 52.0192 151.974 52.0412C151.664 52.06 151.386 52.0086 151.139 51.887C150.894 51.7632 150.695 51.5704 150.543 51.3086C150.392 51.0467 150.305 50.7169 150.281 50.3191L150.094 47.2512L151.034 47.1942L151.213 50.1491C151.233 50.4777 151.34 50.7339 151.534 50.9175C151.727 51.1012 151.97 51.1842 152.261 51.1665C152.437 51.1558 152.609 51.1012 152.778 51.0027C152.948 50.9042 153.085 50.7624 153.19 50.5775C153.296 50.3924 153.34 50.1628 153.321 49.8887ZM155.491 53.58L155.088 46.9481L156.005 46.8924L156.052 47.6743L156.131 47.6696C156.179 47.5658 156.251 47.4448 156.345 47.3067C156.44 47.1686 156.575 47.0448 156.752 46.9354C156.927 46.8238 157.165 46.759 157.464 46.7408C157.854 46.7172 158.207 46.7945 158.525 46.9727C158.842 47.1509 159.1 47.42 159.296 47.78C159.494 48.1399 159.609 48.5805 159.641 49.1017C159.672 49.623 159.612 50.0752 159.462 50.4583C159.31 50.8394 159.089 51.1397 158.798 51.359C158.506 51.5763 158.165 51.6968 157.776 51.7205C157.483 51.7383 157.241 51.7036 157.048 51.6165C156.858 51.5293 156.707 51.423 156.594 51.2974C156.481 51.1719 156.394 51.0596 156.331 50.9604L156.274 50.9638L156.43 53.523L155.491 53.58ZM156.155 49.3039C156.175 49.643 156.242 49.9373 156.356 50.1867C156.47 50.4361 156.625 50.6274 156.82 50.7605C157.015 50.8916 157.247 50.9489 157.517 50.9325C157.798 50.9155 158.028 50.8269 158.207 50.6669C158.386 50.5047 158.516 50.2919 158.597 50.0286C158.68 49.7651 158.711 49.4722 158.692 49.1499C158.672 48.8316 158.607 48.5488 158.495 48.3014C158.386 48.0538 158.231 47.8625 158.032 47.7275C157.835 47.5924 157.595 47.5334 157.312 47.5506C157.04 47.5671 156.814 47.6512 156.634 47.8029C156.456 47.9545 156.327 48.1588 156.246 48.4159C156.165 48.6729 156.134 48.9689 156.155 49.3039ZM160.683 53.2648L160.28 46.6329L161.197 46.5772L161.245 47.3592L161.323 47.3544C161.372 47.2506 161.443 47.1296 161.538 46.9915C161.632 46.8534 161.768 46.7296 161.944 46.6202C162.12 46.5086 162.357 46.4438 162.657 46.4256C163.046 46.402 163.4 46.4793 163.717 46.6575C164.035 46.8357 164.292 47.1049 164.488 47.4648C164.686 47.8247 164.801 48.2653 164.833 48.7865C164.865 49.3078 164.805 49.76 164.654 50.1432C164.503 50.5242 164.281 50.8245 163.99 51.0439C163.698 51.2612 163.358 51.3816 162.968 51.4053C162.676 51.4231 162.433 51.3884 162.24 51.3013C162.05 51.2142 161.899 51.1078 161.786 50.9822C161.673 50.8567 161.586 50.7444 161.523 50.6452L161.467 50.6486L161.622 53.2078L160.683 53.2648ZM161.347 48.9887C161.367 49.3278 161.435 49.6221 161.549 49.8715C161.662 50.1209 161.817 50.3122 162.012 50.4454C162.207 50.5764 162.439 50.6337 162.709 50.6173C162.99 50.6003 163.22 50.5117 163.399 50.3517C163.579 50.1895 163.709 49.9767 163.789 49.7134C163.872 49.45 163.904 49.1571 163.884 48.8347C163.865 48.5164 163.799 48.2336 163.688 47.9862C163.578 47.7386 163.424 47.5473 163.224 47.4123C163.027 47.2772 162.787 47.2183 162.504 47.2354C162.232 47.2519 162.006 47.3361 161.826 47.4878C161.648 47.6393 161.519 47.8436 161.438 48.1007C161.357 48.3577 161.326 48.6537 161.347 48.9887ZM165.765 51.1409L165.473 46.3177L166.411 46.2607L166.704 51.0839L165.765 51.1409ZM165.902 45.5447C165.738 45.5546 165.595 45.5087 165.471 45.407C165.349 45.303 165.283 45.1747 165.274 45.0218C165.265 44.8669 165.314 44.7315 165.423 44.6157C165.533 44.4976 165.67 44.4336 165.834 44.4237C165.997 44.4138 166.139 44.4608 166.261 44.5648C166.385 44.6666 166.452 44.7948 166.461 44.9498C166.471 45.1026 166.42 45.238 166.309 45.3561C166.201 45.4719 166.065 45.5348 165.902 45.5447ZM169.787 50.9945C169.312 51.0234 168.896 50.9467 168.541 50.7645C168.187 50.58 167.906 50.3082 167.697 49.949C167.49 49.5875 167.371 49.1566 167.341 48.6563C167.311 48.1623 167.377 47.7213 167.538 47.3333C167.701 46.9451 167.943 46.6352 168.263 46.4036C168.585 46.1719 168.971 46.0424 169.418 46.0152C169.69 45.9987 169.957 46.0276 170.218 46.1022C170.479 46.1767 170.716 46.3041 170.931 46.4843C171.146 46.6646 171.321 46.9051 171.457 47.2056C171.593 47.5042 171.674 47.8722 171.701 48.3097L171.721 48.6426L167.887 48.8753L167.844 48.1719L170.758 47.995C170.743 47.748 170.68 47.5323 170.568 47.3479C170.456 47.1614 170.305 47.0182 170.116 46.9183C169.929 46.8183 169.715 46.7757 169.472 46.7904C169.208 46.8064 168.982 46.8853 168.793 47.027C168.606 47.1666 168.465 47.3432 168.371 47.5569C168.279 47.7684 168.24 47.9945 168.255 48.2353L168.288 48.7848C168.308 49.1072 168.381 49.378 168.507 49.5972C168.636 49.8163 168.807 49.9793 169.019 50.0862C169.232 50.1909 169.475 50.235 169.749 50.2184C169.927 50.2076 170.088 50.1726 170.231 50.1135C170.375 50.0522 170.496 49.9671 170.597 49.858C170.698 49.749 170.772 49.6173 170.819 49.4632L171.717 49.5694C171.662 49.8354 171.548 50.0724 171.376 50.2804C171.206 50.4861 170.986 50.6518 170.716 50.7774C170.448 50.9008 170.139 50.9732 169.787 50.9945ZM176.02 46.8594L175.178 47.0618C175.136 46.9551 175.073 46.8549 174.989 46.7612C174.908 46.6673 174.801 46.593 174.667 46.5381C174.534 46.4831 174.369 46.4616 174.175 46.4734C173.909 46.4895 173.69 46.5627 173.52 46.6928C173.349 46.8208 173.269 46.978 173.281 47.1643C173.29 47.3255 173.358 47.4517 173.483 47.5429C173.608 47.634 173.806 47.7029 174.076 47.7495L174.852 47.8789C175.303 47.9545 175.643 48.0925 175.873 48.2928C176.104 48.4931 176.23 48.7639 176.251 49.1051C176.268 49.394 176.2 49.6566 176.046 49.8928C175.894 50.1269 175.674 50.3167 175.384 50.4625C175.097 50.6081 174.758 50.6927 174.369 50.7164C173.829 50.7492 173.381 50.6608 173.026 50.4512C172.671 50.2396 172.441 49.9226 172.338 49.5002L173.237 49.307C173.308 49.5401 173.435 49.712 173.618 49.8228C173.801 49.9314 174.034 49.9771 174.317 49.96C174.625 49.9413 174.867 49.8626 175.043 49.7237C175.219 49.5827 175.302 49.419 175.291 49.2327C175.281 49.082 175.217 48.9588 175.098 48.8631C174.981 48.7672 174.806 48.7001 174.572 48.6618L173.745 48.5323C173.288 48.4571 172.946 48.314 172.717 48.1031C172.489 47.8921 172.365 47.6149 172.344 47.2716C172.327 46.9869 172.392 46.7329 172.538 46.5097C172.684 46.2865 172.894 46.1068 173.167 45.9704C173.44 45.832 173.758 45.7518 174.12 45.7298C174.641 45.6981 175.059 45.7863 175.371 45.9942C175.685 46.2 175.901 46.4884 176.02 46.8594Z" fill="black"/>
<path d="M204.603 51.9087C204.219 52.2116 203.712 52.3689 203.052 52.3905C202.621 52.4044 202.184 52.3629 201.752 52.2671C200.764 52.0475 199.737 52.1099 198.782 52.4474C198.365 52.5947 197.936 52.6888 197.507 52.7271C197.465 52.7307 197.423 52.734 197.382 52.7365C196.783 52.7729 196.3 52.6742 195.909 52.4365C195.194 52.0018 194.791 51.0183 194.973 50.1484C195.136 49.371 195.667 48.8151 196.18 48.2777C196.25 48.2051 196.322 48.13 196.39 48.0566C196.911 47.4997 197.379 46.8791 197.783 46.2124C197.835 46.128 197.885 46.0408 197.935 45.9564C198.126 45.6326 198.323 45.2978 198.572 45.0091L198.582 44.9982C198.887 44.6481 199.314 44.4396 199.785 44.411C200.02 44.3967 200.25 44.4283 200.464 44.5026C200.679 44.5766 200.877 44.693 201.05 44.8483L201.061 44.858C201.343 45.1145 201.58 45.4229 201.808 45.7215C201.867 45.7991 201.929 45.8795 201.99 45.9571C202.471 46.5702 203.011 47.1294 203.595 47.6193C203.672 47.6839 203.753 47.7496 203.83 47.8134C204.406 48.2847 205 48.7721 205.255 49.5242C205.541 50.3657 205.26 51.3907 204.603 51.9087Z" fill="black"/>
<path d="M206.838 45.0034C206.579 45.6259 206.196 46.0679 205.733 46.2808C205.549 46.3656 205.355 46.4139 205.156 46.426C204.889 46.4422 204.611 46.3925 204.334 46.2769C203.857 46.0784 203.562 45.7556 203.458 45.3173C203.355 44.884 203.437 44.3552 203.71 43.7007C203.986 43.0377 204.346 42.5121 204.751 42.1806C205.212 41.8039 205.698 41.7059 206.158 41.8972C206.618 42.0891 206.94 42.5258 207.063 43.1271C207.181 43.7049 207.101 44.3714 206.838 45.0034Z" fill="black"/>
<path d="M203.703 41.6835C203.679 42.4169 203.461 43.0131 203.072 43.408C202.756 43.7286 202.342 43.9098 201.865 43.9388C201.795 43.9431 201.724 43.944 201.651 43.9417C201.092 43.9236 200.67 43.7099 200.396 43.3064C200.124 42.9059 200.005 42.3362 200.03 41.5644C200.043 41.1732 200.09 40.809 200.17 40.4807C200.249 40.1523 200.362 39.8602 200.504 39.6136C200.826 39.0551 201.28 38.7693 201.818 38.7867C202.358 38.8041 202.852 39.1236 203.208 39.6863C203.551 40.2289 203.727 40.9383 203.703 41.6835Z" fill="black"/>
<path d="M195.797 44.1811C196.147 44.7976 196.293 45.3125 196.243 45.7552C196.193 46.2028 195.939 46.5589 195.49 46.8136C195.229 46.9618 194.959 47.0448 194.692 47.0611C194.493 47.0732 194.295 47.0486 194.102 46.9868C193.615 46.8314 193.183 46.4389 192.85 45.8524C192.512 45.2569 192.352 44.6049 192.4 44.017C192.449 43.4052 192.715 42.9329 193.149 42.6867C193.582 42.4413 194.077 42.4797 194.58 42.798C195.022 43.078 195.443 43.5562 195.797 44.1811Z" fill="black"/>
<path d="M199.187 41.6146C199.214 41.7886 199.232 41.9531 199.242 42.1086C199.274 42.6344 199.205 43.0558 199.035 43.3881C198.812 43.8217 198.419 44.0849 197.866 44.1705C197.794 44.1816 197.723 44.1893 197.653 44.1935C197.176 44.2225 196.743 44.0927 196.391 43.8126C195.957 43.4677 195.668 42.9022 195.556 42.1771C195.442 41.4403 195.53 40.7148 195.806 40.1347C196.091 39.5331 196.542 39.1562 197.076 39.0735C197.608 38.9912 198.094 39.2199 198.481 39.7354C198.823 40.1909 199.067 40.8409 199.187 41.6146Z" fill="black"/>
<path d="M212.34 50.128L211.937 43.4961L212.854 43.4404L212.902 44.2223L212.98 44.2176C213.028 44.1138 213.1 43.9928 213.195 43.8547C213.289 43.7166 213.424 43.5928 213.601 43.4834C213.777 43.3718 214.014 43.307 214.314 43.2888C214.703 43.2652 215.057 43.3425 215.374 43.5207C215.692 43.6989 215.949 43.968 216.145 44.328C216.343 44.6879 216.458 45.1285 216.49 45.6497C216.521 46.171 216.462 46.6232 216.311 47.0063C216.159 47.3874 215.938 47.6877 215.647 47.9071C215.355 48.1243 215.015 48.2448 214.625 48.2685C214.332 48.2863 214.09 48.2516 213.897 48.1645C213.707 48.0773 213.556 47.971 213.443 47.8454C213.33 47.7199 213.243 47.6076 213.18 47.5084L213.123 47.5118L213.279 50.071L212.34 50.128ZM213.004 45.8519C213.024 46.191 213.091 46.4853 213.205 46.7347C213.319 46.9841 213.474 47.1754 213.669 47.3086C213.864 47.4396 214.096 47.4969 214.366 47.4805C214.647 47.4635 214.877 47.3749 215.056 47.2149C215.236 47.0527 215.365 46.8399 215.446 46.5766C215.529 46.3131 215.56 46.0202 215.541 45.6979C215.522 45.3796 215.456 45.0968 215.344 44.8494C215.235 44.6018 215.08 44.4105 214.881 44.2755C214.684 44.1404 214.444 44.0814 214.161 44.0986C213.889 44.1151 213.663 44.1992 213.483 44.351C213.305 44.5025 213.176 44.7068 213.095 44.9639C213.014 45.2209 212.984 45.5169 213.004 45.8519ZM220.356 45.8184L220.185 42.9954L221.127 42.9383L221.42 47.7615L220.497 47.8175L220.446 46.9823L220.396 46.9853C220.3 47.2495 220.135 47.4749 219.901 47.6614C219.668 47.8457 219.371 47.9489 219.009 47.9709C218.699 47.9897 218.42 47.9383 218.174 47.8167C217.929 47.6929 217.73 47.5001 217.578 47.2383C217.427 46.9764 217.34 46.6466 217.316 46.2488L217.129 43.1809L218.068 43.1239L218.248 46.0788C218.268 46.4074 218.375 46.6636 218.569 46.8472C218.763 47.0309 219.005 47.1138 219.296 47.0962C219.472 47.0855 219.644 47.0309 219.812 46.9324C219.983 46.8338 220.12 46.6921 220.225 46.5072C220.331 46.3221 220.375 46.0925 220.356 45.8184ZM222.526 49.5097L222.123 42.8778L223.04 42.8221L223.087 43.604L223.166 43.5993C223.214 43.4955 223.286 43.3745 223.38 43.2364C223.475 43.0983 223.61 42.9745 223.787 42.865C223.963 42.7535 224.2 42.6887 224.5 42.6705C224.889 42.6469 225.243 42.7242 225.56 42.9024C225.878 43.0806 226.134 43.3497 226.331 43.7097C226.529 44.0696 226.644 44.5101 226.676 45.0314C226.707 45.5526 226.648 46.0049 226.497 46.388C226.345 46.7691 226.124 47.0694 225.832 47.2887C225.541 47.506 225.201 47.6265 224.811 47.6502C224.518 47.6679 224.275 47.6333 224.083 47.5462C223.893 47.459 223.742 47.3526 223.629 47.2271C223.516 47.1016 223.429 46.9892 223.366 46.8901L223.309 46.8935L223.465 49.4527L222.526 49.5097ZM223.19 45.2336C223.21 45.5727 223.277 45.867 223.391 46.1164C223.505 46.3658 223.66 46.5571 223.855 46.6902C224.05 46.8213 224.282 46.8786 224.552 46.8622C224.833 46.8452 225.063 46.7566 225.242 46.5966C225.422 46.4344 225.551 46.2216 225.632 45.9583C225.715 45.6948 225.746 45.4019 225.727 45.0795C225.707 44.7613 225.642 44.4785 225.53 44.2311C225.421 43.9835 225.266 43.7922 225.067 43.6572C224.87 43.5221 224.63 43.4631 224.347 43.4803C224.075 43.4968 223.849 43.5809 223.669 43.7326C223.491 43.8842 223.362 44.0885 223.281 44.3455C223.2 44.6026 223.169 44.8986 223.19 45.2336ZM227.718 49.1945L227.315 42.5626L228.232 42.5069L228.28 43.2888L228.358 43.2841C228.406 43.1803 228.478 43.0593 228.573 42.9212C228.667 42.7831 228.803 42.6593 228.979 42.5499C229.155 42.4383 229.393 42.3735 229.692 42.3553C230.081 42.3317 230.435 42.409 230.752 42.5872C231.07 42.7654 231.327 43.0345 231.523 43.3945C231.721 43.7544 231.836 44.195 231.868 44.7162C231.899 45.2375 231.84 45.6897 231.689 46.0728C231.537 46.4539 231.316 46.7542 231.025 46.9735C230.733 47.1909 230.393 47.3113 230.004 47.335C229.71 47.3528 229.468 47.3181 229.275 47.231C229.085 47.1438 228.934 47.0375 228.821 46.9119C228.709 46.7864 228.621 46.6741 228.558 46.5749L228.501 46.5784L228.657 49.1375L227.718 49.1945ZM228.382 44.9184C228.402 45.2575 228.47 45.5518 228.584 45.8012C228.698 46.0506 228.852 46.2419 229.047 46.375C229.242 46.5061 229.475 46.5634 229.745 46.547C230.025 46.53 230.255 46.4414 230.434 46.2814C230.614 46.1192 230.744 45.9064 230.824 45.6431C230.907 45.3797 230.939 45.0867 230.919 44.7644C230.9 44.4461 230.834 44.1633 230.723 43.9159C230.613 43.6683 230.458 43.477 230.259 43.342C230.062 43.2069 229.822 43.1479 229.539 43.1651C229.267 43.1816 229.041 43.2657 228.861 43.4174C228.683 43.569 228.554 43.7733 228.473 44.0304C228.392 44.2874 228.361 44.5834 228.382 44.9184ZM232.801 47.0706L232.508 42.2474L233.447 42.1904L233.739 47.0136L232.801 47.0706ZM232.936 41.4744C232.773 41.4843 232.63 41.4384 232.506 41.3367C232.384 41.2327 232.319 41.1043 232.309 40.9515C232.3 40.7966 232.349 40.6612 232.458 40.5454C232.569 40.4273 232.705 40.3633 232.868 40.3534C233.032 40.3435 233.175 40.3905 233.296 40.4945C233.42 40.5962 233.487 40.7245 233.496 40.8795C233.505 41.0323 233.455 41.1677 233.344 41.2858C233.236 41.4016 233.1 41.4645 232.936 41.4744ZM236.822 46.9242C236.347 46.9531 235.931 46.8764 235.576 46.6942C235.222 46.5097 234.941 46.2379 234.732 45.8787C234.525 45.5172 234.406 45.0863 234.376 44.586C234.346 44.092 234.412 43.651 234.573 43.2629C234.737 42.8748 234.978 42.565 235.298 42.3333C235.62 42.1015 236.005 41.9721 236.453 41.9449C236.726 41.9284 236.992 41.9573 237.253 42.0318C237.514 42.1064 237.751 42.2338 237.966 42.414C238.181 42.5943 238.356 42.8347 238.492 43.1354C238.628 43.4339 238.709 43.8019 238.736 44.2394L238.756 44.5723L234.922 44.805L234.879 44.1016L237.793 43.9247C237.778 43.6777 237.715 43.462 237.603 43.2776C237.491 43.0911 237.34 42.9479 237.151 42.848C236.964 42.748 236.749 42.7054 236.507 42.7201C236.243 42.7361 236.017 42.815 235.828 42.9567C235.641 43.0962 235.5 43.2728 235.406 43.4866C235.314 43.6981 235.275 43.9242 235.29 44.165L235.323 44.7145C235.343 45.0369 235.416 45.3077 235.543 45.5269C235.672 45.746 235.842 45.909 236.054 46.0158C236.267 46.1206 236.51 46.1647 236.784 46.148C236.962 46.1372 237.123 46.1023 237.266 46.0432C237.41 45.9819 237.532 45.8968 237.632 45.7877C237.733 45.6787 237.807 45.547 237.854 45.3929L238.753 45.4991C238.697 45.7651 238.583 46.0021 238.411 46.21C238.241 46.4158 238.021 46.5815 237.751 46.7071C237.483 46.8305 237.174 46.9029 236.822 46.9242ZM243.055 42.789L242.213 42.9914C242.171 42.8848 242.108 42.7846 242.025 42.6909C241.943 42.5971 241.836 42.5227 241.702 42.4677C241.568 42.4129 241.404 42.3913 241.21 42.4031C240.944 42.4192 240.726 42.4924 240.555 42.6225C240.384 42.7505 240.304 42.9077 240.315 43.094C240.325 43.2552 240.393 43.3814 240.518 43.4726C240.643 43.5637 240.841 43.6326 241.11 43.6793L241.887 43.8086C242.337 43.8842 242.678 44.0222 242.908 44.2225C243.139 44.4228 243.265 44.6936 243.285 45.0348C243.303 45.3237 243.235 45.5863 243.081 45.8225C242.93 46.0566 242.709 46.2464 242.419 46.3922C242.132 46.5378 241.794 46.6224 241.404 46.6461C240.864 46.6789 240.416 46.5905 240.061 46.3809C239.706 46.1692 239.477 45.8523 239.373 45.4299L240.272 45.2366C240.343 45.4698 240.47 45.6417 240.654 45.7525C240.836 45.8611 241.069 45.9068 241.352 45.8897C241.66 45.871 241.902 45.7922 242.078 45.6534C242.255 45.5124 242.337 45.3487 242.326 45.1624C242.317 45.0117 242.253 44.8885 242.133 44.7928C242.016 44.6969 241.84 44.6298 241.607 44.5915L240.78 44.462C240.324 44.3868 239.981 44.2437 239.751 44.0328C239.525 43.8217 239.4 43.5446 239.38 43.2013C239.362 42.9166 239.427 42.6626 239.573 42.4394C239.719 42.2162 239.929 42.0365 240.202 41.9001C240.475 41.7617 240.793 41.6815 241.155 41.6595C241.676 41.6278 242.093 41.716 242.407 41.9239C242.719 42.1297 242.935 42.4181 243.055 42.789Z" fill="black"/>
<path d="M271.63 47.8394C271.247 48.1423 270.739 48.2996 270.079 48.3211C269.648 48.3351 269.211 48.2936 268.78 48.1977C267.791 47.9782 266.764 48.0405 265.809 48.3781C265.392 48.5254 264.963 48.6195 264.534 48.6577C264.492 48.6614 264.45 48.6647 264.409 48.6672C263.81 48.7036 263.327 48.6049 262.936 48.3672C262.221 47.9325 261.819 46.949 262 46.079C262.163 45.3016 262.694 44.7458 263.208 44.2084C263.277 44.1357 263.349 44.0607 263.418 43.9872C263.938 43.4303 264.407 42.8097 264.811 42.143C264.862 42.0587 264.913 41.9715 264.963 41.8871C265.153 41.5633 265.35 41.2285 265.6 40.9397L265.609 40.9288C265.915 40.5788 266.342 40.3702 266.812 40.3417C267.048 40.3274 267.277 40.359 267.492 40.4332C267.706 40.5073 267.905 40.6237 268.078 40.779L268.088 40.7886C268.371 41.0451 268.607 41.3536 268.835 41.6522C268.895 41.7298 268.956 41.8102 269.017 41.8877C269.498 42.5009 270.039 43.06 270.623 43.5499C270.699 43.6146 270.78 43.6803 270.858 43.744C271.433 44.2154 272.027 44.7028 272.283 45.4549C272.569 46.2964 272.288 47.3214 271.63 47.8394Z" fill="black"/>
<path d="M273.866 40.934C273.606 41.5565 273.224 41.9985 272.76 42.2115C272.576 42.2963 272.382 42.3445 272.183 42.3566C271.916 42.3729 271.638 42.3231 271.361 42.2076C270.884 42.0091 270.589 41.6863 270.485 41.248C270.382 40.8146 270.465 40.2858 270.737 39.6314C271.013 38.9684 271.373 38.4427 271.779 38.1113C272.239 37.7345 272.725 37.6366 273.185 37.8279C273.645 38.0197 273.967 38.4564 274.09 39.0577C274.208 39.6356 274.129 40.3021 273.866 40.934Z" fill="black"/>
<path d="M270.73 37.6152C270.707 38.3485 270.489 38.9447 270.1 39.3396C269.784 39.6602 269.37 39.8415 268.893 39.8705C268.823 39.8747 268.751 39.8757 268.679 39.8733C268.119 39.8553 267.697 39.6416 267.423 39.238C267.152 38.8375 267.032 38.2679 267.057 37.4961C267.07 37.1048 267.118 36.7406 267.197 36.4123C267.277 36.084 267.389 35.7919 267.531 35.5452C267.853 34.9867 268.308 34.7009 268.846 34.7183C269.386 34.7357 269.879 35.0552 270.235 35.618C270.579 36.1605 270.754 36.8699 270.73 37.6152Z" fill="black"/>
<path d="M262.833 40.1118C263.182 40.7283 263.328 41.2432 263.279 41.6858C263.228 42.1335 262.975 42.4895 262.525 42.7443C262.264 42.8925 261.994 42.9755 261.727 42.9917C261.528 43.0038 261.33 42.9792 261.137 42.9174C260.651 42.762 260.218 42.3696 259.885 41.783C259.548 41.1876 259.388 40.5356 259.435 39.9477C259.485 39.3359 259.751 38.8635 260.185 38.6174C260.618 38.3719 261.113 38.4103 261.615 38.7286C262.057 39.0086 262.478 39.4868 262.833 40.1118Z" fill="black"/>
<path d="M266.215 37.5463C266.242 37.7203 266.26 37.8847 266.269 38.0402C266.301 38.5661 266.233 38.9875 266.062 39.3197C265.839 39.7534 265.446 40.0166 264.893 40.1022C264.821 40.1133 264.75 40.1209 264.68 40.1252C264.203 40.1542 263.77 40.0243 263.418 39.7442C262.984 39.3993 262.696 38.8339 262.583 38.1088C262.469 37.3719 262.558 36.6465 262.833 36.0663C263.118 35.4647 263.57 35.0878 264.104 35.0052C264.636 34.9228 265.121 35.1515 265.508 35.6671C265.85 36.1225 266.095 36.7726 266.215 37.5463Z" fill="black"/>
<path d="M279.367 46.0597L278.965 39.4277L279.882 39.372L279.93 40.1539L280.007 40.1492C280.056 40.0454 280.127 39.9245 280.222 39.7864C280.317 39.6482 280.454 39.5244 280.628 39.415C280.803 39.3036 281.043 39.2386 281.341 39.2205C281.732 39.1968 282.084 39.2741 282.402 39.4523C282.719 39.6306 282.976 39.8997 283.172 40.2597C283.371 40.6195 283.487 41.06 283.518 41.5813C283.55 42.1025 283.489 42.5549 283.338 42.938C283.187 43.319 282.965 43.6193 282.675 43.8386C282.382 44.0561 282.041 44.1765 281.654 44.2C281.36 44.2179 281.117 44.1832 280.923 44.0962C280.733 44.0091 280.582 43.9026 280.471 43.777C280.356 43.6516 280.268 43.5393 280.207 43.4401L280.152 43.4434L280.307 46.0026L279.367 46.0597ZM280.032 41.7834C280.053 42.1226 280.119 42.4169 280.234 42.6663C280.345 42.9159 280.501 43.1071 280.698 43.2401C280.89 43.3713 281.123 43.4286 281.392 43.4122C281.676 43.395 281.903 43.3066 282.082 43.1466C282.261 42.9844 282.392 42.7716 282.473 42.5083C282.556 42.2448 282.587 41.952 282.567 41.6296C282.548 41.3113 282.483 41.0285 282.371 40.781C282.264 40.5333 282.108 40.3421 281.908 40.2072C281.711 40.0721 281.471 40.0131 281.187 40.0303C280.918 40.0467 280.69 40.1309 280.511 40.2826C280.331 40.4342 280.203 40.6385 280.123 40.8955C280.042 41.1525 280.012 41.4485 280.032 41.7834ZM287.382 41.7501L287.21 38.9272L288.154 38.8699L288.446 43.6932L287.525 43.7491L287.475 42.9138L287.423 42.9169C287.328 43.1811 287.164 43.4064 286.928 43.5931C286.695 43.7774 286.398 43.8805 286.037 43.9025C285.728 43.9213 285.447 43.87 285.199 43.7484C284.955 43.6246 284.759 43.4317 284.606 43.1699C284.453 42.9081 284.366 42.5783 284.342 42.1805L284.156 39.1126L285.096 39.0556L285.275 42.0104C285.295 42.3391 285.403 42.5952 285.595 42.7789C285.791 42.9624 286.033 43.0454 286.324 43.0278C286.501 43.017 286.671 42.9626 286.839 42.8641C287.011 42.7655 287.146 42.6238 287.254 42.4387C287.357 42.2538 287.402 42.0242 287.382 41.7501ZM289.555 45.4413L289.152 38.8093L290.066 38.7539L290.113 39.5358L290.194 39.5308C290.24 39.4272 290.314 39.3061 290.409 39.1679C290.501 39.03 290.637 38.9062 290.815 38.7966C290.99 38.6852 291.226 38.6204 291.528 38.6021C291.915 38.5786 292.271 38.6557 292.589 38.8339C292.903 39.0124 293.164 39.2813 293.359 39.6413C293.555 40.0013 293.67 40.4418 293.702 40.9631C293.734 41.4844 293.676 41.9364 293.525 42.3196C293.371 42.7008 293.153 43.0009 292.859 43.2204C292.569 43.4377 292.229 43.5581 291.838 43.5818C291.547 43.5995 291.305 43.5648 291.111 43.4778C290.921 43.3906 290.77 43.2842 290.655 43.1588C290.544 43.0332 290.456 42.9209 290.394 42.8217L290.335 42.8253L290.491 45.3844L289.555 45.4413ZM290.216 41.1653C290.237 41.5044 290.306 41.7985 290.418 42.0481C290.532 42.2975 290.688 42.4886 290.881 42.6219C291.078 42.7529 291.311 42.8102 291.58 42.7938C291.86 42.7768 292.091 42.6882 292.27 42.5282C292.448 42.366 292.58 42.1532 292.66 41.8899C292.744 41.6264 292.774 41.3336 292.755 41.0112C292.735 40.6929 292.67 40.4101 292.559 40.1626C292.448 39.9151 292.292 39.7239 292.095 39.5888C291.898 39.4537 291.658 39.3947 291.374 39.4119C291.102 39.4285 290.877 39.5125 290.698 39.6642C290.519 39.8158 290.391 40.0201 290.306 40.2773C290.226 40.5343 290.196 40.8303 290.216 41.1653ZM294.746 45.1261L294.343 38.4942L295.261 38.4385L295.308 39.2204L295.386 39.2157C295.435 39.1118 295.505 38.991 295.6 38.8528C295.696 38.7147 295.829 38.5911 296.007 38.4815C296.181 38.37 296.421 38.305 296.72 38.2869C297.107 38.2634 297.463 38.3406 297.78 38.5188C298.098 38.697 298.355 38.9661 298.551 39.3262C298.75 39.6859 298.865 40.1265 298.897 40.6477C298.929 41.169 298.867 41.6213 298.717 42.0044C298.566 42.3855 298.344 42.6858 298.05 42.9053C297.76 43.1225 297.42 43.243 297.029 43.2667C296.738 43.2844 296.496 43.2497 296.302 43.1627C296.112 43.0755 295.961 42.9691 295.85 42.8435C295.735 42.7181 295.647 42.6058 295.586 42.5066L295.53 42.5099L295.686 45.0691L294.746 45.1261ZM295.407 40.8501C295.428 41.1892 295.498 41.4834 295.613 41.7327C295.724 41.9823 295.88 42.1735 296.073 42.3068C296.269 42.4377 296.502 42.495 296.771 42.4787C297.051 42.4617 297.282 42.3731 297.461 42.2131C297.64 42.0509 297.771 41.8381 297.851 41.5748C297.935 41.3113 297.965 41.0184 297.946 40.696C297.927 40.3778 297.861 40.095 297.75 39.8475C297.639 39.6 297.487 39.4086 297.286 39.2737C297.09 39.1385 296.849 39.0796 296.566 39.0968C296.293 39.1133 296.069 39.1974 295.889 39.349C295.71 39.5007 295.582 39.7049 295.501 39.9619C295.421 40.219 295.387 40.5152 295.407 40.8501ZM299.828 43.0023L299.535 38.1791L300.474 38.122L300.767 42.9453L299.828 43.0023ZM299.965 37.406C299.799 37.4161 299.656 37.3701 299.535 37.2682C299.41 37.1644 299.347 37.0359 299.338 36.8831C299.328 36.7282 299.376 36.5929 299.487 36.4769C299.594 36.359 299.731 36.2951 299.897 36.285C300.059 36.2751 300.202 36.3221 300.323 36.4261C300.448 36.5279 300.515 36.6561 300.524 36.8111C300.533 36.9639 300.483 37.0993 300.371 37.2174C300.264 37.3332 300.127 37.3962 299.965 37.406ZM303.85 42.8558C303.374 42.8847 302.959 42.808 302.604 42.6257C302.249 42.4414 301.966 42.1697 301.76 41.8103C301.553 41.4488 301.434 41.0179 301.404 40.5176C301.374 40.0236 301.439 39.5826 301.601 39.1946C301.762 38.8066 302.006 38.4966 302.325 38.265C302.647 38.0332 303.031 37.9038 303.481 37.8765C303.753 37.86 304.018 37.8891 304.281 37.9634C304.541 38.0381 304.778 38.1655 304.992 38.3458C305.21 38.5258 305.384 38.7664 305.52 39.0669C305.657 39.3654 305.738 39.7334 305.765 40.171L305.785 40.5038L301.95 40.7366L301.907 40.0332L304.821 39.8563C304.806 39.6093 304.741 39.3937 304.63 39.2092C304.519 39.0227 304.366 38.8796 304.179 38.7796C303.992 38.6796 303.778 38.6369 303.535 38.6517C303.27 38.6678 303.045 38.7465 302.854 38.8884C302.667 39.028 302.526 39.2046 302.432 39.4183C302.341 39.6297 302.303 39.8558 302.317 40.0966L302.351 40.6461C302.37 40.9685 302.442 41.2394 302.57 41.4585C302.698 41.6777 302.871 41.8405 303.081 41.9475C303.294 42.0523 303.537 42.0963 303.81 42.0798C303.99 42.0688 304.151 42.0339 304.295 41.9747C304.436 41.9136 304.56 41.8284 304.661 41.7193C304.761 41.6102 304.835 41.4786 304.881 41.3246L305.778 41.4308C305.724 41.6967 305.609 41.9338 305.437 42.1418C305.268 42.3474 305.049 42.513 304.779 42.6387C304.509 42.7622 304.2 42.8346 303.85 42.8558ZM310.081 38.7208L309.239 38.9231C309.199 38.8163 309.134 38.7163 309.051 38.6226C308.971 38.5286 308.863 38.4543 308.73 38.3993C308.598 38.3444 308.43 38.323 308.238 38.3347C307.969 38.351 307.752 38.4241 307.582 38.5541C307.412 38.6821 307.333 38.8393 307.345 39.0255C307.354 39.1867 307.421 39.313 307.545 39.4042C307.669 39.4954 307.869 39.5642 308.138 39.6109L308.915 39.7402C309.364 39.8159 309.705 39.9539 309.935 40.1542C310.165 40.3545 310.293 40.6252 310.314 40.9664C310.331 41.2553 310.262 41.5179 310.11 41.7541C309.958 41.9882 309.736 42.1781 309.446 42.3239C309.159 42.4695 308.82 42.5541 308.433 42.5776C307.891 42.6105 307.442 42.5222 307.089 42.3125C306.732 42.1009 306.502 41.784 306.399 41.3616L307.301 41.1682C307.37 41.4014 307.499 41.5732 307.68 41.6842C307.864 41.7927 308.096 41.8385 308.38 41.8213C308.685 41.8027 308.928 41.7239 309.105 41.585C309.281 41.4441 309.364 41.2804 309.352 41.0941C309.343 40.9434 309.28 40.8201 309.16 40.7244C309.043 40.6286 308.869 40.5614 308.634 40.5232L307.808 40.3936C307.349 40.3185 307.008 40.1754 306.78 39.9644C306.553 39.7533 306.429 39.4761 306.408 39.1328C306.391 38.8481 306.453 38.5943 306.599 38.3712C306.748 38.1478 306.955 37.9682 307.228 37.8319C307.504 37.6932 307.821 37.6131 308.182 37.5911C308.705 37.5594 309.121 37.6476 309.433 37.8556C309.745 38.0615 309.962 38.3498 310.081 38.7208Z" fill="black"/>
<path d="M338.658 43.7711C338.273 44.074 337.765 44.2313 337.108 44.2527C336.676 44.2667 336.237 44.2253 335.806 44.1294C334.817 43.9099 333.792 43.9721 332.837 44.3097C332.42 44.457 331.99 44.5512 331.563 44.5893C331.519 44.5931 331.478 44.5963 331.438 44.5987C330.837 44.6352 330.354 44.5366 329.963 44.2989C329.248 43.8641 328.845 42.8807 329.029 42.0106C329.188 41.2334 329.721 40.6775 330.235 40.14C330.305 40.0674 330.378 39.9923 330.444 39.919C330.965 39.362 331.434 38.7414 331.837 38.0747C331.887 37.9905 331.941 37.9031 331.988 37.8188C332.179 37.495 332.377 37.1602 332.625 36.8715L332.636 36.8605C332.94 36.5105 333.367 36.302 333.839 36.2733C334.075 36.259 334.306 36.2906 334.518 36.3649C334.733 36.4389 334.932 36.5553 335.104 36.7107L335.116 36.7203C335.398 36.9768 335.635 37.2852 335.864 37.5838C335.92 37.6616 335.984 37.7418 336.044 37.8193C336.525 38.4326 337.066 38.9917 337.65 39.4815C337.728 39.5461 337.806 39.612 337.884 39.6757C338.46 40.147 339.055 40.6344 339.308 41.3867C339.596 42.228 339.314 43.2531 338.658 43.7711Z" fill="black"/>
<path d="M340.892 36.8657C340.631 37.4883 340.251 37.9302 339.787 38.1432C339.603 38.2279 339.41 38.2762 339.211 38.2882C338.942 38.3046 338.666 38.2548 338.389 38.1392C337.911 37.9408 337.617 37.6179 337.513 37.1796C337.409 36.7463 337.492 36.2175 337.763 35.5632C338.04 34.9001 338.4 34.3744 338.806 34.0429C339.267 33.6661 339.753 33.5682 340.212 33.7595C340.671 33.9515 340.994 34.3881 341.115 34.9895C341.235 35.5672 341.154 36.2339 340.892 36.8657Z" fill="black"/>
<path d="M337.76 33.5459C337.738 34.2792 337.519 34.8755 337.129 35.2704C336.815 35.5909 336.401 35.7722 335.922 35.8012C335.852 35.8055 335.782 35.8064 335.708 35.8041C335.152 35.7859 334.728 35.5722 334.452 35.1688C334.184 34.7682 334.064 34.1985 334.088 33.4268C334.101 33.0355 334.149 32.6712 334.229 32.3429C334.309 32.0146 334.421 31.7225 334.561 31.476C334.882 30.9175 335.338 30.6316 335.875 30.649C336.416 30.6664 336.909 30.986 337.265 31.5487C337.609 32.0913 337.785 32.8006 337.76 33.5459Z" fill="black"/>
<path d="M329.853 36.0424C330.201 36.659 330.347 37.1739 330.296 37.6166C330.245 38.0643 329.993 38.4202 329.543 38.6751C329.282 38.8232 329.013 38.9062 328.744 38.9225C328.545 38.9346 328.348 38.91 328.156 38.8481C327.669 38.6928 327.238 38.3002 326.903 37.7138C326.568 37.1182 326.406 36.4663 326.455 35.8783C326.503 35.2666 326.77 34.7942 327.203 34.5481C327.636 34.3027 328.13 34.3411 328.633 34.6593C329.076 34.9393 329.497 35.4176 329.853 36.0424Z" fill="black"/>
<path d="M333.249 33.4777C333.275 33.6518 333.292 33.8163 333.301 33.9718C333.333 34.4977 333.267 34.919 333.094 35.2513C332.873 35.6849 332.478 35.9481 331.925 36.0337C331.856 36.0447 331.786 36.0523 331.716 36.0565C331.237 36.0856 330.804 35.9558 330.45 35.6758C330.019 35.3307 329.729 34.7654 329.619 34.0401C329.504 33.3033 329.593 32.5779 329.868 31.9977C330.153 31.3961 330.604 31.0193 331.139 30.9366C331.67 30.8543 332.154 31.0831 332.544 31.5985C332.886 32.0539 333.128 32.704 333.249 33.4777Z" fill="black"/>
<path d="M346.399 41.9903L345.996 35.3584L346.91 35.3029L346.957 36.0848L347.038 36.0799C347.084 35.9763 347.158 35.8552 347.253 35.717C347.344 35.5791 347.481 35.4553 347.659 35.3457C347.834 35.2342 348.07 35.1695 348.372 35.1511C348.759 35.1276 349.115 35.2048 349.429 35.3832C349.747 35.5614 350.007 35.8303 350.203 36.1904C350.399 36.5504 350.514 36.9909 350.546 37.5122C350.577 38.0334 350.52 38.4855 350.369 38.8686C350.215 39.2499 349.997 39.55 349.703 39.7695C349.413 39.9867 349.073 40.1072 348.682 40.1309C348.391 40.1486 348.145 40.1141 347.955 40.0269C347.764 39.9397 347.614 39.8333 347.499 39.7079C347.388 39.5823 347.3 39.47 347.238 39.3708L347.179 39.3743L347.334 41.9335L346.399 41.9903ZM347.06 37.7143C347.08 38.0534 347.15 38.3476 347.261 38.5972C347.376 38.8465 347.532 39.0377 347.725 39.171C347.922 39.3019 348.154 39.3592 348.423 39.3429C348.703 39.3259 348.935 39.2373 349.114 39.0773C349.292 38.9151 349.424 38.7023 349.504 38.439C349.588 38.1755 349.618 37.8826 349.598 37.5602C349.579 37.242 349.514 36.9592 349.403 36.7117C349.291 36.4642 349.136 36.273 348.939 36.1379C348.742 36.0027 348.502 35.9438 348.218 35.961C347.945 35.9775 347.721 36.0616 347.538 36.2135C347.362 36.3649 347.234 36.5691 347.15 36.8264C347.07 37.0834 347.04 37.3794 347.06 37.7143ZM354.413 37.6808L354.242 34.8579L355.185 34.8006L355.478 39.6238L354.553 39.68L354.502 38.8447L354.454 38.8476C354.356 39.112 354.192 39.3373 353.959 39.5237C353.726 39.7081 353.429 39.8112 353.065 39.8334C352.755 39.8521 352.478 39.8006 352.231 39.6791C351.986 39.5553 351.786 39.3626 351.633 39.1008C351.484 38.8388 351.398 38.5089 351.374 38.1112L351.187 35.0433L352.127 34.9862L352.306 37.9411C352.326 38.2697 352.431 38.5261 352.627 38.7096C352.819 38.8933 353.061 38.9763 353.352 38.9587C353.529 38.9479 353.703 38.8932 353.871 38.7948C354.038 38.6964 354.178 38.5545 354.281 38.3696C354.388 38.1845 354.433 37.9549 354.413 37.6808ZM356.582 41.3721L356.18 34.7402L357.097 34.6845L357.145 35.4664L357.222 35.4617C357.271 35.3579 357.341 35.237 357.437 35.0988C357.532 34.9607 357.668 34.8368 357.843 34.7275C358.021 34.6158 358.258 34.5511 358.556 34.533C358.947 34.5092 359.299 34.5866 359.617 34.7648C359.934 34.943 360.191 35.2122 360.387 35.5722C360.586 35.932 360.702 36.3725 360.733 36.8937C360.765 37.415 360.704 37.8673 360.553 38.2505C360.402 38.6315 360.18 38.9318 359.89 39.1511C359.597 39.3685 359.256 39.489 358.869 39.5125C358.575 39.5304 358.332 39.4957 358.142 39.4085C357.952 39.3213 357.797 39.2151 357.686 39.0895C357.571 38.9641 357.487 38.8516 357.422 38.7526L357.366 38.7559L357.522 41.3151L356.582 41.3721ZM357.247 37.0959C357.268 37.435 357.334 37.7294 357.449 37.9788C357.564 38.2281 357.716 38.4195 357.913 38.5526C358.105 38.6837 358.338 38.7411 358.611 38.7245C358.891 38.7075 359.118 38.6191 359.297 38.4591C359.48 38.2967 359.607 38.0841 359.688 37.8208C359.771 37.5573 359.802 37.2644 359.782 36.9421C359.763 36.6238 359.698 36.341 359.586 36.0935C359.479 35.8458 359.323 35.6546 359.123 35.5197C358.926 35.3846 358.685 35.3256 358.405 35.3426C358.133 35.3591 357.905 35.4434 357.726 35.5951C357.55 35.7465 357.418 35.9509 357.338 36.208C357.257 36.465 357.227 36.761 357.247 37.0959ZM361.774 41.057L361.371 34.4251L362.288 34.3694L362.336 35.1513L362.417 35.1464C362.462 35.0427 362.536 34.9217 362.628 34.7837C362.723 34.6456 362.86 34.5217 363.034 34.4124C363.212 34.3007 363.449 34.2359 363.747 34.2178C364.138 34.1941 364.49 34.2715 364.808 34.4497C365.126 34.6279 365.382 34.897 365.582 35.2568C365.777 35.6168 365.893 36.0574 365.925 36.5786C365.956 37.0999 365.899 37.552 365.744 37.9353C365.594 38.3164 365.372 38.6167 365.082 38.836C364.792 39.0532 364.451 39.1737 364.061 39.1974C363.766 39.2153 363.524 39.1806 363.333 39.0934C363.143 39.0062 362.992 38.8998 362.878 38.7744C362.766 38.6488 362.678 38.5364 362.617 38.4372L362.558 38.4408L362.713 41L361.774 41.057ZM362.439 36.7808C362.459 37.1199 362.525 37.4143 362.64 37.6636C362.755 37.913 362.907 38.1044 363.104 38.2375C363.3 38.3684 363.533 38.4257 363.802 38.4094C364.082 38.3924 364.313 38.3038 364.492 38.1437C364.671 37.9816 364.802 37.7687 364.883 37.5055C364.963 37.2421 364.997 36.9491 364.977 36.6267C364.958 36.3085 364.893 36.0257 364.781 35.7782C364.67 35.5307 364.514 35.3395 364.318 35.2043C364.117 35.0694 363.88 35.0102 363.597 35.0275C363.324 35.044 363.096 35.1283 362.917 35.2799C362.741 35.4313 362.609 35.6358 362.529 35.8928C362.448 36.1498 362.418 36.4459 362.439 36.7808ZM366.859 38.933L366.566 34.1097L367.502 34.0529L367.795 38.8761L366.859 38.933ZM366.992 33.3369C366.83 33.3467 366.687 33.3008 366.563 33.1991C366.442 33.0951 366.375 32.9668 366.365 32.814C366.356 32.659 366.407 32.5236 366.515 32.4078C366.626 32.2897 366.762 32.2257 366.924 32.2159C367.09 32.2058 367.23 32.253 367.355 32.3568C367.475 32.4587 367.542 32.587 367.552 32.742C367.561 32.8948 367.51 33.0302 367.403 33.1481C367.291 33.2641 367.158 33.3268 366.992 33.3369ZM370.877 38.7867C370.402 38.8156 369.987 38.7389 369.632 38.5566C369.28 38.372 368.998 38.1003 368.787 37.7412C368.58 37.3797 368.462 36.9488 368.431 36.4485C368.401 35.9545 368.467 35.5135 368.628 35.1254C368.793 34.7372 369.033 34.4275 369.356 34.1957C369.678 33.9639 370.062 33.8345 370.512 33.8072C370.781 33.7909 371.049 33.8198 371.309 33.8943C371.572 33.9687 371.809 34.0961 372.023 34.2764C372.238 34.4567 372.415 34.697 372.548 34.9978C372.684 35.2963 372.766 35.6643 372.792 36.1019L372.813 36.4347L368.977 36.6675L368.934 35.9641L371.849 35.7872C371.834 35.5402 371.773 35.3244 371.658 35.1401C371.547 34.9535 371.397 34.8103 371.206 34.7105C371.023 34.6103 370.806 34.5678 370.563 34.5826C370.301 34.5985 370.073 34.6774 369.886 34.8191C369.698 34.9586 369.557 35.1353 369.463 35.349C369.372 35.5604 369.33 35.7867 369.345 36.0275L369.378 36.577C369.398 36.8994 369.474 37.17 369.598 37.3894C369.729 37.6083 369.898 37.7714 370.112 37.8782C370.325 37.9829 370.568 38.027 370.841 38.0105C371.018 37.9997 371.178 37.9648 371.323 37.9056C371.467 37.8443 371.588 37.7592 371.688 37.6502C371.789 37.5411 371.862 37.4095 371.912 37.2552L372.81 37.3615C372.756 37.6274 372.641 37.8645 372.468 38.0724C372.3 38.2781 372.077 38.4439 371.807 38.5696C371.541 38.6929 371.231 38.7653 370.877 38.7867ZM377.112 34.6514L376.27 34.8538C376.227 34.7472 376.165 34.6469 376.082 34.5532C375.999 34.4595 375.894 34.385 375.758 34.3302C375.625 34.2753 375.461 34.2537 375.266 34.2655C375 34.2816 374.783 34.3548 374.613 34.4848C374.44 34.613 374.361 34.7701 374.372 34.9564C374.382 35.1176 374.449 35.2438 374.576 35.3349C374.7 35.4261 374.897 35.495 375.166 35.5418L375.943 35.6711C376.395 35.7466 376.736 35.8845 376.966 36.0849C377.197 36.2852 377.32 36.5561 377.341 36.8973C377.359 37.1862 377.293 37.4486 377.137 37.685C376.985 37.9191 376.767 38.1087 376.477 38.2546C376.19 38.4002 375.851 38.4848 375.46 38.5085C374.923 38.5412 374.473 38.4529 374.117 38.2434C373.764 38.0316 373.534 37.7147 373.43 37.2923L374.328 37.0991C374.402 37.3321 374.527 37.5041 374.711 37.6148C374.895 37.7234 375.127 37.7692 375.407 37.7522C375.717 37.7334 375.96 37.6546 376.136 37.5157C376.312 37.3747 376.395 37.2111 376.384 37.0248C376.374 36.874 376.308 36.751 376.191 36.6551C376.074 36.5592 375.896 36.4923 375.665 36.4538L374.836 36.3245C374.38 36.2492 374.039 36.106 373.808 35.8952C373.581 35.6842 373.457 35.407 373.436 35.0637C373.418 34.779 373.484 34.525 373.63 34.3018C373.775 34.0787 373.986 33.8988 374.259 33.7625C374.532 33.6241 374.848 33.544 375.213 33.5218C375.733 33.4903 376.149 33.5785 376.464 33.7862C376.776 33.9921 376.994 34.2804 377.112 34.6514Z" fill="black"/>
</g>
<defs>
<clipPath id="clip0_3_8167">
<rect width="685.823" height="43.1869" fill="white" transform="translate(-92 42.1934) rotate(-3.47376)"/>
</clipPath>
</defs>
</svg>
