<svg width="239" height="16" viewBox="0 0 239 16" fill="none" xmlns="http://www.w3.org/2000/svg">
<path d="M102.68 9.54619C98.0456 9.60702 93.3863 9.62391 88.7647 9.7388C69.1258 10.222 49.487 10.739 29.8481 11.2323C28.0195 11.2796 26.1658 11.2661 24.3247 11.2425C18.0122 11.1648 15.7577 10.3369 17.386 8.72171C17.6615 8.44801 17.912 8.16756 18.2753 7.77897C21.3563 7.68436 24.5126 7.6134 27.6438 7.48162C30.6247 7.35659 33.5304 7.10654 36.5239 7.01531C39.2793 6.93083 42.0974 7.02207 44.8653 6.97476C47.0572 6.93759 49.2616 6.85649 51.3908 6.71795C55.2108 6.47466 58.9808 6.17732 62.7883 5.907C63.3519 5.86645 64.3288 5.79887 64.4917 5.86307C67.0843 6.84637 68.3368 5.98472 70.0151 5.76171C90.2301 5.40691 110.094 4.25804 130.184 3.56196C114.34 3.75119 98.4714 3.84242 82.6526 4.15667C59.3189 4.62298 36.0229 5.25146 12.7017 5.809C10.5725 5.85968 8.4433 5.91038 6.30156 5.92728C2.50655 5.95431 -0.0735495 4.96087 0.00159924 3.6194C0.0642232 2.40295 2.88228 2.58881 6.01348 2.57191C14.5804 2.52122 23.1349 2.36241 31.6893 2.21035C39.7051 2.06843 47.721 1.88596 55.7369 1.71701C68.6374 1.44669 81.5129 1.11217 94.4385 0.919564C102.003 0.808056 109.631 0.912798 117.221 0.933073C123.058 0.949968 128.832 0.520828 134.781 1.03444C137.286 1.2507 140.517 0.764126 143.435 0.747231C155.672 0.683029 167.909 0.652629 180.146 0.652629C187.084 0.652629 194.01 0.777638 200.949 0.764122C211.069 0.743847 221.189 0.696553 231.297 0.564771C235.355 0.510707 238.361 0.933082 238.937 1.89272C239.35 2.57866 237.634 3.36598 236.67 4.09247C236.52 4.20736 235.342 4.27155 234.641 4.27493C218.459 4.31886 202.227 4.15666 186.107 4.4405C167.671 4.7615 149.335 5.47448 130.961 6.02526C129.32 6.07594 127.717 6.20434 126.101 6.29558C126.114 6.40371 126.139 6.51184 126.151 6.62335C133.24 6.62335 140.329 6.57942 147.418 6.63686C154.107 6.69093 160.795 6.89367 167.483 6.95787C172.43 7.00518 177.403 6.98828 182.337 6.89367C186.909 6.80919 189.84 7.485 190.203 8.88392C190.466 9.89087 188.362 10.418 184.041 10.5126C166.055 10.9181 148.07 11.3337 130.096 11.7628C128.493 11.8 126.928 11.9453 125.312 12.1548C138.989 12.6988 152.967 12.8171 165.642 14.439L165.88 14.9357C163.989 15.1283 162.072 15.5 160.219 15.4865C148.032 15.3818 135.87 15.1858 123.684 15.0304C109.894 14.8513 96.1168 14.6925 82.327 14.5032C80.3731 14.4762 78.4568 14.3275 76.503 14.2498C70.466 14.0133 69.6519 13.0469 71.5431 11.2188C71.7686 10.9958 72.8457 10.6951 73.6097 10.6748C78.9202 10.5363 84.4186 10.2051 89.5288 10.445C94.6013 10.6816 98.534 10.2896 102.805 9.89424C102.755 9.77598 102.717 9.6611 102.667 9.54283L102.68 9.54619Z" fill="#EFC951"/>
</svg>
