<svg width="34" height="42" viewBox="0 0 34 42" fill="none" xmlns="http://www.w3.org/2000/svg">
<path d="M15.9183 16.0745C15.1237 16.2742 14.6287 17.1304 14.8135 17.9867C16.3369 25.0575 16.6683 32.4661 15.7739 39.4158C15.6612 40.2869 16.2243 41.0943 17.0316 41.2133C17.0999 41.2233 17.1688 41.2283 17.2377 41.2281C17.9622 41.2281 18.5954 40.6524 18.6995 39.8556C19.6428 32.5213 19.2944 24.7112 17.6903 17.2664C17.5054 16.4059 16.7129 15.8769 15.9183 16.0745ZM12.4955 25.0469C11.6839 25.1276 11.0869 25.9052 11.1613 26.7806C11.5224 30.9619 11.4268 35.0879 10.8808 39.044C10.7618 39.9151 11.3185 40.7246 12.1237 40.8542C12.1961 40.866 12.2693 40.8717 12.3426 40.8712C13.0628 40.8712 13.6938 40.3039 13.8022 39.5114C14.3822 35.3046 14.4821 30.9215 14.1018 26.4874C14.0274 25.6099 13.2816 24.9576 12.4955 25.0469ZM14.8114 10.8989C13.1457 11.3174 11.7307 12.4116 10.8256 13.9775C9.91836 15.5549 9.63128 17.4137 10.0203 19.1914C10.2073 20.0625 10.3773 20.9336 10.5239 21.8025C10.6683 22.6694 11.4587 23.2409 12.2427 23.0837C13.0458 22.9243 13.5748 22.0936 13.4282 21.2289C13.2713 20.3051 13.0942 19.385 12.8971 18.469C12.6885 17.5125 12.8438 16.5126 13.3326 15.6644C13.8213 14.8188 14.5841 14.2282 15.4785 14.0051C17.3312 13.5377 19.1775 14.7912 19.6067 16.7863C21.1917 24.1396 21.6081 31.51 20.839 38.6892C20.7476 39.5624 21.3277 40.3528 22.1393 40.4526C22.1956 40.4604 22.2524 40.4647 22.3092 40.4654C23.0507 40.4654 23.6881 39.8662 23.7752 39.0546C24.5805 31.51 24.1449 23.7742 22.4835 16.066C21.6867 12.3628 18.2533 10.0448 14.8093 10.8989H14.8114ZM9.68888 12.0313C9.93335 11.6944 10.0439 11.2788 9.99918 10.865C9.95442 10.4512 9.75751 10.0687 9.44667 9.79193C9.29765 9.66285 9.12312 9.56659 8.93444 9.50941C8.74576 9.45223 8.54716 9.43542 8.35155 9.46007C8.15595 9.48472 7.96773 9.55029 7.79913 9.65249C7.63054 9.75469 7.48535 9.89124 7.37302 10.0533C7.11221 10.411 6.87106 10.7826 6.65064 11.1666C5.04529 13.9583 4.53777 17.2481 5.22713 20.3939C6.48917 26.2515 6.78449 32.2664 6.07911 37.7947C5.96863 38.6658 6.53379 39.4689 7.34115 39.59C7.40877 39.5989 7.47692 39.6031 7.54511 39.6028C8.27174 39.6028 8.90489 39.0249 9.00687 38.2281C9.75687 32.3216 9.44667 25.9052 8.1039 19.6736C7.81706 18.3599 7.80994 17.0005 8.08301 15.6838C8.35609 14.3671 8.90324 13.1226 9.68888 12.0313ZM27.4551 26.6318C26.6414 26.6743 26.0104 27.4222 26.0529 28.3018C26.1874 31.2273 26.1455 34.1582 25.9275 37.0787C25.8595 37.9583 26.465 38.7253 27.2788 38.7997C27.3191 38.8026 27.3595 38.8041 27.3999 38.8039C28.1626 38.8039 28.8085 38.1729 28.8701 37.3379C29.0975 34.3167 29.1421 31.2232 29.0019 28.1446C28.9615 27.265 28.2497 26.6085 27.4551 26.6318ZM27.0939 24.4328C27.1558 24.4327 27.2175 24.4285 27.2788 24.4201C28.0883 24.3139 28.6598 23.5171 28.5621 22.6439C28.2602 20.0302 27.8305 17.4329 27.2745 14.8613C26.1017 9.3925 21.4318 5.42155 16.1775 5.42155C15.3468 5.42155 14.5161 5.52141 13.7044 5.72325C13.0331 5.89322 12.3765 6.12693 11.7477 6.418C10.9998 6.76857 10.6556 7.70766 10.9785 8.51503C11.3036 9.32239 12.1747 9.6942 12.9205 9.34364C13.3858 9.12692 13.8765 8.9527 14.3695 8.82947C14.9601 8.68075 15.5678 8.60851 16.1754 8.60851C20.0741 8.60851 23.5309 11.5405 24.3978 15.5837C24.9289 18.044 25.3454 20.5511 25.6301 23.0369C25.7235 23.8443 26.3609 24.4328 27.0961 24.4328H27.0939ZM32.0698 13.6652C31.4095 10.5596 29.9273 7.68836 27.7781 5.35143C27.6466 5.20468 27.4856 5.0873 27.3057 5.00694C27.1257 4.92658 26.9309 4.88505 26.7338 4.88505C26.5368 4.88505 26.3419 4.92658 26.162 5.00694C25.982 5.0873 25.8211 5.20468 25.6896 5.35143C25.41 5.66258 25.2551 6.06586 25.2543 6.48412C25.2535 6.90237 25.407 7.30623 25.6853 7.61843C27.4418 9.53669 28.6529 11.89 29.1931 14.4343C30.563 20.7829 31.177 27.2713 31.0224 33.7643C31.0012 34.6439 31.6428 35.515 32.4587 35.515H32.499C33.2958 35.515 33.9523 34.7182 33.9757 33.8535C34.1368 27.0725 33.4971 20.2962 32.0698 13.6652ZM2.55433 26.7083C2.6269 26.7082 2.69935 26.7026 2.77105 26.6913C3.57841 26.5639 4.13507 25.7522 4.01821 24.8833C3.83434 23.5384 3.59905 22.201 3.31283 20.8741C2.50132 17.1818 3.09602 13.3197 4.98067 10.0426C6.85673 6.79194 9.79723 4.52282 13.254 3.65597C16.2674 2.92531 19.4452 3.3482 22.1626 4.84152C22.8893 5.23883 23.7774 4.92013 24.1449 4.13401C24.5125 3.3479 24.2193 2.38968 23.4905 1.9945C20.165 0.169531 16.2773 -0.345808 12.5911 0.549744C8.3631 1.61207 4.76821 4.38472 2.4736 8.35568C0.170226 12.3618 -0.557007 17.0828 0.433942 21.5964C0.705896 22.8585 0.928983 24.1184 1.09471 25.3464C1.20094 26.1389 1.83408 26.7083 2.55433 26.7083ZM2.99413 29.141H2.94527C2.12941 29.141 1.49201 29.6722 1.51751 30.5497C1.57487 32.3514 1.52601 33.9066 1.36878 35.6276C1.29017 36.5029 1.88295 37.2805 2.69456 37.3655C2.74328 37.3703 2.79221 37.3724 2.84116 37.3719C3.20984 37.3832 3.56854 37.2512 3.84191 37.0036C4.11529 36.7559 4.28205 36.412 4.30716 36.044C4.47713 34.1849 4.53237 32.3832 4.47076 30.4413C4.44526 29.5808 3.78663 29.141 2.99413 29.141Z" fill="black"/>
</svg>
