<svg width="61" height="65" viewBox="0 0 61 65" fill="none" xmlns="http://www.w3.org/2000/svg">
<path fill-rule="evenodd" clip-rule="evenodd" d="M11.8197 20.4021C12.7909 20.1674 13.7836 20.0493 14.7794 20.0499C22.6654 20.0499 29.0563 27.3536 29.0563 36.3596C29.0563 45.3683 22.6654 52.672 14.7794 52.672C6.89347 52.672 0.5 45.371 0.5 36.3596C0.5 36.0961 0.505042 35.8298 0.517648 35.5663H0.5C0.5 21.9726 10.181 10.9121 22.0805 10.9121V16.3872C18.2207 16.3872 14.6609 17.8878 11.8197 20.4021ZM43.7719 20.4021C44.7249 20.1709 45.7132 20.0499 46.7266 20.0499C54.6126 20.0499 61.0061 27.3536 61.0061 36.3596C61.0061 45.3683 54.6126 52.672 46.7266 52.672C38.8407 52.672 32.4497 45.371 32.4497 36.3596C32.4497 36.0961 32.4548 35.8298 32.4674 35.5663H32.4497C32.4497 21.9726 42.1307 10.9121 54.0302 10.9121V16.3872C50.1679 16.3872 46.6132 17.8878 43.7719 20.4021Z" fill="#EFC951"/>
</svg>
