<svg width="804" height="1102" viewBox="0 0 804 1102" fill="none" xmlns="http://www.w3.org/2000/svg">
<g clip-path="url(#clip0_3_1890)">
<path d="M723.822 -18.4643L-515.188 1005.03L-420.992 1119.06L818.019 95.5673L723.822 -18.4643Z" fill="#EFC951"/>
<path d="M-33.8027 718.91L-43.7181 706.907L-42.059 705.536L-40.89 706.951L-40.7473 706.833C-40.7995 706.571 -40.8311 706.243 -40.8423 705.851C-40.8541 705.459 -40.7681 705.037 -40.5858 704.587C-40.4066 704.133 -40.0456 703.682 -39.5041 703.235C-38.7993 702.652 -38.0234 702.311 -37.1757 702.21C-36.3286 702.109 -35.4704 702.264 -34.6023 702.675C-33.7296 703.083 -32.9042 703.759 -32.1249 704.702C-31.3455 705.645 -30.8347 706.584 -30.5917 707.518C-30.3524 708.449 -30.3566 709.322 -30.6057 710.14C-30.8578 710.954 -31.3367 711.652 -32.0409 712.234C-32.5717 712.673 -33.0786 712.942 -33.5632 713.042C-34.0437 713.14 -34.4773 713.147 -34.8639 713.065C-35.2504 712.983 -35.5717 712.891 -35.8271 712.79L-35.9298 712.875L-32.1035 717.506L-33.8027 718.91ZM-38.4473 709.896C-37.9403 710.51 -37.4065 710.974 -36.8466 711.289C-36.2867 711.604 -35.7304 711.754 -35.177 711.736C-34.6275 711.716 -34.1076 711.503 -33.6188 711.099C-33.1113 710.68 -32.7983 710.195 -32.6791 709.644C-32.5637 709.09 -32.6115 708.508 -32.8217 707.898C-33.0286 707.284 -33.3734 706.686 -33.8554 706.103C-34.3312 705.527 -34.8451 705.081 -35.3985 704.767C-35.9473 704.449 -36.5043 704.301 -37.0681 704.32C-37.628 704.336 -38.1637 704.556 -38.6751 704.978C-39.1679 705.385 -39.4798 705.857 -39.6109 706.392C-39.7386 706.925 -39.7021 707.49 -39.5005 708.089C-39.299 708.687 -38.9481 709.29 -38.4473 709.896ZM-24.57 699.685L-28.7906 694.576L-27.0855 693.167L-19.8743 701.897L-21.5454 703.277L-22.7942 701.766L-22.8849 701.84C-22.7007 702.472 -22.702 703.127 -22.8888 703.804C-23.0747 704.474 -23.4954 705.079 -24.1509 705.621C-24.7117 706.084 -25.3096 706.371 -25.9452 706.482C-26.5799 706.585 -27.2224 706.494 -27.8722 706.209C-28.5188 705.921 -29.1393 705.417 -29.734 704.697L-34.3209 699.144L-32.621 697.74L-28.2032 703.088C-27.7119 703.683 -27.1559 704.02 -26.5354 704.101C-25.9149 704.181 -25.3412 704.003 -24.8144 703.568C-24.4957 703.305 -24.2453 702.964 -24.062 702.545C-23.8754 702.123 -23.8107 701.665 -23.8687 701.171C-23.9227 700.674 -24.156 700.178 -24.57 699.685ZM-15.3669 703.681L-25.2823 691.678L-23.6232 690.307L-22.4542 691.722L-22.3121 691.605C-22.3637 691.342 -22.3954 691.014 -22.4065 690.622C-22.4183 690.23 -22.333 689.809 -22.1501 689.358C-21.9709 688.904 -21.6099 688.453 -21.0684 688.006C-20.3635 687.423 -19.5876 687.082 -18.7399 686.981C-17.8928 686.88 -17.0346 687.035 -16.1665 687.446C-15.2938 687.854 -14.4684 688.53 -13.6891 689.473C-12.9098 690.416 -12.3989 691.355 -12.1559 692.289C-11.9166 693.22 -11.9215 694.094 -12.1699 694.911C-12.422 695.725 -12.9009 696.423 -13.6051 697.005C-14.1359 697.444 -14.6429 697.713 -15.1274 697.813C-15.6079 697.911 -16.0415 697.918 -16.4281 697.836C-16.8146 697.754 -17.1359 697.662 -17.392 697.561L-17.494 697.645L-13.6678 702.277L-15.3669 703.681ZM-20.0116 694.667C-19.5046 695.281 -18.9714 695.746 -18.4109 696.06C-17.851 696.375 -17.2947 696.525 -16.7412 696.507C-16.1917 696.487 -15.6718 696.274 -15.183 695.87C-14.6755 695.451 -14.3625 694.966 -14.2433 694.415C-14.1279 693.861 -14.1757 693.279 -14.3859 692.669C-14.5929 692.055 -14.9376 691.457 -15.4196 690.874C-15.8954 690.298 -16.4093 689.852 -16.9627 689.538C-17.5115 689.22 -18.0685 689.072 -18.6324 689.091C-19.1922 689.107 -19.7279 689.327 -20.2393 689.749C-20.7322 690.156 -21.0441 690.628 -21.1751 691.163C-21.3029 691.695 -21.2663 692.261 -21.0647 692.86C-20.8632 693.458 -20.5123 694.061 -20.0116 694.667ZM-5.96963 695.918L-15.8851 683.915L-14.2253 682.544L-13.0562 683.959L-12.9142 683.842C-12.9658 683.578 -12.9974 683.251 -13.0093 682.859C-13.0204 682.467 -12.9351 682.045 -12.7528 681.595C-12.5729 681.141 -12.2126 680.69 -11.6704 680.242C-10.9662 679.661 -10.1897 679.319 -9.34262 679.218C-8.49492 679.117 -7.63734 679.272 -6.76859 679.683C-5.89656 680.091 -5.07047 680.766 -4.29118 681.71C-3.51182 682.653 -3.00096 683.592 -2.75863 684.527C-2.51872 685.457 -2.52359 686.331 -2.77263 687.148C-3.02477 687.962 -3.50292 688.66 -4.20778 689.242C-4.73793 689.68 -5.24561 689.95 -5.73017 690.05C-6.21067 690.148 -6.6442 690.155 -7.03079 690.073C-7.41733 689.991 -7.73865 689.899 -7.99404 689.798L-8.09608 689.882L-4.26982 694.514L-5.96963 695.918ZM-10.6143 686.904C-10.1073 687.518 -9.5735 687.982 -9.0136 688.298C-8.45369 688.613 -7.8974 688.762 -7.34398 688.745C-6.79376 688.724 -6.27457 688.511 -5.78576 688.108C-5.27829 687.688 -4.96461 687.203 -4.84607 686.653C-4.73 686.098 -4.77773 685.516 -4.98862 684.906C-5.19557 684.293 -5.53968 683.694 -6.02168 683.111C-6.49745 682.535 -7.01203 682.09 -7.56479 681.775C-8.11422 681.458 -8.67057 681.308 -9.23441 681.328C-9.79491 681.345 -10.3306 681.564 -10.8421 681.987C-11.3349 682.394 -11.6468 682.865 -11.7778 683.4C-11.9056 683.933 -11.8683 684.498 -11.6675 685.097C-11.466 685.696 -11.1151 686.298 -10.6143 686.904ZM0.7241 684.881L-6.48713 676.152L-4.78801 674.748L2.42322 683.478L0.7241 684.881ZM-6.74157 674.096C-7.03699 674.34 -7.37244 674.451 -7.74728 674.429C-8.12187 674.401 -8.42305 674.248 -8.65154 673.972C-8.88318 673.691 -8.97631 673.367 -8.93036 672.997C-8.88416 672.621 -8.71303 672.311 -8.41762 672.067C-8.1222 671.823 -7.78718 671.715 -7.41326 671.744C-7.03842 671.766 -6.73455 671.916 -6.50292 672.197C-6.27442 672.473 -6.18398 672.8 -6.23018 673.176C-6.27546 673.545 -6.44616 673.852 -6.74157 674.096ZM8.13699 679.054C7.27742 679.764 6.38477 680.193 5.45963 680.339C4.53541 680.477 3.6276 680.351 2.73618 679.959C1.84561 679.56 1.0263 678.908 0.278289 678.002C-0.460356 677.108 -0.94465 676.182 -1.17464 675.225C-1.40058 674.264 -1.37019 673.343 -1.0841 672.463C-0.794071 671.58 -0.243241 670.803 0.566983 670.133C1.05979 669.726 1.60452 669.413 2.20122 669.195C2.79798 668.976 3.42402 668.889 4.08005 668.933C4.73542 668.978 5.39884 669.192 6.07164 669.573C6.74069 669.951 7.4023 670.536 8.05644 671.328L8.55409 671.931L1.61482 677.663L0.563179 676.39L5.83731 672.033C5.46801 671.586 5.04956 671.265 4.58338 671.071C4.11334 670.872 3.63037 670.809 3.13508 670.881C2.64307 670.949 2.17803 671.164 1.73791 671.528C1.26111 671.922 0.941333 672.383 0.778636 672.913C0.617464 673.435 0.595097 673.963 0.711567 674.498C0.828897 675.026 1.06755 675.508 1.42754 675.944L2.24909 676.938C2.73109 677.522 3.24315 677.934 3.78588 678.174C4.33261 678.411 4.88028 678.484 5.43008 678.393C5.9768 678.299 6.49858 678.046 6.99472 677.636C7.31681 677.37 7.57265 677.082 7.76297 676.772C7.9501 676.458 8.06304 676.129 8.10307 675.784C8.1431 675.438 8.10174 675.087 7.97841 674.73L9.82631 673.691C10.0888 674.271 10.2002 674.877 10.161 675.508C10.1226 676.133 9.93472 676.75 9.59736 677.36C9.26014 677.964 8.77384 678.528 8.13699 679.054ZM14.2333 662.621L12.9183 664.166C12.6915 664.022 12.4339 663.919 12.1468 663.857C11.8636 663.791 11.557 663.799 11.2284 663.879C10.8998 663.96 10.5587 664.146 10.2066 664.437C9.72516 664.834 9.41295 665.274 9.26923 665.756C9.12243 666.234 9.18867 666.642 9.46718 666.979C9.70819 667.271 10.0096 667.417 10.3728 667.416C10.7359 667.416 11.2052 667.274 11.7806 666.99L13.4299 666.163C14.3868 665.685 15.2213 665.477 15.9346 665.538C16.648 665.598 17.2601 665.937 17.7702 666.555C18.2022 667.078 18.4351 667.67 18.4704 668.329C18.5059 668.982 18.35 669.646 18.0027 670.321C17.6595 670.994 17.1355 671.621 16.4306 672.203C15.453 673.011 14.4833 673.461 13.5215 673.555C12.5566 673.644 11.6849 673.36 10.9064 672.703L12.3422 671.096C12.7979 671.44 13.2762 671.59 13.7759 671.547C14.2724 671.5 14.7763 671.265 15.2878 670.843C15.8453 670.382 16.1947 669.9 16.3372 669.393C16.4765 668.883 16.4069 668.459 16.1284 668.122C15.903 667.849 15.6116 667.704 15.2536 667.687C14.8995 667.668 14.4749 667.782 13.9799 668.032L12.2345 668.929C11.2663 669.416 10.42 669.618 9.69498 669.535C8.97329 669.449 8.3558 669.095 7.84251 668.474C7.41686 667.959 7.18842 667.389 7.15727 666.764C7.12608 666.14 7.27472 665.51 7.6045 664.875C7.93041 664.236 8.42115 663.645 9.07667 663.104C10.0203 662.324 10.9321 661.915 11.8116 661.877C12.6887 661.835 13.4959 662.083 14.2333 662.621Z" fill="black"/>
<path d="M75.3199 632.745C75.0102 633.849 74.267 634.846 73.0471 635.798C72.2507 636.419 71.3658 636.943 70.4158 637.358C68.2409 638.306 66.3817 639.842 65.039 641.799C64.4532 642.653 63.7704 643.424 63.011 644.088C62.9359 644.154 62.8617 644.217 62.787 644.279C61.7027 645.175 60.6519 645.654 59.5836 645.744C57.629 645.908 55.5094 644.601 54.6534 642.702C53.8882 641.006 54.1272 639.22 54.358 637.493C54.3895 637.26 54.4222 637.018 54.4504 636.785C54.6674 635.012 54.6983 633.19 54.5425 631.37C54.5236 631.14 54.4997 630.904 54.4771 630.676C54.3915 629.799 54.3027 628.893 54.3759 628.003L54.3791 627.969C54.4741 626.884 54.9957 625.9 55.8473 625.196C56.2727 624.845 56.752 624.587 57.2601 624.432C57.7685 624.276 58.3054 624.222 58.8471 624.278L58.8805 624.282C59.7696 624.377 60.6425 624.636 61.4867 624.886C61.7064 624.951 61.9337 625.018 62.156 625.081C63.9139 625.578 65.7085 625.891 67.4907 626.013C67.726 626.029 67.9692 626.042 68.2039 626.056C69.9436 626.155 71.7424 626.257 73.2639 627.329C74.966 628.528 75.8494 630.857 75.3199 632.745Z" fill="black"/>
<path d="M70.0227 616.581C70.3903 618.118 70.2767 619.482 69.6924 620.526C69.4606 620.941 69.1609 621.299 68.8008 621.596C68.3167 621.996 67.722 622.286 67.0374 622.45C65.8603 622.732 64.8574 622.527 64.055 621.841C63.2615 621.162 62.6879 620.047 62.3012 618.431C61.9094 616.795 61.8651 615.303 62.1749 614.116C62.5269 612.767 63.3126 611.91 64.4472 611.638C65.5836 611.366 66.7954 611.749 67.8582 612.718C68.8797 613.649 69.6486 615.021 70.0227 616.581Z" fill="black"/>
<path d="M59.5093 614.618C60.4762 616.04 60.8865 617.469 60.6947 618.754C60.5395 619.797 60.0059 620.711 59.1423 621.425C59.015 621.53 58.8813 621.63 58.7405 621.726C57.6567 622.463 56.562 622.642 55.4867 622.255C54.4201 621.871 53.408 620.957 52.39 619.461C51.8736 618.703 51.4607 617.948 51.1583 617.216C50.8565 616.484 50.6656 615.776 50.5945 615.113C50.433 613.611 50.8993 612.443 51.9421 611.733C52.9893 611.021 54.3647 610.945 55.816 611.518C57.2147 612.072 58.5267 613.173 59.5093 614.618Z" fill="black"/>
<path d="M47.9861 630.257C49.4989 630.943 50.4858 631.716 51.0027 632.623C51.5249 633.54 51.5363 634.565 51.0375 635.667C50.7472 636.308 50.351 636.838 49.8669 637.237C49.5068 637.535 49.0982 637.761 48.6472 637.911C47.5123 638.288 46.1509 638.142 44.7109 637.49C43.25 636.829 42.0475 635.814 41.3262 634.636C40.5753 633.409 40.4272 632.147 40.9094 631.082C41.3905 630.02 42.3806 629.409 43.7711 629.319C44.9951 629.239 46.4524 629.563 47.9861 630.257Z" fill="black"/>
<path d="M50.8683 620.718C51.1593 621.01 51.4206 621.297 51.6531 621.578C52.4393 622.53 52.8914 623.422 53.0268 624.287C53.2038 625.415 52.8222 626.457 51.8927 627.382C51.772 627.503 51.6483 627.615 51.5216 627.72C50.658 628.433 49.6586 628.785 48.6054 628.74C47.3075 628.686 45.981 628.013 44.7673 626.795C43.5347 625.557 42.7008 624.061 42.4216 622.583C42.1314 621.05 42.4657 619.713 43.3631 618.82C44.2569 617.93 45.4924 617.692 46.9368 618.134C48.2137 618.524 49.5729 619.419 50.8683 620.718Z" fill="black"/>
<path d="M87.5157 618.694L77.6002 606.691L79.2594 605.32L80.4284 606.735L80.5704 606.618C80.5189 606.355 80.4872 606.027 80.4761 605.635C80.4643 605.243 80.5496 604.822 80.7325 604.371C80.9117 603.917 81.2721 603.466 81.8142 603.019C82.5191 602.436 83.295 602.095 84.1421 601.994C84.9898 601.893 85.848 602.048 86.716 602.459C87.5881 602.867 88.4142 603.543 89.1935 604.486C89.9728 605.43 90.4837 606.368 90.7267 607.302C90.9659 608.233 90.961 609.107 90.712 609.925C90.4605 610.738 89.9817 611.436 89.2768 612.019C88.7467 612.457 88.2391 612.726 87.7552 612.826C87.2747 612.924 86.8411 612.931 86.4545 612.849C86.0673 612.767 85.7466 612.675 85.4906 612.574L85.3886 612.659L89.2148 617.291L87.5157 618.694ZM82.871 609.68C83.378 610.294 83.9111 610.759 84.471 611.074C85.0309 611.389 85.5879 611.538 86.1407 611.521C86.6909 611.5 87.2101 611.288 87.6989 610.884C88.2071 610.464 88.5201 609.979 88.6386 609.429C88.7547 608.874 88.7069 608.292 88.4967 607.682C88.2897 607.068 87.945 606.47 87.463 605.887C86.9872 605.311 86.4726 604.866 85.9198 604.551C85.3704 604.234 84.8141 604.085 84.2502 604.104C83.6904 604.12 83.1541 604.34 82.6426 604.763C82.1504 605.169 81.8385 605.641 81.7068 606.177C81.5797 606.709 81.6163 607.274 81.8178 607.873C82.0187 608.472 82.3702 609.074 82.871 609.68ZM96.7483 599.469L92.5277 594.36L94.2328 592.951L101.444 601.681L99.7729 603.061L98.5241 601.55L98.4335 601.625C98.617 602.257 98.6157 602.911 98.4296 603.588C98.2437 604.258 97.823 604.863 97.1675 605.405C96.6066 605.868 96.0081 606.155 95.3732 606.266C94.7385 606.369 94.0959 606.278 93.4461 605.993C92.7996 605.705 92.179 605.201 91.5843 604.481L86.9975 598.928L88.6966 597.524L93.1144 602.873C93.6058 603.467 94.1625 603.804 94.783 603.885C95.4035 603.965 95.9771 603.787 96.504 603.352C96.822 603.09 97.0731 602.748 97.2557 602.33C97.443 601.907 97.507 601.45 97.4497 600.955C97.3957 600.458 97.1617 599.963 96.7483 599.469ZM105.951 603.465L96.036 591.462L97.6951 590.091L98.8642 591.506L99.0062 591.389C98.9546 591.126 98.923 590.798 98.9111 590.406C98.9 590.014 98.9853 589.593 99.1683 589.142C99.3475 588.688 99.7078 588.237 100.25 587.79C100.955 587.207 101.731 586.866 102.578 586.765C103.426 586.664 104.283 586.82 105.152 587.23C106.024 587.638 106.85 588.314 107.629 589.257C108.409 590.2 108.919 591.139 109.162 592.073C109.402 593.004 109.397 593.878 109.148 594.696C108.896 595.509 108.417 596.207 107.713 596.79C107.182 597.228 106.675 597.497 106.191 597.597C105.71 597.695 105.277 597.702 104.89 597.62C104.503 597.538 104.182 597.446 103.926 597.345L103.824 597.43L107.651 602.061L105.951 603.465ZM101.307 594.451C101.814 595.065 102.347 595.53 102.907 595.845C103.467 596.16 104.024 596.309 104.576 596.292C105.127 596.271 105.646 596.059 106.135 595.655C106.643 595.235 106.956 594.75 107.074 594.2C107.19 593.645 107.143 593.063 106.932 592.453C106.725 591.839 106.381 591.241 105.899 590.658C105.423 590.082 104.908 589.637 104.356 589.322C103.806 589.005 103.25 588.856 102.686 588.875C102.126 588.891 101.59 589.111 101.078 589.534C100.586 589.94 100.274 590.412 100.143 590.948C100.016 591.48 100.052 592.045 100.254 592.644C100.454 593.243 100.806 593.845 101.307 594.451ZM115.349 595.702L105.433 583.699L107.093 582.328L108.262 583.743L108.404 583.626C108.352 583.363 108.321 583.035 108.309 582.643C108.297 582.251 108.383 581.83 108.566 581.379C108.745 580.925 109.106 580.474 109.647 580.027C110.352 579.445 111.128 579.103 111.976 579.002C112.823 578.902 113.681 579.056 114.55 579.467C115.422 579.875 116.247 580.551 117.027 581.494C117.806 582.438 118.317 583.376 118.56 584.311C118.799 585.241 118.795 586.115 118.546 586.932C118.294 587.746 117.815 588.444 117.111 589.026C116.58 589.465 116.073 589.734 115.588 589.835C115.108 589.932 114.674 589.939 114.288 589.857C113.901 589.775 113.58 589.683 113.324 589.582L113.222 589.667L117.048 594.299L115.349 595.702ZM110.704 586.688C111.211 587.302 111.745 587.766 112.305 588.082C112.865 588.397 113.421 588.546 113.974 588.529C114.525 588.508 115.044 588.295 115.533 587.892C116.04 587.472 116.354 586.987 116.472 586.437C116.588 585.882 116.541 585.3 116.33 584.69C116.123 584.077 115.779 583.478 115.297 582.895C114.821 582.319 114.306 581.874 113.754 581.559C113.204 581.242 112.647 581.093 112.083 581.112C111.523 581.129 110.988 581.348 110.476 581.771C109.983 582.178 109.672 582.649 109.541 583.184C109.413 583.717 109.45 584.282 109.651 584.881C109.852 585.48 110.203 586.082 110.704 586.688ZM122.042 584.665L114.831 575.936L116.53 574.532L123.742 583.262L122.042 584.665ZM114.576 573.88C114.281 574.124 113.946 574.235 113.57 574.214C113.197 574.185 112.895 574.032 112.667 573.756C112.435 573.475 112.342 573.151 112.387 572.782C112.434 572.405 112.605 572.095 112.9 571.851C113.196 571.607 113.531 571.499 113.905 571.528C114.28 571.55 114.583 571.701 114.815 571.981C115.043 572.258 115.134 572.584 115.088 572.96C115.043 573.329 114.872 573.636 114.576 573.88ZM129.455 578.838C128.595 579.549 127.703 579.977 126.778 580.123C125.854 580.261 124.946 580.135 124.055 579.743C123.164 579.344 122.345 578.692 121.597 577.786C120.858 576.892 120.374 575.966 120.144 575.009C119.918 574.048 119.948 573.128 120.234 572.247C120.524 571.364 121.074 570.587 121.885 569.918C122.378 569.51 122.923 569.197 123.52 568.979C124.116 568.76 124.742 568.673 125.398 568.718C126.054 568.762 126.717 568.976 127.389 569.358C128.059 569.735 128.721 570.32 129.375 571.112L129.872 571.715L122.932 577.448L121.881 576.174L127.155 571.818C126.786 571.371 126.368 571.05 125.901 570.855C125.432 570.656 124.949 570.593 124.453 570.665C123.961 570.733 123.496 570.949 123.056 571.312C122.579 571.706 122.259 572.168 122.097 572.697C121.936 573.219 121.913 573.748 122.03 574.282C122.147 574.81 122.386 575.292 122.746 575.728L123.567 576.722C124.049 577.306 124.562 577.718 125.104 577.958C125.651 578.195 126.199 578.268 126.748 578.177C127.295 578.083 127.816 577.831 128.313 577.42C128.635 577.154 128.891 576.866 129.081 576.556C129.268 576.243 129.381 575.913 129.421 575.568C129.461 575.222 129.419 574.871 129.297 574.514L131.145 573.475C131.407 574.055 131.519 574.661 131.479 575.292C131.441 575.917 131.252 576.535 130.915 577.145C130.579 577.748 130.092 578.312 129.455 578.838ZM135.552 562.405L134.237 563.95C134.009 563.807 133.752 563.703 133.465 563.641C133.181 563.576 132.875 563.583 132.547 563.663C132.217 563.744 131.877 563.93 131.525 564.221C131.044 564.618 130.731 565.058 130.588 565.54C130.441 566.018 130.506 566.426 130.785 566.763C131.026 567.055 131.328 567.201 131.691 567.201C132.054 567.2 132.524 567.058 133.098 566.774L134.748 565.947C135.704 565.469 136.54 565.261 137.253 565.322C137.966 565.383 138.578 565.722 139.088 566.34C139.52 566.862 139.753 567.454 139.789 568.113C139.824 568.766 139.668 569.43 139.321 570.105C138.978 570.778 138.454 571.405 137.749 571.987C136.771 572.795 135.802 573.245 134.84 573.339C133.875 573.428 133.003 573.144 132.225 572.487L133.661 570.88C134.116 571.224 134.594 571.375 135.094 571.331C135.591 571.284 136.095 571.05 136.606 570.627C137.163 570.167 137.513 569.684 137.656 569.177C137.795 568.667 137.725 568.243 137.447 567.906C137.221 567.633 136.93 567.488 136.572 567.471C136.218 567.452 135.793 567.567 135.298 567.816L133.553 568.713C132.585 569.2 131.738 569.402 131.013 569.32C130.292 569.233 129.674 568.879 129.161 568.258C128.735 567.743 128.507 567.173 128.476 566.548C128.444 565.924 128.593 565.294 128.923 564.659C129.249 564.02 129.74 563.43 130.395 562.888C131.339 562.109 132.25 561.7 133.13 561.661C134.006 561.62 134.814 561.867 135.552 562.405Z" fill="black"/>
<path d="M196.637 532.53C196.328 533.633 195.585 534.631 194.364 535.583C193.568 536.204 192.683 536.728 191.734 537.142C189.558 538.091 187.699 539.627 186.357 541.584C185.77 542.438 185.088 543.208 184.328 543.873C184.254 543.938 184.179 544.002 184.105 544.063C183.02 544.96 181.97 545.439 180.901 545.529C178.947 545.692 176.827 544.385 175.97 542.487C175.206 540.79 175.444 539.005 175.676 537.278C175.707 537.044 175.739 536.803 175.768 536.569C175.985 534.796 176.016 532.974 175.86 531.155C175.841 530.925 175.817 530.689 175.795 530.46C175.709 529.584 175.62 528.678 175.694 527.787L175.696 527.754C175.792 526.669 176.313 525.684 177.164 524.981C177.59 524.629 178.069 524.372 178.578 524.216C179.086 524.061 179.623 524.007 180.165 524.062L180.198 524.066C181.087 524.162 181.96 524.421 182.804 524.671C183.024 524.736 183.251 524.803 183.474 524.866C185.232 525.363 187.026 525.676 188.808 525.797C189.043 525.814 189.286 525.827 189.522 525.84C191.261 525.94 193.059 526.042 194.582 527.113C196.284 528.313 197.167 530.641 196.637 532.53Z" fill="black"/>
<path d="M191.34 516.366C191.708 517.903 191.594 519.267 191.01 520.31C190.778 520.725 190.478 521.084 190.118 521.381C189.633 521.782 189.039 522.07 188.355 522.234C187.178 522.516 186.174 522.312 185.372 521.625C184.579 520.947 184.005 519.832 183.619 518.216C183.226 516.58 183.183 515.087 183.492 513.9C183.844 512.551 184.63 511.695 185.764 511.423C186.901 511.151 188.113 511.534 189.176 512.503C190.197 513.434 190.966 514.806 191.34 516.366Z" fill="black"/>
<path d="M180.827 514.402C181.794 515.823 182.205 517.253 182.013 518.538C181.858 519.58 181.323 520.495 180.46 521.209C180.333 521.314 180.199 521.414 180.059 521.51C178.974 522.248 177.879 522.426 176.805 522.039C175.738 521.655 174.725 520.741 173.707 519.245C173.192 518.487 172.779 517.731 172.476 517C172.174 516.269 171.984 515.56 171.912 514.897C171.751 513.395 172.217 512.226 173.26 511.517C174.307 510.804 175.683 510.728 177.133 511.303C178.533 511.856 179.844 512.957 180.827 514.402Z" fill="black"/>
<path d="M169.304 530.041C170.817 530.726 171.804 531.5 172.321 532.407C172.843 533.324 172.854 534.349 172.355 535.451C172.065 536.092 171.669 536.621 171.184 537.022C170.824 537.319 170.416 537.545 169.965 537.695C168.83 538.071 167.468 537.926 166.029 537.274C164.568 536.613 163.365 535.599 162.643 534.42C161.893 533.193 161.745 531.931 162.227 530.866C162.708 529.804 163.699 529.193 165.089 529.103C166.313 529.023 167.77 529.347 169.304 530.041Z" fill="black"/>
<path d="M172.184 520.503C172.476 520.795 172.737 521.081 172.97 521.363C173.756 522.315 174.207 523.207 174.343 524.072C174.52 525.2 174.138 526.242 173.209 527.167C173.089 527.287 172.965 527.399 172.838 527.505C171.974 528.218 170.975 528.569 169.922 528.525C168.624 528.471 167.298 527.798 166.084 526.58C164.851 525.342 164.017 523.846 163.738 522.368C163.448 520.834 163.782 519.498 164.68 518.604C165.574 517.714 166.809 517.477 168.254 517.919C169.53 518.309 170.89 519.203 172.184 520.503Z" fill="black"/>
<path d="M208.834 518.478L198.919 506.475L200.579 505.103L201.748 506.518L201.888 506.403C201.838 506.138 201.804 505.812 201.794 505.419C201.783 505.026 201.871 504.603 202.051 504.155C202.227 503.703 202.592 503.249 203.133 502.803C203.839 502.219 204.613 501.879 205.461 501.778C206.309 501.677 207.166 501.832 208.034 502.244C208.908 502.65 209.735 503.325 210.514 504.269C211.293 505.212 211.801 506.153 212.045 507.086C212.286 508.016 212.279 508.891 212.033 509.707C211.777 510.524 211.299 511.222 210.599 511.8C210.065 512.241 209.558 512.51 209.071 512.613C208.59 512.71 208.158 512.716 207.774 512.632C207.384 512.553 207.062 512.462 206.808 512.359L206.708 512.442L210.535 517.074L208.834 518.478ZM204.191 509.463C204.698 510.076 205.23 510.543 205.791 510.856C206.347 511.175 206.906 511.322 207.462 511.303C208.008 511.285 208.528 511.072 209.015 510.67C209.528 510.246 209.837 509.765 209.955 509.215C210.07 508.661 210.025 508.077 209.813 507.467C209.608 506.853 209.261 506.256 208.779 505.673C208.304 505.097 207.79 504.651 207.238 504.336C206.692 504.015 206.133 503.868 205.567 503.889C205.008 503.905 204.472 504.125 203.958 504.549C203.471 504.951 203.156 505.425 203.026 505.96C202.895 506.495 202.935 507.059 203.137 507.656C203.339 508.254 203.691 508.856 204.191 509.463ZM218.063 499.256L213.843 494.147L215.55 492.736L222.761 501.466L221.094 502.843L219.845 501.332L219.752 501.409C219.937 502.04 219.937 502.693 219.747 503.373C219.561 504.043 219.141 504.648 218.487 505.188C217.927 505.651 217.325 505.941 216.688 506.053C216.055 506.155 215.416 506.061 214.766 505.776C214.115 505.491 213.496 504.986 212.901 504.266L208.315 498.713L210.015 497.309L214.433 502.657C214.924 503.252 215.482 503.588 216.1 503.67C216.725 503.747 217.297 503.571 217.824 503.135C218.144 502.871 218.391 502.532 218.573 502.114C218.762 501.691 218.823 501.235 218.771 500.737C218.711 500.244 218.48 499.747 218.063 499.256ZM227.273 503.247L217.357 491.244L219.011 489.878L220.18 491.293L220.327 491.172C220.27 490.913 220.243 490.581 220.232 490.188C220.215 489.801 220.303 489.377 220.489 488.924C220.666 488.472 221.024 488.023 221.571 487.572C222.271 486.993 223.052 486.648 223.9 486.547C224.741 486.451 225.605 486.601 226.472 487.013C227.34 487.425 228.166 488.099 228.946 489.043C229.725 489.986 230.24 490.922 230.484 491.855C230.717 492.79 230.718 493.66 230.465 494.481C230.215 495.293 229.737 495.99 229.03 496.574C228.504 497.01 227.997 497.279 227.509 497.381C227.029 497.479 226.597 497.485 226.206 497.406C225.822 497.322 225.5 497.231 225.247 497.128L225.14 497.216L228.966 501.848L227.273 503.247ZM222.623 494.237C223.13 494.851 223.668 495.312 224.223 495.631C224.785 495.944 225.344 496.091 225.894 496.077C226.446 496.054 226.966 495.841 227.453 495.439C227.96 495.02 228.276 494.533 228.393 493.983C228.508 493.43 228.463 492.845 228.251 492.236C228.047 491.621 227.7 491.025 227.218 490.442C226.742 489.866 226.228 489.42 225.676 489.105C225.124 488.79 224.565 488.643 224.006 488.658C223.447 488.674 222.91 488.894 222.397 489.318C221.903 489.726 221.595 490.194 221.464 490.729C221.334 491.264 221.373 491.827 221.569 492.431C221.771 493.029 222.122 493.631 222.623 494.237ZM236.668 495.485L226.753 483.482L228.413 482.11L229.582 483.526L229.723 483.41C229.672 483.145 229.639 482.82 229.628 482.427C229.618 482.034 229.699 481.616 229.885 481.162C230.062 480.711 230.427 480.256 230.967 479.81C231.667 479.231 232.448 478.886 233.295 478.785C234.143 478.684 235.001 478.84 235.868 479.251C236.742 479.657 237.569 480.332 238.348 481.276C239.128 482.219 239.636 483.16 239.879 484.094C240.12 485.023 240.114 485.898 239.861 486.719C239.611 487.531 239.133 488.229 238.426 488.813C237.899 489.248 237.392 489.517 236.905 489.62C236.425 489.717 235.992 489.724 235.609 489.639C235.218 489.56 234.896 489.469 234.643 489.366L234.543 489.449L238.369 494.081L236.668 495.485ZM232.019 486.475C232.526 487.089 233.064 487.55 233.626 487.864C234.181 488.183 234.74 488.33 235.289 488.316C235.842 488.292 236.362 488.08 236.849 487.677C237.356 487.259 237.672 486.772 237.789 486.222C237.904 485.668 237.859 485.084 237.647 484.475C237.442 483.86 237.096 483.263 236.614 482.68C236.138 482.104 235.624 481.658 235.072 481.343C234.52 481.028 233.968 480.875 233.402 480.897C232.843 480.912 232.306 481.132 231.793 481.556C231.299 481.964 230.991 482.433 230.86 482.967C230.73 483.502 230.769 484.066 230.971 484.664C231.173 485.262 231.518 485.869 232.019 486.475ZM243.36 484.45L236.149 475.721L237.849 474.316L245.061 483.046L243.36 484.45ZM235.896 473.663C235.596 473.911 235.262 474.022 234.892 473.995C234.513 473.971 234.216 473.815 233.987 473.538C233.756 473.258 233.658 472.937 233.709 472.563C233.75 472.192 233.92 471.882 234.22 471.634C234.514 471.392 234.85 471.283 235.223 471.313C235.599 471.334 235.903 471.484 236.134 471.764C236.363 472.041 236.453 472.368 236.406 472.745C236.362 473.113 236.19 473.421 235.896 473.663ZM250.774 478.622C249.914 479.333 249.022 479.76 248.098 479.905C247.171 480.046 246.261 479.922 245.374 479.527C244.483 479.128 243.664 478.475 242.916 477.57C242.177 476.676 241.693 475.75 241.463 474.792C241.233 473.835 241.267 472.911 241.551 472.033C241.841 471.149 242.39 470.374 243.204 469.702C243.697 469.294 244.238 468.984 244.839 468.762C245.434 468.545 246.059 468.459 246.713 468.504C247.375 468.544 248.036 468.76 248.709 469.141C249.379 469.518 250.042 470.102 250.696 470.894L251.193 471.497L244.252 477.231L243.2 475.958L248.475 471.601C248.105 471.154 247.685 470.835 247.22 470.639C246.752 470.439 246.265 470.379 245.772 470.448C245.28 470.517 244.817 470.731 244.377 471.094C243.897 471.491 243.58 471.95 243.414 472.482C243.252 473.005 243.228 473.534 243.345 474.069C243.465 474.595 243.705 475.075 244.065 475.511L244.886 476.506C245.368 477.089 245.879 477.503 246.423 477.742C246.968 477.98 247.52 478.05 248.065 477.963C248.614 477.867 249.135 477.615 249.628 477.207C249.955 476.937 250.211 476.649 250.402 476.338C250.584 476.029 250.702 475.696 250.742 475.35C250.782 475.005 250.739 474.654 250.614 474.299L252.46 473.261C252.725 473.84 252.834 474.447 252.795 475.079C252.759 475.701 252.573 476.317 252.235 476.928C251.895 477.534 251.408 478.099 250.774 478.622ZM256.868 462.191L255.553 463.736C255.33 463.589 255.069 463.489 254.781 463.427C254.501 463.359 254.194 463.367 253.866 463.446C253.539 463.526 253.192 463.717 252.845 464.003C252.359 464.405 252.048 464.844 251.906 465.324C251.761 465.801 251.828 466.208 252.107 466.545C252.348 466.837 252.648 466.983 253.009 466.985C253.369 466.987 253.843 466.841 254.417 466.558L256.067 465.73C257.021 465.255 257.857 465.045 258.57 465.107C259.283 465.168 259.897 465.505 260.408 466.123C260.84 466.646 261.071 467.238 261.109 467.895C261.144 468.549 260.987 469.214 260.638 469.891C260.295 470.563 259.77 471.191 259.07 471.769C258.09 472.579 257.117 473.032 256.16 473.122C255.192 473.214 254.319 472.931 253.54 472.274L254.981 470.663C255.435 471.008 255.916 471.156 256.411 471.117C256.909 471.068 257.412 470.835 257.925 470.411C258.479 469.953 258.83 469.469 258.973 468.962C259.112 468.452 259.042 468.028 258.764 467.691C258.538 467.418 258.249 467.272 257.889 467.257C257.536 467.236 257.113 467.349 256.615 467.602L254.873 468.495C253.9 468.987 253.055 469.187 252.334 469.101C251.612 469.016 250.995 468.662 250.481 468.04C250.056 467.525 249.823 466.959 249.791 466.335C249.765 465.706 249.909 465.08 250.238 464.446C250.57 463.802 251.059 463.213 251.713 462.673C252.66 461.89 253.569 461.484 254.447 461.447C255.322 461.406 256.131 461.652 256.868 462.191Z" fill="black"/>
<path d="M317.956 432.314C317.646 433.418 316.901 434.418 315.686 435.365C314.888 435.987 313.999 436.515 313.051 436.928C310.874 437.878 309.02 439.41 307.676 441.368C307.091 442.222 306.405 442.994 305.65 443.655C305.572 443.723 305.499 443.785 305.426 443.846C304.339 444.744 303.288 445.224 302.218 445.314C300.266 445.476 298.144 444.171 297.292 442.27C296.522 440.577 296.762 438.79 296.995 437.062C297.026 436.829 297.061 436.585 297.085 436.356C297.302 434.582 297.334 432.76 297.178 430.941C297.157 430.711 297.138 430.472 297.11 430.248C297.025 429.371 296.938 428.464 297.01 427.574L297.015 427.538C297.108 426.456 297.629 425.471 298.483 424.766C298.91 424.413 299.391 424.154 299.894 424.003C300.404 423.846 300.942 423.791 301.483 423.848L301.518 423.85C302.406 423.947 303.28 424.204 304.126 424.453C304.34 424.522 304.572 424.586 304.793 424.65C306.55 425.147 308.346 425.46 310.128 425.581C310.365 425.596 310.604 425.613 310.839 425.626C312.58 425.724 314.38 425.825 315.897 426.901C317.603 428.097 318.484 430.427 317.956 432.314Z" fill="black"/>
<path d="M312.659 416.15C313.022 417.69 312.913 419.051 312.328 420.095C312.097 420.509 311.798 420.867 311.438 421.164C310.951 421.566 310.359 421.854 309.675 422.017C308.496 422.301 307.495 422.095 306.692 421.409C305.898 420.731 305.324 419.616 304.934 418.003C304.545 416.364 304.501 414.872 304.811 413.685C305.165 412.334 305.95 411.478 307.083 411.207C308.218 410.937 309.431 411.319 310.491 412.29C311.516 413.218 312.281 414.593 312.659 416.15Z" fill="black"/>
<path d="M302.142 414.189C303.112 415.608 303.521 417.039 303.327 418.325C303.176 419.365 302.642 420.28 301.775 420.996C301.648 421.101 301.516 421.199 301.373 421.297C300.295 422.03 299.198 422.21 298.119 421.827C297.058 421.438 296.045 420.524 295.024 419.031C294.509 418.272 294.098 417.515 293.796 416.783C293.494 416.051 293.303 415.344 293.228 414.683C293.065 413.183 293.534 412.012 294.576 411.303C295.624 410.59 296.998 410.515 298.449 411.089C299.848 411.643 301.161 412.743 302.142 414.189Z" fill="black"/>
<path d="M290.623 429.825C292.133 430.512 293.12 431.286 293.635 432.194C294.157 433.111 294.171 434.133 293.67 435.238C293.38 435.878 292.986 436.406 292.499 436.808C292.139 437.106 291.731 437.332 291.282 437.48C290.146 437.857 288.789 437.708 287.345 437.06C285.887 436.396 284.681 435.384 283.963 434.203C283.21 432.978 283.064 431.715 283.543 430.652C284.024 429.59 285.012 428.981 286.405 428.888C287.629 428.808 289.087 429.133 290.623 429.825Z" fill="black"/>
<path d="M293.504 420.287C293.792 420.582 294.052 420.869 294.285 421.151C295.071 422.102 295.526 422.992 295.658 423.859C295.837 424.986 295.454 426.029 294.524 426.955C294.408 427.071 294.286 427.182 294.159 427.287C293.292 428.003 292.293 428.355 291.237 428.313C289.944 428.255 288.615 427.583 287.405 426.363C286.17 425.126 285.338 423.629 285.058 422.151C284.768 420.618 285.101 419.282 286 418.387C286.892 417.498 288.124 417.264 289.574 417.702C290.85 418.093 292.207 418.989 293.504 420.287Z" fill="black"/>
<path d="M330.154 418.261L320.239 406.257L321.893 404.891L323.062 406.306L323.208 406.185C323.151 405.926 323.125 405.595 323.114 405.202C323.097 404.814 323.185 404.391 323.371 403.938C323.548 403.486 323.906 403.037 324.453 402.585C325.153 402.007 325.934 401.661 326.775 401.566C327.622 401.465 328.487 401.615 329.354 402.026C330.221 402.438 331.048 403.113 331.827 404.056C332.607 405 333.122 405.936 333.365 406.869C333.599 407.804 333.6 408.674 333.347 409.495C333.097 410.306 332.619 411.004 331.912 411.588C331.385 412.023 330.872 412.298 330.391 412.395C329.911 412.492 329.478 412.499 329.088 412.42C328.704 412.335 328.382 412.244 328.129 412.141L328.022 412.23L331.848 416.861L330.154 418.261ZM325.505 409.251C326.012 409.864 326.55 410.325 327.105 410.644C327.667 410.958 328.226 411.105 328.775 411.091C329.328 411.068 329.848 410.855 330.335 410.453C330.842 410.034 331.157 409.547 331.275 408.997C331.39 408.443 331.345 407.859 331.133 407.25C330.928 406.635 330.582 406.039 330.1 405.455C329.624 404.879 329.11 404.434 328.558 404.118C328.006 403.803 327.447 403.656 326.888 403.672C326.328 403.688 325.792 403.908 325.279 404.332C324.785 404.739 324.476 405.208 324.339 405.748C324.216 406.277 324.255 406.841 324.451 407.444C324.653 408.042 325.004 408.644 325.505 409.251ZM339.384 399.038L335.163 393.929L336.87 392.519L344.081 401.249L342.408 402.631L341.159 401.12L341.072 401.191C341.25 401.828 341.251 402.481 341.068 403.155C340.881 403.825 340.461 404.431 339.801 404.976C339.241 405.439 338.645 405.723 338.008 405.835C337.375 405.937 336.73 405.849 336.079 405.564C335.436 405.273 334.816 404.768 334.222 404.048L329.635 398.496L331.335 397.091L335.753 402.439C336.245 403.034 336.796 403.375 337.42 403.452C338.038 403.535 338.61 403.358 339.137 402.923C339.457 402.659 339.712 402.315 339.894 401.897C340.076 401.479 340.144 401.018 340.084 400.525C340.032 400.027 339.8 399.529 339.384 399.038ZM348.586 403.035L338.671 391.032L340.331 389.66L341.5 391.075L341.64 390.959C341.59 390.695 341.556 390.369 341.546 389.976C341.535 389.583 341.623 389.16 341.803 388.712C341.986 388.255 342.345 387.806 342.885 387.359C343.592 386.775 344.365 386.436 345.213 386.335C346.061 386.234 346.918 386.389 347.786 386.801C348.66 387.207 349.487 387.882 350.266 388.825C351.045 389.769 351.553 390.71 351.797 391.643C352.038 392.573 352.031 393.448 351.785 394.263C351.529 395.081 351.051 395.778 350.351 396.357C349.817 396.797 349.31 397.066 348.83 397.164C348.349 397.261 347.91 397.273 347.526 397.189C347.136 397.11 346.82 397.013 346.56 396.916L346.46 396.998L350.287 401.63L348.586 403.035ZM343.943 394.019C344.45 394.633 344.982 395.1 345.543 395.413C346.105 395.727 346.658 395.879 347.214 395.86C347.76 395.842 348.28 395.629 348.773 395.221C349.28 394.803 349.589 394.321 349.707 393.771C349.828 393.212 349.777 392.633 349.565 392.024C349.36 391.409 349.013 390.813 348.531 390.229C348.056 389.653 347.542 389.208 346.99 388.893C346.444 388.572 345.885 388.425 345.319 388.446C344.76 388.462 344.224 388.682 343.717 389.1C343.224 389.508 342.908 389.982 342.778 390.517C342.654 391.046 342.687 391.615 342.889 392.213C343.091 392.811 343.443 393.413 343.943 394.019ZM357.982 395.273L348.067 383.27L349.727 381.898L350.896 383.314L351.043 383.192C350.986 382.933 350.959 382.602 350.942 382.214C350.931 381.822 351.019 381.398 351.199 380.95C351.382 380.493 351.74 380.044 352.281 379.598C352.987 379.014 353.761 378.674 354.609 378.573C355.457 378.472 356.314 378.627 357.188 379.034C358.056 379.445 358.883 380.12 359.662 381.064C360.441 382.007 360.956 382.943 361.193 383.882C361.434 384.811 361.427 385.686 361.181 386.502C360.932 387.313 360.453 388.011 359.747 388.595C359.213 389.036 358.706 389.305 358.226 389.402C357.745 389.5 357.313 389.506 356.922 389.427C356.538 389.343 356.216 389.252 355.963 389.149L355.856 389.237L359.682 393.869L357.982 395.273ZM353.339 386.258C353.846 386.871 354.378 387.338 354.939 387.651C355.501 387.965 356.054 388.117 356.61 388.098C357.163 388.075 357.682 387.862 358.169 387.46C358.676 387.041 358.992 386.554 359.11 386.004C359.224 385.45 359.179 384.866 358.968 384.257C358.756 383.648 358.416 383.046 357.934 382.462C357.458 381.886 356.944 381.441 356.392 381.126C355.84 380.81 355.281 380.663 354.722 380.679C354.156 380.7 353.626 380.915 353.113 381.339C352.619 381.746 352.304 382.22 352.174 382.755C352.05 383.284 352.083 383.854 352.285 384.451C352.487 385.049 352.839 385.651 353.339 386.258ZM364.68 384.233L357.469 375.503L359.163 374.104L366.374 382.833L364.68 384.233ZM357.21 373.451C356.917 373.693 356.582 373.804 356.206 373.783C355.833 373.753 355.529 373.603 355.301 373.326C355.069 373.046 354.979 372.719 355.023 372.351C355.07 371.974 355.241 371.664 355.534 371.422C355.834 371.174 356.164 371.071 356.543 371.095C356.913 371.121 357.216 371.272 357.448 371.552C357.677 371.829 357.767 372.156 357.726 372.527C357.676 372.901 357.51 373.203 357.21 373.451ZM372.088 378.41C371.228 379.121 370.336 379.548 369.412 379.693C368.492 379.828 367.581 379.704 366.687 379.314C365.797 378.915 364.977 378.263 364.229 377.358C363.491 376.463 363.006 375.538 362.776 374.58C362.553 373.617 362.58 372.699 362.871 371.815C363.162 370.931 363.71 370.156 364.524 369.484C365.011 369.082 365.558 368.767 366.153 368.55C366.754 368.327 367.379 368.241 368.034 368.287C368.688 368.332 369.356 368.543 370.023 368.929C370.693 369.306 371.355 369.89 372.009 370.682L372.507 371.285L365.565 377.019L364.513 375.746L369.788 371.389C369.419 370.942 369.005 370.617 368.534 370.427C368.066 370.227 367.585 370.161 367.086 370.236C366.6 370.3 366.13 370.519 365.69 370.882C365.217 371.273 364.894 371.738 364.734 372.265C364.572 372.788 364.549 373.317 364.665 373.852C364.785 374.377 365.019 374.863 365.379 375.299L366.2 376.294C366.682 376.877 367.199 377.285 367.737 377.529C368.288 377.762 368.833 377.838 369.385 377.746C369.934 377.649 370.455 377.397 370.948 376.99C371.269 376.725 371.524 376.437 371.716 376.126C371.904 375.811 372.015 375.484 372.055 375.138C372.095 374.793 372.053 374.442 371.934 374.081L373.781 373.044C374.045 373.622 374.155 374.23 374.115 374.861C374.08 375.483 373.886 376.105 373.549 376.715C373.215 377.316 372.728 377.881 372.088 378.41ZM378.188 361.973L376.873 363.519C376.644 363.377 376.389 363.272 376.102 363.209C375.815 363.147 375.514 363.15 375.18 363.234C374.853 363.314 374.512 363.499 374.159 363.791C373.679 364.188 373.368 364.626 373.226 365.107C373.075 365.589 373.142 365.996 373.42 366.333C373.661 366.624 373.962 366.771 374.329 366.768C374.69 366.769 375.157 366.629 375.731 366.346L377.381 365.518C378.341 365.037 379.178 364.828 379.89 364.889C380.603 364.951 381.211 365.293 381.721 365.911C382.153 366.433 382.391 367.021 382.423 367.683C382.458 368.337 382.307 368.996 381.958 369.674C381.615 370.345 381.09 370.973 380.384 371.557C379.41 372.362 378.438 372.814 377.473 372.91C376.512 372.996 375.639 372.713 374.861 372.056L376.295 370.451C376.755 370.791 377.229 370.944 377.731 370.899C378.229 370.851 378.732 370.617 379.239 370.199C379.799 369.736 380.15 369.251 380.293 368.745C380.432 368.234 380.363 367.811 380.084 367.473C379.859 367.201 379.563 367.059 379.209 367.039C378.856 367.019 378.427 367.137 377.935 367.384L376.187 368.283C375.22 368.769 374.376 368.97 373.647 368.889C372.926 368.803 372.308 368.45 371.795 367.828C371.369 367.313 371.143 366.741 371.111 366.118C371.078 365.494 371.23 364.863 371.558 364.228C371.883 363.59 372.373 363 373.033 362.455C373.973 361.678 374.882 361.272 375.767 361.229C376.642 361.188 377.452 361.434 378.188 361.973Z" fill="black"/>
<path d="M439.277 332.096C438.966 333.2 438.221 334.2 437 335.152C436.202 335.775 435.32 336.297 434.371 336.71C432.194 337.66 430.334 339.197 428.997 341.15C428.405 342.009 427.726 342.776 426.964 343.443C426.892 343.505 426.813 343.573 426.74 343.633C425.66 344.526 424.609 345.006 423.539 345.096C421.587 345.258 419.465 343.953 418.606 342.057C417.842 340.359 418.083 338.572 418.316 336.844C418.347 336.611 418.375 336.373 418.405 336.138C418.623 334.364 418.654 332.542 418.498 330.723C418.477 330.494 418.452 330.259 418.431 330.03C418.346 329.153 418.258 328.246 418.331 327.356L418.335 327.32C418.428 326.238 418.95 325.253 419.803 324.548C420.23 324.195 420.705 323.941 421.215 323.785C421.725 323.628 422.263 323.573 422.803 323.63L422.832 323.637C423.726 323.729 424.594 323.991 425.44 324.241C425.661 324.304 425.886 324.374 426.114 324.432C427.871 324.929 429.666 325.242 431.442 325.369C431.679 325.383 431.924 325.395 432.159 325.408C433.9 325.506 435.694 325.613 437.218 326.683C438.924 327.879 439.805 330.209 439.277 332.096Z" fill="black"/>
<path d="M433.979 315.932C434.342 317.472 434.233 318.834 433.648 319.877C433.411 320.297 433.112 320.654 432.751 320.952C432.271 321.349 431.672 321.642 430.988 321.805C429.816 322.083 428.808 321.882 428.006 321.196C427.217 320.514 426.644 319.398 426.254 317.785C425.865 316.146 425.821 314.654 426.131 313.467C426.478 312.122 427.263 311.266 428.396 310.994C429.537 310.719 430.751 311.101 431.811 312.072C432.836 313 433.601 314.375 433.979 315.932Z" fill="black"/>
<path d="M423.462 313.971C424.432 315.39 424.841 316.821 424.647 318.108C424.496 319.147 423.962 320.062 423.095 320.778C422.968 320.883 422.836 320.981 422.693 321.079C421.608 321.817 420.512 321.997 419.439 321.609C418.371 321.226 417.358 320.312 416.344 318.813C415.829 318.054 415.411 317.303 415.109 316.571C414.807 315.839 414.616 315.132 414.548 314.466C414.385 312.965 414.854 311.794 415.896 311.085C416.944 310.372 418.318 310.297 419.769 310.871C421.168 311.425 422.481 312.525 423.462 313.971Z" fill="black"/>
<path d="M411.938 329.613C413.455 330.294 414.442 331.068 414.957 331.977C415.479 332.894 415.493 333.916 414.991 335.02C414.702 335.661 414.307 336.189 413.821 336.591C413.461 336.888 413.053 337.114 412.603 337.263C411.467 337.64 410.103 337.496 408.666 336.843C407.202 336.184 406.003 335.167 405.278 333.991C404.531 332.761 404.378 331.503 404.864 330.434C405.345 329.373 406.334 328.763 407.727 328.671C408.951 328.591 410.408 328.915 411.938 329.613Z" fill="black"/>
<path d="M414.818 320.074C415.113 320.364 415.373 320.651 415.606 320.933C416.392 321.884 416.847 322.775 416.979 323.641C417.158 324.768 416.775 325.811 415.845 326.737C415.729 326.853 415.6 326.97 415.474 327.074C414.613 327.785 413.614 328.137 412.558 328.095C411.258 328.042 409.936 327.365 408.719 326.15C407.485 324.914 406.652 323.417 406.373 321.938C406.083 320.405 406.422 319.064 407.314 318.175C408.213 317.281 409.445 317.047 410.888 317.49C412.164 317.88 413.528 318.771 414.818 320.074Z" fill="black"/>
<path d="M451.468 318.049L441.552 306.045L443.213 304.674L444.382 306.089L444.522 305.973C444.472 305.709 444.438 305.383 444.428 304.99C444.417 304.597 444.505 304.174 444.685 303.726C444.868 303.268 445.226 302.819 445.766 302.373C446.473 301.789 447.247 301.45 448.095 301.348C448.943 301.247 449.8 301.403 450.668 301.815C451.542 302.221 452.368 302.896 453.148 303.839C453.927 304.782 454.435 305.724 454.679 306.657C454.919 307.586 454.913 308.462 454.667 309.277C454.411 310.094 453.933 310.792 453.232 311.371C452.699 311.811 452.192 312.08 451.711 312.178C451.231 312.275 450.792 312.287 450.408 312.202C450.024 312.118 449.702 312.027 449.442 311.929L449.342 312.012L453.168 316.644L451.468 318.049ZM446.825 309.033C447.332 309.647 447.863 310.113 448.425 310.427C448.987 310.74 449.539 310.893 450.096 310.873C450.642 310.856 451.162 310.643 451.655 310.235C452.162 309.817 452.471 309.335 452.595 308.78C452.71 308.226 452.658 307.647 452.447 307.038C452.242 306.423 451.902 305.821 451.42 305.238C450.944 304.662 450.423 304.222 449.871 303.906C449.326 303.586 448.767 303.439 448.201 303.46C447.642 303.476 447.106 303.696 446.599 304.114C446.105 304.522 445.79 304.996 445.66 305.531C445.536 306.06 445.568 306.629 445.771 307.227C445.973 307.825 446.324 308.427 446.825 309.033ZM460.704 298.821L456.483 293.712L458.184 292.307L465.395 301.037L463.728 302.414L462.479 300.902L462.386 300.979C462.571 301.61 462.571 302.263 462.381 302.943C462.195 303.613 461.774 304.219 461.121 304.758C460.561 305.221 459.959 305.511 459.329 305.617C458.689 305.725 458.05 305.631 457.4 305.347C456.756 305.056 456.13 304.556 455.535 303.836L450.948 298.284L452.649 296.879L457.067 302.227C457.558 302.822 458.116 303.158 458.734 303.24C459.358 303.317 459.931 303.141 460.457 302.706C460.778 302.441 461.025 302.103 461.207 301.685C461.396 301.261 461.464 300.8 461.405 300.308C461.352 299.809 461.114 299.317 460.704 298.821ZM469.906 302.817L459.991 290.814L461.651 289.442L462.82 290.858L462.96 290.742C462.91 290.477 462.876 290.152 462.866 289.759C462.856 289.366 462.937 288.948 463.123 288.494C463.3 288.043 463.665 287.588 464.205 287.142C464.905 286.564 465.686 286.218 466.533 286.117C467.381 286.016 468.239 286.172 469.106 286.583C469.98 286.989 470.807 287.664 471.586 288.608C472.365 289.551 472.874 290.492 473.117 291.426C473.358 292.355 473.352 293.23 473.099 294.051C472.849 294.863 472.371 295.561 471.664 296.145C471.137 296.58 470.63 296.849 470.143 296.952C469.663 297.049 469.23 297.056 468.846 296.971C468.456 296.892 468.134 296.801 467.881 296.698L467.781 296.781L471.607 301.413L469.906 302.817ZM465.264 293.802C465.771 294.416 466.302 294.882 466.864 295.196C467.419 295.515 467.978 295.662 468.527 295.648C469.08 295.624 469.6 295.412 470.087 295.009C470.594 294.591 470.909 294.104 471.027 293.554C471.142 293 471.097 292.416 470.885 291.807C470.68 291.192 470.334 290.595 469.852 290.012C469.376 289.436 468.862 288.99 468.31 288.675C467.758 288.36 467.205 288.207 466.639 288.229C466.08 288.244 465.544 288.464 465.031 288.888C464.537 289.296 464.229 289.765 464.098 290.299C463.968 290.834 464.007 291.398 464.209 291.996C464.411 292.594 464.763 293.196 465.264 293.802ZM479.302 295.056L469.387 283.053L471.047 281.681L472.216 283.096L472.356 282.98C472.306 282.716 472.272 282.39 472.262 281.997C472.252 281.604 472.339 281.181 472.519 280.733C472.696 280.281 473.061 279.827 473.601 279.38C474.308 278.796 475.082 278.457 475.929 278.356C476.777 278.255 477.634 278.41 478.502 278.822C479.376 279.228 480.203 279.903 480.982 280.846C481.761 281.79 482.27 282.731 482.513 283.664C482.754 284.594 482.748 285.469 482.501 286.284C482.245 287.101 481.767 287.799 481.067 288.378C480.533 288.818 480.026 289.087 479.539 289.19C479.059 289.288 478.626 289.294 478.242 289.209C477.852 289.131 477.537 289.034 477.277 288.937L477.176 289.019L481.003 293.651L479.302 295.056ZM474.66 286.04C475.167 286.654 475.698 287.12 476.26 287.434C476.821 287.748 477.374 287.9 477.93 287.881C478.476 287.863 478.996 287.65 479.489 287.242C479.996 286.824 480.305 286.342 480.423 285.792C480.545 285.233 480.493 284.654 480.281 284.045C480.076 283.43 479.729 282.834 479.247 282.25C478.772 281.674 478.258 281.229 477.706 280.914C477.16 280.593 476.601 280.446 476.035 280.467C475.476 280.483 474.94 280.703 474.433 281.121C473.94 281.529 473.624 282.003 473.494 282.538C473.364 283.073 473.403 283.636 473.605 284.234C473.807 284.832 474.159 285.434 474.66 286.04ZM485.994 284.021L478.783 275.291L480.483 273.886L487.694 282.616L485.994 284.021ZM478.53 273.233C478.237 273.476 477.902 273.587 477.526 273.566C477.153 273.536 476.849 273.385 476.621 273.109C476.389 272.828 476.299 272.501 476.343 272.134C476.39 271.757 476.561 271.447 476.854 271.204C477.148 270.962 477.484 270.853 477.857 270.883C478.233 270.904 478.537 271.054 478.768 271.335C478.997 271.611 479.087 271.938 479.04 272.315C478.996 272.683 478.824 272.991 478.53 273.233ZM493.408 278.192C492.548 278.903 491.656 279.331 490.732 279.476C489.805 279.617 488.901 279.487 488.007 279.097C487.117 278.698 486.297 278.046 485.549 277.14C484.811 276.246 484.327 275.32 484.097 274.363C483.873 273.4 483.9 272.482 484.191 271.598C484.475 270.719 485.031 269.939 485.838 269.272C486.331 268.864 486.878 268.549 487.473 268.332C488.068 268.115 488.699 268.024 489.354 268.069C490.009 268.115 490.669 268.331 491.343 268.711C492.013 269.088 492.676 269.673 493.33 270.465L493.827 271.067L486.885 276.802L485.834 275.528L491.109 271.171C490.739 270.724 490.319 270.405 489.854 270.209C489.386 270.009 488.906 269.944 488.406 270.019C487.914 270.088 487.451 270.301 487.01 270.665C486.53 271.061 486.214 271.52 486.048 272.053C485.892 272.57 485.869 273.099 485.985 273.634C486.099 274.165 486.339 274.646 486.699 275.082L487.52 276.076C488.002 276.66 488.512 277.074 489.057 277.312C489.602 277.55 490.154 277.621 490.705 277.528C491.247 277.437 491.768 277.185 492.269 276.772C492.589 276.508 492.845 276.22 493.036 275.909C493.225 275.594 493.336 275.266 493.376 274.921C493.416 274.575 493.373 274.225 493.248 273.869L495.101 272.826C495.359 273.41 495.475 274.012 495.436 274.644C495.393 275.272 495.207 275.888 494.869 276.498C494.535 277.099 494.048 277.664 493.408 278.192ZM499.509 261.756L498.194 263.301C497.964 263.159 497.709 263.054 497.422 262.992C497.135 262.929 496.828 262.938 496.5 263.017C496.173 263.096 495.833 263.282 495.479 263.574C494.999 263.97 494.688 264.409 494.54 264.895C494.395 265.371 494.462 265.778 494.74 266.115C494.981 266.407 495.282 266.554 495.643 266.556C496.01 266.552 496.477 266.411 497.051 266.128L498.701 265.301C499.661 264.82 500.491 264.616 501.204 264.677C501.923 264.733 502.531 265.076 503.041 265.693C503.473 266.216 503.705 266.809 503.743 267.466C503.778 268.119 503.621 268.784 503.278 269.456C502.929 270.133 502.411 270.756 501.704 271.34C500.724 272.15 499.758 272.597 498.793 272.692C497.826 272.784 496.959 272.496 496.181 271.838L497.615 270.233C498.069 270.579 498.549 270.726 499.044 270.687C499.543 270.639 500.046 270.405 500.559 269.981C501.119 269.518 501.464 269.039 501.606 268.533C501.746 268.022 501.676 267.599 501.398 267.261C501.172 266.989 500.883 266.842 500.523 266.827C500.169 266.807 499.747 266.92 499.248 267.172L497.507 268.066C496.54 268.552 495.689 268.758 494.968 268.672C494.246 268.586 493.628 268.232 493.115 267.611C492.689 267.096 492.464 266.524 492.431 265.9C492.399 265.277 492.55 264.645 492.878 264.01C493.204 263.372 493.693 262.783 494.347 262.243C495.293 261.461 496.203 261.054 497.081 261.017C497.963 260.971 498.765 261.223 499.509 261.756Z" fill="black"/>
<path d="M560.59 231.884C560.28 232.988 559.541 233.982 558.32 234.935C557.521 235.557 556.64 236.079 555.684 236.498C553.514 237.443 551.654 238.98 550.31 240.938C549.725 241.792 549.039 242.564 548.284 243.225C548.205 243.293 548.133 243.355 548.06 243.416C546.973 244.314 545.922 244.794 544.852 244.884C542.9 245.046 540.778 243.741 539.925 241.84C539.162 240.142 539.396 238.36 539.629 236.632C539.66 236.399 539.695 236.155 539.725 235.92C539.936 234.152 539.968 232.33 539.811 230.511C539.797 230.276 539.772 230.042 539.75 229.812C539.665 228.935 539.571 228.034 539.651 227.138L539.649 227.108C539.748 226.02 540.27 225.036 541.117 224.336C541.543 223.983 542.025 223.724 542.535 223.567C543.038 223.416 543.576 223.361 544.116 223.418L544.152 223.42C545.04 223.517 545.914 223.774 546.759 224.023C546.98 224.087 547.206 224.156 547.427 224.22C549.184 224.717 550.979 225.03 552.762 225.151C552.999 225.166 553.237 225.183 553.473 225.196C555.214 225.294 557.014 225.395 558.537 226.465C560.237 227.667 561.118 229.997 560.59 231.884Z" fill="black"/>
<path d="M555.293 215.72C555.664 217.255 555.547 218.622 554.963 219.665C554.732 220.079 554.433 220.437 554.073 220.734C553.586 221.137 552.993 221.424 552.309 221.588C551.13 221.871 550.129 221.665 549.327 220.979C548.532 220.302 547.959 219.186 547.575 217.568C547.179 215.934 547.136 214.442 547.446 213.255C547.8 211.904 548.585 211.048 549.718 210.777C550.852 210.507 552.065 210.889 553.132 211.854C554.15 212.788 554.923 214.158 555.293 215.72Z" fill="black"/>
<path d="M544.783 213.753C545.746 215.178 546.154 216.609 545.967 217.89C545.81 218.935 545.275 219.85 544.415 220.561C544.288 220.665 544.15 220.769 544.013 220.862C542.929 221.6 541.832 221.78 540.759 221.391C539.691 221.008 538.679 220.095 537.658 218.601C537.143 217.842 536.731 217.086 536.43 216.354C536.128 215.621 535.936 214.914 535.868 214.248C535.706 212.747 536.168 211.582 537.216 210.868C538.258 210.16 539.639 210.08 541.089 210.654C542.489 211.207 543.795 212.313 544.783 213.753Z" fill="black"/>
<path d="M533.257 229.395C534.767 230.082 535.754 230.856 536.276 231.759C536.798 232.676 536.805 233.704 536.31 234.803C536.021 235.443 535.62 235.977 535.14 236.373C534.78 236.671 534.372 236.897 533.915 237.051C532.78 237.428 531.423 237.279 529.979 236.631C528.521 235.966 527.315 234.955 526.597 233.773C525.844 232.549 525.697 231.285 526.177 230.222C526.664 229.155 527.653 228.546 529.039 228.459C530.263 228.379 531.721 228.703 533.257 229.395Z" fill="black"/>
<path d="M536.138 219.857C536.426 220.151 536.693 220.433 536.925 220.715C537.711 221.667 538.159 222.562 538.299 223.424C538.471 224.556 538.094 225.593 537.165 226.519C537.041 226.641 536.92 226.752 536.793 226.857C535.926 227.573 534.927 227.925 533.877 227.877C532.578 227.824 531.249 227.153 530.039 225.932C528.804 224.696 527.971 223.199 527.692 221.72C527.402 220.187 527.735 218.852 528.634 217.957C529.526 217.068 530.764 216.829 532.207 217.272C533.484 217.662 534.841 218.558 536.138 219.857Z" fill="black"/>
<path d="M572.788 217.831L562.873 205.828L564.533 204.456L565.702 205.872L565.842 205.756C565.792 205.491 565.758 205.165 565.748 204.773C565.737 204.38 565.819 203.962 566.005 203.508C566.182 203.057 566.547 202.602 567.087 202.156C567.787 201.578 568.568 201.232 569.415 201.131C570.263 201.03 571.12 201.186 571.988 201.597C572.862 202.003 573.689 202.678 574.468 203.622C575.247 204.565 575.755 205.506 575.999 206.44C576.24 207.369 576.233 208.244 575.98 209.065C575.731 209.877 575.253 210.575 574.546 211.159C574.019 211.594 573.512 211.863 573.025 211.966C572.544 212.063 572.112 212.07 571.728 211.985C571.338 211.906 571.016 211.815 570.762 211.712L570.662 211.795L574.489 216.427L572.788 217.831ZM568.139 208.821C568.646 209.435 569.184 209.896 569.746 210.21C570.301 210.529 570.86 210.676 571.409 210.662C571.962 210.638 572.482 210.426 572.969 210.023C573.476 209.605 573.791 209.118 573.909 208.568C574.024 208.014 573.979 207.43 573.767 206.821C573.562 206.206 573.215 205.609 572.733 205.026C572.258 204.45 571.744 204.004 571.192 203.689C570.64 203.374 570.087 203.221 569.521 203.243C568.962 203.258 568.426 203.478 567.912 203.902C567.419 204.31 567.11 204.779 566.98 205.313C566.85 205.848 566.889 206.412 567.091 207.01C567.293 207.607 567.638 208.215 568.139 208.821ZM582.017 198.609L577.797 193.5L579.504 192.09L586.715 200.819L585.041 202.202L583.793 200.69L583.706 200.762C583.891 201.393 583.885 202.051 583.701 202.726C583.515 203.396 583.095 204.001 582.441 204.541C581.874 205.009 581.279 205.294 580.642 205.406C580.009 205.508 579.364 205.42 578.72 205.129C578.069 204.844 577.45 204.339 576.855 203.619L572.269 198.067L573.969 196.662L578.387 202.01C578.878 202.605 579.436 202.941 580.054 203.023C580.672 203.106 581.251 202.924 581.778 202.489C582.091 202.23 582.346 201.886 582.527 201.468C582.716 201.044 582.777 200.589 582.718 200.096C582.666 199.597 582.434 199.1 582.017 198.609ZM591.22 202.606L581.304 190.602L582.965 189.231L584.134 190.646L584.281 190.525C584.224 190.266 584.197 189.934 584.18 189.547C584.169 189.154 584.257 188.731 584.437 188.283C584.62 187.825 584.978 187.376 585.518 186.93C586.225 186.346 586.999 186.007 587.847 185.906C588.695 185.804 589.552 185.96 590.426 186.366C591.294 186.778 592.12 187.453 592.9 188.396C593.679 189.339 594.194 190.275 594.431 191.214C594.672 192.143 594.665 193.019 594.419 193.834C594.169 194.646 593.691 195.344 592.984 195.927C592.451 196.368 591.944 196.637 591.463 196.735C590.983 196.832 590.551 196.838 590.16 196.759C589.776 196.675 589.454 196.584 589.201 196.481L589.094 196.569L592.92 201.201L591.22 202.606ZM586.577 193.59C587.084 194.204 587.615 194.67 588.177 194.984C588.739 195.297 589.291 195.45 589.848 195.43C590.4 195.407 590.92 195.194 591.407 194.792C591.914 194.374 592.23 193.887 592.347 193.337C592.462 192.783 592.417 192.199 592.206 191.589C591.994 190.98 591.654 190.378 591.172 189.795C590.696 189.219 590.182 188.773 589.63 188.458C589.078 188.143 588.519 187.996 587.96 188.011C587.394 188.033 586.864 188.247 586.351 188.671C585.857 189.079 585.542 189.553 585.412 190.088C585.288 190.617 585.321 191.186 585.523 191.784C585.725 192.382 586.076 192.984 586.577 193.59ZM600.623 194.839L590.707 182.835L592.361 181.469L593.53 182.884L593.677 182.763C593.626 182.499 593.593 182.173 593.582 181.78C593.572 181.387 593.653 180.969 593.839 180.516C594.016 180.064 594.374 179.615 594.921 179.163C595.621 178.585 596.402 178.239 597.25 178.138C598.097 178.037 598.955 178.193 599.822 178.604C600.69 179.016 601.516 179.691 602.296 180.634C603.075 181.578 603.59 182.514 603.834 183.447C604.067 184.382 604.068 185.252 603.815 186.073C603.565 186.884 603.087 187.582 602.38 188.166C601.854 188.601 601.347 188.87 600.859 188.973C600.379 189.07 599.947 189.077 599.556 188.998C599.172 188.913 598.85 188.822 598.597 188.719L598.49 188.807L602.316 193.439L600.623 194.839ZM595.973 185.829C596.48 186.442 597.018 186.903 597.573 187.222C598.135 187.536 598.694 187.683 599.244 187.669C599.796 187.645 600.316 187.433 600.803 187.031C601.31 186.612 601.626 186.125 601.743 185.575C601.858 185.021 601.813 184.437 601.602 183.828C601.397 183.213 601.05 182.617 600.568 182.033C600.092 181.457 599.578 181.012 599.026 180.696C598.474 180.381 597.922 180.229 597.356 180.25C596.797 180.266 596.26 180.485 595.747 180.91C595.253 181.317 594.945 181.786 594.814 182.321C594.684 182.855 594.723 183.419 594.925 184.017C595.121 184.62 595.472 185.222 595.973 185.829ZM607.314 183.803L600.103 175.074L601.804 173.669L609.015 182.399L607.314 183.803ZM599.851 173.016C599.551 173.264 599.216 173.375 598.84 173.354C598.467 173.324 598.163 173.173 597.935 172.897C597.703 172.616 597.613 172.29 597.656 171.922C597.704 171.545 597.874 171.235 598.175 170.987C598.468 170.745 598.804 170.636 599.177 170.666C599.553 170.687 599.857 170.837 600.089 171.118C600.317 171.394 600.408 171.721 600.36 172.098C600.316 172.466 600.144 172.774 599.851 173.016ZM614.728 177.975C613.868 178.686 612.976 179.114 612.046 179.264C611.126 179.399 610.215 179.275 609.328 178.88C608.437 178.481 607.618 177.828 606.87 176.923C606.131 176.029 605.647 175.103 605.417 174.145C605.187 173.188 605.221 172.265 605.505 171.386C605.795 170.502 606.344 169.727 607.158 169.055C607.651 168.647 608.192 168.338 608.793 168.115C609.388 167.898 610.013 167.812 610.667 167.858C611.322 167.903 611.99 168.114 612.663 168.494C613.327 168.877 613.989 169.461 614.643 170.253L615.141 170.855L608.206 176.584L607.154 175.311L612.429 170.954C612.059 170.507 611.639 170.188 611.174 169.992C610.699 169.798 610.219 169.732 609.727 169.801C609.234 169.87 608.764 170.09 608.331 170.448C607.851 170.844 607.527 171.309 607.368 171.836C607.206 172.359 607.183 172.888 607.299 173.422C607.419 173.948 607.659 174.429 608.019 174.864L608.841 175.859C609.323 176.442 609.833 176.856 610.377 177.095C610.922 177.333 611.467 177.409 612.019 177.316C612.568 177.22 613.089 176.968 613.582 176.56C613.909 176.29 614.165 176.003 614.35 175.697C614.538 175.382 614.656 175.049 614.696 174.703C614.729 174.364 614.693 174.008 614.568 173.652L616.414 172.614C616.679 173.193 616.788 173.8 616.749 174.432C616.713 175.054 616.527 175.67 616.19 176.281C615.849 176.887 615.362 177.452 614.728 177.975ZM620.822 161.544L619.507 163.089C619.278 162.947 619.023 162.842 618.736 162.78C618.455 162.712 618.148 162.721 617.821 162.8C617.487 162.884 617.146 163.07 616.793 163.362C616.313 163.758 616.002 164.197 615.86 164.677C615.709 165.159 615.775 165.566 616.054 165.904C616.295 166.195 616.602 166.337 616.963 166.338C617.323 166.34 617.797 166.194 618.371 165.911L620.021 165.084C620.975 164.608 621.811 164.399 622.524 164.46C623.237 164.521 623.852 164.858 624.362 165.476C624.794 165.999 625.025 166.591 625.056 167.254C625.098 167.902 624.941 168.567 624.592 169.244C624.249 169.916 623.724 170.544 623.017 171.128C622.044 171.932 621.071 172.385 620.114 172.475C619.146 172.567 618.273 172.284 617.495 171.627L618.928 170.022C619.389 170.361 619.863 170.515 620.365 170.47C620.863 170.422 621.366 170.188 621.879 169.764C622.433 169.307 622.784 168.822 622.927 168.315C623.066 167.805 622.996 167.381 622.718 167.044C622.493 166.771 622.203 166.625 621.843 166.61C621.49 166.589 621.067 166.703 620.569 166.955L618.821 167.854C617.854 168.34 617.009 168.541 616.281 168.46C615.559 168.374 614.949 168.015 614.435 167.394C614.01 166.878 613.777 166.312 613.745 165.688C613.712 165.065 613.863 164.433 614.192 163.799C614.517 163.16 615.013 162.566 615.667 162.026C616.607 161.249 617.523 160.837 618.401 160.8C619.276 160.759 620.085 161.005 620.822 161.544Z" fill="black"/>
<path d="M681.911 131.666C681.6 132.771 680.855 133.77 679.634 134.723C678.842 135.34 677.954 135.867 677.005 136.281C674.828 137.231 672.968 138.768 671.63 140.72C671.045 141.574 670.36 142.347 669.598 143.013C669.526 143.076 669.454 143.138 669.374 143.204C668.293 144.096 667.243 144.576 666.173 144.667C664.22 144.829 662.099 143.524 661.239 141.628C660.476 139.93 660.717 138.143 660.949 136.414C660.981 136.181 661.009 135.943 661.039 135.708C661.257 133.935 661.288 132.112 661.132 130.293C661.111 130.064 661.092 129.824 661.064 129.6C660.979 128.723 660.892 127.816 660.965 126.926L660.969 126.891C661.062 125.808 661.584 124.823 662.437 124.118C662.864 123.766 663.339 123.512 663.849 123.355C664.359 123.198 664.897 123.144 665.437 123.2L665.472 123.202C666.36 123.299 667.235 123.556 668.073 123.811C668.294 123.875 668.52 123.944 668.747 124.002C670.505 124.5 672.3 124.812 674.083 124.933C674.313 124.954 674.558 124.965 674.793 124.979C676.534 125.076 678.334 125.178 679.851 126.253C681.557 127.449 682.439 129.779 681.911 131.666Z" fill="black"/>
<path d="M676.613 115.502C676.977 117.043 676.867 118.404 676.282 119.448C676.052 119.861 675.746 120.225 675.393 120.517C674.906 120.919 674.313 121.206 673.629 121.37C672.45 121.654 671.443 121.453 670.64 120.766C669.852 120.084 669.279 118.969 668.889 117.355C668.499 115.716 668.456 114.224 668.766 113.037C669.113 111.692 669.905 110.831 671.038 110.559C672.172 110.289 673.385 110.671 674.446 111.642C675.47 112.57 676.236 113.945 676.613 115.502Z" fill="black"/>
<path d="M666.096 113.541C667.067 114.96 667.475 116.391 667.281 117.678C667.13 118.717 666.596 119.632 665.729 120.348C665.602 120.453 665.47 120.552 665.327 120.65C664.243 121.388 663.152 121.562 662.073 121.179C661.012 120.791 659.999 119.877 658.978 118.383C658.463 117.624 658.052 116.868 657.75 116.136C657.442 115.409 657.257 114.696 657.182 114.036C657.019 112.535 657.488 111.364 658.53 110.656C659.578 109.942 660.952 109.867 662.403 110.442C663.802 110.995 665.115 112.095 666.096 113.541Z" fill="black"/>
<path d="M654.571 129.183C656.088 129.865 657.074 130.638 657.589 131.547C658.112 132.464 658.126 133.486 657.624 134.59C657.335 135.231 656.94 135.759 656.453 136.161C656.093 136.459 655.686 136.685 655.236 136.833C654.1 137.21 652.736 137.067 651.299 136.413C649.835 135.754 648.635 134.737 647.911 133.561C647.164 132.331 647.018 131.068 647.497 130.005C647.978 128.943 648.967 128.334 650.36 128.241C651.584 128.161 653.041 128.485 654.571 129.183Z" fill="black"/>
<path d="M657.458 119.639C657.747 119.934 658.007 120.221 658.239 120.503C659.025 121.455 659.48 122.345 659.613 123.212C659.792 124.338 659.408 125.381 658.479 126.307C658.362 126.424 658.234 126.54 658.107 126.645C657.247 127.355 656.247 127.707 655.191 127.665C653.898 127.607 652.57 126.936 651.353 125.721C650.125 124.478 649.285 122.987 649.006 121.508C648.716 119.976 649.056 118.635 649.948 117.745C650.847 116.851 652.078 116.617 653.528 117.055C654.804 117.445 656.162 118.341 657.458 119.639Z" fill="black"/>
<path d="M694.102 117.619L684.186 105.615L685.847 104.244L687.016 105.659L687.162 105.538C687.105 105.279 687.078 104.947 687.061 104.56C687.051 104.167 687.139 103.743 687.318 103.295C687.502 102.838 687.86 102.389 688.4 101.943C689.107 101.359 689.881 101.019 690.729 100.918C691.576 100.817 692.434 100.973 693.301 101.384C694.175 101.791 695.002 102.465 695.781 103.409C696.561 104.352 697.076 105.288 697.313 106.227C697.553 107.156 697.547 108.032 697.301 108.847C697.051 109.659 696.573 110.356 695.866 110.94C695.333 111.381 694.826 111.65 694.345 111.747C693.865 111.845 693.432 111.851 693.042 111.772C692.658 111.688 692.336 111.597 692.083 111.494L691.976 111.582L695.802 116.214L694.102 117.619ZM689.459 108.603C689.966 109.217 690.497 109.683 691.059 109.997C691.621 110.31 692.173 110.463 692.729 110.443C693.282 110.42 693.802 110.207 694.289 109.805C694.796 109.386 695.111 108.899 695.229 108.349C695.344 107.796 695.299 107.211 695.087 106.602C694.876 105.993 694.535 105.391 694.053 104.808C693.578 104.232 693.064 103.786 692.505 103.476C691.96 103.156 691.401 103.008 690.841 103.024C690.276 103.045 689.746 103.26 689.232 103.684C688.739 104.092 688.424 104.566 688.293 105.101C688.17 105.63 688.202 106.199 688.404 106.797C688.607 107.395 688.958 107.997 689.459 108.603ZM703.338 98.3909L699.117 93.2815L700.824 91.8713L708.035 100.601L706.362 101.984L705.113 100.472L705.019 100.549C705.204 101.18 705.205 101.833 705.015 102.513C704.835 103.178 704.408 103.789 703.755 104.328C703.195 104.791 702.599 105.076 701.962 105.187C701.329 105.29 700.684 105.201 700.033 104.916C699.389 104.626 698.77 104.121 698.176 103.401L693.589 97.8481L695.283 96.449L699.7 101.797C700.192 102.392 700.75 102.728 701.374 102.805C701.992 102.887 702.564 102.711 703.091 102.276C703.411 102.011 703.659 101.673 703.848 101.249C704.03 100.831 704.098 100.37 704.038 99.8774C703.986 99.3791 703.748 98.8873 703.338 98.3909ZM712.54 102.387L702.625 90.384L704.285 89.0124L705.454 90.4276L705.594 90.3119C705.544 90.0473 705.51 89.7214 705.5 89.3284C705.489 88.9355 705.577 88.5123 705.757 88.0643C705.933 87.6125 706.298 87.158 706.839 86.7118C707.545 86.1279 708.319 85.7882 709.167 85.6871C710.015 85.5861 710.872 85.7414 711.74 86.1532C712.614 86.5594 713.441 87.2342 714.22 88.1776C714.999 89.1211 715.507 90.0623 715.751 90.9955C715.992 91.9251 715.985 92.8003 715.739 93.6157C715.483 94.4329 715.005 95.1308 714.305 95.7092C713.771 96.1498 713.264 96.4189 712.777 96.5217C712.296 96.6191 711.864 96.6255 711.48 96.541C711.09 96.4621 710.768 96.3711 710.514 96.268L710.414 96.3507L714.241 100.983L712.54 102.387ZM707.897 93.3717C708.404 93.9855 708.935 94.4519 709.497 94.7654C710.053 95.0845 710.612 95.2315 711.168 95.212C711.714 95.1942 712.234 94.9815 712.721 94.5794C713.234 94.1552 713.543 93.6736 713.661 93.1237C713.776 92.5699 713.731 91.9857 713.519 91.3765C713.314 90.7617 712.967 90.1653 712.485 89.5818C712.01 89.0059 711.496 88.5604 710.944 88.2451C710.398 87.9244 709.839 87.7773 709.273 87.7985C708.714 87.8142 708.178 88.0342 707.664 88.4583C707.177 88.8605 706.862 89.3345 706.732 89.8693C706.601 90.404 706.641 90.9676 706.843 91.5655C707.045 92.1634 707.397 92.7655 707.897 93.3717ZM721.936 94.6257L712.021 82.6224L713.681 81.2507L714.85 82.6659L714.99 82.5503C714.94 82.2857 714.906 81.9598 714.896 81.5668C714.885 81.1739 714.973 80.7507 715.153 80.3026C715.336 79.8453 715.694 79.3964 716.235 78.9502C716.941 78.3663 717.715 78.0266 718.563 77.9255C719.411 77.8245 720.268 77.9798 721.136 78.3915C722.01 78.7977 722.836 79.4726 723.616 80.416C724.395 81.3595 724.903 82.3006 725.147 83.2339C725.388 84.1635 725.381 85.0388 725.135 85.8542C724.879 86.6713 724.401 87.3691 723.701 87.9475C723.167 88.3882 722.66 88.6573 722.179 88.7546C721.699 88.852 721.26 88.8639 720.876 88.7794C720.492 88.695 720.17 88.604 719.91 88.5065L719.81 88.5891L723.636 93.2211L721.936 94.6257ZM717.293 85.6101C717.8 86.2239 718.331 86.6903 718.893 87.0039C719.455 87.3174 720.008 87.4699 720.564 87.4504C721.11 87.4326 721.63 87.2199 722.123 86.8123C722.63 86.3936 722.939 85.9121 723.064 85.3566C723.178 84.8029 723.127 84.2241 722.915 83.6149C722.71 83.0001 722.37 82.3983 721.888 81.8148C721.412 81.2388 720.892 80.7987 720.34 80.4835C719.794 80.1627 719.235 80.0157 718.669 80.0369C718.11 80.0527 717.574 80.2726 717.067 80.6912C716.573 81.0989 716.258 81.5729 716.128 82.1077C716.004 82.6369 716.037 83.2061 716.239 83.804C716.441 84.4018 716.793 85.0039 717.293 85.6101ZM728.628 83.5905L721.416 74.8608L723.117 73.4562L730.328 82.1858L728.628 83.5905ZM721.164 72.8032C720.871 73.0456 720.536 73.1564 720.16 73.1356C719.787 73.1056 719.483 72.9551 719.255 72.6785C719.023 72.3981 718.933 72.0713 718.977 71.7034C719.024 71.3264 719.195 71.0166 719.488 70.7742C719.781 70.5319 720.118 70.423 720.49 70.453C720.867 70.4738 721.17 70.6243 721.402 70.9047C721.631 71.1813 721.721 71.5081 721.673 71.8852C721.63 72.253 721.457 72.5608 721.164 72.8032ZM736.042 77.7623C735.182 78.4729 734.29 78.9007 733.366 79.0454C732.439 79.1864 731.535 79.0565 730.641 78.6668C729.751 78.2678 728.931 77.6155 728.183 76.71C727.445 75.8158 726.96 74.89 726.73 73.9325C726.507 72.9696 726.534 72.0516 726.825 71.1677C727.116 70.2837 727.664 69.5085 728.471 68.842C728.965 68.4344 729.512 68.1191 730.107 67.902C730.702 67.6848 731.333 67.5935 731.988 67.6391C732.642 67.6847 733.303 67.9006 733.977 68.2813C734.647 68.6583 735.309 69.2426 735.963 70.0345L736.461 70.637L729.519 76.3714L728.467 75.0983L733.742 70.741C733.373 70.294 732.959 69.9696 732.488 69.7791C732.02 69.5792 731.539 69.5139 731.04 69.5885C730.547 69.6576 730.084 69.8712 729.644 70.2347C729.171 70.6259 728.848 71.0903 728.688 71.6172C728.526 72.1403 728.503 72.6692 728.619 73.2041C728.733 73.7351 728.972 74.2158 729.332 74.6516L730.154 75.6461C730.636 76.2296 731.153 76.6378 731.691 76.8818C732.242 77.1147 732.787 77.1905 733.339 77.0979C733.881 77.0071 734.402 76.7552 734.902 76.342C735.222 76.0776 735.478 75.7897 735.67 75.4785C735.858 75.1634 735.969 74.8359 736.009 74.4905C736.049 74.1451 736.007 73.7947 735.888 73.4338L737.735 72.3961C737.992 72.9798 738.108 73.5821 738.069 74.2136C738.027 74.8414 737.84 75.4576 737.503 76.0678C737.169 76.6687 736.682 77.2335 736.042 77.7623ZM742.142 61.3257L740.827 62.8709C740.598 62.729 740.343 62.6241 740.056 62.5617C739.769 62.4993 739.461 62.5077 739.134 62.5868C738.807 62.666 738.466 62.8514 738.113 63.1434C737.633 63.54 737.322 63.9786 737.173 64.4644C737.029 64.941 737.096 65.348 737.374 65.6851C737.615 65.9769 737.916 66.1237 738.283 66.12C738.644 66.1218 739.111 65.9811 739.685 65.6982L741.335 64.8708C742.295 64.3899 743.132 64.1802 743.844 64.2416C744.557 64.3031 745.165 64.6454 745.675 65.263C746.107 65.7858 746.345 66.3731 746.377 67.0356C746.411 67.689 746.254 68.3542 745.912 69.026C745.569 69.6979 745.044 70.3258 744.338 70.9097C743.357 71.7194 742.392 72.1665 741.427 72.262C740.466 72.3483 739.593 72.0656 738.815 71.4083L740.249 69.8031C740.702 70.1486 741.183 70.2963 741.685 70.2517C742.177 70.2087 742.686 69.9696 743.193 69.551C743.753 69.0883 744.104 68.6037 744.247 68.0971C744.386 67.5867 744.317 67.163 744.038 66.8257C743.813 66.5529 743.517 66.4118 743.163 66.3914C742.803 66.3766 742.38 66.4897 741.889 66.7366L740.141 67.6355C739.174 68.1219 738.33 68.3222 737.601 68.2418C736.88 68.1558 736.262 67.8022 735.749 67.1808C735.323 66.6655 735.097 66.0934 735.065 65.4701C735.032 64.8467 735.184 64.215 735.512 63.5804C735.837 62.9419 736.327 62.3529 736.98 61.813C737.927 61.0308 738.836 60.624 739.721 60.5814C740.596 60.5407 741.405 60.7869 742.142 61.3257Z" fill="black"/>
</g>
<defs>
<clipPath id="clip0_3_1890">
<rect width="1607.07" height="101.199" fill="white" transform="translate(-499.765 1023.7) rotate(-39.5587)"/>
</clipPath>
</defs>
</svg>
