<svg width="123" height="12" viewBox="0 0 123 12" fill="none" xmlns="http://www.w3.org/2000/svg">
<path d="M92.2171 6.20932C81.5753 5.48386 34.5106 8.60177 24.6799 11.8432C24.6799 11.9975 24.7907 12.0067 24.9256 11.9975C26.0562 11.9203 45.4567 9.58076 59.5053 8.78699C64.0572 8.52981 69.026 8.33541 73.7107 7.96893C78.3954 7.60245 92.2171 6.20932 92.2171 6.20932Z" fill="#EFC951"/>
<path d="M122.963 1.59417C122.963 1.59417 123.061 1.62505 122.938 1.7794C122.872 1.80009 122.619 1.90287 121.98 2.08809C121.046 2.45854 83.8231 1.62781 62.3071 3.04507L0.2996 6.71868C-0.273749 6.74888 0.152139 6.45629 0.152139 6.45629C8.1126 4.87492 16.2746 3.19945 37.9268 2.04183C52.7712 0.961858 80.3982 -0.0760603 86.0483 0.00439206C94.4782 0.00439206 112.43 0.755242 122.963 1.59417Z" fill="#EFC951"/>
</svg>
