<svg width="78" height="143" viewBox="0 0 78 143" fill="none" xmlns="http://www.w3.org/2000/svg">
<path opacity="0.84" d="M1.63831 2.25404C40.5661 10.0221 43.6253 62.4066 32.4543 79.6643C30.7124 82.3555 25.5849 88.0531 21.9517 84.5019C18.7633 81.3855 17.6385 73.382 19.6515 69.8632C24.8909 60.705 34.4091 50.9816 44.3397 62.1641C55.1505 74.3377 61.2834 94.6918 64.8284 110.312C66.5479 117.888 68.058 127.112 67.6697 134.771C67.4119 139.855 66.2353 135.596 64.7747 132.63C62.6974 128.411 57.9007 118.671 62.4997 128.01C64.3684 131.805 65.8634 136.223 66.6475 140.067C67.4858 144.177 68.6986 136.726 69.1584 135.821C70.6078 132.969 73.3586 129.183 76.1947 127.786" stroke="#EFC951" stroke-width="3" stroke-linecap="round"/>
</svg>
