<svg width="177" height="28" viewBox="0 0 177 28" fill="none" xmlns="http://www.w3.org/2000/svg">
<path d="M7.63505 26.2259C9.92095 25.6088 12.3922 25.362 14.7399 25.1151C16.0991 24.9917 17.3965 24.93 18.7556 24.8683C20.6709 24.7449 22.5861 24.6832 24.5631 24.6832C28.2699 24.6215 31.915 24.5598 35.6219 24.5598C42.9738 24.5598 50.3258 24.4981 57.7395 24.1278C65.4004 23.7576 72.9994 23.3873 80.6603 23.0171C87.8887 22.6468 95.1171 22.2766 102.407 22.0297C109.636 21.7212 116.926 21.4744 124.154 21.0424C131.568 20.5487 138.982 20.3019 146.395 20.1168C149.917 19.9934 153.438 19.87 156.96 19.4997C158.813 19.3146 160.605 19.0678 162.458 18.8209C164.25 18.5741 166.042 18.4507 167.833 18.2656C169.501 18.0804 171.108 18.1421 172.776 18.2656C173.95 18.1421 174.876 17.5251 175.494 16.476C175.803 15.7972 176.174 15.1802 176.483 14.5014C177.101 12.7735 177.409 10.984 177.348 9.13278C177.348 7.28154 177.101 5.49201 176.483 3.76418C176.174 3.0854 175.803 2.46832 175.494 1.78953C174.876 0.740495 174.012 0.185124 172.776 0C171.849 0.0617079 170.984 0.185124 170.058 0.246832C169.254 0.30854 168.389 0.30854 167.586 0.30854C165.795 0.30854 164.065 0.370248 162.273 0.431956C158.566 0.555371 154.921 0.802203 151.214 0.925619C144.048 1.11074 136.881 1.17245 129.776 1.60441C125.946 1.85124 122.115 2.09807 118.285 2.28319C114.825 2.46832 111.304 2.59173 107.844 2.71515C100.43 2.96198 93.0165 3.33223 85.6028 3.70248C78.3126 4.07272 70.9607 4.44297 63.6705 4.81322C59.6547 4.99834 55.5772 5.24517 51.5614 5.4303C47.9163 5.61542 44.333 5.61542 40.6879 5.67713C33.2742 5.73884 25.8605 5.80055 18.4467 6.2325C16.5933 6.35592 14.8017 6.47933 13.01 6.72617C11.5273 6.91129 10.0445 7.15812 8.62355 7.46666C7.51149 7.71349 6.39943 8.08374 5.34915 8.45399C4.73134 8.63911 4.11353 9.00936 3.5575 9.37961C2.44544 10.2435 1.70407 11.3543 1.2716 12.7118C0.283102 15.3036 0.15954 18.389 0.592007 21.1041C0.839132 22.7085 1.39516 24.2512 2.2601 25.6088C2.69256 26.0408 3.12503 26.4727 3.5575 26.9047C4.546 27.5217 5.53449 27.5217 6.46121 26.9047C6.70834 26.6578 7.20258 26.411 7.63505 26.2259Z" fill="#EFC951"/>
</svg>
