<svg width="310" height="23" viewBox="0 0 310 23" fill="none" xmlns="http://www.w3.org/2000/svg">
<path d="M133.476 13.2893C127.485 13.3792 121.461 13.4042 115.485 13.574C90.0946 14.2882 64.7038 15.0524 39.3129 15.7816C36.9487 15.8515 34.5521 15.8315 32.1718 15.7966C24.0104 15.6817 21.0956 14.458 23.2007 12.0706C23.557 11.666 23.8809 11.2515 24.3505 10.6771C28.334 10.5373 32.4146 10.4324 36.4629 10.2376C40.3169 10.0528 44.0737 9.68317 47.9439 9.54832C51.5064 9.42345 55.1498 9.55831 58.7285 9.48838C61.5623 9.43344 64.4123 9.31357 67.1651 9.10879C72.104 8.74918 76.9781 8.30967 81.9009 7.9101C82.6295 7.85016 83.8926 7.75027 84.1031 7.84517C87.4551 9.2986 89.0744 8.02498 91.2443 7.69533C117.38 7.1709 143.062 5.47273 169.036 4.44384C148.552 4.72354 128.035 4.8584 107.583 5.32289C77.4153 6.01215 47.2961 6.94112 17.1445 7.76524C14.3917 7.84015 11.6389 7.91509 8.86987 7.94007C3.96335 7.98002 0.627565 6.5116 0.724724 4.52874C0.80569 2.73068 4.44912 3.00539 8.49741 2.98042C19.5735 2.9055 30.6334 2.67075 41.6933 2.44599C52.0569 2.23622 62.4206 1.9665 72.7842 1.71677C89.4631 1.3172 106.11 0.822742 122.821 0.538049C132.602 0.373227 142.463 0.528049 152.276 0.558016C159.822 0.582989 167.287 -0.0513323 174.979 0.707849C178.218 1.0275 182.395 0.308292 186.168 0.283319C201.989 0.188421 217.81 0.143486 233.631 0.143486C242.602 0.143486 251.556 0.328264 260.527 0.308286C273.611 0.278318 286.695 0.208411 299.763 0.0136208C305.01 -0.066293 308.896 0.55803 309.641 1.9765C310.175 2.99041 307.957 4.15415 306.71 5.228C306.516 5.39781 304.994 5.4927 304.087 5.49769C283.165 5.56262 262.179 5.32288 241.338 5.74242C217.502 6.21691 193.795 7.27078 170.04 8.0849C167.919 8.15982 165.846 8.34961 163.757 8.48446C163.773 8.64429 163.806 8.80413 163.822 8.96895C172.987 8.96895 182.153 8.90401 191.318 8.98892C199.965 9.06883 208.612 9.36852 217.259 9.46342C223.656 9.53334 230.084 9.50837 236.464 9.36852C242.375 9.24365 246.164 10.2426 246.634 12.3103C246.974 13.7987 244.253 14.5779 238.667 14.7178C215.413 15.3171 192.16 15.9314 168.923 16.5657C166.85 16.6207 164.826 16.8355 162.737 17.1451C180.42 17.9493 198.491 18.1241 214.879 20.5215L215.187 21.2557C212.741 21.5404 210.264 22.0898 207.867 22.0698C192.111 21.915 176.388 21.6253 160.632 21.3955C142.803 21.1308 124.991 20.8961 107.162 20.6164C104.636 20.5764 102.158 20.3567 99.6323 20.2418C91.8273 19.8922 90.7747 18.4637 93.2198 15.7616C93.5113 15.432 94.904 14.9875 95.8917 14.9575C102.758 14.7527 109.866 14.2632 116.473 14.6179C123.031 14.9675 128.116 14.3881 133.638 13.8037C133.573 13.6289 133.525 13.4591 133.46 13.2843L133.476 13.2893Z" fill="#EFC951"/>
</svg>
