<svg width="85" height="39" viewBox="0 0 85 39" fill="none" xmlns="http://www.w3.org/2000/svg">
<path d="M33.3526 33.2032C33.8545 33.0191 34.3509 32.7209 34.8554 32.6683C39.3155 32.2298 43.789 32.0237 48.2356 31.3704C51.7189 30.8574 55.1807 29.8971 58.6371 28.9764C62.6034 27.9196 66.5939 26.9813 70.4958 25.4598C74.0541 24.0698 77.6528 22.6448 80.8918 19.6325C81.2917 19.2598 81.6862 18.8739 82.0699 18.4618C84.1577 16.208 83.6344 13.4325 82.1102 11.3585C80.1431 8.68379 77.7172 7.59199 75.2779 6.63612C70.6407 4.81646 65.9257 3.87812 61.1758 3.30372C53.1009 2.33031 45.0288 2.20315 36.9406 2.8784C29.8721 3.46595 22.876 4.90415 15.939 7.10967C12.3296 8.25848 8.75247 9.71859 5.44364 12.424C4.34606 13.3228 3.32095 14.5769 2.40585 15.9274C1.27339 17.6023 1.3539 19.7465 2.40317 21.5968C4.15553 24.6881 6.47412 26.271 8.75783 27.9021C13.0086 30.9363 17.4552 33.0103 21.9851 34.5537C24.5801 35.4351 27.218 35.97 29.8318 36.6891C30.4678 36.8645 31.0931 37.1407 31.772 37.3907C28.6484 39.3156 25.5837 37.9782 22.5486 37.1802C18.271 36.0533 14.082 34.2819 10.0594 31.594C7.01352 29.5595 4.02404 27.3233 1.53638 23.7059C-0.865405 20.2113 -0.234768 15.695 1.93623 12.9019C5.10014 8.82849 8.91616 7.07021 12.7885 5.69779C14.8763 4.95677 16.9668 4.2289 19.0707 3.62819C21.1693 3.03187 23.2812 2.57147 25.3932 2.13299C25.9084 2.02338 26.4478 2.22507 26.7403 2.25577C27.3871 2.03215 27.8379 1.87868 28.2861 1.71645C28.9677 1.47529 29.7352 1.49721 30.3524 1.48406C31.2648 1.46213 32.1907 0.335255 33.1943 1.36128C33.5727 1.74714 34.3133 1.12889 34.893 1.04996C36.3743 0.843882 37.8583 0.66849 39.3423 0.506255C40.9337 0.33525 42.5277 0.111628 44.1217 0.0677809C45.0798 0.0414725 46.0378 0.401024 46.9985 0.440486C47.7204 0.471179 48.445 0.173021 49.1668 0.19056C50.3449 0.216868 51.5203 0.431716 52.6984 0.466794C53.4498 0.488717 54.2602 -0.00675584 54.9445 0.30456C56.7398 1.11574 58.5486 0.659727 60.3439 0.84827C62.5363 1.07628 64.7315 1.39198 66.9105 1.86114C71.7919 2.9091 76.7001 3.87812 81.2112 7.42976C82.0834 8.11816 82.9287 9.06965 83.613 10.1834C85.8028 13.7569 85.3331 18.5275 82.6737 21.1189C79.0992 24.6004 75.1866 26.5604 71.1559 27.8714C65.9847 29.5551 60.7759 30.9407 55.594 32.5455C50.7421 34.0495 45.85 34.773 40.9203 34.7204C38.6446 34.6941 36.3716 34.2643 34.096 33.9881C33.8518 33.9574 33.6183 33.7338 33.3795 33.5979C33.3714 33.4663 33.3634 33.3348 33.3553 33.2032H33.3526Z" fill="#EFC951"/>
</svg>
