<svg width="40" height="26" viewBox="0 0 40 26" fill="none" xmlns="http://www.w3.org/2000/svg">
<path d="M38.2401 0.0400391H1.76005C1.23205 0.0400391 0.800049 0.472039 0.800049 1.00004V25C0.800049 25.528 1.23205 25.96 1.76005 25.96H38.2401C38.7681 25.96 39.2001 25.528 39.2001 25V1.00004C39.2001 0.472039 38.7681 0.0400391 38.2401 0.0400391ZM35.9361 1.96004L20 17.896L4.06405 1.96004H35.9361ZM2.72005 3.30404L12.416 13L2.72005 22.696V3.30404ZM4.11205 24.04L13.76 14.392L19.328 19.96C19.712 20.344 20.288 20.344 20.6721 19.96L26.24 14.392L35.8881 24.04H4.11205ZM37.2801 22.696L27.5841 13L37.2801 3.30404V22.696Z" fill="black"/>
</svg>
