<svg width="44" height="41" viewBox="0 0 44 41" fill="none" xmlns="http://www.w3.org/2000/svg">
<path d="M11.42 16.58C11.2256 16.4033 11.0024 16.2613 10.76 16.16C10.3958 16.0068 9.99435 15.965 9.60637 16.0397C9.21839 16.1145 8.86125 16.3025 8.58 16.58C8.39792 16.7702 8.25519 16.9945 8.16 17.24C8.00684 17.6042 7.965 18.0056 8.03974 18.3936C8.11449 18.7816 8.30248 19.1388 8.58 19.42C8.7744 19.5967 8.99763 19.7387 9.24 19.84C9.60346 19.9855 10.0016 20.0211 10.3851 19.9424C10.7686 19.8638 11.1206 19.6743 11.3974 19.3974C11.6743 19.1206 11.8638 18.7686 11.9424 18.3851C12.0211 18.0016 11.9855 17.6035 11.84 17.24C11.7448 16.9945 11.6021 16.7702 11.42 16.58ZM16.58 11.42C16.7669 11.6054 16.9885 11.752 17.2322 11.8515C17.4759 11.9511 17.7368 12.0015 18 12C18.2624 12.0068 18.5226 11.952 18.76 11.84C19.0024 11.7387 19.2256 11.5967 19.42 11.42C19.5967 11.2256 19.7387 11.0024 19.84 10.76C19.9458 10.5206 20.0005 10.2617 20.0005 10C20.0005 9.73826 19.9458 9.4794 19.84 9.24C19.7387 8.99763 19.5967 8.7744 19.42 8.58C19.2341 8.39254 19.0129 8.24376 18.7692 8.14222C18.5254 8.04068 18.264 7.9884 18 7.9884C17.736 7.9884 17.4746 8.04068 17.2308 8.14222C16.9871 8.24376 16.7659 8.39254 16.58 8.58C16.4033 8.7744 16.2613 8.99763 16.16 9.24C16.0542 9.4794 15.9995 9.73826 15.9995 10C15.9995 10.2617 16.0542 10.5206 16.16 10.76C16.2613 11.0024 16.4033 11.2256 16.58 11.42ZM11.42 8.58C11.1403 8.29794 10.7829 8.10558 10.3934 8.02744C10.0039 7.9493 9.59993 7.98892 9.23304 8.14126C8.86615 8.29359 8.55294 8.55173 8.33334 8.88277C8.11373 9.21381 7.99769 9.60275 8 10C8.00316 10.2614 8.05752 10.5196 8.16 10.76C8.26128 11.0024 8.40334 11.2256 8.58 11.42C8.76688 11.6054 8.98851 11.752 9.23219 11.8515C9.47586 11.9511 9.73679 12.0015 10 12C10.2624 12.0068 10.5226 11.952 10.76 11.84C11.0024 11.7387 11.2256 11.5967 11.42 11.42C11.5967 11.2256 11.7387 11.0024 11.84 10.76C11.9458 10.5206 12.0005 10.2617 12.0005 10C12.0005 9.73826 11.9458 9.4794 11.84 9.24C11.7387 8.99763 11.5967 8.7744 11.42 8.58ZM24.58 32.58L22 35.18L19.42 32.58C19.2335 32.3935 19.0121 32.2456 18.7685 32.1447C18.5249 32.0438 18.2637 31.9918 18 31.9918C17.7363 31.9918 17.4751 32.0438 17.2315 32.1447C16.9879 32.2456 16.7665 32.3935 16.58 32.58C16.3935 32.7665 16.2456 32.9879 16.1447 33.2315C16.0438 33.4751 15.9918 33.7363 15.9918 34C15.9918 34.2637 16.0438 34.5249 16.1447 34.7685C16.2456 35.0121 16.3935 35.2335 16.58 35.42L20.58 39.42C20.7659 39.6075 20.9871 39.7562 21.2308 39.8578C21.4746 39.9593 21.736 40.0116 22 40.0116C22.264 40.0116 22.5254 39.9593 22.7692 39.8578C23.0129 39.7562 23.2341 39.6075 23.42 39.42L27.42 35.42C27.7966 35.0434 28.0082 34.5326 28.0082 34C28.0082 33.4674 27.7966 32.9566 27.42 32.58C27.0434 32.2034 26.5326 31.9918 26 31.9918C25.4674 31.9918 24.9566 32.2034 24.58 32.58ZM35.42 8.58C35.1403 8.29794 34.7829 8.10558 34.3934 8.02744C34.0039 7.9493 33.5999 7.98892 33.233 8.14126C32.8661 8.29359 32.5529 8.55173 32.3333 8.88277C32.1137 9.21381 31.9977 9.60275 32 10C31.9932 10.2624 32.048 10.5226 32.16 10.76C32.2613 11.0024 32.4033 11.2256 32.58 11.42C32.7659 11.6075 32.9871 11.7562 33.2308 11.8578C33.4746 11.9593 33.736 12.0116 34 12.0116C34.264 12.0116 34.5254 11.9593 34.7692 11.8578C35.0129 11.7562 35.2341 11.6075 35.42 11.42C35.5967 11.2256 35.7387 11.0024 35.84 10.76C35.952 10.5226 36.0068 10.2624 36 10C35.9968 9.73865 35.9425 9.48044 35.84 9.24C35.7387 8.99763 35.5967 8.7744 35.42 8.58ZM26 16H18C17.4696 16 16.9609 16.2107 16.5858 16.5858C16.2107 16.9609 16 17.4696 16 18C16 18.5304 16.2107 19.0391 16.5858 19.4142C16.9609 19.7893 17.4696 20 18 20H26C26.5304 20 27.0391 19.7893 27.4142 19.4142C27.7893 19.0391 28 18.5304 28 18C28 17.4696 27.7893 16.9609 27.4142 16.5858C27.0391 16.2107 26.5304 16 26 16ZM38 0H6C4.4087 0 2.88258 0.632141 1.75736 1.75736C0.632141 2.88258 0 4.4087 0 6V22C0 23.5913 0.632141 25.1174 1.75736 26.2426C2.88258 27.3679 4.4087 28 6 28H38C39.5913 28 41.1174 27.3679 42.2426 26.2426C43.3679 25.1174 44 23.5913 44 22V6C44 4.4087 43.3679 2.88258 42.2426 1.75736C41.1174 0.632141 39.5913 0 38 0ZM40 22C40 22.5304 39.7893 23.0391 39.4142 23.4142C39.0391 23.7893 38.5304 24 38 24H6C5.46957 24 4.96086 23.7893 4.58579 23.4142C4.21071 23.0391 4 22.5304 4 22V6C4 5.46957 4.21071 4.96086 4.58579 4.58579C4.96086 4.21071 5.46957 4 6 4H38C38.5304 4 39.0391 4.21071 39.4142 4.58579C39.7893 4.96086 40 5.46957 40 6V22ZM35.42 16.58C35.2298 16.3979 35.0055 16.2552 34.76 16.16C34.5213 16.0517 34.2621 15.9957 34 15.9957C33.7379 15.9957 33.4787 16.0517 33.24 16.16C32.9976 16.2613 32.7744 16.4033 32.58 16.58C32.2145 16.9633 32.0074 17.4705 32 18C31.9965 18.2975 32.0594 18.5921 32.1842 18.8622C32.309 19.1323 32.4925 19.3712 32.7213 19.5614C32.9501 19.7517 33.2184 19.8884 33.5068 19.9618C33.7952 20.0351 34.0963 20.0432 34.3882 19.9855C34.6801 19.9277 34.9554 19.8055 35.1941 19.6278C35.4327 19.4502 35.6288 19.2215 35.7679 18.9585C35.907 18.6954 35.9856 18.4047 35.9981 18.1074C36.0106 17.8101 35.9566 17.5138 35.84 17.24C35.7448 16.9945 35.6021 16.7702 35.42 16.58ZM25.24 8.16C24.9976 8.26128 24.7744 8.40334 24.58 8.58C24.2145 8.96327 24.0074 9.47047 24 10C24.0032 10.2614 24.0575 10.5196 24.16 10.76C24.2613 11.0024 24.4033 11.2256 24.58 11.42C24.7669 11.6054 24.9885 11.752 25.2322 11.8515C25.4759 11.9511 25.7368 12.0015 26 12C26.2624 12.0068 26.5226 11.952 26.76 11.84C27.0024 11.7387 27.2256 11.5967 27.42 11.42C27.5967 11.2256 27.7387 11.0024 27.84 10.76C27.952 10.5226 28.0068 10.2624 28 10C27.9926 9.47047 27.7855 8.96327 27.42 8.58C27.1388 8.30248 26.7816 8.11449 26.3936 8.03974C26.0056 7.965 25.6042 8.00684 25.24 8.16Z" fill="black"/>
</svg>
