<svg width="33" height="35" viewBox="0 0 33 35" fill="none" xmlns="http://www.w3.org/2000/svg">
<path d="M31.7298 25.0728C30.8149 23.4968 29.4548 19.0374 29.4548 13.213C29.4548 9.71515 28.0653 6.36059 25.592 3.88725C23.1186 1.41392 19.7641 0.0244141 16.2663 0.0244141C12.7684 0.0244141 9.41387 1.41392 6.94054 3.88725C4.4672 6.36059 3.0777 9.71515 3.0777 13.213C3.0777 19.039 1.71598 23.4968 0.80102 25.0728C0.56737 25.4735 0.443502 25.9287 0.44191 26.3925C0.440318 26.8563 0.561057 27.3123 0.791951 27.7146C1.02285 28.1169 1.35573 28.4511 1.75703 28.6837C2.15834 28.9163 2.61387 29.0389 3.0777 29.0392H9.80551C10.1098 30.5282 10.919 31.8663 12.0963 32.8273C13.2735 33.7883 14.7466 34.3132 16.2663 34.3132C17.7859 34.3132 19.259 33.7883 20.4363 32.8273C21.6135 31.8663 22.4227 30.5282 22.727 29.0392H29.4548C29.9185 29.0386 30.3738 28.9158 30.7749 28.6831C31.176 28.4504 31.5086 28.1161 31.7393 27.7139C31.97 27.3117 32.0906 26.8557 32.0889 26.3921C32.0873 25.9284 31.9634 25.4733 31.7298 25.0728ZM16.2663 31.677C15.4483 31.6767 14.6505 31.4229 13.9827 30.9506C13.3148 30.4782 12.8099 29.8104 12.5372 29.0392H19.9953C19.7227 29.8104 19.2177 30.4782 18.5499 30.9506C17.882 31.4229 17.0842 31.6767 16.2663 31.677ZM3.0777 26.4015C4.34709 24.2188 5.71541 19.161 5.71541 13.213C5.71541 10.4147 6.82701 7.73107 8.80568 5.7524C10.7843 3.77373 13.468 2.66213 16.2663 2.66213C19.0645 2.66213 21.7482 3.77373 23.7268 5.7524C25.7055 7.73107 26.8171 10.4147 26.8171 13.213C26.8171 19.1561 28.1821 24.2139 29.4548 26.4015H3.0777Z" fill="black"/>
</svg>
