<svg width="198" height="18" viewBox="0 0 198 18" fill="none" xmlns="http://www.w3.org/2000/svg">
<g clip-path="url(#clip0_3_2567)">
<path d="M4.37603 11.6935C5.91758 11.6727 7.53144 11.5874 9.0719 11.5031C9.73256 11.4942 10.3187 11.4228 10.9794 11.4139C13.7667 11.2493 16.554 11.0846 19.3413 10.92C22.7158 10.7474 26.0159 10.5124 29.3904 10.3398C34.1575 10.0214 38.9257 9.76656 43.6928 9.44818C44.7928 9.36982 45.8939 9.35498 46.9939 9.27662C49.7812 9.11198 52.5685 8.94735 55.3569 8.84624C58.1442 8.6816 60.9315 8.51697 63.7199 8.41585C64.8199 8.33749 65.9199 8.25913 67.021 8.2443C71.4232 8.0579 75.8989 7.87051 80.3011 7.68411C83.0161 7.58399 85.7311 7.48386 88.5183 7.31923C89.6194 7.30439 90.6461 7.22702 91.7472 7.21218C96.0037 7.09128 100.334 6.96939 104.59 6.84849C108.847 6.72759 113.03 6.60769 117.286 6.48679C118.387 6.47195 119.488 6.45711 120.663 6.44128C123.452 6.40369 126.168 6.36708 128.958 6.32949C133.289 6.27112 137.547 6.21374 141.876 6.09186C143.271 6.07306 144.666 6.05426 146.061 6.03547C148.997 5.9959 151.933 5.95632 154.869 5.91675C155.09 5.91379 155.383 5.90983 155.604 5.90686C148.998 6.05942 142.319 6.21296 135.715 6.42904C132.926 6.53015 130.21 6.56676 127.422 6.66787C126.247 6.6837 124.999 6.70051 123.826 6.77986C119.79 6.89779 115.828 7.07826 111.792 7.19619C107.169 7.38555 102.546 7.5114 97.9231 7.70077C97.1156 7.71165 96.3827 7.78506 95.5752 7.79594C93.0815 7.95662 90.6602 8.05279 88.1665 8.21346C83.1781 8.4713 78.1897 8.72913 73.2013 8.98696C72.4672 8.99686 71.7342 9.07027 71.0012 9.14368C68.581 9.30337 66.0884 9.52757 63.6682 9.68726C59.2681 10.0007 54.9414 10.3131 50.5413 10.6266C49.3679 10.7059 48.1222 10.8498 46.9488 10.9291C44.1626 11.1573 41.3764 11.3855 38.5912 11.6771C35.072 11.9787 31.4794 12.2813 27.9603 12.5828C23.0485 13.0302 18.0634 13.4786 13.1516 13.926C11.9782 14.0054 10.8058 14.1482 9.55902 14.2286C7.43347 14.4478 5.30793 14.6671 3.18239 14.8863C2.96217 14.8893 2.74412 15.0193 2.74846 15.2734C2.75172 15.464 2.97519 15.6516 3.19541 15.6486C4.00289 15.6377 4.73804 15.6913 5.54552 15.6805C5.40413 16 5.33398 16.1916 5.33724 16.3821C5.34918 17.0809 6.0207 17.7072 6.90158 17.6953C12.9889 17.2956 19.0018 16.8333 25.0902 16.4972C30.3722 16.2354 35.6532 15.9101 40.9352 15.6483C46.73 15.316 52.5982 14.9828 58.3941 14.7141C60.2282 14.6258 62.0623 14.5376 63.8953 14.3858C64.4091 14.3789 64.9219 14.3084 65.5092 14.3005C74.902 13.9833 84.2937 13.6026 93.6865 13.2854C98.676 13.0911 103.739 12.8958 108.73 12.765C110.564 12.6768 112.325 12.653 114.159 12.5648C123.774 12.3081 133.388 12.0515 143.002 11.7949C147.112 11.6759 151.221 11.557 155.331 11.4381C158.853 11.3271 162.377 11.2796 165.898 11.1051C168.833 11.002 171.694 10.8364 174.629 10.7333C176.096 10.65 177.565 10.6302 178.958 10.5479C182.258 10.3128 185.558 10.0777 188.858 9.84263C188.642 10.0997 188.649 10.4808 188.727 10.7339C188.806 11.0505 189.03 11.3016 189.399 11.4237C189.695 11.5468 190.138 11.6679 190.429 11.5369C191.159 11.2729 191.889 11.009 192.545 10.746C192.545 10.746 192.545 10.746 192.472 10.747C192.545 10.746 192.544 10.6825 192.617 10.6815C192.691 10.6805 192.763 10.616 192.763 10.616L192.69 10.617C193.054 10.485 193.419 10.353 193.857 10.1565C194.221 10.0245 194.659 9.828 195.023 9.69601C195.461 9.49951 195.824 9.304 196.262 9.10751C196.699 8.91101 196.984 8.39889 196.976 7.95424C196.972 7.70016 196.895 7.51059 196.744 7.25848C196.593 7.00638 196.22 6.69372 195.852 6.63515C195.484 6.57657 195.116 6.518 194.749 6.52294C194.676 6.52393 194.602 6.52492 194.529 6.52591C194.308 6.52888 194.015 6.53284 193.796 6.59933C193.21 6.67076 192.697 6.74121 192.11 6.74912C191.669 6.75506 191.23 6.82451 190.716 6.83144C189.469 6.91178 188.296 6.99113 187.05 7.13498C186.756 7.13894 186.39 7.20741 186.097 7.21137C186.241 7.08235 186.313 6.95432 186.31 6.82727C186.382 6.69924 186.379 6.5722 186.377 6.44516C186.376 6.38164 186.374 6.2546 186.446 6.19009C186.444 6.06305 186.442 5.93601 186.368 5.87348C186.368 5.87348 186.441 5.87249 186.44 5.80897C186.658 5.67896 186.876 5.54895 187.018 5.29289C187.162 5.10035 187.231 4.84527 187.227 4.59119C187.222 4.33711 187.146 4.14754 186.995 3.89543C186.92 3.8329 186.844 3.70685 186.77 3.64432C186.547 3.45672 186.325 3.39617 186.104 3.33562C185.661 3.21451 185.146 3.15792 184.632 3.16484C184.192 3.17078 183.825 3.17572 183.385 3.18166C182.797 3.18957 182.21 3.19749 181.623 3.2054C180.815 3.21628 179.934 3.22815 179.127 3.23904C176.925 3.26872 174.723 3.29839 172.52 3.32807C170.465 3.35577 168.336 3.38446 166.281 3.41216C164.372 3.43788 162.537 3.46261 160.628 3.48834C153.068 3.59023 145.581 3.75466 138.021 3.92008C132.37 4.05977 126.719 4.19947 121.066 4.27564C118.571 4.30928 116.003 4.40742 113.508 4.50458C107.858 4.70779 102.206 4.84749 96.5562 5.05071C94.9412 5.07247 93.3274 5.15776 91.7124 5.17952C90.7581 5.19238 89.8783 5.26777 88.9241 5.28063C83.3484 5.54638 77.7727 5.81213 72.1971 6.07787C70.5098 6.16415 68.8225 6.25042 67.0618 6.33769C66.1075 6.35055 65.1543 6.42693 64.2011 6.50331C58.6266 6.83258 53.1254 7.16086 47.5508 7.49012C44.6901 7.65575 41.8294 7.82137 38.9698 8.05052C34.0559 8.37088 29.142 8.69124 24.3025 9.07414C20.0493 9.3856 15.7949 9.63354 11.5406 9.88148C10.881 9.95391 10.2204 9.96281 9.48738 10.0362C8.38736 10.1146 7.28625 10.1294 6.18624 10.2078C5.23629 10.4747 4.20859 10.4886 3.2543 10.5014C3.17656 10.2483 2.87967 10.0617 2.66054 10.1282C1.99987 10.1371 1.41371 10.2086 0.754129 10.281C0.461587 10.3485 0.17013 10.4795 0.101065 10.7345C0.0330858 11.0531 0.258734 11.3678 0.553447 11.4273C0.84816 11.4869 1.14287 11.5465 1.43759 11.606C1.7323 11.6656 1.95252 11.6626 2.24615 11.6587C2.9813 11.7123 3.64196 11.7034 4.37603 11.6935ZM176.113 7.34591C176.994 7.33404 177.949 7.32118 178.829 7.3093C178.906 7.49888 179.055 7.62394 179.204 7.749C178.837 7.75395 178.471 7.82242 178.177 7.82637C177.517 7.83528 176.857 7.9077 176.197 7.9166C173.261 8.0197 170.401 8.18532 167.465 8.28841C166.145 8.36974 164.825 8.45107 163.504 8.46887C161.448 8.49657 159.321 8.58878 157.265 8.61648C152.495 8.74431 147.798 8.87114 143.027 8.99897C133.78 9.25066 124.607 9.50136 115.36 9.75305C108.754 9.90561 102.151 10.1852 95.5474 10.4648C85.6418 10.8524 75.6617 11.1775 65.7561 11.5652C63.7752 11.6554 61.7943 11.7456 59.8145 11.8994C54.1665 12.2296 48.5174 12.4964 42.8695 12.8266C37.3683 13.1549 31.7926 13.4207 26.2914 13.7489C25.7776 13.7559 25.2648 13.8263 24.751 13.8332C26.2169 13.6864 27.7574 13.6021 29.2234 13.4553C34.4298 13.0675 39.6352 12.6161 44.8417 12.2282C46.6747 12.0765 48.5077 11.9247 50.2673 11.7739C51.2205 11.6975 52.1737 11.6212 53.0545 11.6093C58.5557 11.281 63.9824 10.8902 69.4102 10.5629C70.4368 10.4855 71.5368 10.4072 72.5634 10.3298C74.1039 10.2455 75.6443 10.1612 77.1125 10.1414C82.6881 9.87568 88.2638 9.60993 93.8395 9.34418C95.0863 9.26384 96.3342 9.24703 97.5076 9.16768C97.8013 9.16372 98.1683 9.15877 98.4619 9.15482C99.3428 9.14295 100.224 9.13107 101.03 9.05667C106.607 8.85444 112.258 8.71475 117.835 8.51252C120.403 8.41438 122.971 8.31623 125.54 8.28161C133.834 8.1063 142.202 7.93 150.495 7.75469C159.157 7.63795 167.672 7.45968 176.113 7.34591Z" fill="#EFC951"/>
<path d="M15.1943 11.9013C15.4162 11.8983 15.5934 11.7361 15.59 11.539C15.5866 11.3419 15.404 11.1846 15.1821 11.1876C14.9602 11.1906 14.783 11.3528 14.7864 11.5498C14.7897 11.7469 14.9724 11.9042 15.1943 11.9013Z" fill="#EFC951"/>
</g>
<defs>
<clipPath id="clip0_3_2567">
<rect width="196.909" height="14.9893" fill="white" transform="matrix(0.999909 -0.0134755 0.017086 0.999854 0 2.65295)"/>
</clipPath>
</defs>
</svg>
