<svg width="18" height="17" viewBox="0 0 18 17" fill="none" xmlns="http://www.w3.org/2000/svg">
<g opacity="0.36">
<path d="M14.3239 16.4166C13.8339 16.7566 13.2046 16.9107 12.3994 16.8883C11.8739 16.8733 11.3448 16.7905 10.8261 16.6419C9.63852 16.3016 8.38317 16.3016 7.19556 16.6419C6.67688 16.7905 6.14754 16.8733 5.62229 16.8883C5.57067 16.8897 5.5196 16.8905 5.46932 16.8905C4.73703 16.8905 4.15633 16.7348 3.69775 16.4166C2.85894 15.8342 2.44158 14.6068 2.7273 13.5609C2.9827 12.6262 3.67072 11.9887 4.3361 11.3722C4.42596 11.2889 4.5191 11.2029 4.60816 11.1185C5.28309 10.4788 5.89957 9.75771 6.44038 8.97572C6.50894 8.87683 6.57776 8.77442 6.64441 8.67528C6.90035 8.29507 7.16501 7.90203 7.49006 7.56878L7.50235 7.55621C7.9003 7.1525 8.43593 6.93018 9.01089 6.93018C9.29849 6.93018 9.57601 6.98562 9.83166 7.09188C10.0871 7.19786 10.3206 7.35437 10.5194 7.55623L10.5317 7.56881C10.8568 7.90203 11.1214 8.2951 11.3774 8.67556C11.444 8.77445 11.5128 8.87686 11.5814 8.97575C12.1222 9.75803 12.7387 10.4788 13.4136 11.1185C13.5026 11.2029 13.5958 11.2889 13.6857 11.3723C14.351 11.9887 15.0391 12.6262 15.2945 13.5609C15.5801 14.6067 15.1627 15.8342 14.3239 16.4166Z" fill="#B699CA"/>
<path d="M17.5559 8.17222C17.194 8.91106 16.6958 9.42102 16.1153 9.64609C15.8851 9.7357 15.6458 9.7802 15.4027 9.7802C15.0755 9.7802 14.7411 9.69908 14.412 9.53792C13.8461 9.26094 13.5112 8.84607 13.4167 8.30469C13.3233 7.76935 13.4629 7.13154 13.8433 6.35475C14.2285 5.56784 14.7057 4.95436 15.2235 4.58073C15.8119 4.15599 16.4114 4.07268 16.9569 4.33954C17.5034 4.60722 17.8626 5.16277 17.968 5.90407C18.0694 6.61644 17.923 7.42218 17.5559 8.17222Z" fill="#B699CA"/>
<path d="M13.9887 3.89842C13.9054 4.78967 13.5959 5.49956 13.0931 5.95162C12.685 6.31871 12.1674 6.50882 11.5843 6.50882C11.4985 6.50882 11.4116 6.50474 11.3234 6.49653C10.6436 6.43317 10.1451 6.14173 9.84189 5.63014C9.54117 5.12238 9.43765 4.41987 9.52505 3.48191C9.56929 3.00639 9.65398 2.56636 9.77524 2.17249C9.89651 1.77862 10.0547 1.43119 10.2461 1.14139C10.6793 0.485034 11.254 0.170647 11.9079 0.231552C12.5643 0.292743 13.1417 0.71828 13.5337 1.42982C13.9117 2.1159 14.0731 2.99267 13.9887 3.89842Z" fill="#B699CA"/>
<path d="M4.17776 6.35553C4.55797 7.13206 4.69756 7.76984 4.60413 8.30518C4.50961 8.84655 4.17476 9.26143 3.60881 9.5384C3.27996 9.69957 2.94537 9.78068 2.61815 9.78068C2.37504 9.78068 2.13605 9.73616 1.90552 9.64658C1.32511 9.42151 0.826889 8.91158 0.464972 8.17271C0.0978832 7.42267 -0.0485352 6.6169 0.0528116 5.90455C0.158245 5.16326 0.517418 4.60768 1.06396 4.34002C1.60943 4.07317 2.20896 4.15648 2.79732 4.58121C3.31517 4.95488 3.79235 5.56833 4.17776 6.35553Z" fill="#B699CA"/>
<path d="M8.49629 3.48194C8.51624 3.69581 8.52632 3.89739 8.52632 4.08748C8.52632 4.73017 8.4116 5.23822 8.17944 5.63017C7.87626 6.14176 7.37778 6.4332 6.69794 6.49656C6.60971 6.50477 6.52285 6.50885 6.43708 6.50885C5.85392 6.50885 5.33633 6.31874 4.92826 5.95165C4.42541 5.49959 4.11594 4.7897 4.03262 3.89844C3.94823 2.99272 4.10965 2.11593 4.48769 1.42982C4.87964 0.718308 5.45705 0.292743 6.11341 0.231552C6.7673 0.170647 7.34197 0.485034 7.7752 1.14139C8.15815 1.72129 8.40752 2.53089 8.49629 3.48194Z" fill="#B699CA"/>
</g>
</svg>
