<svg width="358" height="281" viewBox="0 0 358 281" fill="none" xmlns="http://www.w3.org/2000/svg">
<g clip-path="url(#clip0_3_8708)">
<path d="M825.816 210.124L-71.9805 -13.1513L-92.5295 69.4768L805.267 292.752L825.816 210.124Z" fill="#89CFD6"/>
<path d="M-38.5292 46.181L-36.3662 37.4833L-35.1636 37.7824L-35.4186 38.8079L-35.3157 38.8335C-35.2115 38.7194 -35.0707 38.5926 -34.8932 38.4531C-34.7156 38.3136 -34.4914 38.2091 -34.2204 38.1394C-33.9488 38.067 -33.6166 38.0797 -33.2239 38.1774C-32.7132 38.3044 -32.2896 38.5467 -31.9532 38.9044C-31.6163 39.2622 -31.3948 39.7124 -31.2876 40.255C-31.1779 40.7983 -31.2079 41.4118 -31.3779 42.0954C-31.5479 42.7791 -31.8077 43.3369 -32.1568 43.7689C-32.5058 44.1982 -32.9121 44.4951 -33.3758 44.6596C-33.8388 44.8214 -34.3255 44.8389 -34.8362 44.7118C-35.2204 44.6163 -35.5187 44.4736 -35.731 44.2838C-35.9405 44.0947 -36.0924 43.8966 -36.1866 43.6894C-36.2809 43.4824 -36.3483 43.3023 -36.3891 43.1494L-36.4632 43.1309L-37.2979 46.4873L-38.5292 46.181ZM-35.9461 40.9462C-36.0567 41.391 -36.0891 41.7969 -36.0434 42.1639C-35.9977 42.531 -35.8761 42.8396 -35.6789 43.0898C-35.481 43.3373 -35.2049 43.505 -34.8508 43.5931C-34.4827 43.6847 -34.1512 43.6636 -33.8558 43.5301C-33.5592 43.3939 -33.3061 43.1726 -33.096 42.8663C-32.8826 42.5608 -32.7237 42.1966 -32.6186 41.7738C-32.5148 41.3564 -32.4849 40.966 -32.5284 40.6024C-32.5695 40.2394 -32.6908 39.9308 -32.8928 39.6765C-33.0919 39.4229 -33.3773 39.2499 -33.7478 39.1578C-34.1047 39.069 -34.4295 39.0859 -34.7224 39.2084C-35.0125 39.3316 -35.2617 39.5422 -35.4699 39.8402C-35.6781 40.1383 -35.8368 40.507 -35.9461 40.9462ZM-26.4701 43.8757L-25.5494 40.1734L-24.3143 40.4806L-25.8874 46.8061L-27.0979 46.5051L-26.8254 45.4097L-26.8916 45.3932C-27.1211 45.6947 -27.4244 45.9181 -27.8013 46.0634C-28.1755 46.2065 -28.5999 46.2191 -29.0748 46.1009C-29.4807 46 -29.8185 45.8212 -30.0868 45.565C-30.3524 45.3066 -30.5299 44.9782 -30.6206 44.5796C-30.7079 44.1818 -30.687 43.722 -30.5572 43.2003L-29.5566 39.1768L-28.3254 39.483L-29.2891 43.3583C-29.3963 43.7893 -29.3623 44.1622 -29.1866 44.477C-29.0114 44.7917 -28.733 44.9965 -28.3512 45.0915C-28.1207 45.1488 -27.8769 45.1482 -27.6206 45.0895C-27.361 45.0316 -27.1272 44.9046 -26.918 44.7089C-26.7063 44.5137 -26.5571 44.236 -26.4701 43.8757ZM-25.1708 49.5032L-23.0077 40.8055L-21.805 41.1046L-22.06 42.1301L-21.9571 42.1556C-21.8528 42.0416 -21.712 41.9149 -21.5347 41.7753C-21.3568 41.6359 -21.1328 41.5312 -20.862 41.4615C-20.59 41.3893 -20.2581 41.4019 -19.8652 41.4996C-19.3545 41.6266 -18.9309 41.8689 -18.5945 42.2266C-18.2576 42.5844 -18.0361 43.0346 -17.9289 43.5773C-17.8192 44.1205 -17.8492 44.734 -18.0192 45.4176C-18.1892 46.1013 -18.449 46.6591 -18.7986 47.091C-19.1471 47.5204 -19.5534 47.8173 -20.0171 47.9818C-20.4801 48.1436 -20.9668 48.1611 -21.4775 48.0341C-21.8616 47.9385 -22.1602 47.7958 -22.3721 47.606C-22.5816 47.4169 -22.7335 47.2188 -22.8282 47.0116C-22.9224 46.8045 -22.9895 46.6246 -23.0304 46.4715L-23.1044 46.4532L-23.9391 49.8095L-25.1708 49.5032ZM-22.5872 44.2685C-22.6978 44.7132 -22.7305 45.1191 -22.6848 45.4861C-22.6391 45.8532 -22.5173 46.1619 -22.3204 46.412C-22.1223 46.6595 -21.8464 46.8272 -21.4922 46.9153C-21.124 47.0069 -20.7925 46.9858 -20.4971 46.8523C-20.2005 46.7162 -19.9474 46.4948 -19.7373 46.1885C-19.5243 45.8829 -19.365 45.5188 -19.2599 45.096C-19.1561 44.6786 -19.1262 44.2882 -19.1697 43.9246C-19.2108 43.5616 -19.3321 43.253 -19.5341 42.9987C-19.7337 42.745 -20.0186 42.5721 -20.3892 42.48C-20.7458 42.3913 -21.0707 42.4082 -21.3638 42.5306C-21.6536 42.6538 -21.903 42.8644 -22.111 43.1625C-22.3196 43.4604 -22.478 43.8292 -22.5872 44.2685ZM-18.361 51.1967L-16.1979 42.499L-14.9952 42.7981L-15.2502 43.8236L-15.1473 43.8492C-15.0435 43.735 -14.9027 43.6083 -14.7248 43.4688C-14.5475 43.3293 -14.3229 43.2248 -14.0521 43.1551C-13.7807 43.0827 -13.4483 43.0954 -13.0559 43.193C-12.5452 43.32 -12.1216 43.5624 -11.7847 43.9202C-11.4483 44.2779 -11.2263 44.7281 -11.1195 45.2707C-11.0094 45.814 -11.0398 46.4275 -11.2098 47.1111C-11.3799 47.7947 -11.6392 48.3526 -11.9888 48.7846C-12.3377 49.2138 -12.7436 49.5108 -13.2073 49.6754C-13.6703 49.8372 -14.1569 49.8546 -14.6677 49.7276C-15.0523 49.632 -15.3504 49.4893 -15.5628 49.2995C-15.7723 49.1104 -15.9241 48.9123 -16.0184 48.7051C-16.1126 48.4981 -16.1802 48.318 -16.2206 48.1651L-16.295 48.1466L-17.1297 51.5029L-18.361 51.1967ZM-15.7779 45.9619C-15.8885 46.4067 -15.9207 46.8126 -15.875 47.1797C-15.8293 47.5467 -15.708 47.8553 -15.5106 48.1056C-15.313 48.3529 -15.0366 48.5208 -14.6824 48.6089C-14.3147 48.7003 -13.9832 48.6793 -13.6873 48.5459C-13.3912 48.4096 -13.1376 48.1884 -12.9275 47.8821C-12.7145 47.5765 -12.5557 47.2122 -12.4505 46.7894C-12.3468 46.3721 -12.3164 45.9817 -12.3604 45.618C-12.401 45.2552 -12.5228 44.9464 -12.7248 44.6921C-12.9239 44.4386 -13.2088 44.2657 -13.5794 44.1735C-13.9365 44.0847 -14.2614 44.1016 -14.554 44.2241C-14.8443 44.3472 -15.0932 44.5579 -15.3017 44.8559C-15.5098 45.154 -15.6687 45.5226 -15.7779 45.9619ZM-10.9617 50.5181L-9.38856 44.1925L-8.15687 44.4988L-9.73 50.8244L-10.9617 50.5181ZM-8.52395 43.3711C-8.73801 43.3179 -8.90388 43.2008 -9.02251 43.0197C-9.13709 42.8367 -9.16946 42.645 -9.11961 42.4446C-9.06908 42.2414 -8.95069 42.0872 -8.76442 41.9819C-8.5741 41.8748 -8.37238 41.8477 -8.15832 41.9009C-7.94378 41.9543 -7.77971 42.0723 -7.66465 42.2554C-7.5465 42.4364 -7.51267 42.6285 -7.5632 42.8317C-7.61305 43.0321 -7.73289 43.1859 -7.92273 43.2932C-8.10949 43.3984 -8.30941 43.4245 -8.52395 43.3711ZM-5.72699 51.9555C-6.35032 51.8004 -6.85357 51.5339 -7.23768 51.1556C-7.61822 50.7753 -7.87032 50.3117 -7.99397 49.765C-8.11403 49.2162 -8.09247 48.6137 -7.92929 47.9575C-7.76815 47.3096 -7.50533 46.7686 -7.14082 46.3345C-6.77342 45.9011 -6.33731 45.5999 -5.83154 45.4313C-5.32334 45.2632 -4.7757 45.2522 -4.18812 45.3984C-3.83103 45.4872 -3.49973 45.6322 -3.19422 45.8335C-2.88874 46.0349 -2.63427 46.295 -2.43083 46.6137C-2.2274 46.9325 -2.0988 47.3129 -2.0455 47.7547C-1.99154 48.1938 -2.03542 48.7003 -2.17812 49.2741L-2.28668 49.7106L-7.3154 48.46L-7.08598 47.5375L-3.26431 48.488C-3.18375 48.164 -3.17811 47.8608 -3.2479 47.5781C-3.3165 47.2928 -3.45255 47.0476 -3.65508 46.8428C-3.85517 46.6385 -4.11444 46.4968 -4.43288 46.4176C-4.77885 46.3316 -5.10201 46.3415 -5.40238 46.4476C-5.69917 46.5516 -5.95142 46.7221 -6.15914 46.9591C-6.36328 47.194 -6.50461 47.4693 -6.58314 47.7851L-6.76236 48.5057C-6.86751 48.9285 -6.88304 49.3066 -6.80843 49.64C-6.73141 49.974 -6.57755 50.2528 -6.34731 50.4762C-6.11641 50.6969 -5.82144 50.8519 -5.46145 50.9414C-5.22807 50.9994 -5.00726 51.0194 -4.79857 51.0013C-4.58966 50.9804 -4.39817 50.9201 -4.22459 50.8205C-4.051 50.7208 -3.90289 50.5812 -3.77932 50.402L-2.66607 50.9019C-2.84516 51.2218 -3.08711 51.4809 -3.3929 51.6789C-3.6951 51.8748 -4.04564 51.999 -4.44355 52.0517C-4.83787 52.1022 -5.26553 52.0702 -5.72699 51.9555ZM3.96636 49.1536L2.801 49.0737C2.78962 48.9193 2.74949 48.765 2.68011 48.6107C2.61315 48.457 2.50509 48.3179 2.35549 48.1932C2.2054 48.0685 2.00304 47.9744 1.74743 47.9108C1.39904 47.8242 1.08868 47.8301 0.816378 47.9285C0.544755 48.0243 0.378304 48.1943 0.317547 48.4386C0.264972 48.65 0.300921 48.8397 0.425383 49.0077C0.549856 49.1756 0.776288 49.3441 1.10419 49.5132L2.0519 49.9938C2.60022 50.273 2.98259 50.5882 3.19852 50.9392C3.41445 51.2903 3.46653 51.6895 3.35524 52.137C3.26102 52.5159 3.06735 52.8263 2.77375 53.0681C2.48421 53.3081 2.12342 53.4632 1.69182 53.5337C1.26312 53.6049 0.793393 53.577 0.282645 53.45C-0.425735 53.2738 -0.966095 52.9791 -1.33843 52.5658C-1.71009 52.1498 -1.87703 51.6492 -1.83969 51.0637L-0.604497 51.1785C-0.60723 51.5072 -0.513403 51.7798 -0.32204 51.9965C-0.130461 52.2103 0.150643 52.3633 0.521259 52.4555C0.924737 52.5558 1.26833 52.5524 1.55158 52.445C1.83552 52.3348 2.00787 52.1576 2.06864 51.9132C2.1178 51.7156 2.0847 51.531 1.97029 51.3597C1.85782 51.1889 1.65937 51.0316 1.37443 50.8879L0.362022 50.3868C-0.194519 50.1056 -0.578081 49.7828 -0.787702 49.4188C-0.994416 49.0554 -1.04203 48.6485 -0.930053 48.1983C-0.837197 47.8249 -0.651563 47.5241 -0.37318 47.296C-0.0952695 47.0677 0.247488 46.9212 0.654116 46.8562C1.06193 46.7885 1.50307 46.8137 1.97806 46.9318C2.6618 47.1019 3.16274 47.3839 3.48185 47.7781C3.80115 48.1694 3.96266 48.6279 3.96636 49.1536Z" fill="black"/>
<path d="M38.7077 67.2051C38.0911 67.4397 37.3745 67.437 36.5166 67.1979C35.9566 67.0418 35.411 66.8116 34.8945 66.5139C33.7106 65.8316 32.3634 65.4965 30.9984 65.5449C30.4021 65.566 29.8122 65.5137 29.2443 65.3894C29.1889 65.3771 29.1335 65.3644 29.0799 65.3511C28.2937 65.1555 27.7125 64.8335 27.305 64.3694C26.5607 63.5208 26.4403 62.0924 27.0257 61.0463C27.5491 60.1115 28.4576 59.611 29.3363 59.1271C29.4552 59.0617 29.5777 58.9942 29.6959 58.9274C30.5909 58.4211 31.4449 57.8118 32.2339 57.117C32.3337 57.0292 32.435 56.9377 32.5329 56.8491C32.9093 56.5095 33.2979 56.1582 33.7357 55.8874L33.7521 55.8772C34.287 55.5502 34.9213 55.4546 35.5379 55.608C35.8467 55.6847 36.1295 55.8183 36.3756 56.0005C36.6213 56.1824 36.8303 56.4127 36.9896 56.6823L36.9997 56.6992C37.2597 57.1435 37.4384 57.6358 37.6118 58.1125C37.657 58.2364 37.7036 58.3647 37.7506 58.4891C38.1222 59.4728 38.5913 60.4108 39.145 61.2774C39.2176 61.3916 39.2947 61.5088 39.3691 61.6222C39.9183 62.4612 40.4865 63.3289 40.5115 64.4002C40.5388 65.5986 39.7633 66.8042 38.7077 67.2051Z" fill="black"/>
<path d="M44.3765 59.2199C43.7913 59.9162 43.1203 60.3304 42.4374 60.417C42.1665 60.4517 41.8981 60.4357 41.6371 60.3708C41.2859 60.2834 40.949 60.1072 40.6387 59.8464C40.1053 59.3982 39.8565 58.8636 39.9 58.2575C39.9423 57.6581 40.2623 57.0109 40.8779 56.2789C41.5011 55.5373 42.177 55.0063 42.8324 54.7436C43.5773 54.4449 44.2426 54.5154 44.7566 54.9473C45.2718 55.3804 45.5091 56.0725 45.4244 56.896C45.343 57.6875 44.9709 58.5131 44.3765 59.2199Z" fill="black"/>
<path d="M41.6892 53.683C41.362 54.6171 40.8406 55.2964 40.1802 55.6472C39.6445 55.9322 39.038 55.9981 38.4123 55.8424C38.3205 55.8196 38.2283 55.792 38.1358 55.7597C37.4231 55.5102 36.9659 55.0645 36.7772 54.4346C36.59 53.8095 36.6663 53.028 37.0104 52.0448C37.1851 51.5464 37.3934 51.0969 37.6285 50.7066C37.8635 50.3162 38.1259 49.9856 38.4091 49.7258C39.0491 49.1371 39.7495 48.953 40.4349 49.1929C41.1231 49.4338 41.629 50.0445 41.8595 50.9125C42.0823 51.7497 42.0213 52.7336 41.6892 53.683Z" fill="black"/>
<path d="M30.5066 53.7008C30.7072 54.6355 30.6868 55.3571 30.4439 55.9067C30.1979 56.4624 29.7277 56.8182 29.0464 56.9643C28.6506 57.0496 28.27 57.0474 27.9187 56.96C27.6578 56.8951 27.4135 56.7836 27.19 56.626C26.6273 56.2295 26.2284 55.5493 26.0376 54.66C25.8434 53.7571 25.9014 52.8534 26.2003 52.116C26.5112 51.3487 27.045 50.8484 27.7031 50.7071C28.3594 50.5663 28.9808 50.8157 29.4985 51.4284C29.9545 51.9676 30.303 52.7532 30.5066 53.7008Z" fill="black"/>
<path d="M35.9007 51.7717C35.8654 52.0066 35.8223 52.2256 35.7715 52.4295C35.6 53.1192 35.3412 53.6337 34.9878 53.9924C34.5256 54.4604 33.9129 54.6401 33.1668 54.5268C33.0699 54.512 32.9756 54.4932 32.8833 54.4702C32.2575 54.3146 31.7531 53.9725 31.4132 53.4698C30.9941 52.8504 30.8516 52.0062 31.0001 51.0275C31.1509 50.0331 31.5584 49.1353 32.1469 48.4999C32.7576 47.8411 33.4907 47.5385 34.2115 47.648C34.9294 47.7571 35.4621 48.2479 35.7517 49.0678C36.0077 49.7922 36.0594 50.7275 35.9007 51.7717Z" fill="black"/>
<path d="M49.3887 68.0433L51.5518 59.3456L52.7545 59.6447L52.4995 60.6702L52.6024 60.6958C52.7067 60.5818 52.8475 60.455 53.0249 60.3154C53.2027 60.176 53.4267 60.0714 53.6975 60.0017C53.9695 59.9294 54.3014 59.942 54.6943 60.0397C55.2045 60.1666 55.6286 60.4091 55.965 60.7668C56.3019 61.1246 56.5234 61.5747 56.6306 62.1174C56.7403 62.6606 56.7103 63.2742 56.5403 63.9578C56.3703 64.6414 56.1105 65.1992 55.7609 65.6312C55.4125 66.0605 55.0061 66.3574 54.5424 66.522C54.0794 66.6838 53.5928 66.7012 53.082 66.5742C52.6979 66.4787 52.3993 66.3359 52.1869 66.1461C51.9774 65.957 51.8256 65.7589 51.7313 65.5517C51.6371 65.3447 51.5695 65.1646 51.5291 65.0117L51.4551 64.9933L50.6204 68.3497L49.3887 68.0433ZM51.9718 62.8085C51.8612 63.2533 51.829 63.6592 51.8747 64.0263C51.9204 64.3933 52.0417 64.7019 52.2391 64.9522C52.4372 65.1996 52.7131 65.3674 53.0673 65.4554C53.435 65.5469 53.767 65.526 54.0624 65.3925C54.359 65.2563 54.6121 65.035 54.8222 64.7287C55.0352 64.4231 55.1945 64.0589 55.2996 63.6361C55.4034 63.2188 55.4333 62.8283 55.3898 62.4648C55.3487 62.1018 55.2274 61.7932 55.0254 61.5389C54.8258 61.2852 54.5409 61.1123 54.1703 61.0201C53.8132 60.9313 53.4883 60.9482 53.1957 61.0707C52.9054 61.1938 52.6565 61.4045 52.4485 61.7026C52.2399 62.0006 52.081 62.3692 51.9718 62.8085ZM61.4476 65.7379L62.3684 62.0356L63.6039 62.3429L62.0308 68.6685L60.8204 68.3675L61.0928 67.2721L61.0266 67.2556C60.7972 67.5571 60.4938 67.7805 60.1165 67.9257C59.7427 68.0689 59.3184 68.0814 58.8434 67.9633C58.437 67.8622 58.0997 67.6836 57.8309 67.4273C57.5658 67.1689 57.3883 66.8405 57.2976 66.4419C57.2103 66.0441 57.2313 65.5844 57.361 65.0627L58.3616 61.0392L59.5928 61.3454L58.6291 65.2206C58.5219 65.6517 58.5559 66.0246 58.7316 66.3394C58.9068 66.6541 59.1852 66.8589 59.567 66.9538C59.7975 67.0111 60.0408 67.0104 60.2976 66.9518C60.5568 66.8939 60.791 66.767 61.0003 66.5713C61.212 66.3761 61.3611 66.0983 61.4476 65.7379ZM62.7474 71.3656L64.9105 62.6679L66.1132 62.967L65.8582 63.9924L65.9611 64.018C66.0654 63.904 66.2062 63.7772 66.3836 63.6376C66.5614 63.4982 66.7854 63.3936 67.0562 63.3239C67.3282 63.2516 67.6601 63.2642 68.0525 63.3618C68.5632 63.4888 68.9868 63.7312 69.3237 64.089C69.6606 64.4468 69.8821 64.8969 69.9893 65.4396C70.099 65.9829 70.069 66.5964 69.899 67.28C69.729 67.9636 69.4692 68.5214 69.1196 68.9534C68.7712 69.3827 68.3648 69.6797 67.9011 69.8442C67.4381 70.006 66.9515 70.0234 66.4407 69.8964C66.0566 69.8009 65.758 69.6582 65.5456 69.4683C65.3361 69.2792 65.1843 69.0811 65.09 68.874C64.9958 68.6669 64.9282 68.4868 64.8878 68.3339L64.8138 68.3155L63.9791 71.6719L62.7474 71.3656ZM65.3305 66.1307C65.2199 66.5755 65.1877 66.9814 65.2334 67.3485C65.2791 67.7155 65.4004 68.0241 65.5978 68.2744C65.7959 68.5218 66.0718 68.6896 66.426 68.7777C66.7937 68.8691 67.1257 68.8482 67.4211 68.7147C67.7172 68.5784 67.9708 68.3572 68.1809 68.0509C68.3939 67.7453 68.5532 67.3812 68.6583 66.9584C68.7621 66.541 68.792 66.1505 68.7485 65.787C68.7074 65.424 68.5861 65.1154 68.3841 64.8611C68.1845 64.6074 67.8996 64.4345 67.529 64.3423C67.1719 64.2535 66.847 64.2704 66.5544 64.393C66.2641 64.5161 66.0152 64.7268 65.8067 65.0247C65.5986 65.3228 65.4397 65.6915 65.3305 66.1307ZM69.5573 73.0591L71.7203 64.3614L72.9225 64.6604L72.6675 65.6859L72.7704 65.7114C72.8747 65.5974 73.0155 65.4707 73.1934 65.3312C73.3707 65.1917 73.5948 65.087 73.8661 65.0175C74.1375 64.9451 74.4695 64.9577 74.8623 65.0554C75.373 65.1824 75.7966 65.4247 76.1335 65.7825C76.4699 66.1402 76.692 66.5905 76.7987 67.1331C76.9088 67.6764 76.8784 68.2898 76.7084 68.9734C76.5384 69.6571 76.2785 70.2149 75.9294 70.6469C75.5805 71.0762 75.1742 71.3731 74.711 71.5377C74.2479 71.6995 73.7608 71.7169 73.2505 71.59C72.8659 71.4943 72.5679 71.3517 72.3555 71.1618C72.1459 70.9727 71.9941 70.7746 71.8999 70.5675C71.8056 70.3604 71.7381 70.1804 71.6971 70.0273L71.6232 70.009L70.7885 73.3653L69.5573 73.0591ZM72.1403 67.8243C72.0297 68.269 71.997 68.6749 72.0427 69.0419C72.0889 69.4091 72.2103 69.7177 72.4076 69.9679C72.6052 70.2153 72.8816 70.3831 73.2358 70.4712C73.6035 70.5627 73.9351 70.5416 74.2309 70.4082C74.527 70.272 74.7801 70.0506 74.9907 69.7445C75.2037 69.4388 75.3625 69.0746 75.4677 68.6518C75.5715 68.2344 75.6018 67.8441 75.5578 67.4804C75.5172 67.1176 75.3955 66.8088 75.1934 66.5545C74.9943 66.3009 74.7094 66.128 74.3388 66.0359C73.9817 65.9471 73.6569 65.964 73.3642 66.0865C73.074 66.2096 72.8246 66.4202 72.6165 66.7183C72.4085 67.0164 72.2496 67.385 72.1403 67.8243ZM76.9565 72.3804L78.5296 66.0548L79.7613 66.3612L78.1882 72.6867L76.9565 72.3804ZM79.3943 65.2335C79.1802 65.1802 79.0139 65.0631 78.8957 64.8821C78.7811 64.6991 78.7483 64.5073 78.7981 64.3069C78.8487 64.1037 78.9675 63.9496 79.1538 63.8443C79.3436 63.737 79.5458 63.71 79.7599 63.7633C79.974 63.8165 80.1385 63.9347 80.2536 64.1178C80.3717 64.2988 80.4055 64.4909 80.355 64.694C80.3052 64.8945 80.1853 65.0483 79.9955 65.1556C79.8087 65.2608 79.6083 65.2867 79.3943 65.2335ZM82.1912 73.8178C81.5679 73.6628 81.0642 73.3962 80.68 73.0178C80.2995 72.6375 80.0474 72.174 79.9242 71.6273C79.8042 71.0785 79.8257 70.476 79.9889 69.8199C80.1501 69.172 80.4129 68.631 80.7774 68.1968C81.1443 67.7633 81.5809 67.4623 82.0862 67.2936C82.5944 67.1255 83.1425 67.1146 83.7301 67.2607C84.0872 67.3495 84.418 67.4944 84.724 67.6959C85.0295 67.8973 85.2839 68.1573 85.4874 68.4761C85.6908 68.7949 85.8194 69.1753 85.8727 69.6171C85.9267 70.0561 85.8823 70.5625 85.7396 71.1364L85.631 71.5729L80.6028 70.3224L80.8322 69.3999L84.6539 70.3503C84.7345 70.0264 84.7401 69.7231 84.6703 69.4405C84.6012 69.1551 84.4657 68.91 84.2631 68.7052C84.063 68.5009 83.8038 68.3592 83.4853 68.28C83.1394 68.1939 82.8162 68.2039 82.5158 68.31C82.219 68.414 81.9663 68.5843 81.7591 68.8214C81.5549 69.0563 81.4136 69.3317 81.3351 69.6474L81.1558 70.3681C81.0507 70.7909 81.0352 71.169 81.1098 71.5024C81.1868 71.8364 81.3407 72.1152 81.5709 72.3386C81.8018 72.5592 82.0968 72.7142 82.4563 72.8036C82.6897 72.8617 82.911 72.8817 83.1192 72.8636C83.3286 72.8427 83.52 72.7825 83.6936 72.6828C83.8667 72.583 84.0153 72.4436 84.1384 72.2643L85.2517 72.7642C85.0731 73.0842 84.8311 73.3432 84.5253 73.5412C84.2226 73.7371 83.8726 73.8614 83.4747 73.914C83.0803 73.9646 82.6522 73.9325 82.1912 73.8178ZM91.8841 71.0158L90.7192 70.936C90.7078 70.7816 90.6677 70.6273 90.5983 70.4731C90.5314 70.3194 90.4233 70.1803 90.2732 70.0555C90.1236 69.9309 89.9213 69.8368 89.6656 69.7732C89.3172 69.6865 89.0064 69.6924 88.7341 69.7908C88.463 69.8866 88.2965 70.0566 88.2358 70.3009C88.1832 70.5123 88.2191 70.702 88.3436 70.87C88.4681 71.038 88.694 71.2064 89.0224 71.3755L89.9701 71.8561C90.5184 72.1353 90.9008 72.4505 91.1167 72.8016C91.3327 73.1527 91.3847 73.5519 91.2735 73.9994C91.1792 74.3783 90.9856 74.6887 90.692 74.9305C90.4019 75.1703 90.0416 75.3256 89.61 75.3961C89.1813 75.4673 88.7116 75.4394 88.2009 75.3124C87.4925 75.1362 86.9521 74.8415 86.5798 74.4282C86.2081 74.0122 86.0407 73.5114 86.0785 72.9261L87.3137 73.0409C87.311 73.3696 87.4048 73.6422 87.5957 73.8588C87.7878 74.0727 88.0688 74.2257 88.4395 74.3178C88.8429 74.4182 89.1865 74.4148 89.4698 74.3074C89.7537 74.1972 89.9261 74.02 89.9869 73.7756C90.036 73.5779 90.0029 73.3933 89.888 73.2219C89.776 73.0512 89.5776 72.894 89.2926 72.7503L88.2802 72.2492C87.7237 71.968 87.3401 71.6452 87.1305 71.2811C86.9238 70.9178 86.8762 70.5109 86.9882 70.0606C87.081 69.6873 87.2666 69.3865 87.5445 69.1583C87.8229 68.9301 88.1657 68.7836 88.5723 68.7186C88.9801 68.6509 89.4213 68.6761 89.8963 68.7942C90.5795 68.9641 91.081 69.2462 91.4001 69.6404C91.7194 70.0318 91.8809 70.4903 91.8841 71.0158Z" fill="black"/>
<path d="M126.618 89.0655C126.001 89.3001 125.285 89.2973 124.427 89.0583C123.867 88.9021 123.321 88.672 122.804 88.3741C121.621 87.6919 120.274 87.3569 118.909 87.4053C118.312 87.4263 117.722 87.3739 117.155 87.2497C117.099 87.2374 117.044 87.2248 116.99 87.2113C116.204 87.0159 115.623 86.6938 115.215 86.2297C114.47 85.3811 114.35 83.9528 114.936 82.9067C115.459 81.9719 116.368 81.4714 117.247 80.9875C117.365 80.922 117.488 80.8545 117.606 80.7878C118.501 80.2815 119.355 79.6722 120.144 78.9774C120.244 78.8896 120.345 78.7981 120.443 78.7094C120.819 78.3697 121.208 78.0186 121.646 77.7478L121.662 77.7376C122.197 77.4106 122.831 77.3149 123.448 77.4683C123.757 77.5451 124.04 77.6787 124.286 77.8609C124.532 78.0428 124.741 78.2731 124.9 78.5427L124.91 78.5595C125.169 79.0037 125.349 79.4962 125.522 79.9727C125.567 80.0966 125.613 80.2249 125.661 80.3494C126.032 81.3332 126.502 82.2712 127.055 83.1376C127.128 83.252 127.205 83.3691 127.279 83.4826C127.828 84.3216 128.397 85.1893 128.421 86.2604C128.449 87.4589 127.674 88.6646 126.618 89.0655Z" fill="black"/>
<path d="M132.283 81.0843C131.698 81.7806 131.027 82.1948 130.344 82.2814C130.073 82.3162 129.805 82.3001 129.544 82.2352C129.192 82.1478 128.855 81.9717 128.545 81.7109C128.012 81.2626 127.763 80.728 127.806 80.1218C127.849 79.5225 128.169 78.8754 128.784 78.1434C129.408 77.4017 130.083 76.8708 130.739 76.608C131.483 76.3092 132.149 76.3799 132.663 76.8117C133.178 77.2449 133.415 77.9368 133.331 78.7605C133.249 79.552 132.877 80.3774 132.283 81.0843Z" fill="black"/>
<path d="M129.603 75.5443C129.276 76.4785 128.754 77.1576 128.094 77.5085C127.558 77.7935 126.952 77.8594 126.326 77.7038C126.235 77.6809 126.142 77.6534 126.05 77.621C125.337 77.3716 124.88 76.9258 124.691 76.296C124.504 75.6708 124.58 74.8893 124.924 73.9061C125.099 73.4076 125.307 72.9581 125.543 72.5679C125.778 72.1775 126.04 71.8469 126.323 71.587C126.963 70.9983 127.664 70.8144 128.349 71.0542C129.037 71.295 129.543 71.9058 129.774 72.7739C129.996 73.611 129.935 74.5949 129.603 75.5443Z" fill="black"/>
<path d="M118.405 75.564C118.606 76.4988 118.585 77.2204 118.342 77.7699C118.096 78.3256 117.626 78.6815 116.945 78.8276C116.549 78.9128 116.168 78.9106 115.817 78.8233C115.556 78.7584 115.312 78.6468 115.088 78.4891C114.526 78.0928 114.127 77.4126 113.936 76.5231C113.742 75.6204 113.8 74.7167 114.099 73.9793C114.41 73.2119 114.943 72.7117 115.601 72.5704C116.258 72.4296 116.879 72.6789 117.397 73.2917C117.853 73.8309 118.201 74.6165 118.405 75.564Z" fill="black"/>
<path d="M123.811 73.6343C123.775 73.8691 123.733 74.0882 123.682 74.2921C123.51 74.9818 123.252 75.4963 122.898 75.8549C122.436 76.323 121.823 76.5027 121.077 76.3892C120.98 76.3745 120.886 76.3558 120.794 76.3328C120.168 76.1772 119.664 75.8351 119.323 75.3322C118.905 74.713 118.762 73.8686 118.91 72.89C119.061 71.8956 119.469 70.9979 120.057 70.3625C120.668 69.7035 121.401 69.4011 122.121 69.5105C122.839 69.6196 123.372 70.1104 123.662 70.9304C123.918 71.6548 123.97 72.5901 123.811 73.6343Z" fill="black"/>
<path d="M137.291 89.9027L139.454 81.205L140.657 81.5041L140.402 82.5296L140.505 82.5552C140.609 82.4411 140.75 82.3144 140.927 82.1748C141.105 82.0353 141.329 81.9308 141.6 81.8611C141.871 81.7887 142.204 81.8014 142.596 81.899C143.107 82.026 143.53 82.2683 143.867 82.6262C144.204 82.9839 144.426 83.4341 144.533 83.9768C144.643 84.52 144.612 85.1334 144.442 85.817C144.272 86.5007 144.013 87.0586 143.663 87.4906C143.314 87.9198 142.908 88.2168 142.445 88.3813C141.982 88.5432 141.495 88.5606 140.984 88.4336C140.6 88.3379 140.302 88.1953 140.089 88.0054C139.88 87.8163 139.728 87.6182 139.634 87.4111C139.539 87.2041 139.472 87.024 139.431 86.8711L139.357 86.8526L138.522 90.2089L137.291 89.9027ZM139.874 84.6679C139.764 85.1126 139.731 85.5186 139.777 85.8856C139.823 86.2527 139.944 86.5613 140.141 86.8115C140.34 87.059 140.615 87.2267 140.97 87.3148C141.337 87.4063 141.669 87.3854 141.965 87.2518C142.261 87.1156 142.514 86.8944 142.725 86.5881C142.938 86.2824 143.097 85.9183 143.202 85.4955C143.306 85.0782 143.336 84.6877 143.292 84.3241C143.251 83.9612 143.13 83.6525 142.927 83.3981C142.728 83.1445 142.443 82.9717 142.073 82.8795C141.716 82.7907 141.391 82.8076 141.098 82.9301C140.808 83.0532 140.559 83.2639 140.35 83.5619C140.142 83.86 139.983 84.2286 139.874 84.6679ZM149.35 87.5973L150.271 83.895L151.506 84.2023L149.933 90.5279L148.722 90.2267L148.995 89.1313L148.929 89.115C148.7 89.4165 148.396 89.6398 148.019 89.7851C147.645 89.9283 147.221 89.9408 146.746 89.8227C146.339 89.7216 146.002 89.543 145.733 89.2866C145.468 89.0283 145.29 88.6998 145.2 88.3013C145.112 87.9034 145.134 87.4437 145.263 86.9221L146.264 82.8986L147.495 83.2048L146.531 87.08C146.424 87.511 146.458 87.8839 146.633 88.1986C146.809 88.5134 147.088 88.7183 147.469 88.8131C147.7 88.8705 147.943 88.8698 148.2 88.8112C148.459 88.7532 148.693 88.6264 148.902 88.4305C149.114 88.2355 149.263 87.9577 149.35 87.5973ZM150.65 93.2249L152.813 84.5272L154.016 84.8263L153.761 85.8518L153.863 85.8774C153.967 85.7632 154.109 85.6366 154.286 85.497C154.463 85.3575 154.688 85.253 154.959 85.1833C155.23 85.1109 155.562 85.1236 155.955 85.2212C156.466 85.3482 156.889 85.5905 157.226 85.9484C157.562 86.3061 157.784 86.7563 157.891 87.2989C158.001 87.8422 157.971 88.4557 157.801 89.1392C157.631 89.8229 157.372 90.3808 157.022 90.8128C156.673 91.242 156.267 91.539 155.803 91.7035C155.34 91.8654 154.854 91.8828 154.343 91.7558C153.958 91.6601 153.66 91.5175 153.448 91.3277C153.238 91.1386 153.087 90.9405 152.992 90.7333C152.898 90.5263 152.831 90.3462 152.79 90.1933L152.716 90.1748L151.881 93.5311L150.65 93.2249ZM153.233 87.9901C153.122 88.4349 153.09 88.8408 153.136 89.2079C153.181 89.5749 153.303 89.8835 153.5 90.1337C153.698 90.3812 153.974 90.549 154.328 90.637C154.696 90.7285 155.028 90.7076 155.323 90.5741C155.62 90.4378 155.873 90.2166 156.083 89.9103C156.296 89.6047 156.456 89.2405 156.561 88.8177C156.664 88.4004 156.694 88.0099 156.65 87.6462C156.61 87.2834 156.488 86.9746 156.286 86.7203C156.087 86.4668 155.802 86.2939 155.431 86.2017C155.074 86.1129 154.749 86.1298 154.457 86.2523C154.166 86.3754 153.918 86.5861 153.709 86.8841C153.501 87.1822 153.342 87.5508 153.233 87.9901ZM157.46 94.9185L159.623 86.2208L160.825 86.5198L160.57 87.5452L160.673 87.5708C160.777 87.4568 160.918 87.33 161.095 87.1904C161.273 87.051 161.497 86.9464 161.768 86.8768C162.04 86.8044 162.372 86.817 162.765 86.9147C163.275 87.0418 163.699 87.2841 164.035 87.6418C164.372 87.9996 164.594 88.4497 164.701 88.9924C164.811 89.5357 164.781 90.1492 164.611 90.8328C164.441 91.5164 164.181 92.0743 163.832 92.5063C163.483 92.9356 163.077 93.2325 162.613 93.397C162.15 93.5588 161.663 93.5763 161.152 93.4492C160.768 93.3537 160.47 93.211 160.258 93.0212C160.048 92.8321 159.896 92.634 159.802 92.4268C159.708 92.2197 159.64 92.0397 159.599 91.8867L159.526 91.8683L158.691 95.2247L157.46 94.9185ZM160.043 89.6837C159.932 90.1284 159.899 90.5342 159.945 90.9013C159.991 91.2683 160.113 91.577 160.309 91.8272C160.508 92.0746 160.783 92.2424 161.138 92.3305C161.506 92.422 161.837 92.401 162.133 92.2675C162.429 92.1313 162.682 91.91 162.893 91.6037C163.106 91.2982 163.265 90.934 163.37 90.5112C163.474 90.0938 163.504 89.7033 163.46 89.3398C163.419 88.9768 163.298 88.6682 163.096 88.4139C162.897 88.1603 162.611 87.9873 162.241 87.8951C161.884 87.8064 161.559 87.8233 161.266 87.9458C160.976 88.069 160.727 88.2796 160.519 88.5777C160.31 88.8756 160.152 89.2444 160.043 89.6837ZM164.859 94.2398L166.432 87.9142L167.663 88.2204L166.09 94.546L164.859 94.2398ZM167.297 87.0928C167.083 87.0396 166.916 86.9225 166.798 86.7415C166.683 86.5583 166.651 86.3667 166.7 86.1662C166.751 85.963 166.869 85.8088 167.056 85.7037C167.246 85.5964 167.448 85.5694 167.662 85.6226C167.876 85.6759 168.041 85.7941 168.155 85.9771C168.274 86.1582 168.308 86.3502 168.257 86.5534C168.208 86.7538 168.088 86.9077 167.897 87.0148C167.711 87.1201 167.511 87.1461 167.297 87.0928ZM170.094 95.6772C169.47 95.5222 168.967 95.2556 168.582 94.8772C168.202 94.4969 167.95 94.0334 167.827 93.4867C167.707 92.9379 167.728 92.3354 167.891 91.6793C168.052 91.0313 168.315 90.4903 168.68 90.0562C169.047 89.6227 169.483 89.3217 169.989 89.1529C170.497 88.9849 171.045 88.974 171.632 89.1201C171.989 89.2088 172.32 89.3538 172.626 89.5551C172.932 89.7566 173.186 90.0167 173.39 90.3355C173.593 90.6543 173.722 91.0346 173.775 91.4764C173.829 91.9155 173.785 92.4219 173.642 92.9957L173.533 93.4323L168.505 92.1818L168.735 91.2593L172.556 92.2097C172.637 91.8858 172.642 91.5825 172.573 91.2999C172.504 91.0144 172.368 90.7694 172.165 90.5644C171.965 90.3602 171.706 90.2185 171.388 90.1393C171.042 90.0533 170.719 90.0633 170.418 90.1693C170.121 90.2732 169.869 90.4437 169.661 90.6807C169.457 90.9156 169.315 91.1909 169.237 91.5067L169.058 92.2273C168.953 92.6502 168.938 93.0284 169.012 93.3617C169.089 93.6957 169.243 93.9745 169.473 94.1978C169.704 94.4185 169.999 94.5736 170.359 94.663C170.592 94.7211 170.813 94.741 171.022 94.7229C171.231 94.7021 171.422 94.6419 171.595 94.5421C171.769 94.4424 171.918 94.303 172.041 94.1237L173.154 94.6236C172.975 94.9435 172.733 95.2025 172.427 95.4005C172.125 95.5964 171.775 95.7207 171.377 95.7734C170.983 95.824 170.555 95.7918 170.094 95.6772ZM179.786 92.8752L178.622 92.7954C178.61 92.641 178.57 92.4867 178.5 92.3323C178.434 92.1788 178.325 92.0396 178.176 91.9149C178.026 91.7902 177.823 91.696 177.568 91.6326C177.219 91.5458 176.909 91.5517 176.636 91.6502C176.365 91.7459 176.199 91.916 176.138 92.1603C176.086 92.3717 176.121 92.5614 176.246 92.7294C176.37 92.8972 176.596 93.0658 176.925 93.2349L177.872 93.7154C178.421 93.9947 178.803 94.3099 179.019 94.6608C179.235 95.0119 179.287 95.4112 179.176 95.8587C179.082 96.2376 178.888 96.5481 178.594 96.7899C178.304 97.0297 177.943 97.1848 177.512 97.2554C177.083 97.3265 176.613 97.2987 176.103 97.1718C175.395 96.9956 174.854 96.7009 174.482 96.2876C174.11 95.8714 173.943 95.3708 173.981 94.7855L175.216 94.9003C175.213 95.2289 175.307 95.5016 175.498 95.7182C175.69 95.9319 175.971 96.0849 176.342 96.1772C176.745 96.2776 177.088 96.274 177.372 96.1666C177.656 96.0565 177.828 95.8792 177.889 95.6349C177.938 95.4372 177.905 95.2527 177.79 95.0813C177.678 94.9106 177.48 94.7533 177.195 94.6096L176.183 94.1086C175.626 93.8272 175.242 93.5045 175.033 93.1405C174.826 92.777 174.778 92.3702 174.89 91.9199C174.983 91.5465 175.169 91.2457 175.447 91.0176C175.725 90.7895 176.068 90.643 176.475 90.5779C176.882 90.5101 177.324 90.5355 177.798 90.6535C178.482 90.8235 178.983 91.1056 179.302 91.4997C179.622 91.8912 179.783 92.3497 179.786 92.8752Z" fill="black"/>
<path d="M214.52 110.928C213.904 111.162 213.187 111.16 212.329 110.921C211.769 110.764 211.224 110.534 210.707 110.236C209.523 109.554 208.176 109.219 206.811 109.268C206.215 109.289 205.624 109.236 205.057 109.112C205.001 109.1 204.946 109.087 204.892 109.074C204.106 108.878 203.525 108.556 203.118 108.092C202.373 107.243 202.253 105.815 202.838 104.769C203.362 103.834 204.27 103.334 205.149 102.85C205.267 102.784 205.39 102.717 205.509 102.65C206.404 102.144 207.258 101.535 208.047 100.84C208.146 100.752 208.248 100.66 208.346 100.572C208.722 100.232 209.111 99.8809 209.548 99.6101L209.565 99.5999C210.1 99.2729 210.734 99.1772 211.351 99.3307C211.659 99.4075 211.942 99.541 212.188 99.7233C212.434 99.9051 212.643 100.135 212.802 100.405L212.812 100.422C213.072 100.866 213.251 101.359 213.424 101.835C213.469 101.959 213.516 102.087 213.563 102.212C213.934 103.195 214.404 104.133 214.957 105C215.03 105.114 215.107 105.231 215.181 105.345C215.731 106.184 216.299 107.052 216.324 108.123C216.351 109.321 215.576 110.527 214.52 110.928Z" fill="black"/>
<path d="M220.189 102.947C219.604 103.643 218.933 104.057 218.25 104.144C217.979 104.178 217.71 104.162 217.449 104.097C217.099 104.01 216.761 103.834 216.451 103.573C215.918 103.125 215.669 102.59 215.712 101.984C215.755 101.385 216.075 100.738 216.691 100.006C217.314 99.264 217.989 98.733 218.645 98.4703C219.39 98.1715 220.055 98.2422 220.569 98.674C221.085 99.1072 221.321 99.7991 221.237 100.623C221.155 101.414 220.783 102.24 220.189 102.947Z" fill="black"/>
<path d="M217.505 97.4065C217.178 98.3407 216.657 99.0199 215.996 99.3707C215.46 99.6558 214.854 99.7217 214.229 99.5661C214.136 99.5431 214.044 99.5155 213.952 99.4833C213.239 99.2339 212.782 98.7881 212.594 98.1583C212.406 97.5331 212.483 96.7516 212.827 95.7684C213.001 95.2699 213.209 94.8204 213.444 94.4301C213.68 94.0398 213.942 93.7092 214.225 93.4493C214.865 92.8606 215.565 92.6766 216.251 92.9165C216.939 93.1573 217.445 93.768 217.676 94.6362C217.898 95.4732 217.838 96.4572 217.505 97.4065Z" fill="black"/>
<path d="M206.311 97.4253C206.512 98.3601 206.491 99.0817 206.248 99.6312C206.002 100.187 205.532 100.543 204.851 100.689C204.455 100.774 204.074 100.772 203.723 100.685C203.462 100.62 203.218 100.508 202.994 100.35C202.431 99.954 202.033 99.2739 201.842 98.3845C201.648 97.4817 201.706 96.578 202.005 95.8407C202.316 95.0733 202.85 94.573 203.507 94.4316C204.164 94.2909 204.785 94.5402 205.303 95.153C205.759 95.6922 206.107 96.4777 206.311 97.4253Z" fill="black"/>
<path d="M211.725 95.4927C211.689 95.7275 211.647 95.9466 211.596 96.1505C211.425 96.8402 211.166 97.3547 210.812 97.7133C210.35 98.1814 209.737 98.3611 208.991 98.2476C208.894 98.2329 208.8 98.2141 208.708 98.1912C208.082 98.0356 207.577 97.6934 207.237 97.1906C206.819 96.5714 206.676 95.727 206.824 94.7484C206.975 93.7541 207.382 92.8562 207.971 92.2209C208.582 91.5619 209.315 91.2595 210.036 91.3689C210.753 91.478 211.286 91.9687 211.576 92.7886C211.832 93.5132 211.884 94.4485 211.725 95.4927Z" fill="black"/>
<path d="M225.201 111.766L227.364 103.068L228.567 103.367L228.311 104.393L228.415 104.418C228.519 104.304 228.66 104.178 228.837 104.038C229.015 103.899 229.239 103.794 229.51 103.724C229.782 103.652 230.114 103.665 230.506 103.762C231.017 103.889 231.441 104.132 231.777 104.489C232.114 104.847 232.336 105.297 232.443 105.84C232.553 106.383 232.522 106.997 232.352 107.68C232.182 108.364 231.923 108.922 231.573 109.354C231.224 109.783 230.819 110.08 230.355 110.245C229.892 110.406 229.405 110.424 228.894 110.297C228.51 110.201 228.212 110.059 227.999 109.869C227.79 109.68 227.638 109.482 227.544 109.274C227.45 109.067 227.382 108.887 227.342 108.734L227.267 108.716L226.432 112.072L225.201 111.766ZM227.784 106.531C227.674 106.976 227.641 107.382 227.687 107.749C227.733 108.116 227.854 108.425 228.052 108.675C228.249 108.922 228.526 109.09 228.88 109.178C229.247 109.27 229.579 109.249 229.875 109.115C230.171 108.979 230.424 108.758 230.635 108.451C230.848 108.146 231.006 107.781 231.112 107.359C231.215 106.941 231.246 106.551 231.202 106.187C231.161 105.824 231.039 105.516 230.837 105.261C230.638 105.008 230.353 104.835 229.983 104.743C229.626 104.654 229.301 104.671 229.008 104.793C228.718 104.916 228.469 105.127 228.26 105.425C228.052 105.723 227.894 106.092 227.784 106.531ZM237.26 109.461L238.181 105.758L239.416 106.066L237.843 112.391L236.632 112.09L236.905 110.995L236.839 110.978C236.61 111.28 236.306 111.503 235.929 111.648C235.555 111.792 235.131 111.804 234.656 111.686C234.249 111.585 233.912 111.406 233.643 111.15C233.378 110.892 233.2 110.563 233.11 110.165C233.022 109.767 233.043 109.307 233.173 108.785L234.174 104.762L235.405 105.068L234.442 108.943C234.334 109.374 234.368 109.747 234.544 110.062C234.719 110.377 234.997 110.581 235.379 110.676C235.61 110.734 235.853 110.733 236.11 110.674C236.369 110.617 236.603 110.49 236.812 110.294C237.024 110.099 237.174 109.821 237.26 109.461ZM238.56 115.088L240.723 106.391L241.925 106.689L241.67 107.715L241.773 107.741C241.877 107.627 242.018 107.5 242.196 107.36C242.373 107.221 242.597 107.116 242.869 107.047C243.14 106.974 243.473 106.987 243.865 107.084C244.376 107.211 244.799 107.454 245.136 107.812C245.473 108.169 245.695 108.62 245.801 109.162C245.911 109.706 245.881 110.319 245.711 111.003C245.541 111.686 245.281 112.244 244.932 112.676C244.583 113.105 244.177 113.402 243.714 113.567C243.251 113.729 242.763 113.746 242.253 113.619C241.869 113.523 241.571 113.381 241.358 113.191C241.149 113.002 240.997 112.804 240.903 112.597C240.808 112.39 240.741 112.209 240.7 112.056L240.626 112.038L239.791 115.394L238.56 115.088ZM241.143 109.853C241.032 110.298 241 110.704 241.046 111.071C241.092 111.438 241.213 111.747 241.41 111.997C241.608 112.244 241.884 112.412 242.238 112.5C242.606 112.592 242.938 112.571 243.234 112.437C243.53 112.301 243.783 112.08 243.993 111.774C244.206 111.468 244.365 111.104 244.47 110.681C244.574 110.264 244.604 109.873 244.561 109.509C244.52 109.147 244.398 108.838 244.196 108.584C243.997 108.33 243.712 108.157 243.341 108.065C242.984 107.976 242.66 107.993 242.367 108.116C242.077 108.239 241.827 108.449 241.619 108.747C241.411 109.045 241.252 109.414 241.143 109.853ZM245.369 116.782L247.532 108.084L248.735 108.383L248.48 109.409L248.583 109.434C248.687 109.32 248.828 109.193 249.005 109.054C249.183 108.914 249.407 108.81 249.678 108.74C249.95 108.668 250.282 108.68 250.675 108.778C251.185 108.905 251.609 109.147 251.945 109.505C252.282 109.863 252.504 110.313 252.611 110.856C252.721 111.399 252.691 112.012 252.521 112.696C252.351 113.38 252.091 113.938 251.741 114.369C251.393 114.799 250.987 115.096 250.523 115.26C250.06 115.422 249.573 115.44 249.063 115.313C248.678 115.217 248.38 115.074 248.167 114.884C247.958 114.695 247.806 114.497 247.712 114.29C247.618 114.083 247.55 113.903 247.51 113.75L247.436 113.732L246.601 117.088L245.369 116.782ZM247.952 111.547C247.842 111.992 247.81 112.398 247.855 112.765C247.901 113.132 248.022 113.44 248.22 113.69C248.418 113.938 248.694 114.106 249.048 114.194C249.415 114.285 249.748 114.264 250.043 114.131C250.339 113.995 250.593 113.773 250.803 113.467C251.016 113.161 251.175 112.797 251.28 112.374C251.384 111.957 251.414 111.567 251.37 111.203C251.329 110.84 251.208 110.531 251.006 110.277C250.806 110.023 250.521 109.851 250.151 109.758C249.794 109.67 249.469 109.686 249.176 109.809C248.886 109.932 248.637 110.143 248.428 110.441C248.22 110.739 248.062 111.108 247.952 111.547ZM252.769 116.103L254.342 109.777L255.573 110.084L254 116.409L252.769 116.103ZM255.207 108.956C254.993 108.903 254.826 108.786 254.708 108.605C254.593 108.422 254.561 108.23 254.611 108.03C254.661 107.826 254.78 107.672 254.966 107.567C255.156 107.46 255.358 107.433 255.572 107.486C255.786 107.539 255.951 107.657 256.066 107.84C256.184 108.021 256.218 108.214 256.168 108.417C256.118 108.617 255.997 108.771 255.807 108.878C255.621 108.983 255.421 109.009 255.207 108.956ZM258.003 117.54C257.38 117.385 256.877 117.119 256.493 116.74C256.112 116.36 255.86 115.897 255.736 115.35C255.616 114.801 255.638 114.199 255.801 113.542C255.962 112.895 256.225 112.353 256.589 111.919C256.957 111.486 257.393 111.185 257.899 111.016C258.407 110.848 258.955 110.837 259.542 110.983C259.899 111.072 260.23 111.217 260.536 111.418C260.841 111.62 261.096 111.88 261.3 112.199C261.503 112.518 261.631 112.898 261.685 113.34C261.739 113.779 261.695 114.285 261.552 114.859L261.444 115.296L256.415 114.045L256.645 113.123L260.466 114.073C260.547 113.749 260.552 113.446 260.483 113.163C260.414 112.878 260.278 112.633 260.075 112.428C259.875 112.223 259.616 112.082 259.297 112.002C258.952 111.917 258.629 111.927 258.328 112.032C258.031 112.137 257.779 112.307 257.571 112.544C257.367 112.779 257.226 113.054 257.147 113.37L256.968 114.091C256.863 114.513 256.847 114.892 256.922 115.225C256.999 115.559 257.153 115.838 257.383 116.061C257.614 116.282 257.909 116.437 258.269 116.526C258.502 116.584 258.723 116.604 258.932 116.586C259.141 116.565 259.332 116.505 259.506 116.405C259.679 116.306 259.828 116.166 259.951 115.987L261.064 116.487C260.886 116.807 260.643 117.066 260.337 117.264C260.035 117.46 259.685 117.584 259.287 117.637C258.892 117.687 258.465 117.655 258.003 117.54ZM267.697 114.738L266.531 114.659C266.52 114.504 266.48 114.35 266.41 114.196C266.344 114.042 266.235 113.903 266.086 113.778C265.936 113.654 265.733 113.559 265.478 113.496C265.129 113.409 264.819 113.415 264.547 113.513C264.275 113.609 264.109 113.779 264.048 114.024C263.996 114.235 264.031 114.425 264.156 114.593C264.28 114.761 264.507 114.929 264.835 115.098L265.782 115.579C266.331 115.858 266.713 116.173 266.929 116.524C267.145 116.875 267.197 117.275 267.086 117.722C266.992 118.101 266.798 118.411 266.504 118.653C266.214 118.893 265.854 119.048 265.422 119.119C264.993 119.19 264.524 119.162 264.013 119.035C263.304 118.859 262.764 118.564 262.392 118.151C262.02 117.735 261.853 117.234 261.891 116.649L263.126 116.764C263.123 117.092 263.217 117.365 263.408 117.581C263.6 117.795 263.881 117.948 264.251 118.04C264.655 118.141 264.999 118.137 265.282 118.03C265.566 117.92 265.738 117.742 265.799 117.498C265.848 117.3 265.815 117.116 265.7 116.945C265.589 116.774 265.39 116.617 265.105 116.473L264.093 115.972C263.536 115.69 263.153 115.368 262.943 115.004C262.736 114.64 262.688 114.233 262.8 113.783C262.893 113.41 263.079 113.109 263.357 112.881C263.635 112.653 263.978 112.506 264.385 112.441C264.792 112.373 265.233 112.399 265.708 112.517C266.392 112.687 266.893 112.969 267.212 113.363C267.532 113.754 267.693 114.213 267.697 114.738Z" fill="black"/>
<path d="M302.431 132.791C301.814 133.026 301.097 133.023 300.239 132.784C299.679 132.628 299.134 132.398 298.617 132.1C297.433 131.418 296.086 131.083 294.721 131.131C294.125 131.152 293.535 131.1 292.967 130.975C292.911 130.963 292.856 130.95 292.802 130.937C292.017 130.742 291.435 130.419 291.028 129.955C290.283 129.107 290.163 127.678 290.749 126.632C291.272 125.698 292.18 125.197 293.059 124.713C293.178 124.648 293.301 124.58 293.418 124.513C294.313 124.007 295.167 123.398 295.956 122.703C296.057 122.615 296.157 122.524 296.255 122.435C296.632 122.095 297.021 121.744 297.458 121.473L297.475 121.463C298.009 121.136 298.644 121.04 299.261 121.194C299.569 121.271 299.852 121.404 300.098 121.586C300.344 121.768 300.553 121.999 300.712 122.268L300.722 122.285C300.982 122.729 301.161 123.222 301.334 123.698C301.379 123.822 301.426 123.951 301.473 124.075C301.845 125.059 302.314 125.997 302.867 126.863C302.941 126.978 303.018 127.095 303.091 127.208C303.641 128.047 304.209 128.915 304.234 129.986C304.261 131.184 303.486 132.39 302.431 132.791Z" fill="black"/>
<path d="M308.1 124.805C307.514 125.501 306.843 125.916 306.16 126.002C305.889 126.037 305.621 126.021 305.36 125.956C305.009 125.869 304.672 125.692 304.361 125.432C303.828 124.983 303.58 124.449 303.623 123.843C303.665 123.243 303.985 122.596 304.601 121.864C305.224 121.122 305.9 120.591 306.555 120.329C307.3 120.03 307.965 120.1 308.48 120.532C308.994 120.966 309.232 121.658 309.147 122.481C309.066 123.273 308.694 124.098 308.1 124.805Z" fill="black"/>
<path d="M305.408 119.268C305.08 120.202 304.559 120.881 303.899 121.232C303.363 121.517 302.757 121.583 302.131 121.427C302.039 121.404 301.947 121.377 301.854 121.345C301.142 121.095 300.685 120.649 300.496 120.019C300.308 119.394 300.385 118.613 300.729 117.63C300.903 117.131 301.112 116.682 301.347 116.291C301.582 115.901 301.845 115.571 302.127 115.311C302.767 114.722 303.468 114.538 304.153 114.778C304.841 115.019 305.347 115.629 305.578 116.498C305.801 117.335 305.74 118.319 305.408 119.268Z" fill="black"/>
<path d="M294.221 119.288C294.422 120.222 294.401 120.944 294.158 121.494C293.912 122.049 293.442 122.405 292.761 122.551C292.365 122.636 291.984 122.634 291.634 122.547C291.373 122.482 291.128 122.37 290.904 122.213C290.342 121.816 289.943 121.136 289.752 120.247C289.558 119.344 289.616 118.44 289.915 117.703C290.226 116.936 290.759 116.435 291.417 116.294C292.074 116.153 292.695 116.403 293.213 117.015C293.669 117.554 294.017 118.34 294.221 119.288Z" fill="black"/>
<path d="M299.624 117.356C299.588 117.591 299.545 117.81 299.494 118.014C299.323 118.703 299.064 119.218 298.71 119.577C298.249 120.045 297.636 120.224 296.889 120.111C296.792 120.096 296.698 120.077 296.606 120.055C295.98 119.899 295.476 119.557 295.136 119.054C294.717 118.435 294.574 117.59 294.723 116.612C294.874 115.617 295.281 114.719 295.87 114.084C296.48 113.425 297.213 113.123 297.934 113.232C298.652 113.341 299.185 113.832 299.474 114.652C299.731 115.376 299.782 116.312 299.624 117.356Z" fill="black"/>
<path d="M313.111 133.627L315.274 124.93L316.477 125.229L316.222 126.254L316.325 126.28C316.429 126.166 316.57 126.039 316.748 125.899C316.925 125.76 317.149 125.655 317.42 125.586C317.692 125.513 318.024 125.526 318.416 125.624C318.927 125.751 319.351 125.993 319.687 126.351C320.024 126.708 320.246 127.159 320.353 127.701C320.462 128.244 320.432 128.858 320.262 129.542C320.092 130.225 319.833 130.783 319.484 131.215C319.135 131.644 318.728 131.941 318.265 132.106C317.802 132.268 317.315 132.285 316.804 132.158C316.42 132.063 316.122 131.92 315.91 131.73C315.7 131.541 315.548 131.343 315.454 131.136C315.359 130.929 315.292 130.749 315.251 130.596L315.177 130.577L314.343 133.934L313.111 133.627ZM315.694 128.393C315.584 128.837 315.551 129.243 315.597 129.61C315.643 129.977 315.764 130.286 315.961 130.536C316.159 130.783 316.435 130.951 316.789 131.039C317.158 131.131 317.489 131.11 317.785 130.976C318.081 130.84 318.334 130.619 318.545 130.313C318.758 130.007 318.917 129.643 319.022 129.22C319.126 128.803 319.155 128.412 319.112 128.049C319.071 127.686 318.95 127.377 318.748 127.123C318.548 126.869 318.263 126.696 317.892 126.604C317.536 126.515 317.211 126.532 316.918 126.655C316.628 126.778 316.379 126.988 316.171 127.286C315.962 127.584 315.804 127.953 315.694 128.393ZM325.17 131.322L326.091 127.62L327.327 127.927L325.753 134.252L324.543 133.951L324.815 132.856L324.749 132.84C324.519 133.141 324.216 133.364 323.839 133.51C323.465 133.653 323.041 133.665 322.566 133.547C322.16 133.446 321.822 133.267 321.554 133.011C321.288 132.753 321.111 132.424 321.02 132.026C320.932 131.628 320.953 131.168 321.083 130.647L322.084 126.623L323.315 126.929L322.351 130.804C322.244 131.236 322.279 131.609 322.454 131.923C322.629 132.238 322.907 132.443 323.289 132.538C323.52 132.595 323.763 132.594 324.02 132.536C324.279 132.478 324.513 132.351 324.722 132.155C324.934 131.96 325.083 131.682 325.17 131.322ZM326.47 136.95L328.633 128.252L329.835 128.551L329.58 129.576L329.683 129.602C329.788 129.488 329.928 129.361 330.106 129.221C330.284 129.082 330.508 128.977 330.779 128.908C331.05 128.835 331.382 128.848 331.775 128.946C332.286 129.073 332.709 129.315 333.046 129.673C333.383 130.031 333.604 130.481 333.712 131.023C333.821 131.567 333.791 132.18 333.621 132.864C333.451 133.547 333.191 134.105 332.842 134.537C332.493 134.967 332.087 135.264 331.623 135.428C331.161 135.59 330.674 135.607 330.163 135.48C329.779 135.385 329.48 135.242 329.268 135.052C329.059 134.863 328.907 134.665 328.813 134.458C328.718 134.251 328.651 134.071 328.61 133.918L328.536 133.899L327.701 137.256L326.47 136.95ZM329.053 131.715C328.943 132.159 328.91 132.565 328.956 132.932C329.001 133.299 329.123 133.608 329.32 133.858C329.518 134.106 329.794 134.273 330.148 134.362C330.516 134.453 330.848 134.432 331.143 134.299C331.44 134.162 331.693 133.941 331.904 133.635C332.117 133.329 332.275 132.965 332.381 132.542C332.484 132.125 332.514 131.734 332.471 131.371C332.43 131.008 332.308 130.699 332.106 130.445C331.907 130.191 331.622 130.018 331.251 129.926C330.895 129.837 330.57 129.854 330.277 129.977C329.987 130.1 329.737 130.311 329.529 130.609C329.321 130.907 329.162 131.275 329.053 131.715ZM333.279 138.643L335.442 129.945L336.645 130.244L336.39 131.27L336.493 131.295C336.597 131.181 336.738 131.055 336.916 130.915C337.093 130.776 337.317 130.671 337.588 130.601C337.86 130.529 338.192 130.542 338.584 130.639C339.095 130.766 339.519 131.009 339.856 131.366C340.192 131.724 340.414 132.174 340.521 132.717C340.631 133.26 340.601 133.874 340.431 134.557C340.261 135.241 340.001 135.799 339.652 136.231C339.303 136.66 338.897 136.957 338.433 137.122C337.97 137.283 337.483 137.301 336.973 137.174C336.588 137.078 336.29 136.936 336.078 136.746C335.868 136.557 335.716 136.358 335.622 136.151C335.528 135.944 335.46 135.764 335.42 135.611L335.345 135.593L334.511 138.949L333.279 138.643ZM335.862 133.408C335.752 133.853 335.72 134.259 335.765 134.626C335.811 134.993 335.932 135.301 336.13 135.552C336.328 135.799 336.604 135.967 336.958 136.055C337.326 136.147 337.658 136.126 337.953 135.992C338.249 135.856 338.503 135.635 338.713 135.328C338.926 135.023 339.085 134.659 339.19 134.236C339.294 133.818 339.324 133.428 339.28 133.064C339.239 132.701 339.118 132.393 338.916 132.138C338.716 131.885 338.432 131.712 338.061 131.62C337.704 131.531 337.379 131.548 337.086 131.67C336.796 131.793 336.547 132.004 336.339 132.302C336.131 132.6 335.972 132.969 335.862 133.408ZM340.679 137.964L342.252 131.639L343.484 131.945L341.91 138.271L340.679 137.964ZM343.116 130.817C342.902 130.764 342.737 130.647 342.618 130.466C342.503 130.283 342.471 130.091 342.521 129.891C342.571 129.688 342.69 129.533 342.876 129.428C343.066 129.321 343.268 129.294 343.482 129.347C343.697 129.4 343.861 129.519 343.976 129.702C344.094 129.883 344.128 130.075 344.077 130.278C344.027 130.478 343.907 130.632 343.718 130.739C343.531 130.845 343.331 130.871 343.116 130.817ZM345.913 139.402C345.29 139.247 344.787 138.98 344.403 138.602C344.022 138.221 343.77 137.758 343.646 137.211C343.526 136.662 343.548 136.06 343.711 135.404C343.872 134.756 344.135 134.215 344.5 133.781C344.867 133.347 345.303 133.046 345.809 132.878C346.317 132.709 346.865 132.698 347.452 132.845C347.809 132.933 348.141 133.078 348.446 133.28C348.752 133.481 349.006 133.741 349.21 134.06C349.413 134.379 349.542 134.759 349.595 135.201C349.649 135.64 349.605 136.147 349.462 136.72L349.354 137.157L344.325 135.906L344.554 134.984L348.376 135.934C348.457 135.61 348.462 135.307 348.392 135.024C348.324 134.739 348.188 134.494 347.985 134.289C347.785 134.085 347.526 133.943 347.207 133.864C346.862 133.778 346.538 133.788 346.238 133.894C345.941 133.998 345.689 134.168 345.481 134.405C345.277 134.64 345.136 134.916 345.057 135.231L344.878 135.952C344.773 136.375 344.757 136.753 344.832 137.086C344.909 137.42 345.063 137.699 345.293 137.922C345.524 138.143 345.819 138.298 346.179 138.388C346.412 138.446 346.633 138.466 346.842 138.448C347.051 138.427 347.242 138.366 347.416 138.267C347.589 138.167 347.737 138.027 347.861 137.848L348.974 138.348C348.796 138.668 348.553 138.927 348.247 139.125C347.945 139.321 347.595 139.445 347.197 139.498C346.803 139.548 346.375 139.516 345.913 139.402ZM355.607 136.6L354.441 136.52C354.43 136.365 354.39 136.211 354.32 136.057C354.254 135.903 354.145 135.764 353.996 135.639C353.846 135.515 353.643 135.421 353.388 135.357C353.039 135.27 352.729 135.276 352.457 135.375C352.185 135.47 352.019 135.64 351.958 135.885C351.905 136.096 351.941 136.286 352.066 136.454C352.19 136.622 352.417 136.79 352.745 136.959L353.692 137.44C354.241 137.719 354.623 138.034 354.839 138.385C355.055 138.737 355.107 139.136 354.996 139.583C354.901 139.962 354.708 140.273 354.415 140.514C354.125 140.754 353.764 140.909 353.332 140.98C352.904 141.051 352.434 141.023 351.923 140.896C351.215 140.72 350.674 140.425 350.302 140.012C349.93 139.596 349.763 139.095 349.801 138.51L351.036 138.625C351.033 138.953 351.127 139.226 351.318 139.443C351.51 139.657 351.791 139.81 352.162 139.902C352.565 140.002 352.909 139.999 353.192 139.891C353.476 139.781 353.648 139.604 353.709 139.359C353.758 139.162 353.726 138.977 353.611 138.806C353.499 138.635 353.3 138.478 353.015 138.334L352.003 137.833C351.446 137.552 351.063 137.229 350.853 136.865C350.646 136.502 350.598 136.095 350.71 135.644C350.803 135.271 350.989 134.97 351.267 134.742C351.546 134.514 351.888 134.367 352.295 134.303C352.702 134.235 353.143 134.26 353.618 134.378C354.302 134.548 354.803 134.83 355.122 135.224C355.442 135.616 355.603 136.074 355.607 136.6Z" fill="black"/>
</g>
<defs>
<clipPath id="clip0_3_8708">
<rect width="925.143" height="58.2571" fill="white" transform="translate(-75.3555 0.378906) rotate(13.9657)"/>
</clipPath>
</defs>
</svg>
