<svg width="358" height="183" viewBox="0 0 358 183" fill="none" xmlns="http://www.w3.org/2000/svg">
<g clip-path="url(#clip0_3_8773)">
<path d="M573.751 -14.1119L-362.699 164.581L-346.253 250.767L590.196 72.0738L573.751 -14.1119Z" fill="#EFC951"/>
<path d="M-30.696 153.16L-32.4272 144.088L-31.1732 143.848L-30.9691 144.918L-30.8613 144.897C-30.8134 144.746 -30.7364 144.566 -30.6302 144.359C-30.5245 144.152 -30.3595 143.957 -30.1362 143.775C-29.9134 143.59 -29.5969 143.459 -29.1877 143.381C-28.6549 143.279 -28.154 143.323 -27.6843 143.512C-27.2151 143.702 -26.8129 144.027 -26.4788 144.489C-26.1412 144.949 -25.9048 145.537 -25.7688 146.25C-25.6327 146.963 -25.635 147.597 -25.7751 148.152C-25.9163 148.704 -26.1678 149.157 -26.5306 149.511C-26.894 149.863 -27.3423 150.089 -27.8746 150.191C-28.2758 150.267 -28.6162 150.262 -28.8969 150.177C-29.1746 150.09 -29.4022 149.97 -29.5798 149.817C-29.7574 149.664 -29.8984 149.525 -30.0022 149.399L-30.0799 149.414L-29.4118 152.915L-30.696 153.16ZM-30.5391 147.147C-30.4506 147.61 -30.3055 148.004 -30.1043 148.328C-29.903 148.652 -29.6563 148.888 -29.3636 149.037C-29.0719 149.183 -28.7408 149.221 -28.3714 149.15C-27.9878 149.077 -27.6867 148.914 -27.4674 148.662C-27.2492 148.406 -27.108 148.09 -27.0431 147.713C-26.9758 147.335 -26.9844 146.925 -27.0685 146.484C-27.1516 146.049 -27.2917 145.671 -27.4899 145.349C-27.6845 145.027 -27.9318 144.791 -28.2306 144.64C-28.5264 144.489 -28.8676 144.45 -29.2542 144.524C-29.6266 144.595 -29.9233 144.751 -30.1443 144.992C-30.3627 145.233 -30.5051 145.537 -30.5711 145.906C-30.6371 146.275 -30.6266 146.688 -30.5391 147.147ZM-20.408 145.796L-21.1449 141.935L-19.8562 141.689L-18.5972 148.287L-19.8602 148.528L-20.0782 147.385L-20.1468 147.398C-20.2313 147.779 -20.4187 148.119 -20.7091 148.418C-20.997 148.714 -21.3886 148.909 -21.884 149.003C-22.3079 149.084 -22.7007 149.062 -23.0628 148.939C-23.4224 148.811 -23.7307 148.581 -23.9872 148.247C-24.2411 147.912 -24.42 147.473 -24.5239 146.929L-25.3247 142.732L-24.04 142.487L-23.2686 146.529C-23.1829 146.979 -22.9901 147.313 -22.6903 147.532C-22.3905 147.751 -22.0415 147.822 -21.6433 147.746C-21.4024 147.7 -21.175 147.595 -20.96 147.429C-20.7426 147.263 -20.5782 147.043 -20.4674 146.769C-20.3536 146.495 -20.3334 146.171 -20.408 145.796ZM-16.7622 150.501L-18.4933 141.429L-17.2394 141.19L-17.0353 142.259L-16.9279 142.239C-16.8795 142.087 -16.8025 141.908 -16.6963 141.7C-16.5906 141.493 -16.4261 141.299 -16.2023 141.116C-15.9796 140.931 -15.6631 140.8 -15.2538 140.722C-14.7211 140.62 -14.2201 140.664 -13.7504 140.853C-13.2812 141.043 -12.8791 141.368 -12.545 141.83C-12.2074 142.291 -11.971 142.878 -11.8349 143.591C-11.6989 144.304 -11.7011 144.938 -11.8413 145.493C-11.9824 146.045 -12.2344 146.498 -12.5968 146.852C-12.9602 147.204 -13.4085 147.43 -13.9407 147.532C-14.3419 147.608 -14.6824 147.604 -14.9631 147.518C-15.2408 147.431 -15.4684 147.311 -15.646 147.158C-15.8235 147.005 -15.9645 146.866 -16.0689 146.74L-16.146 146.755L-15.478 150.256L-16.7622 150.501ZM-16.6053 144.488C-16.5168 144.952 -16.3722 145.345 -16.1704 145.669C-15.9692 145.993 -15.7224 146.229 -15.4297 146.378C-15.138 146.524 -14.807 146.562 -14.4375 146.491C-14.054 146.418 -13.7528 146.255 -13.5336 146.003C-13.3154 145.747 -13.1741 145.431 -13.1093 145.054C-13.0419 144.676 -13.0505 144.266 -13.1347 143.825C-13.2178 143.39 -13.3579 143.012 -13.5561 142.69C-13.7507 142.368 -13.9979 142.132 -14.2968 141.981C-14.5926 141.83 -14.9337 141.791 -15.3203 141.865C-15.6928 141.936 -15.9895 142.092 -16.2104 142.333C-16.4288 142.574 -16.5713 142.878 -16.6373 143.247C-16.7032 143.616 -16.6927 144.029 -16.6053 144.488ZM-9.65969 149.146L-11.3908 140.074L-10.1364 139.834L-9.93225 140.904L-9.82489 140.883C-9.77653 140.732 -9.69952 140.552 -9.59383 140.345C-9.48764 140.138 -9.32314 139.943 -9.09985 139.761C-8.87659 139.576 -8.56058 139.444 -8.15082 139.366C-7.61859 139.265 -7.11714 139.308 -6.64795 139.498C-6.17825 139.687 -5.77659 140.013 -5.44197 140.474C-5.10485 140.935 -4.86799 141.522 -4.73193 142.235C-4.59586 142.948 -4.59814 143.583 -4.73877 144.138C-4.87943 144.69 -5.13144 145.143 -5.49429 145.497C-5.85768 145.848 -6.30548 146.075 -6.83822 146.177C-7.2389 146.253 -7.57987 146.248 -7.86058 146.162C-8.13827 146.076 -8.36587 145.956 -8.54344 145.803C-8.721 145.65 -8.86199 145.511 -8.96588 145.385L-9.043 145.4L-8.37497 148.901L-9.65969 149.146ZM-9.50281 143.132C-9.41429 143.596 -9.26916 143.99 -9.06792 144.314C-8.86668 144.637 -8.61995 144.874 -8.32721 145.023C-8.03503 145.169 -7.70448 145.207 -7.33504 145.136C-6.95149 145.063 -6.64984 144.9 -6.43109 144.648C-6.21238 144.392 -6.07108 144.076 -6.00675 143.698C-5.93939 143.321 -5.94753 142.911 -6.03169 142.47C-6.11475 142.035 -6.25538 141.656 -6.45304 141.335C-6.64819 141.013 -6.89493 140.777 -7.19375 140.626C-7.49005 140.475 -7.83126 140.436 -8.21783 140.51C-8.5903 140.581 -8.88699 140.737 -9.10793 140.978C-9.32635 141.218 -9.46829 141.523 -9.53477 141.892C-9.60074 142.261 -9.59024 142.674 -9.50281 143.132ZM-3.02881 145.316L-4.28783 138.718L-3.00362 138.473L-1.74461 145.071L-3.02881 145.316ZM-3.83343 137.576C-4.05671 137.619 -4.26296 137.581 -4.45165 137.463C-4.63837 137.341 -4.75141 137.176 -4.7913 136.967C-4.83175 136.755 -4.78755 136.559 -4.65821 136.38C-4.52689 136.198 -4.34933 136.085 -4.12606 136.043C-3.90278 136 -3.69778 136.04 -3.51158 136.162C-3.32288 136.28 -3.2078 136.445 -3.16736 136.657C-3.12747 136.866 -3.1737 137.062 -3.30502 137.244C-3.43385 137.423 -3.61016 137.534 -3.83343 137.576ZM2.4893 144.401C1.83963 144.525 1.25316 144.493 0.730418 144.305C0.210153 144.113 -0.225855 143.788 -0.577607 143.33C-0.926883 142.869 -1.16682 142.296 -1.29742 141.611C-1.42638 140.935 -1.41404 140.316 -1.2604 139.752C-1.10373 139.188 -0.825172 138.718 -0.425236 138.342C-0.0222855 137.965 0.485888 137.718 1.09826 137.601C1.47072 137.53 1.84334 137.523 2.21612 137.579C2.5889 137.636 2.93928 137.769 3.26776 137.98C3.59574 138.19 3.87976 138.491 4.12087 138.881C4.36093 139.269 4.53809 139.762 4.65229 140.36L4.73918 140.815L-0.505549 141.816L-0.689156 140.854L3.29705 140.093C3.23258 139.755 3.10642 139.469 2.91961 139.235C2.73173 138.998 2.49858 138.827 2.22064 138.723C1.94521 138.618 1.64192 138.597 1.30927 138.661C0.948903 138.729 0.650833 138.878 0.415071 139.107C0.182287 139.333 0.0198642 139.601 -0.0722002 139.913C-0.161789 140.221 -0.175144 140.539 -0.112294 140.869L0.0311417 141.62C0.115295 142.061 0.26398 142.422 0.477725 142.701C0.694494 142.981 0.958328 143.175 1.2702 143.285C1.58154 143.392 1.92496 143.409 2.29994 143.338C2.54338 143.291 2.75858 143.214 2.94607 143.108C3.133 142.998 3.28566 142.859 3.40505 142.69C3.52444 142.522 3.60325 142.328 3.64102 142.107L4.89849 142.094C4.86952 142.47 4.75448 142.817 4.55384 143.135C4.35568 143.448 4.08178 143.716 3.7322 143.937C3.38457 144.155 2.97063 144.309 2.4893 144.401ZM10.3495 137.595L9.22464 138.023C9.14784 137.883 9.04316 137.756 8.91163 137.642C8.78313 137.527 8.62147 137.443 8.42766 137.391C8.23386 137.339 8.00339 137.339 7.73728 137.39C7.37338 137.459 7.08554 137.599 6.87325 137.808C6.66042 138.015 6.57858 138.246 6.6272 138.501C6.66928 138.721 6.7843 138.883 6.97328 138.987C7.16226 139.09 7.44691 139.15 7.8272 139.167L8.92093 139.207C9.55504 139.232 10.0484 139.362 10.402 139.597C10.7556 139.832 10.9772 140.183 11.0663 140.65C11.1417 141.045 11.094 141.419 10.9242 141.772C10.7563 142.122 10.4857 142.423 10.1123 142.675C9.74196 142.927 9.29038 143.103 8.75764 143.205C8.01876 143.346 7.38594 143.304 6.85911 143.078C6.33175 142.849 5.95939 142.452 5.74207 141.888L6.94739 141.463C7.08625 141.771 7.29223 141.986 7.56434 142.106C7.83589 142.223 8.16497 142.245 8.55155 142.171C8.9729 142.091 9.29241 141.94 9.51108 141.717C9.7292 141.491 9.81394 141.251 9.76531 140.996C9.72596 140.79 9.61579 140.631 9.43428 140.52C9.2558 140.409 9.00223 140.348 8.67356 140.336L7.50996 140.304C6.86728 140.282 6.36953 140.145 6.01621 139.895C5.66541 139.644 5.44521 139.284 5.35559 138.815C5.28128 138.425 5.32512 138.064 5.48712 137.73C5.64911 137.396 5.90607 137.111 6.25898 136.875C6.61084 136.635 7.03448 136.469 7.52992 136.374C8.24309 136.238 8.83407 136.285 9.30234 136.517C9.77057 136.745 10.1196 137.104 10.3495 137.595Z" fill="black"/>
<path d="M50.6492 139.489C50.173 139.975 49.5018 140.281 48.5958 140.428C48.0044 140.524 47.3946 140.544 46.7822 140.488C45.3804 140.361 43.9753 140.629 42.7184 141.264C42.17 141.541 41.595 141.747 41.0105 141.875C40.9528 141.888 40.896 141.9 40.8396 141.911C40.0201 142.067 39.3366 142.017 38.7555 141.758C37.6922 141.286 36.9629 140.001 37.0596 138.77C37.1457 137.669 37.7796 136.808 38.3924 135.976C38.4754 135.864 38.5614 135.748 38.6426 135.634C39.2615 134.774 39.7975 133.835 40.2358 132.845C40.2918 132.719 40.3466 132.59 40.4 132.465C40.6055 131.984 40.8179 131.488 41.1102 131.046L41.1216 131.029C41.4804 130.492 42.0327 130.129 42.6763 130.006C42.9979 129.945 43.3207 129.947 43.6292 130.012C43.9381 130.076 44.2326 130.201 44.4984 130.385L44.5148 130.396C44.9498 130.7 45.3301 131.083 45.6977 131.454C45.7934 131.551 45.8924 131.651 45.9901 131.747C46.7625 132.507 47.6064 133.182 48.4985 133.754C48.6164 133.829 48.7391 133.905 48.8572 133.98C49.7338 134.527 50.64 135.094 51.1254 136.086C51.6683 137.195 51.4633 138.658 50.6492 139.489Z" fill="black"/>
<path d="M52.5117 129.57C52.2643 130.474 51.8158 131.151 51.2142 131.527C50.9752 131.677 50.7171 131.778 50.445 131.83C50.079 131.9 49.6872 131.88 49.2844 131.77C48.5917 131.581 48.1286 131.188 47.9071 130.602C47.688 130.023 47.708 129.279 47.968 128.329C48.2313 127.366 48.6341 126.577 49.1339 126.048C49.7019 125.447 50.3549 125.226 51.0228 125.408C51.6913 125.591 52.2122 126.136 52.4885 126.943C52.754 127.719 52.7623 128.652 52.5117 129.57Z" fill="black"/>
<path d="M47.5953 125.549C47.6924 126.565 47.4977 127.425 47.0313 128.039C46.6531 128.537 46.1146 128.86 45.4619 128.985C45.3656 129.003 45.2675 129.017 45.1669 129.027C44.3929 129.101 43.7727 128.881 43.3237 128.373C42.8786 127.869 42.6131 127.105 42.5106 126.036C42.4584 125.495 42.4592 124.984 42.5106 124.517C42.5626 124.051 42.6653 123.628 42.8176 123.263C43.1623 122.436 43.7383 121.961 44.4831 121.89C45.231 121.818 45.968 122.171 46.559 122.883C47.1284 123.571 47.4966 124.517 47.5953 125.549Z" fill="black"/>
<path d="M37.1344 130.396C37.7257 131.184 38.0181 131.868 38.0282 132.487C38.0379 133.113 37.7515 133.649 37.1777 134.08C36.8437 134.331 36.4865 134.493 36.1206 134.563C35.8484 134.615 35.5713 134.616 35.2941 134.565C34.5964 134.437 33.93 133.972 33.367 133.223C32.796 132.462 32.4602 131.591 32.4214 130.772C32.381 129.92 32.6641 129.221 33.2188 128.805C33.7721 128.39 34.4613 128.355 35.2102 128.705C35.8696 129.012 36.5349 129.597 37.1344 130.396Z" fill="black"/>
<path d="M41.3649 126.256C41.4327 126.491 41.4869 126.714 41.5275 126.927C41.6648 127.646 41.6452 128.24 41.4689 128.728C41.2389 129.365 40.7433 129.798 39.9957 130.014C39.8987 130.042 39.8023 130.065 39.7065 130.083C39.0538 130.208 38.4336 130.106 37.8986 129.782C37.2391 129.383 36.7412 128.655 36.4576 127.675C36.1699 126.68 36.1631 125.664 36.4399 124.815C36.7264 123.935 37.2817 123.335 38.0035 123.127C38.7223 122.919 39.4325 123.148 40.0576 123.79C40.6103 124.357 41.062 125.21 41.3649 126.256Z" fill="black"/>
<path d="M60.9993 135.66L59.2681 126.588L60.5221 126.348L60.7262 127.418L60.8336 127.398C60.8819 127.246 60.959 127.066 61.0651 126.859C61.1708 126.652 61.3353 126.457 61.5591 126.275C61.7819 126.09 62.0979 125.959 62.5076 125.881C63.0404 125.779 63.5413 125.823 64.0105 126.012C64.4802 126.202 64.8824 126.527 65.2165 126.989C65.5536 127.45 65.7905 128.037 65.9265 128.75C66.0626 129.463 66.0603 130.097 65.9202 130.652C65.779 131.204 65.527 131.657 65.1642 132.011C64.8013 132.363 64.353 132.589 63.8202 132.691C63.4195 132.767 63.0786 132.763 62.7984 132.677C62.5207 132.59 62.2931 132.47 62.1155 132.317C61.9374 132.164 61.797 132.025 61.6926 131.899L61.6155 131.914L62.2835 135.415L60.9993 135.66ZM61.1562 129.647C61.2447 130.11 61.3893 130.504 61.5905 130.828C61.7918 131.152 62.039 131.388 62.3312 131.537C62.6234 131.683 62.954 131.721 63.3234 131.65C63.7075 131.577 64.0086 131.414 64.2274 131.162C64.4461 130.906 64.5874 130.59 64.6522 130.213C64.7196 129.835 64.7109 129.425 64.6268 128.984C64.5437 128.549 64.4031 128.171 64.2054 127.849C64.0103 127.527 63.7635 127.291 63.4647 127.14C63.1689 126.989 62.8272 126.95 62.4407 127.024C62.0687 127.095 61.772 127.251 61.5506 127.492C61.3326 127.733 61.1902 128.037 61.1242 128.406C61.0577 128.775 61.0687 129.188 61.1562 129.647ZM71.2872 128.296L70.5504 124.435L71.8391 124.189L73.0981 130.787L71.8351 131.028L71.6171 129.885L71.5485 129.898C71.4635 130.28 71.2761 130.62 70.9862 130.918C70.6984 131.214 70.3067 131.409 69.8113 131.503C69.3874 131.584 68.9941 131.563 68.6325 131.439C68.2729 131.311 67.9646 131.081 67.7081 130.747C67.4542 130.412 67.2753 129.973 67.1714 129.429L66.3706 125.232L67.6548 124.987L68.4261 129.029C68.5119 129.479 68.7052 129.813 69.005 130.032C69.3048 130.251 69.6538 130.322 70.052 130.246C70.2924 130.2 70.5203 130.095 70.7348 129.929C70.9527 129.763 71.1166 129.543 71.2279 129.269C71.3417 128.995 71.3614 128.671 71.2872 128.296ZM74.9331 133.001L73.202 123.929L74.4559 123.69L74.66 124.759L74.7674 124.739C74.8158 124.587 74.8928 124.408 74.9985 124.2C75.1047 123.993 75.2692 123.799 75.493 123.616C75.7157 123.431 76.0317 123.3 76.4415 123.222C76.9742 123.12 77.4752 123.164 77.9444 123.353C78.4141 123.543 78.8157 123.868 79.1503 124.33C79.4875 124.791 79.7243 125.378 79.8604 126.091C79.9964 126.804 79.9942 127.438 79.8541 127.993C79.7129 128.545 79.4609 128.998 79.098 129.353C78.7351 129.704 78.2868 129.93 77.7541 130.032C77.3534 130.108 77.0125 130.104 76.7322 130.018C76.4546 129.931 76.2269 129.811 76.0493 129.658C75.8713 129.505 75.7308 129.366 75.6264 129.24L75.5493 129.255L76.2173 132.756L74.9331 133.001ZM75.09 126.988C75.1785 127.452 75.3231 127.845 75.5244 128.169C75.7256 128.493 75.9728 128.729 76.2651 128.878C76.5573 129.024 76.8878 129.062 77.2573 128.992C77.6413 128.918 77.9425 128.755 78.1612 128.503C78.3799 128.247 78.5212 127.931 78.586 127.554C78.6534 127.176 78.6448 126.766 78.5606 126.325C78.4775 125.89 78.3369 125.512 78.1393 125.19C77.9441 124.869 77.6974 124.632 77.3985 124.481C77.1028 124.33 76.7611 124.291 76.3745 124.365C76.0025 124.436 75.7058 124.592 75.4844 124.833C75.2665 125.074 75.124 125.378 75.0581 125.747C74.9916 126.116 75.0026 126.529 75.09 126.988ZM82.0356 131.646L80.3045 122.574L81.559 122.334L81.7631 123.404L81.8704 123.383C81.9183 123.232 81.9958 123.052 82.1015 122.845C82.2072 122.638 82.3722 122.443 82.5955 122.261C82.8182 122.076 83.1347 121.944 83.544 121.866C84.0767 121.765 84.5777 121.809 85.0474 121.998C85.5166 122.187 85.9187 122.513 86.2533 122.974C86.5905 123.435 86.8268 124.022 86.9629 124.735C87.099 125.448 87.0972 126.083 86.9565 126.638C86.8154 127.19 86.5639 127.643 86.201 127.997C85.8376 128.348 85.3898 128.575 84.8571 128.677C84.4559 128.753 84.1154 128.748 83.8347 128.662C83.557 128.576 83.3294 128.456 83.1519 128.303C82.9743 128.15 82.8333 128.011 82.7294 127.885L82.6518 127.9L83.3198 131.401L82.0356 131.646ZM82.1925 125.632C82.281 126.096 82.4262 126.49 82.6274 126.814C82.8286 127.137 83.0754 127.374 83.3681 127.523C83.6603 127.669 83.9908 127.707 84.3603 127.636C84.7438 127.563 85.0455 127.4 85.2642 127.148C85.4824 126.892 85.6242 126.576 85.6886 126.198C85.7559 125.821 85.7478 125.411 85.6636 124.97C85.5806 124.535 85.4399 124.156 85.2423 123.835C85.0471 123.513 84.7999 123.277 84.5011 123.126C84.2053 122.975 83.8641 122.936 83.4775 123.01C83.105 123.081 82.8083 123.237 82.5874 123.478C82.369 123.718 82.227 124.023 82.1605 124.392C82.0946 124.761 82.1051 125.174 82.1925 125.632ZM88.6665 127.816L87.4075 121.218L88.6917 120.973L89.9507 127.571L88.6665 127.816ZM87.8614 120.076C87.6381 120.119 87.4324 120.081 87.2432 119.963C87.057 119.841 86.9439 119.676 86.904 119.467C86.8636 119.255 86.9078 119.059 87.0366 118.88C87.1684 118.698 87.3455 118.586 87.5688 118.543C87.7925 118.5 87.9975 118.54 88.1837 118.662C88.3724 118.78 88.487 118.945 88.5274 119.157C88.5673 119.366 88.5216 119.562 88.3903 119.744C88.2615 119.923 88.0852 120.034 87.8614 120.076ZM94.1846 126.901C93.5344 127.025 92.9485 126.993 92.4257 126.805C91.9055 126.613 91.4695 126.288 91.1177 125.83C90.7684 125.369 90.5285 124.796 90.3979 124.111C90.2689 123.435 90.2813 122.816 90.4349 122.252C90.5916 121.688 90.8696 121.218 91.2701 120.842C91.673 120.465 92.1807 120.218 92.7936 120.101C93.166 120.03 93.5387 120.023 93.9114 120.079C94.2842 120.136 94.6346 120.269 94.9626 120.48C95.291 120.69 95.5751 120.991 95.8157 121.381C96.0563 121.769 96.2334 122.262 96.3476 122.86L96.4345 123.315L91.1892 124.316L91.0056 123.354L94.9918 122.593C94.9274 122.256 94.8017 121.969 94.6144 121.735C94.427 121.498 94.1939 121.327 93.916 121.223C93.6405 121.118 93.3367 121.097 93.0046 121.161C92.6437 121.23 92.3456 121.378 92.1104 121.607C91.8776 121.833 91.7152 122.101 91.6231 122.413C91.5335 122.721 91.5202 123.039 91.583 123.369L91.7265 124.12C91.8106 124.561 91.9593 124.922 92.173 125.201C92.3898 125.481 92.6536 125.675 92.9655 125.785C93.2769 125.892 93.6198 125.909 93.9953 125.838C94.2387 125.791 94.4539 125.714 94.6414 125.608C94.8278 125.498 94.981 125.359 95.1004 125.19C95.2198 125.022 95.2981 124.828 95.3363 124.607L96.5938 124.594C96.5648 124.97 96.4498 125.317 96.2492 125.635C96.051 125.948 95.7766 126.216 95.427 126.437C95.0799 126.655 94.6659 126.809 94.1846 126.901ZM102.045 120.095L100.92 120.523C100.843 120.383 100.738 120.256 100.607 120.142C100.478 120.027 100.317 119.943 100.123 119.891C99.9287 119.839 99.6987 119.839 99.4326 119.89C99.0687 119.959 98.7809 120.099 98.5686 120.308C98.3557 120.515 98.2734 120.746 98.322 121.001C98.3641 121.221 98.4796 121.383 98.6686 121.487C98.8576 121.59 99.1422 121.65 99.522 121.667L100.616 121.707C101.25 121.732 101.744 121.862 102.097 122.097C102.451 122.332 102.672 122.683 102.761 123.15C102.837 123.545 102.789 123.919 102.619 124.272C102.452 124.622 102.181 124.923 101.808 125.175C101.437 125.427 100.986 125.603 100.453 125.705C99.7141 125.846 99.0813 125.804 98.5544 125.578C98.0271 125.349 97.6547 124.952 97.4374 124.388L98.6427 123.963C98.7816 124.271 98.987 124.486 99.2597 124.606C99.5312 124.723 99.8603 124.745 100.247 124.671C100.668 124.591 100.988 124.44 101.206 124.217C101.425 123.991 101.509 123.751 101.461 123.496C101.421 123.29 101.311 123.131 101.13 123.02C100.951 122.909 100.697 122.848 100.368 122.836L99.2053 122.804C98.5626 122.782 98.0649 122.645 97.711 122.395C97.3607 122.144 97.1405 121.784 97.0509 121.315C96.9766 120.925 97.0204 120.564 97.1824 120.23C97.3444 119.896 97.6014 119.611 97.9543 119.375C98.3062 119.135 98.7298 118.969 99.2252 118.874C99.9384 118.738 100.529 118.786 100.998 119.017C101.465 119.245 101.814 119.604 102.045 120.095Z" fill="black"/>
<path d="M142.336 121.993C141.861 122.478 141.19 122.785 140.283 122.932C139.692 123.028 139.082 123.048 138.47 122.992C137.068 122.865 135.663 123.133 134.406 123.768C133.857 124.045 133.283 124.251 132.698 124.379C132.641 124.392 132.583 124.404 132.527 124.415C131.707 124.571 131.024 124.521 130.443 124.262C129.38 123.79 128.651 122.505 128.747 121.274C128.833 120.173 129.467 119.312 130.08 118.48C130.163 118.368 130.249 118.252 130.33 118.138C130.949 117.278 131.485 116.339 131.924 115.348C131.979 115.223 132.034 115.094 132.088 114.969C132.293 114.488 132.505 113.992 132.798 113.55L132.809 113.533C133.168 112.996 133.72 112.633 134.364 112.51C134.686 112.449 135.008 112.451 135.317 112.516C135.625 112.58 135.92 112.705 136.186 112.888L136.202 112.9C136.638 113.203 137.017 113.587 137.385 113.958C137.481 114.054 137.58 114.154 137.678 114.25C138.45 115.011 139.294 115.686 140.186 116.257C140.304 116.333 140.426 116.409 140.545 116.483C141.421 117.031 142.327 117.598 142.813 118.589C143.356 119.699 143.151 121.162 142.336 121.993Z" fill="black"/>
<path d="M144.199 112.075C143.952 112.979 143.503 113.656 142.902 114.032C142.663 114.182 142.405 114.283 142.132 114.335C141.766 114.404 141.375 114.385 140.972 114.275C140.279 114.086 139.816 113.693 139.595 113.107C139.375 112.528 139.396 111.784 139.655 110.834C139.918 109.871 140.322 109.082 140.821 108.553C141.389 107.952 142.042 107.731 142.71 107.913C143.379 108.096 143.9 108.641 144.176 109.448C144.441 110.224 144.45 111.157 144.199 112.075Z" fill="black"/>
<path d="M139.291 108.049C139.388 109.065 139.194 109.925 138.727 110.539C138.349 111.037 137.81 111.36 137.157 111.485C137.061 111.503 136.963 111.517 136.863 111.526C136.088 111.601 135.468 111.381 135.019 110.873C134.574 110.369 134.308 109.605 134.206 108.536C134.154 107.995 134.155 107.484 134.206 107.017C134.258 106.551 134.361 106.128 134.513 105.763C134.858 104.936 135.434 104.461 136.179 104.389C136.927 104.318 137.664 104.671 138.254 105.383C138.824 106.071 139.192 107.017 139.291 108.049Z" fill="black"/>
<path d="M128.826 112.897C129.418 113.685 129.71 114.369 129.72 114.988C129.73 115.614 129.443 116.15 128.869 116.581C128.536 116.831 128.178 116.994 127.812 117.064C127.54 117.116 127.263 117.117 126.986 117.066C126.288 116.938 125.621 116.473 125.059 115.724C124.488 114.963 124.152 114.092 124.113 113.273C124.073 112.421 124.356 111.722 124.911 111.306C125.464 110.891 126.153 110.856 126.902 111.206C127.561 111.513 128.227 112.098 128.826 112.897Z" fill="black"/>
<path d="M133.056 108.759C133.124 108.994 133.178 109.217 133.219 109.43C133.356 110.149 133.336 110.743 133.16 111.231C132.93 111.868 132.434 112.301 131.687 112.517C131.59 112.545 131.494 112.568 131.398 112.586C130.745 112.711 130.125 112.609 129.59 112.285C128.931 111.886 128.433 111.158 128.149 110.178C127.861 109.183 127.855 108.167 128.131 107.318C128.418 106.438 128.973 105.838 129.695 105.63C130.414 105.422 131.124 105.651 131.749 106.293C132.301 106.86 132.754 107.713 133.056 108.759Z" fill="black"/>
<path d="M152.699 118.162L150.967 109.09L152.222 108.85L152.426 109.92L152.532 109.9C152.582 109.748 152.657 109.569 152.764 109.361C152.871 109.154 153.037 108.959 153.258 108.777C153.479 108.593 153.799 108.46 154.207 108.382C154.741 108.281 155.241 108.325 155.71 108.514C156.18 108.703 156.582 109.029 156.915 109.491C157.254 109.951 157.491 110.538 157.627 111.251C157.763 111.964 157.759 112.599 157.619 113.154C157.479 113.706 157.226 114.159 156.865 114.513C156.499 114.865 156.051 115.091 155.522 115.192C155.119 115.269 154.778 115.264 154.496 115.179C154.218 115.092 153.991 114.972 153.816 114.819C153.635 114.666 153.494 114.527 153.391 114.401L153.316 114.416L153.984 117.917L152.699 118.162ZM152.857 112.148C152.945 112.612 153.089 113.006 153.291 113.33C153.489 113.654 153.738 113.89 154.032 114.039C154.322 114.185 154.653 114.223 155.021 114.153C155.409 114.079 155.707 113.916 155.925 113.664C156.143 113.409 156.286 113.092 156.35 112.715C156.419 112.337 156.409 111.928 156.324 111.487C156.241 111.051 156.101 110.673 155.904 110.351C155.712 110.029 155.463 109.793 155.163 109.642C154.868 109.491 154.526 109.452 154.138 109.526C153.77 109.597 153.471 109.753 153.25 109.994C153.03 110.235 152.889 110.539 152.824 110.908C152.758 111.277 152.769 111.69 152.857 112.148ZM162.984 110.799L162.247 106.937L163.537 106.691L164.796 113.289L163.536 113.529L163.318 112.387L163.248 112.4C163.164 112.781 162.978 113.121 162.685 113.42C162.397 113.716 162.005 113.911 161.512 114.005C161.088 114.086 160.692 114.065 160.329 113.941C159.971 113.814 159.665 113.582 159.408 113.249C159.151 112.915 158.974 112.475 158.87 111.931L158.069 107.735L159.354 107.489L160.125 111.531C160.211 111.981 160.405 112.315 160.703 112.534C161.006 112.752 161.354 112.824 161.752 112.748C161.994 112.702 162.22 112.596 162.433 112.431C162.652 112.265 162.814 112.045 162.929 111.771C163.039 111.498 163.061 111.173 162.984 110.799ZM166.634 115.503L164.903 106.43L166.153 106.192L166.357 107.261L166.468 107.24C166.512 107.089 166.593 106.909 166.7 106.702C166.801 106.496 166.968 106.301 167.194 106.118C167.415 105.933 167.729 105.802 168.143 105.723C168.672 105.622 169.176 105.665 169.646 105.855C170.111 106.045 170.517 106.37 170.851 106.831C171.185 107.293 171.422 107.88 171.558 108.593C171.694 109.306 171.695 109.94 171.555 110.494C171.41 111.048 171.162 111.5 170.796 111.855C170.435 112.206 169.987 112.432 169.453 112.534C169.055 112.61 168.714 112.605 168.431 112.52C168.154 112.433 167.927 112.313 167.747 112.161C167.571 112.007 167.43 111.868 167.327 111.742L167.247 111.757L167.915 115.258L166.634 115.503ZM166.788 109.49C166.876 109.954 167.024 110.347 167.222 110.671C167.425 110.995 167.674 111.231 167.963 111.38C168.258 111.526 168.589 111.564 168.957 111.493C169.34 111.42 169.643 111.257 169.861 111.005C170.079 110.75 170.222 110.433 170.286 110.056C170.355 109.677 170.345 109.268 170.26 108.827C170.177 108.392 170.037 108.014 169.84 107.692C169.643 107.371 169.394 107.135 169.099 106.983C168.803 106.832 168.462 106.793 168.074 106.867C167.701 106.938 167.407 107.094 167.186 107.335C166.966 107.576 166.825 107.88 166.755 108.25C166.689 108.618 166.7 109.032 166.788 109.49ZM173.736 114.147L172.005 105.075L173.26 104.836L173.464 105.905L173.57 105.885C173.619 105.733 173.695 105.554 173.801 105.347C173.908 105.14 174.069 104.945 174.296 104.763C174.516 104.578 174.836 104.446 175.244 104.368C175.773 104.267 176.278 104.31 176.748 104.5C177.217 104.689 177.619 105.015 177.953 105.476C178.291 105.937 178.529 106.524 178.665 107.237C178.801 107.95 178.796 108.584 178.657 109.139C178.517 109.691 178.264 110.145 177.898 110.5C177.536 110.851 177.089 111.077 176.554 111.179C176.156 111.255 175.816 111.25 175.533 111.165C175.255 111.078 175.029 110.958 174.853 110.805C174.673 110.652 174.531 110.513 174.429 110.387L174.353 110.401L175.021 113.902L173.736 114.147ZM173.889 108.135C173.978 108.599 174.126 108.992 174.329 109.315C174.526 109.64 174.775 109.876 175.065 110.025C175.359 110.171 175.69 110.209 176.058 110.138C176.441 110.065 176.744 109.902 176.962 109.65C177.18 109.394 177.323 109.078 177.387 108.701C177.456 108.322 177.446 107.913 177.362 107.472C177.279 107.037 177.139 106.659 176.941 106.337C176.744 106.016 176.501 105.779 176.2 105.628C175.905 105.477 175.563 105.438 175.175 105.512C174.802 105.583 174.508 105.739 174.288 105.98C174.067 106.221 173.927 106.525 173.861 106.894C173.796 107.262 173.802 107.677 173.889 108.135ZM180.365 110.318L179.106 103.72L180.391 103.475L181.65 110.073L180.365 110.318ZM179.562 102.578C179.335 102.621 179.13 102.583 178.945 102.464C178.755 102.343 178.645 102.177 178.605 101.968C178.564 101.756 178.605 101.562 178.738 101.382C178.866 101.2 179.043 101.088 179.269 101.045C179.491 101.002 179.697 101.042 179.882 101.164C180.072 101.282 180.187 101.447 180.228 101.659C180.268 101.868 180.221 102.063 180.089 102.246C179.961 102.425 179.784 102.536 179.562 102.578ZM185.884 109.403C185.234 109.527 184.648 109.495 184.126 109.307C183.604 109.115 183.166 108.791 182.817 108.332C182.468 107.87 182.228 107.297 182.098 106.613C181.969 105.937 181.981 105.317 182.135 104.754C182.288 104.19 182.569 103.72 182.968 103.344C183.371 102.967 183.878 102.721 184.493 102.603C184.866 102.532 185.235 102.525 185.612 102.581C185.983 102.638 186.332 102.772 186.66 102.982C186.992 103.192 187.274 103.493 187.516 103.883C187.757 104.27 187.935 104.763 188.049 105.362L188.136 105.817L182.889 106.818L182.705 105.856L186.692 105.095C186.628 104.757 186.5 104.471 186.314 104.237C186.128 103.999 185.892 103.829 185.616 103.725C185.34 103.62 185.038 103.599 184.705 103.662C184.342 103.732 184.047 103.88 183.809 104.11C183.575 104.335 183.412 104.604 183.32 104.915C183.232 105.223 183.22 105.541 183.283 105.87L183.426 106.622C183.51 107.063 183.658 107.424 183.873 107.703C184.088 107.983 184.355 108.177 184.663 108.287C184.976 108.394 185.319 108.411 185.692 108.34C185.939 108.293 186.154 108.216 186.343 108.109C186.525 108 186.682 107.86 186.801 107.692C186.92 107.524 186.998 107.33 187.035 107.109L188.291 107.096C188.264 107.472 188.147 107.82 187.946 108.137C187.75 108.45 187.477 108.718 187.128 108.939C186.778 109.157 186.363 109.312 185.884 109.403ZM193.743 102.597L192.618 103.025C192.544 102.885 192.436 102.758 192.305 102.644C192.178 102.529 192.016 102.445 191.823 102.393C191.63 102.341 191.395 102.341 191.133 102.391C190.765 102.461 190.479 102.601 190.268 102.81C190.056 103.017 189.975 103.247 190.024 103.502C190.066 103.723 190.18 103.885 190.367 103.989C190.554 104.093 190.842 104.152 191.222 104.169L192.316 104.209C192.948 104.234 193.442 104.364 193.796 104.599C194.149 104.834 194.372 105.185 194.461 105.652C194.537 106.047 194.488 106.421 194.32 106.774C194.152 107.123 193.88 107.425 193.505 107.677C193.136 107.929 192.683 108.106 192.154 108.207C191.413 108.348 190.778 108.306 190.255 108.079C189.725 107.851 189.352 107.455 189.135 106.891L190.343 106.464C190.481 106.773 190.689 106.987 190.957 107.108C191.23 107.225 191.559 107.247 191.947 107.173C192.365 107.093 192.686 106.942 192.905 106.719C193.123 106.493 193.207 106.253 193.159 105.998C193.12 105.792 193.011 105.633 192.828 105.523C192.65 105.411 192.398 105.349 192.067 105.338L190.906 105.306C190.259 105.284 189.763 105.147 189.412 104.897C189.061 104.646 188.841 104.286 188.752 103.816C188.677 103.427 188.718 103.066 188.879 102.732C189.045 102.398 189.299 102.114 189.651 101.877C190.007 101.637 190.43 101.47 190.924 101.376C191.64 101.24 192.229 101.287 192.696 101.519C193.163 101.747 193.513 102.106 193.743 102.597Z" fill="black"/>
<path d="M234.032 104.495C233.555 104.981 232.882 105.288 231.98 105.434C231.387 105.529 230.775 105.55 230.164 105.495C228.76 105.367 227.359 105.635 226.101 106.27C225.553 106.547 224.976 106.753 224.395 106.881C224.335 106.894 224.28 106.906 224.224 106.916C223.403 107.073 222.719 107.023 222.137 106.764C221.075 106.292 220.344 105.007 220.443 103.775C220.526 102.675 221.161 101.814 221.775 100.982C221.858 100.87 221.946 100.753 222.024 100.64C222.643 99.7802 223.18 98.8414 223.617 97.8507C223.672 97.7256 223.731 97.5956 223.78 97.4711C223.986 96.9908 224.199 96.4941 224.491 96.0519L224.504 96.0349C224.861 95.4984 225.413 95.1351 226.058 95.012C226.381 94.9505 226.705 94.9529 227.01 95.018C227.32 95.0818 227.616 95.2069 227.88 95.3906L227.898 95.4017C228.332 95.7055 228.714 96.0887 229.082 96.4597C229.174 96.5569 229.276 96.6562 229.373 96.7524C230.145 97.5126 230.989 98.1876 231.882 98.7593C232.001 98.8345 232.12 98.9116 232.239 98.9856C233.116 99.5333 234.024 100.1 234.505 101.092C235.051 102.201 234.845 103.664 234.032 104.495Z" fill="black"/>
<path d="M235.894 94.576C235.644 95.4808 235.198 96.1574 234.596 96.5334C234.358 96.6827 234.1 96.7835 233.828 96.8355C233.46 96.9057 233.07 96.8861 232.668 96.7759C231.973 96.587 231.512 96.1939 231.29 95.6081C231.07 95.0291 231.09 94.2854 231.348 93.3352C231.613 92.3718 232.016 91.5832 232.516 91.0543C233.086 90.453 233.738 90.2318 234.405 90.4141C235.072 90.5974 235.594 91.1422 235.868 91.9498C236.136 92.725 236.142 93.6586 235.894 94.576Z" fill="black"/>
<path d="M230.988 90.5575C231.087 91.5724 230.891 92.4333 230.423 93.047C230.048 93.5444 229.509 93.8678 228.854 93.9929C228.758 94.0111 228.661 94.0248 228.559 94.0349C227.789 94.1082 227.168 93.8888 226.716 93.3816C226.275 92.8767 226.009 92.1125 225.904 91.0444C225.853 90.5026 225.855 89.9918 225.907 89.525C225.959 89.0582 226.061 88.6357 226.211 88.2709C226.554 87.4439 227.132 86.9689 227.876 86.8977C228.625 86.8257 229.361 87.1789 229.951 87.8916C230.521 88.5788 230.89 89.5255 230.988 90.5575Z" fill="black"/>
<path d="M220.53 95.3986C221.119 96.187 221.412 96.871 221.42 97.4904C221.43 98.1166 221.146 98.6521 220.57 99.0833C220.236 99.3339 219.881 99.4959 219.513 99.5661C219.24 99.618 218.964 99.6191 218.688 99.5679C217.989 99.44 217.326 98.9751 216.76 98.226C216.192 97.4644 215.853 96.5943 215.817 95.7749C215.775 94.923 216.059 94.2243 216.612 93.8083C217.165 93.3933 217.853 93.3586 218.604 93.708C219.263 94.0156 219.928 94.6003 220.53 95.3986Z" fill="black"/>
<path d="M224.747 91.2617C224.813 91.4972 224.866 91.721 224.906 91.9337C225.044 92.653 225.026 93.2457 224.848 93.7344C224.619 94.3715 224.122 94.8044 223.375 95.0206C223.281 95.048 223.186 95.0709 223.09 95.0892C222.435 95.2142 221.814 95.112 221.277 94.7887C220.621 94.3894 220.122 93.6613 219.841 92.681C219.552 91.6856 219.546 90.6695 219.823 89.8208C220.109 88.9408 220.664 88.3414 221.386 88.1325C222.104 87.9248 222.811 88.1546 223.441 88.7959C223.993 89.3632 224.443 90.2165 224.747 91.2617Z" fill="black"/>
<path d="M244.386 100.666L242.655 91.5935L243.905 91.355L244.109 92.4246L244.22 92.4035C244.264 92.2525 244.345 92.0725 244.451 91.8651C244.553 91.6587 244.72 91.4637 244.946 91.281C245.167 91.0964 245.481 90.9652 245.894 90.8864C246.424 90.7854 246.928 90.8286 247.393 91.0189C247.862 91.2083 248.269 91.5328 248.603 91.9945C248.936 92.4562 249.174 93.0431 249.31 93.7561C249.446 94.4692 249.447 95.1027 249.307 95.6576C249.162 96.2107 248.914 96.6631 248.548 97.0178C248.186 97.3688 247.739 97.5952 247.204 97.6971C246.806 97.7731 246.461 97.7693 246.183 97.6828C245.905 97.5963 245.679 97.4763 245.498 97.3238C245.323 97.1703 245.181 97.0311 245.079 96.9052L244.998 96.9206L245.666 100.421L244.386 100.666ZM244.539 94.6531C244.628 95.117 244.776 95.5101 244.974 95.8345C245.176 96.1579 245.425 96.3939 245.715 96.5434C246.009 96.6891 246.34 96.7268 246.708 96.6566C247.091 96.5835 247.394 96.4203 247.613 96.1679C247.83 95.9127 247.974 95.596 248.037 95.2188C248.106 94.8405 248.096 94.4314 248.012 93.9904C247.929 93.5551 247.789 93.1767 247.592 92.8552C247.394 92.5337 247.146 92.2977 246.85 92.1463C246.555 91.9949 246.213 91.9562 245.825 92.0303C245.452 92.1015 245.158 92.2571 244.933 92.499C244.717 92.7389 244.577 93.0432 244.506 93.4128C244.441 93.7814 244.452 94.1949 244.539 94.6531ZM254.671 93.3028L253.935 89.4411L255.225 89.1949L256.484 95.7929L255.219 96.0343L255.001 94.8917L254.935 94.9042C254.846 95.2862 254.66 95.6259 254.372 95.9242C254.084 96.2197 253.693 96.4145 253.194 96.5097C252.771 96.5905 252.38 96.5686 252.017 96.445C251.658 96.3175 251.348 96.0873 251.091 95.7535C250.839 95.4187 250.661 94.9793 250.557 94.4352L249.756 90.2384L251.042 89.9932L251.813 94.0353C251.899 94.4849 252.088 94.8198 252.391 95.038C252.689 95.2572 253.036 95.3288 253.435 95.2528C253.677 95.2067 253.907 95.1004 254.121 94.9349C254.335 94.7694 254.502 94.5491 254.612 94.2759C254.726 94.0017 254.748 93.677 254.671 93.3028ZM258.317 98.0074L256.586 88.9353L257.841 88.6958L258.045 89.7654L258.151 89.7452C258.2 89.5933 258.275 89.4142 258.382 89.2068C258.489 88.9995 258.655 88.8045 258.877 88.6227C259.102 88.4372 259.417 88.306 259.825 88.2281C260.359 88.1261 260.859 88.1703 261.329 88.3597C261.798 88.5491 262.2 88.8746 262.534 89.3363C262.872 89.7969 263.11 90.3838 263.246 91.0969C263.382 91.8099 263.377 92.4444 263.238 92.9993C263.098 93.5514 262.845 94.0048 262.484 94.3586C262.117 94.7105 261.67 94.9369 261.14 95.0379C260.737 95.1148 260.397 95.1101 260.119 95.0235C259.841 94.9371 259.61 94.818 259.434 94.6645C259.253 94.512 259.117 94.3718 259.01 94.2469L258.934 94.2613L259.602 97.7622L258.317 98.0074ZM258.475 91.9938C258.564 92.4577 258.707 92.8519 258.91 93.1753C259.112 93.4987 259.356 93.7356 259.651 93.8842C259.94 94.0308 260.271 94.0685 260.644 93.9974C261.027 93.9243 261.325 93.762 261.543 93.5097C261.766 93.2535 261.904 92.9377 261.968 92.5605C262.037 92.1823 262.027 91.7731 261.943 91.3321C261.86 90.8968 261.72 90.5185 261.522 90.197C261.33 89.8745 261.082 89.6385 260.781 89.4881C260.486 89.3367 260.144 89.298 259.761 89.3711C259.388 89.4422 259.089 89.5988 258.869 89.8397C258.653 90.0796 258.508 90.3849 258.442 90.7536C258.377 91.1222 258.388 91.5356 258.475 91.9938ZM265.418 96.6523L263.687 87.5802L264.942 87.3407L265.146 88.4103L265.257 88.3891C265.301 88.2382 265.382 88.0581 265.484 87.8517C265.59 87.6444 265.757 87.4494 265.978 87.2676C266.204 87.0821 266.518 86.9509 266.927 86.873C267.461 86.771 267.96 86.8152 268.43 87.0046C268.9 87.1939 269.301 87.5195 269.64 87.9802C269.974 88.4418 270.211 89.0287 270.347 89.7418C270.483 90.4548 270.484 91.0884 270.339 91.6442C270.199 92.1963 269.946 92.6497 269.585 93.0035C269.224 93.3544 268.776 93.5809 268.242 93.6828C267.839 93.7597 267.498 93.755 267.22 93.6684C266.943 93.582 266.716 93.462 266.536 93.3094C266.36 93.156 266.219 93.0167 266.116 92.8909L266.035 92.9062L266.703 96.4071L265.418 96.6523ZM265.577 90.6387C265.665 91.1026 265.808 91.4967 266.011 91.8202C266.214 92.1436 266.458 92.3805 266.752 92.5291C267.046 92.6747 267.378 92.7125 267.745 92.6423C268.128 92.5692 268.432 92.406 268.65 92.1536C268.868 91.8984 269.011 91.5816 269.075 91.2044C269.139 90.8272 269.133 90.4171 269.049 89.9761C268.966 89.5408 268.826 89.1624 268.629 88.8409C268.432 88.5194 268.183 88.2834 267.888 88.132C267.587 87.9816 267.251 87.9419 266.863 88.016C266.49 88.0871 266.191 88.2437 265.97 88.4846C265.755 88.7245 265.609 89.0298 265.544 89.3984C265.478 89.7671 265.489 90.1805 265.577 90.6387ZM272.053 92.822L270.794 86.2241L272.074 85.9798L273.333 92.5778L272.053 92.822ZM271.245 85.0829C271.023 85.1253 270.817 85.0874 270.627 84.9692C270.442 84.8473 270.327 84.6823 270.287 84.4732C270.247 84.2613 270.293 84.0655 270.421 83.8867C270.553 83.7042 270.73 83.5918 270.952 83.5494C271.179 83.5062 271.38 83.5465 271.57 83.6675C271.755 83.7866 271.87 83.9516 271.91 84.1635C271.95 84.3726 271.904 84.5684 271.777 84.7499C271.644 84.9296 271.471 85.0397 271.245 85.0829ZM277.567 91.9079C276.917 92.0319 276.331 91.9998 275.809 91.8114C275.292 91.6193 274.854 91.2948 274.5 90.837C274.151 90.3753 273.911 89.8023 273.78 89.1179C273.651 88.442 273.663 87.8223 273.817 87.2588C273.976 86.6943 274.252 86.2246 274.655 85.8479C275.059 85.4711 275.565 85.2246 276.18 85.1072C276.548 85.037 276.923 85.0293 277.294 85.0861C277.67 85.1419 278.02 85.2756 278.347 85.4861C278.675 85.6967 278.962 85.9966 279.198 86.3877C279.439 86.7751 279.617 87.268 279.731 87.8665L279.818 88.3218L274.571 89.323L274.388 88.3608L278.375 87.6001C278.31 87.2622 278.187 86.9754 277.997 86.7417C277.81 86.5042 277.579 86.3332 277.298 86.2295C277.027 86.1239 276.72 86.1038 276.388 86.1673C276.03 86.2355 275.729 86.3849 275.496 86.6134C275.262 86.8391 275.099 87.1076 275.007 87.419C274.92 87.7265 274.902 88.0459 274.965 88.3753L275.109 89.127C275.193 89.568 275.345 89.9278 275.555 90.2082C275.776 90.4867 276.037 90.6816 276.351 90.791C276.664 90.8975 277.006 90.9151 277.379 90.844C277.621 90.7978 277.837 90.7211 278.025 90.614C278.213 90.5039 278.364 90.3652 278.484 90.197C278.603 90.0288 278.681 89.8344 278.722 89.6128L279.978 89.6001C279.951 89.9763 279.835 90.3236 279.634 90.6409C279.438 90.9543 279.16 91.2225 278.81 91.4436C278.465 91.6607 278.051 91.8155 277.567 91.9079ZM285.43 85.1007L284.305 85.529C284.226 85.3898 284.124 85.2624 283.992 85.148C283.861 85.0336 283.703 84.9493 283.506 84.898C283.313 84.8458 283.083 84.8451 282.816 84.8961C282.453 84.9654 282.166 85.1047 281.955 85.3141C281.739 85.5216 281.658 85.7523 281.706 86.0071C281.748 86.2276 281.863 86.3898 282.055 86.4927C282.242 86.5965 282.525 86.6567 282.904 86.6734L283.998 86.7139C284.635 86.7379 285.13 86.8675 285.483 87.1028C285.836 87.3382 286.055 87.6898 286.144 88.1565C286.219 88.5517 286.176 88.9251 286.003 89.2786C285.834 89.6283 285.568 89.9285 285.193 90.1811C284.823 90.4327 284.371 90.6095 283.837 90.7114C283.101 90.8519 282.466 90.8098 281.937 90.5842C281.413 90.3548 281.039 89.9586 280.822 89.3946L282.026 88.969C282.168 89.2772 282.371 89.4923 282.645 89.6122C282.918 89.7293 283.246 89.7512 283.629 89.6781C284.052 89.5973 284.373 89.4456 284.592 89.2228C284.81 88.9972 284.895 88.7569 284.846 88.502C284.807 88.2959 284.693 88.138 284.515 88.0265C284.337 87.9151 284.08 87.8543 283.754 87.8424L282.588 87.811C281.947 87.788 281.451 87.6512 281.095 87.4016C280.744 87.1509 280.524 86.7908 280.434 86.3211C280.36 85.9317 280.406 85.5697 280.567 85.2363C280.728 84.9028 280.987 84.6174 281.338 84.3811C281.69 84.1419 282.112 83.9752 282.611 83.88C283.322 83.7444 283.911 83.7923 284.383 84.0227C284.85 84.2512 285.201 84.6102 285.43 85.1007Z" fill="black"/>
<path d="M325.737 86.9962C325.261 87.4821 324.588 87.7891 323.681 87.9361C323.088 88.0319 322.481 88.0517 321.869 87.996C320.466 87.8689 319.06 88.1372 317.807 88.7712C317.254 89.0491 316.682 89.2543 316.096 89.3835C316.04 89.3956 315.98 89.4081 315.925 89.4187C315.108 89.5745 314.425 89.5242 313.843 89.2659C312.781 88.7931 312.05 87.5089 312.144 86.2777C312.232 85.1767 312.867 84.316 313.481 83.4837C313.564 83.3712 313.646 83.2556 313.729 83.1419C314.349 82.2817 314.885 81.3429 315.323 80.3522C315.377 80.2271 315.431 80.098 315.485 79.9726C315.692 79.4923 315.905 78.9956 316.197 78.5534L316.209 78.5364C316.566 77.9999 317.119 77.6366 317.764 77.5135C318.086 77.452 318.406 77.4554 318.716 77.5195C319.026 77.5833 319.321 77.7084 319.586 77.892L319.599 77.9042C320.038 78.207 320.414 78.5911 320.783 78.9621C320.879 79.0584 320.977 79.1586 321.079 79.2539C321.851 80.0141 322.695 80.6891 323.583 81.2618C323.701 81.337 323.826 81.4131 323.944 81.4871C324.822 82.0348 325.724 82.6021 326.211 83.5935C326.757 84.7024 326.55 86.1656 325.737 86.9962Z" fill="black"/>
<path d="M327.576 77.0806C327.326 77.9855 326.88 78.6621 326.278 79.038C326.035 79.1883 325.778 79.2891 325.506 79.341C325.143 79.4103 324.747 79.3916 324.345 79.2815C323.656 79.0917 323.189 78.6995 322.968 78.1137C322.753 77.5337 322.773 76.79 323.03 75.8398C323.295 74.8764 323.699 74.0878 324.198 73.5589C324.763 72.9585 325.416 72.7374 326.082 72.9197C326.754 73.102 327.276 73.6468 327.551 74.4544C327.819 75.2297 327.824 76.1632 327.576 77.0806Z" fill="black"/>
<path d="M322.678 73.059C322.778 74.0738 322.581 74.9348 322.113 75.5485C321.738 76.0459 321.199 76.3693 320.544 76.4943C320.448 76.5126 320.352 76.5263 320.249 76.5363C319.474 76.6106 318.853 76.3912 318.406 75.883C317.96 75.3791 317.694 74.615 317.594 73.5459C317.543 73.004 317.54 72.4942 317.592 72.0274C317.644 71.5606 317.746 71.1381 317.901 70.7724C318.244 69.9454 318.822 69.4704 319.566 69.3991C320.315 69.3272 321.051 69.6804 321.642 70.3931C322.211 71.0802 322.58 72.0269 322.678 73.059Z" fill="black"/>
<path d="M312.223 77.901C312.818 78.6884 313.11 79.3724 313.119 79.9918C313.128 80.6179 312.844 81.1535 312.268 81.5847C311.934 81.8352 311.579 81.9972 311.211 82.0674C310.939 82.1194 310.662 82.1205 310.386 82.0693C309.688 81.9414 309.019 81.4774 308.458 80.7274C307.885 79.9668 307.552 79.0957 307.51 78.2772C307.473 77.4244 307.752 76.7266 308.31 76.3097C308.863 75.8947 309.551 75.86 310.302 76.2094C310.961 76.517 311.627 77.1017 312.223 77.901Z" fill="black"/>
<path d="M316.43 73.7647C316.501 73.9992 316.554 74.2229 316.595 74.4357C316.732 75.155 316.715 75.7477 316.536 76.2364C316.308 76.8735 315.811 77.3064 315.063 77.5225C314.969 77.55 314.869 77.5738 314.774 77.5921C314.123 77.7162 313.503 77.614 312.966 77.2906C312.305 76.8924 311.811 76.1632 311.525 75.1839C311.235 74.1885 311.23 73.1724 311.506 72.3238C311.793 71.4437 312.352 70.8433 313.07 70.6354C313.793 70.4268 314.5 70.6566 315.124 71.2989C315.676 71.8662 316.132 72.7185 316.43 73.7647Z" fill="black"/>
<path d="M336.066 83.1725L334.335 74.1004L335.59 73.8609L335.794 74.9305L335.9 74.9103C335.949 74.7584 336.024 74.5793 336.131 74.3719C336.238 74.1646 336.404 73.9696 336.626 73.7878C336.851 73.6023 337.166 73.4711 337.574 73.3932C338.108 73.2912 338.608 73.3354 339.077 73.5248C339.547 73.7142 339.949 74.0397 340.282 74.5014C340.621 74.962 340.858 75.5489 340.995 76.262C341.131 76.975 341.126 77.6095 340.987 78.1644C340.846 78.7165 340.593 79.1699 340.233 79.5237C339.866 79.8756 339.418 80.102 338.889 80.203C338.486 80.28 338.146 80.2752 337.868 80.1886C337.59 80.1022 337.358 79.9831 337.183 79.8296C337.007 79.6762 336.866 79.5369 336.759 79.412L336.683 79.4264L337.351 82.9273L336.066 83.1725ZM336.224 77.1589C336.313 77.6228 336.456 78.017 336.658 78.3404C336.861 78.6638 337.105 78.9007 337.4 79.0493C337.689 79.1959 338.02 79.2336 338.393 79.1625C338.776 79.0894 339.074 78.9271 339.297 78.6738C339.515 78.4186 339.653 78.1028 339.717 77.7256C339.786 77.3474 339.781 76.9373 339.697 76.4963C339.614 76.061 339.468 75.6836 339.271 75.3621C339.079 75.0396 338.83 74.8036 338.53 74.6532C338.235 74.5018 337.893 74.4631 337.51 74.5362C337.137 74.6073 336.838 74.7639 336.617 75.0048C336.402 75.2447 336.257 75.55 336.191 75.9187C336.126 76.2873 336.137 76.7007 336.224 77.1589ZM346.356 75.8087L345.619 71.947L346.905 71.7018L348.164 78.2997L346.904 78.5401L346.686 77.3976L346.615 77.411C346.531 77.7921 346.345 78.1318 346.052 78.431C345.764 78.7265 345.373 78.9213 344.879 79.0156C344.455 79.0964 344.06 79.0754 343.701 78.9508C343.338 78.8243 343.033 78.5932 342.776 78.2594C342.524 77.9246 342.341 77.4861 342.237 76.942L341.436 72.7453L342.721 72.5L343.493 76.5421C343.578 76.9917 343.773 77.3257 344.07 77.5449C344.373 77.7631 344.721 77.8347 345.119 77.7587C345.361 77.7125 345.587 77.6072 345.801 77.4417C346.02 77.2753 346.187 77.055 346.296 76.7818C346.411 76.5076 346.428 76.1839 346.356 75.8087ZM350.002 80.5133L348.27 71.4411L349.525 71.2017L349.729 72.2713L349.835 72.2511C349.885 72.0991 349.96 71.92 350.067 71.7127C350.174 71.5054 350.335 71.3113 350.561 71.1286C350.782 70.944 351.102 70.8119 351.51 70.734C352.039 70.633 352.544 70.6762 353.013 70.8655C353.483 71.0549 353.885 71.3804 354.218 71.8421C354.557 72.3028 354.794 72.8897 354.93 73.6027C355.066 74.3158 355.062 74.9503 354.922 75.5052C354.782 76.0573 354.529 76.5107 354.163 76.8654C353.802 77.2164 353.354 77.4428 352.82 77.5447C352.422 77.6207 352.081 77.6159 351.799 77.5304C351.521 77.4439 351.294 77.3239 351.119 77.1704C350.938 77.0179 350.797 76.8787 350.694 76.7528L350.619 76.7672L351.287 80.2681L350.002 80.5133ZM350.16 74.4997C350.248 74.9636 350.392 75.3577 350.594 75.6811C350.792 76.0055 351.041 76.2415 351.331 76.391C351.625 76.5366 351.956 76.5744 352.324 76.5042C352.707 76.4311 353.01 76.2679 353.228 76.0155C353.446 75.7603 353.589 75.4436 353.653 75.0663C353.722 74.6881 353.712 74.279 353.628 73.838C353.544 73.4027 353.404 73.0243 353.207 72.7028C353.01 72.3813 352.766 72.1444 352.466 71.9939C352.171 71.8425 351.829 71.8038 351.441 71.8779C351.068 71.9491 350.774 72.1046 350.553 72.3456C350.333 72.5864 350.192 72.8908 350.127 73.2594C350.062 73.6281 350.073 74.0415 350.16 74.4997ZM357.103 79.1582L355.372 70.086L356.627 69.8466L356.831 70.9162L356.937 70.896C356.986 70.744 357.062 70.5649 357.168 70.3576C357.275 70.1503 357.442 69.9553 357.663 69.7735C357.884 69.5889 358.203 69.4568 358.611 69.3789C359.146 69.2769 359.645 69.3211 360.115 69.5104C360.585 69.6998 360.986 70.0253 361.32 70.487C361.658 70.9477 361.896 71.5346 362.032 72.2476C362.168 72.9607 362.164 73.5952 362.024 74.1501C361.884 74.7022 361.631 75.1556 361.27 75.5094C360.904 75.8612 360.456 76.0877 359.927 76.1887C359.523 76.2656 359.183 76.2608 358.9 76.1753C358.622 76.0888 358.396 75.9688 358.22 75.8153C358.04 75.6628 357.903 75.5226 357.796 75.3977L357.72 75.4121L358.388 78.913L357.103 79.1582ZM357.261 73.1446C357.35 73.6085 357.493 74.0026 357.696 74.326C357.899 74.6494 358.142 74.8864 358.437 75.0349C358.726 75.1815 359.057 75.2193 359.43 75.1481C359.813 75.075 360.111 74.9128 360.33 74.6604C360.552 74.4042 360.691 74.0884 360.755 73.7112C360.823 73.333 360.813 72.9239 360.729 72.4829C360.646 72.0476 360.506 71.6692 360.309 71.3477C360.117 71.0253 359.868 70.7893 359.568 70.6388C359.272 70.4874 358.931 70.4487 358.547 70.5218C358.174 70.593 357.875 70.7495 357.655 70.9905C357.434 71.2313 357.294 71.5357 357.228 71.9043C357.163 72.273 357.174 72.6864 357.261 73.1446ZM363.732 75.3289L362.473 68.7309L363.759 68.4857L365.018 75.0836L363.732 75.3289ZM362.929 67.5888C362.708 67.6311 362.502 67.5932 362.312 67.4751C362.127 67.3531 362.012 67.1881 361.972 66.9791C361.932 66.7671 361.978 66.5714 362.106 66.3926C362.238 66.2101 362.415 66.0976 362.637 66.0553C362.858 66.013 363.064 66.0524 363.25 66.1743C363.439 66.2925 363.554 66.4575 363.595 66.6694C363.635 66.8785 363.589 67.0742 363.456 67.2568C363.328 67.4355 363.151 67.5465 362.929 67.5888ZM369.252 74.4137C368.601 74.5378 368.015 74.5057 367.494 74.3173C366.971 74.1261 366.538 73.8007 366.185 73.3429C365.835 72.8812 365.595 72.3081 365.465 71.6237C365.336 70.9479 365.348 70.3282 365.502 69.7646C365.661 69.2001 365.937 68.7305 366.34 68.3537C366.738 67.9779 367.25 67.7304 367.86 67.614C368.233 67.5429 368.608 67.5352 368.979 67.5919C369.35 67.6488 369.705 67.7815 370.032 67.992C370.36 68.2026 370.642 68.5034 370.883 68.8936C371.124 69.281 371.302 69.7738 371.416 70.3724L371.503 70.8277L366.256 71.8289L366.073 70.8667L370.059 70.1059C369.995 69.768 369.867 69.4822 369.681 69.2476C369.495 69.0101 369.264 68.839 368.983 68.7354C368.707 68.6307 368.405 68.6096 368.073 68.6731C367.71 68.7424 367.414 68.8907 367.176 69.1202C366.947 69.3449 366.784 69.6134 366.692 69.9248C366.599 70.2334 366.587 70.5518 366.65 70.8812L366.793 71.6329C366.878 72.0739 367.025 72.4346 367.24 72.7141C367.455 72.9935 367.722 73.1875 368.035 73.2968C368.343 73.4043 368.686 73.422 369.064 73.3498C369.306 73.3037 369.521 73.227 369.71 73.1198C369.898 73.0097 370.049 72.8711 370.168 72.7029C370.288 72.5347 370.365 72.3402 370.402 72.1196L371.663 72.106C371.631 72.4832 371.519 72.8295 371.319 73.1467C371.117 73.4611 370.845 73.7284 370.495 73.9494C370.15 74.1666 369.735 74.3214 369.252 74.4137ZM377.115 67.6065L375.99 68.0349C375.911 67.8956 375.808 67.7683 375.677 67.6539C375.545 67.5395 375.383 67.4562 375.19 67.4039C374.998 67.3517 374.768 67.351 374.501 67.402C374.138 67.4712 373.851 67.6106 373.635 67.8209C373.424 68.0274 373.342 68.2582 373.391 68.513C373.433 68.7335 373.548 68.8957 373.735 68.9995C373.927 69.1024 374.21 69.1626 374.589 69.1793L375.683 69.2198C376.32 69.2437 376.81 69.3744 377.163 69.6097C377.521 69.8441 377.739 70.1956 377.829 70.6624C377.904 71.0576 377.855 71.4319 377.687 71.7845C377.519 72.1342 377.248 72.4353 376.878 72.6869C376.503 72.9395 376.056 73.1154 375.521 73.2173C374.781 73.3587 374.151 73.3156 373.622 73.0901C373.092 72.8616 372.724 72.4645 372.507 71.9005L373.711 71.4749C373.848 71.784 374.056 71.9981 374.325 72.119C374.598 72.2361 374.926 72.2581 375.314 72.184C375.737 72.1032 376.053 71.9524 376.272 71.7297C376.49 71.504 376.575 71.2637 376.526 71.0089C376.487 70.8027 376.378 70.6439 376.195 70.5334C376.017 70.4219 375.765 70.3602 375.434 70.3492L374.273 70.3169C373.632 70.2939 373.13 70.158 372.779 69.9074C372.429 69.6568 372.208 69.2966 372.119 68.827C372.045 68.4375 372.09 68.0756 372.251 67.7421C372.412 67.4087 372.671 67.1233 373.023 66.887C373.375 66.6478 373.797 66.4811 374.291 66.3869C375.007 66.2503 375.596 66.2982 376.063 66.5295C376.535 66.7571 376.88 67.117 377.115 67.6065Z" fill="black"/>
</g>
<defs>
<clipPath id="clip0_3_8773">
<rect width="953.346" height="60.0331" fill="white" transform="translate(-360 178.693) rotate(-10.8033)"/>
</clipPath>
</defs>
</svg>
