<svg width="22" height="21" viewBox="0 0 22 21" fill="none" xmlns="http://www.w3.org/2000/svg">
<path d="M20.7348 19.297L16.9873 15.5799C18.442 13.7662 19.1464 11.464 18.9558 9.14688C18.7652 6.82972 17.6941 4.67366 15.9626 3.12201C14.2312 1.57036 11.971 0.741078 9.64689 0.804675C7.32277 0.868271 5.11135 1.81991 3.46734 3.46392C1.82333 5.10794 0.871689 7.31936 0.808092 9.64347C0.744496 11.9676 1.57378 14.2277 3.12543 15.9592C4.67707 17.6906 6.83314 18.7618 9.1503 18.9524C11.4675 19.143 13.7696 18.4386 15.5833 16.9839L19.3005 20.7011C19.3944 20.7957 19.5061 20.8709 19.6292 20.9222C19.7522 20.9734 19.8843 20.9998 20.0176 20.9998C20.151 20.9998 20.283 20.9734 20.4061 20.9222C20.5292 20.8709 20.6409 20.7957 20.7348 20.7011C20.9168 20.5127 21.0186 20.261 21.0186 19.999C21.0186 19.7371 20.9168 19.4854 20.7348 19.297ZM9.91666 16.9839C8.51821 16.9839 7.15117 16.5692 5.98841 15.7923C4.82564 15.0154 3.91938 13.9111 3.38421 12.6191C2.84905 11.3271 2.70903 9.9054 2.98185 8.53382C3.25467 7.16225 3.92809 5.90237 4.91694 4.91352C5.90579 3.92467 7.16567 3.25126 8.53724 2.97843C9.90882 2.70561 11.3305 2.84563 12.6225 3.3808C13.9145 3.91596 15.0188 4.82222 15.7957 5.98499C16.5726 7.14775 16.9873 8.5148 16.9873 9.91324C16.9873 11.7885 16.2424 13.587 14.9164 14.913C13.5904 16.239 11.7919 16.9839 9.91666 16.9839Z" fill="white"/>
</svg>
