<svg width="20" height="16" viewBox="0 0 20 16" fill="none" xmlns="http://www.w3.org/2000/svg">
<path d="M1.96672 6.95149C6.91223 4.9293 10.21 3.59614 11.8601 2.95202C16.5713 1.11295 17.5503 0.793479 18.1883 0.782817C18.3287 0.780609 18.6425 0.81325 18.8457 0.968038C19.0173 1.09874 19.0646 1.27529 19.0872 1.39921C19.1098 1.52313 19.1379 1.80541 19.1155 2.02599C18.8602 4.54354 17.7555 10.653 17.1935 13.4727C16.9557 14.6658 16.4875 15.0659 16.0342 15.105C15.049 15.1901 14.3009 14.494 13.3467 13.907C11.8536 12.9884 11.0101 12.4166 9.56079 11.5202C7.88586 10.4844 8.97165 9.91501 9.92619 8.98455C10.176 8.74104 14.5167 5.03564 14.6007 4.69951C14.6112 4.65747 14.6209 4.50076 14.5217 4.41802C14.4225 4.33527 14.2761 4.36357 14.1705 4.38607C14.0207 4.41797 11.6355 5.89759 7.01473 8.82494C6.33769 9.26127 5.72444 9.47386 5.17499 9.46272C4.56927 9.45044 3.4041 9.14129 2.53792 8.87704C1.47551 8.55293 0.631132 8.38157 0.704659 7.83113C0.742956 7.54442 1.16364 7.25121 1.96672 6.95149Z" fill="white"/>
</svg>
