<svg width="92" height="49" viewBox="0 0 92 49" fill="none" xmlns="http://www.w3.org/2000/svg">
<path opacity="0.84" d="M1.56813 45.3265C23.3726 54.8017 46.4522 30.8524 48.237 18.8389C48.5153 16.9655 48.4168 12.512 45.2154 12.9756C42.406 13.3824 38.5657 16.8189 38.0754 19.1788C36.7992 25.3208 37.3341 33.1812 46.6935 31.2099C56.8825 29.0639 68.2123 21.4324 76.352 15.1827C80.3002 12.1513 84.8281 8.26327 87.8034 4.47875C89.7784 1.96646 87.4585 3.59961 85.5367 4.51973C82.8033 5.82836 76.4918 8.85013 82.5432 5.95291C85.0021 4.77567 87.5396 3.17461 89.5006 1.60665C91.5972 -0.0697176 89.1018 3.89465 88.9481 4.48185C88.4634 6.33306 88.2154 9.07008 88.9941 10.6965" stroke="#EFC951" stroke-width="1.93008" stroke-linecap="round"/>
</svg>
