<svg width="18" height="18" viewBox="0 0 18 18" fill="none" xmlns="http://www.w3.org/2000/svg">
<path fill-rule="evenodd" clip-rule="evenodd" d="M14.7725 3.11291C13.2373 1.57761 11.1902 0.758789 9.04077 0.758789C4.53724 0.758789 0.852539 4.44349 0.852539 8.94702C0.852539 10.38 1.26196 11.8129 1.97843 13.0411L0.852539 17.1353L5.15138 16.0094C6.37961 16.6235 7.71019 17.0329 9.04077 17.0329C13.5443 17.0329 17.229 13.3482 17.229 8.84467C17.229 6.69526 16.3078 4.6482 14.7725 3.11291ZM9.04077 15.7023C7.81254 15.7023 6.58431 15.3953 5.56078 14.7811L5.35606 14.6788L2.79724 15.3953L3.51372 12.9388L3.309 12.6317C2.59253 11.5058 2.28547 10.2776 2.28547 9.04938C2.28547 5.36467 5.35607 2.29408 9.04077 2.29408C10.8831 2.29408 12.5208 3.01055 13.8514 4.23879C15.182 5.56938 15.7961 7.20702 15.7961 9.04938C15.7961 12.6317 12.8278 15.7023 9.04077 15.7023ZM12.7255 10.5847C12.5208 10.4823 11.4973 9.97055 11.2926 9.97055C11.0878 9.8682 10.9855 9.8682 10.8831 10.0729C10.7808 10.2776 10.3714 10.687 10.269 10.8917C10.1667 10.9941 10.0643 10.9941 9.85959 10.9941C9.65488 10.8917 9.04079 10.687 8.22196 9.97055C7.60785 9.45879 7.19843 8.74232 7.09607 8.53761C6.99372 8.33291 7.09608 8.23055 7.19843 8.1282C7.30079 8.02585 7.40313 7.92349 7.50548 7.82114C7.60783 7.71879 7.60785 7.61644 7.7102 7.51408C7.81255 7.41173 7.7102 7.30938 7.7102 7.20702C7.7102 7.10467 7.30078 6.08114 7.09607 5.67173C6.99372 5.36467 6.78902 5.36467 6.68667 5.36467C6.58432 5.36467 6.48194 5.36467 6.27723 5.36467C6.17488 5.36467 5.97017 5.36467 5.76547 5.56938C5.56076 5.77408 5.04902 6.28585 5.04902 7.30938C5.04902 8.33291 5.76547 9.25408 5.86783 9.45879C5.97018 9.56114 7.30076 11.7106 9.34782 12.5294C11.0878 13.2458 11.3949 13.0411 11.8043 13.0411C12.2137 13.0411 13.0325 12.5294 13.1349 12.12C13.3396 11.6082 13.3396 11.1988 13.2373 11.1988C13.1349 10.687 12.9302 10.687 12.7255 10.5847Z" fill="white"/>
</svg>
