<svg width="20" height="20" viewBox="0 0 20 20" fill="none" xmlns="http://www.w3.org/2000/svg">
<path d="M8.99122 1.23833C9.2307 0.501285 10.2734 0.501284 10.5129 1.23833L12.2666 6.6357C12.3737 6.96532 12.6809 7.18849 13.0275 7.18849H18.7026C19.4776 7.18849 19.7998 8.18018 19.1728 8.6357L14.5815 11.9715C14.3012 12.1752 14.1838 12.5363 14.2909 12.8659L16.0446 18.2633C16.2841 19.0003 15.4405 19.6132 14.8136 19.1577L10.2223 15.8219C9.9419 15.6182 9.56223 15.6182 9.28184 15.8219L4.69056 19.1577C4.06359 19.6132 3.22 19.0003 3.45949 18.2633L5.2132 12.8659C5.3203 12.5363 5.20297 12.1752 4.92258 11.9715L0.331305 8.6357C-0.295666 8.18018 0.0265545 7.18849 0.801533 7.18849H6.47666C6.82324 7.18849 7.13041 6.96532 7.23751 6.6357L8.99122 1.23833Z" fill="#EFC951"/>
</svg>
